<?xml version="1.0" encoding="utf-8" standalone="no"?>
<!DOCTYPE svg PUBLIC "-//W3C//DTD SVG 1.1//EN"
  "http://www.w3.org/Graphics/SVG/1.1/DTD/svg11.dtd">
<svg xmlns:xlink="http://www.w3.org/1999/xlink" width="504pt" height="360pt" viewBox="0 0 504 360" xmlns="http://www.w3.org/2000/svg" version="1.1">
 <metadata>
  <rdf:RDF xmlns:dc="http://purl.org/dc/elements/1.1/" xmlns:cc="http://creativecommons.org/ns#" xmlns:rdf="http://www.w3.org/1999/02/22-rdf-syntax-ns#">
   <cc:Work>
    <dc:type rdf:resource="http://purl.org/dc/dcmitype/StillImage"/>
    <dc:date>2024-10-01T21:55:39.021265</dc:date>
    <dc:format>image/svg+xml</dc:format>
    <dc:creator>
     <cc:Agent>
      <dc:title>Matplotlib v3.6.2, https://matplotlib.org/</dc:title>
     </cc:Agent>
    </dc:creator>
   </cc:Work>
  </rdf:RDF>
 </metadata>
 <defs>
  <style type="text/css">*{stroke-linejoin: round; stroke-linecap: butt}</style>
 </defs>
 <g id="figure_1">
  <g id="patch_1">
   <path d="M 0 360 
L 504 360 
L 504 0 
L 0 0 
z
" style="fill: #ffffff"/>
  </g>
  <g id="axes_1">
   <g id="patch_2">
    <path d="M 52.22 343.84 
L 493.2 343.84 
L 493.2 48.44 
L 52.22 48.44 
z
" style="fill: #ffffff"/>
   </g>
   <g id="patch_3">
    <path d="M 72.264545 48.44 
L 96.730425 48.44 
L 96.730425 200.828889 
L 72.264545 200.828889 
z
" clip-path="url(#p7cd1185be2)" style="fill: #e0218a"/>
   </g>
   <g id="patch_4">
    <path d="M 142.167058 48.44 
L 166.632937 48.44 
L 166.632937 207.945952 
L 142.167058 207.945952 
z
" clip-path="url(#p7cd1185be2)" style="fill: #e0218a"/>
   </g>
   <g id="patch_5">
    <path d="M 212.06957 48.44 
L 236.53545 48.44 
L 236.53545 255.253492 
L 212.06957 255.253492 
z
" clip-path="url(#p7cd1185be2)" style="fill: #e0218a"/>
   </g>
   <g id="patch_6">
    <path d="M 281.972083 48.44 
L 306.437962 48.44 
L 306.437962 269.487619 
L 281.972083 269.487619 
z
" clip-path="url(#p7cd1185be2)" style="fill: #e0218a"/>
   </g>
   <g id="patch_7">
    <path d="M 351.874595 48.44 
L 376.340475 48.44 
L 376.340475 329.773333 
L 351.874595 329.773333 
z
" clip-path="url(#p7cd1185be2)" style="fill: #e0218a"/>
   </g>
   <g id="patch_8">
    <path d="M 421.777108 48.44 
L 446.242987 48.44 
L 446.242987 307.16619 
L 421.777108 307.16619 
z
" clip-path="url(#p7cd1185be2)" style="fill: #e0218a"/>
   </g>
   <g id="patch_9">
    <path d="M 99.177013 48.44 
L 123.642892 48.44 
L 123.642892 144.729683 
L 99.177013 144.729683 
z
" clip-path="url(#p7cd1185be2)" style="fill: #477081"/>
   </g>
   <g id="patch_10">
    <path d="M 169.079525 48.44 
L 193.545405 48.44 
L 193.545405 179.477698 
L 169.079525 179.477698 
z
" clip-path="url(#p7cd1185be2)" style="fill: #477081"/>
   </g>
   <g id="patch_11">
    <path d="M 238.982038 48.44 
L 263.447917 48.44 
L 263.447917 185.75746 
L 238.982038 185.75746 
z
" clip-path="url(#p7cd1185be2)" style="fill: #477081"/>
   </g>
   <g id="patch_12">
    <path d="M 308.88455 48.44 
L 333.35043 48.44 
L 333.35043 227.62254 
L 308.88455 227.62254 
z
" clip-path="url(#p7cd1185be2)" style="fill: #477081"/>
   </g>
   <g id="patch_13">
    <path d="M 378.787063 48.44 
L 403.252942 48.44 
L 403.252942 248.97373 
L 378.787063 248.97373 
z
" clip-path="url(#p7cd1185be2)" style="fill: #477081"/>
   </g>
   <g id="patch_14">
    <path d="M 448.689575 48.44 
L 473.155455 48.44 
L 473.155455 274.930079 
L 448.689575 274.930079 
z
" clip-path="url(#p7cd1185be2)" style="fill: #477081"/>
   </g>
   <g id="matplotlib.axis_1">
    <g id="xtick_1">
     <g id="line2d_1">
      <defs>
       <path id="m2bf103fbda" d="M 0 0 
L 0 -3.5 
" style="stroke: #000000; stroke-width: 0.8"/>
      </defs>
      <g>
       <use xlink:href="#m2bf103fbda" x="96.730425" y="48.44" style="stroke: #000000; stroke-width: 0.8"/>
      </g>
     </g>
     <g id="text_1">
      <!-- PE -->
      <g transform="translate(89.065425 39.116875) scale(0.14 -0.14)">
       <defs>
        <path id="Ruda-Regular-50" d="M 672 0 
L 698 2061 
L 672 4448 
Q 672 4448 803 4461 
Q 934 4474 1152 4493 
Q 1370 4512 1629 4525 
Q 1888 4538 2144 4538 
Q 2714 4538 3027 4163 
Q 3341 3789 3341 3040 
Q 3341 2573 3229 2265 
Q 3117 1958 2925 1788 
Q 2733 1619 2496 1548 
Q 2259 1478 2010 1478 
Q 1811 1478 1568 1494 
Q 1325 1510 1210 1517 
L 1210 0 
L 672 0 
z
M 2048 1933 
Q 2253 1933 2381 1955 
Q 2509 1978 2586 2054 
Q 2694 2163 2732 2428 
Q 2771 2694 2771 3104 
Q 2771 3450 2736 3638 
Q 2701 3827 2653 3910 
Q 2605 3994 2554 4026 
Q 2490 4070 2346 4099 
Q 2202 4128 2016 4128 
Q 1766 4128 1545 4105 
Q 1325 4083 1210 4058 
L 1210 2010 
Q 1299 1997 1545 1965 
Q 1792 1933 2048 1933 
z
" transform="scale(0.015625)"/>
        <path id="Ruda-Regular-45" d="M 672 0 
L 672 4448 
L 2854 4448 
L 2854 3974 
L 966 3994 
L 1216 4237 
L 1171 2330 
L 934 2490 
L 2701 2490 
L 2701 2035 
L 934 2035 
L 1171 2221 
L 1216 218 
L 966 461 
L 2854 474 
L 2854 0 
L 672 0 
z
" transform="scale(0.015625)"/>
       </defs>
       <use xlink:href="#Ruda-Regular-50"/>
       <use xlink:href="#Ruda-Regular-45" x="58.099991"/>
      </g>
     </g>
    </g>
    <g id="xtick_2">
     <g id="line2d_2">
      <g>
       <use xlink:href="#m2bf103fbda" x="166.632937" y="48.44" style="stroke: #000000; stroke-width: 0.8"/>
      </g>
     </g>
     <g id="text_2">
      <!-- PVC -->
      <g transform="translate(154.944031 39.116875) scale(0.14 -0.14)">
       <defs>
        <path id="Ruda-Regular-56" d="M 1235 0 
L 32 4448 
L 582 4448 
L 1600 474 
L 1638 474 
L 2656 4448 
L 3206 4448 
L 2003 0 
L 1235 0 
z
" transform="scale(0.015625)"/>
        <path id="Ruda-Regular-43" d="M 1997 -90 
Q 1542 -90 1196 131 
Q 851 352 656 851 
Q 461 1350 461 2176 
Q 461 2906 585 3370 
Q 710 3834 931 4090 
Q 1152 4346 1453 4442 
Q 1754 4538 2106 4538 
Q 2259 4538 2470 4522 
Q 2682 4506 2880 4483 
Q 3078 4461 3181 4435 
L 3117 3974 
Q 3059 3981 2931 3993 
Q 2803 4006 2649 4019 
Q 2496 4032 2355 4041 
Q 2214 4051 2138 4051 
Q 1824 4051 1635 4019 
Q 1446 3987 1357 3878 
Q 1274 3776 1197 3577 
Q 1120 3379 1075 3036 
Q 1030 2694 1030 2157 
Q 1030 1478 1161 1072 
Q 1293 666 1421 538 
Q 1510 448 1638 413 
Q 1766 378 1926 378 
Q 2170 378 2397 429 
Q 2624 480 2800 550 
Q 2976 621 3078 672 
Q 3181 723 3181 723 
L 3366 301 
Q 3366 301 3267 243 
Q 3168 186 2989 106 
Q 2810 26 2557 -32 
Q 2304 -90 1997 -90 
z
" transform="scale(0.015625)"/>
       </defs>
       <use xlink:href="#Ruda-Regular-50"/>
       <use xlink:href="#Ruda-Regular-56" x="58.099991"/>
       <use xlink:href="#Ruda-Regular-43" x="108.699982"/>
      </g>
     </g>
    </g>
    <g id="xtick_3">
     <g id="line2d_3">
      <g>
       <use xlink:href="#m2bf103fbda" x="236.53545" y="48.44" style="stroke: #000000; stroke-width: 0.8"/>
      </g>
     </g>
     <g id="text_3">
      <!-- PP -->
      <g transform="translate(228.402325 39.116875) scale(0.14 -0.14)">
       <use xlink:href="#Ruda-Regular-50"/>
       <use xlink:href="#Ruda-Regular-50" x="58.099991"/>
      </g>
     </g>
    </g>
    <g id="xtick_4">
     <g id="line2d_4">
      <g>
       <use xlink:href="#m2bf103fbda" x="306.437962" y="48.44" style="stroke: #000000; stroke-width: 0.8"/>
      </g>
     </g>
     <g id="text_4">
      <!-- NY -->
      <g transform="translate(298.142962 39.116875) scale(0.14 -0.14)">
       <defs>
        <path id="Ruda-Regular-4e" d="M 672 0 
L 672 4448 
L 1395 4448 
L 3206 646 
L 3226 646 
L 3142 4448 
L 3680 4448 
L 3680 0 
L 2957 0 
L 1146 3802 
L 1126 3802 
L 1210 0 
L 672 0 
z
" transform="scale(0.015625)"/>
        <path id="Ruda-Regular-59" d="M 1344 0 
L 1363 1658 
L 102 4448 
L 685 4448 
L 1600 2221 
L 1638 2221 
L 2547 4448 
L 3130 4448 
L 1869 1658 
L 1888 0 
L 1344 0 
z
" transform="scale(0.015625)"/>
       </defs>
       <use xlink:href="#Ruda-Regular-4e"/>
       <use xlink:href="#Ruda-Regular-59" x="67.999985"/>
      </g>
     </g>
    </g>
    <g id="xtick_5">
     <g id="line2d_5">
      <g>
       <use xlink:href="#m2bf103fbda" x="376.340475" y="48.44" style="stroke: #000000; stroke-width: 0.8"/>
      </g>
     </g>
     <g id="text_5">
      <!-- PS -->
      <g transform="translate(368.69735 39.116875) scale(0.14 -0.14)">
       <defs>
        <path id="Ruda-Regular-53" d="M 1574 -90 
Q 1312 -90 1069 -29 
Q 826 32 637 115 
Q 448 198 339 259 
Q 230 320 230 320 
Q 230 320 259 387 
Q 288 454 326 540 
Q 365 627 393 691 
Q 422 755 422 755 
Q 422 755 528 700 
Q 634 646 813 579 
Q 992 512 1222 457 
Q 1453 403 1702 403 
Q 1862 403 1955 432 
Q 2048 461 2086 486 
Q 2214 576 2284 733 
Q 2355 890 2355 1139 
Q 2355 1382 2252 1542 
Q 2150 1702 1980 1811 
Q 1811 1920 1613 2003 
Q 1357 2112 1133 2221 
Q 909 2330 736 2470 
Q 563 2611 467 2825 
Q 371 3040 371 3360 
Q 371 3693 518 3958 
Q 666 4224 960 4381 
Q 1254 4538 1690 4538 
Q 1901 4538 2086 4515 
Q 2272 4493 2419 4467 
Q 2566 4442 2649 4419 
Q 2733 4397 2733 4397 
L 2643 3936 
Q 2643 3936 2553 3952 
Q 2464 3968 2310 3993 
Q 2157 4019 1965 4035 
Q 1773 4051 1574 4051 
Q 1414 4051 1321 4032 
Q 1229 4013 1158 3968 
Q 1075 3923 1001 3785 
Q 928 3648 928 3411 
Q 928 3149 1062 2982 
Q 1197 2816 1414 2710 
Q 1632 2605 1875 2502 
Q 2067 2426 2252 2326 
Q 2438 2227 2585 2086 
Q 2733 1946 2822 1731 
Q 2912 1517 2912 1210 
Q 2912 819 2742 528 
Q 2573 237 2272 73 
Q 1971 -90 1574 -90 
z
" transform="scale(0.015625)"/>
       </defs>
       <use xlink:href="#Ruda-Regular-50"/>
       <use xlink:href="#Ruda-Regular-53" x="58.099991"/>
      </g>
     </g>
    </g>
    <g id="xtick_6">
     <g id="line2d_6">
      <g>
       <use xlink:href="#m2bf103fbda" x="446.242987" y="48.44" style="stroke: #000000; stroke-width: 0.8"/>
      </g>
     </g>
     <g id="text_6">
      <!-- PET -->
      <g transform="translate(435.25955 39.116875) scale(0.14 -0.14)">
       <defs>
        <path id="Ruda-Regular-54" d="M 1248 0 
L 1261 3994 
L 13 3974 
L 13 4448 
L 3021 4448 
L 3021 3974 
L 1773 3994 
L 1786 0 
L 1248 0 
z
" transform="scale(0.015625)"/>
       </defs>
       <use xlink:href="#Ruda-Regular-50"/>
       <use xlink:href="#Ruda-Regular-45" x="58.099991"/>
       <use xlink:href="#Ruda-Regular-54" x="109.499985"/>
      </g>
     </g>
    </g>
    <g id="text_7">
     <!-- Plastic -->
     <g transform="translate(244.683437 24.575312) scale(0.18 -0.18)">
      <defs>
       <path id="Ruda-Regular-6c" d="M 678 0 
L 678 4819 
L 1210 4819 
L 1210 0 
L 678 0 
z
" transform="scale(0.015625)"/>
       <path id="Ruda-Regular-61" d="M 1350 -83 
Q 1056 -83 829 54 
Q 602 192 474 457 
Q 346 723 346 1101 
Q 346 1555 528 1814 
Q 710 2074 1043 2182 
Q 1376 2291 1818 2291 
L 2496 2291 
Q 2496 2611 2480 2851 
Q 2464 3091 2374 3206 
Q 2310 3296 2198 3321 
Q 2086 3347 1965 3347 
Q 1715 3347 1475 3299 
Q 1235 3251 1040 3187 
Q 845 3123 729 3075 
Q 614 3027 614 3027 
L 429 3443 
Q 429 3443 550 3497 
Q 672 3552 877 3625 
Q 1082 3699 1334 3753 
Q 1587 3808 1856 3808 
Q 2291 3808 2547 3638 
Q 2803 3469 2915 3165 
Q 3027 2861 3027 2451 
L 3027 0 
L 2682 0 
L 2605 390 
L 2566 390 
Q 2502 346 2384 266 
Q 2266 186 2109 106 
Q 1952 26 1760 -28 
Q 1568 -83 1350 -83 
z
M 1440 384 
Q 1670 384 1878 451 
Q 2086 518 2249 601 
Q 2413 685 2496 736 
L 2496 1798 
Q 2413 1811 2246 1827 
Q 2080 1843 1811 1843 
Q 1216 1843 1075 1722 
Q 992 1658 947 1494 
Q 902 1331 902 1101 
Q 902 723 1027 553 
Q 1152 384 1440 384 
z
" transform="scale(0.015625)"/>
       <path id="Ruda-Regular-73" d="M 1568 -83 
Q 1331 -83 1113 -35 
Q 896 13 723 73 
Q 550 134 451 179 
Q 352 224 352 224 
L 486 678 
Q 486 678 585 633 
Q 685 589 851 528 
Q 1018 467 1229 422 
Q 1440 378 1664 378 
Q 1792 378 1901 400 
Q 2010 422 2074 480 
Q 2144 544 2201 672 
Q 2259 800 2259 979 
Q 2259 1248 2131 1389 
Q 2003 1530 1798 1606 
Q 1594 1683 1363 1747 
Q 1178 1798 998 1862 
Q 819 1926 675 2035 
Q 531 2144 444 2326 
Q 358 2509 358 2797 
Q 358 3251 636 3529 
Q 915 3808 1574 3808 
Q 1798 3808 2003 3779 
Q 2208 3750 2365 3715 
Q 2522 3680 2598 3654 
L 2515 3206 
Q 2515 3206 2428 3228 
Q 2342 3251 2195 3276 
Q 2048 3302 1862 3324 
Q 1677 3347 1472 3347 
Q 1280 3347 1165 3324 
Q 1050 3302 992 3258 
Q 934 3213 896 3113 
Q 858 3014 858 2880 
Q 858 2611 1008 2476 
Q 1158 2342 1392 2272 
Q 1626 2202 1875 2125 
Q 2048 2074 2208 2003 
Q 2368 1933 2499 1817 
Q 2630 1702 2704 1523 
Q 2778 1344 2778 1082 
Q 2778 563 2467 240 
Q 2157 -83 1568 -83 
z
" transform="scale(0.015625)"/>
       <path id="Ruda-Regular-74" d="M 1619 -90 
Q 1344 -90 1139 3 
Q 934 96 822 361 
Q 710 627 710 1152 
L 710 3091 
L 288 3091 
L 288 3424 
L 730 3514 
L 870 4384 
L 1242 4384 
L 1242 3507 
L 1984 3507 
L 1984 3078 
L 1242 3078 
L 1242 1114 
Q 1242 762 1261 602 
Q 1280 442 1360 400 
Q 1440 358 1632 358 
Q 1734 358 1811 361 
Q 1888 365 1933 368 
Q 1978 371 1978 371 
L 1978 -58 
Q 1978 -58 1882 -74 
Q 1786 -90 1619 -90 
z
" transform="scale(0.015625)"/>
       <path id="Ruda-Regular-69" d="M 678 0 
L 678 3725 
L 1210 3725 
L 1210 0 
L 678 0 
z
M 621 4358 
L 621 4902 
L 1274 4902 
L 1274 4358 
L 621 4358 
z
" transform="scale(0.015625)"/>
       <path id="Ruda-Regular-63" d="M 1920 -83 
Q 1485 -83 1152 115 
Q 819 314 633 746 
Q 448 1178 448 1875 
Q 448 2445 573 2822 
Q 698 3200 915 3414 
Q 1133 3629 1427 3718 
Q 1722 3808 2054 3808 
Q 2298 3808 2550 3776 
Q 2803 3744 2963 3706 
L 2899 3258 
Q 2778 3270 2515 3305 
Q 2253 3341 1952 3341 
Q 1715 3341 1552 3302 
Q 1389 3264 1299 3174 
Q 1178 3040 1091 2685 
Q 1005 2330 1005 1837 
Q 1005 1382 1075 1104 
Q 1146 826 1242 682 
Q 1338 538 1414 480 
Q 1466 442 1552 410 
Q 1638 378 1798 378 
Q 1984 378 2176 422 
Q 2368 467 2528 524 
Q 2688 582 2787 627 
Q 2886 672 2886 672 
L 3053 256 
Q 3053 256 2912 173 
Q 2771 90 2515 3 
Q 2259 -83 1920 -83 
z
" transform="scale(0.015625)"/>
      </defs>
      <use xlink:href="#Ruda-Regular-50"/>
      <use xlink:href="#Ruda-Regular-6c" x="58.099991"/>
      <use xlink:href="#Ruda-Regular-61" x="87.599976"/>
      <use xlink:href="#Ruda-Regular-73" x="144.499969"/>
      <use xlink:href="#Ruda-Regular-74" x="193.699966"/>
      <use xlink:href="#Ruda-Regular-69" x="230.09996"/>
      <use xlink:href="#Ruda-Regular-63" x="259.599945"/>
     </g>
    </g>
   </g>
   <g id="matplotlib.axis_2">
    <g id="ytick_1">
     <g id="line2d_7">
      <defs>
       <path id="m8a60e0a003" d="M 0 0 
L -3.5 0 
" style="stroke: #000000; stroke-width: 0.8"/>
      </defs>
      <g>
       <use xlink:href="#m8a60e0a003" x="52.22" y="341.495556" style="stroke: #000000; stroke-width: 0.8"/>
      </g>
     </g>
     <g id="text_8">
      <!-- −7 -->
      <g transform="translate(30.226875 346.766337) scale(0.14 -0.14)">
       <defs>
        <path id="Ruda-Regular-2212" d="M 333 1651 
L 333 2099 
L 3629 2099 
L 3629 1651 
L 333 1651 
z
" transform="scale(0.015625)"/>
        <path id="Ruda-Regular-37" d="M 1050 -45 
L 480 6 
L 2323 3962 
L 2323 4000 
L 154 3962 
L 154 4448 
L 2867 4448 
L 2867 4096 
L 1050 -45 
z
" transform="scale(0.015625)"/>
       </defs>
       <use xlink:href="#Ruda-Regular-2212"/>
       <use xlink:href="#Ruda-Regular-37" x="59.999985"/>
      </g>
     </g>
    </g>
    <g id="ytick_2">
     <g id="line2d_8">
      <g>
       <use xlink:href="#m8a60e0a003" x="52.22" y="299.630476" style="stroke: #000000; stroke-width: 0.8"/>
      </g>
     </g>
     <g id="text_9">
      <!-- −6 -->
      <g transform="translate(29.091563 304.901257) scale(0.14 -0.14)">
       <defs>
        <path id="Ruda-Regular-36" d="M 1798 -83 
Q 1357 -83 1040 125 
Q 723 333 553 816 
Q 384 1299 384 2112 
Q 384 2842 515 3312 
Q 646 3782 873 4051 
Q 1101 4320 1401 4425 
Q 1702 4531 2035 4531 
Q 2304 4531 2502 4489 
Q 2701 4448 2813 4406 
Q 2925 4365 2925 4365 
L 2803 3910 
Q 2803 3910 2726 3929 
Q 2650 3949 2525 3977 
Q 2400 4006 2243 4025 
Q 2086 4045 1926 4045 
Q 1696 4045 1549 3993 
Q 1402 3942 1293 3834 
Q 1158 3693 1072 3411 
Q 986 3130 960 2618 
Q 960 2618 1059 2630 
Q 1158 2643 1315 2652 
Q 1472 2662 1638 2662 
Q 2099 2662 2438 2537 
Q 2778 2413 2963 2125 
Q 3149 1837 3149 1344 
Q 3149 653 2787 285 
Q 2426 -83 1798 -83 
z
M 1837 371 
Q 2285 371 2451 585 
Q 2618 800 2618 1325 
Q 2618 1651 2550 1843 
Q 2483 2035 2297 2118 
Q 2112 2202 1766 2202 
Q 1549 2202 1363 2179 
Q 1178 2157 1062 2134 
Q 947 2112 947 2112 
L 947 1600 
Q 947 1242 995 1024 
Q 1043 806 1107 700 
Q 1171 595 1210 550 
Q 1274 493 1414 432 
Q 1555 371 1837 371 
z
" transform="scale(0.015625)"/>
       </defs>
       <use xlink:href="#Ruda-Regular-2212"/>
       <use xlink:href="#Ruda-Regular-36" x="59.999985"/>
      </g>
     </g>
    </g>
    <g id="ytick_3">
     <g id="line2d_9">
      <g>
       <use xlink:href="#m8a60e0a003" x="52.22" y="257.765397" style="stroke: #000000; stroke-width: 0.8"/>
      </g>
     </g>
     <g id="text_10">
      <!-- −5 -->
      <g transform="translate(29.693125 263.036178) scale(0.14 -0.14)">
       <defs>
        <path id="Ruda-Regular-35" d="M 1555 -83 
Q 1261 -83 1008 -12 
Q 755 58 566 150 
Q 378 243 275 313 
Q 173 384 173 384 
L 378 787 
Q 378 787 490 729 
Q 602 672 784 592 
Q 966 512 1190 454 
Q 1414 397 1638 397 
Q 1939 397 2086 493 
Q 2208 576 2269 806 
Q 2330 1037 2330 1261 
Q 2330 1466 2282 1677 
Q 2234 1888 2144 1971 
Q 2042 2080 1728 2121 
Q 1414 2163 986 2163 
Q 845 2163 729 2160 
Q 614 2157 547 2153 
Q 480 2150 480 2150 
L 806 4448 
L 2694 4448 
L 2694 3981 
L 1254 4006 
L 1069 2643 
Q 1459 2624 1792 2566 
Q 2125 2509 2371 2368 
Q 2618 2227 2755 1974 
Q 2893 1722 2893 1312 
Q 2893 653 2534 285 
Q 2176 -83 1555 -83 
z
" transform="scale(0.015625)"/>
       </defs>
       <use xlink:href="#Ruda-Regular-2212"/>
       <use xlink:href="#Ruda-Regular-35" x="59.999985"/>
      </g>
     </g>
    </g>
    <g id="ytick_4">
     <g id="line2d_10">
      <g>
       <use xlink:href="#m8a60e0a003" x="52.22" y="215.900317" style="stroke: #000000; stroke-width: 0.8"/>
      </g>
     </g>
     <g id="text_11">
      <!-- −4 -->
      <g transform="translate(29.301563 221.171099) scale(0.14 -0.14)">
       <defs>
        <path id="Ruda-Regular-34" d="M 2176 0 
L 2195 1037 
L 186 1037 
L 186 1440 
L 1197 4518 
L 1722 4448 
L 755 1517 
L 755 1485 
L 2195 1510 
L 2317 3232 
L 2714 3232 
L 2714 1510 
L 3123 1523 
L 3123 1037 
L 2714 1037 
L 2720 0 
L 2176 0 
z
" transform="scale(0.015625)"/>
       </defs>
       <use xlink:href="#Ruda-Regular-2212"/>
       <use xlink:href="#Ruda-Regular-34" x="59.999985"/>
      </g>
     </g>
    </g>
    <g id="ytick_5">
     <g id="line2d_11">
      <g>
       <use xlink:href="#m8a60e0a003" x="52.22" y="174.035238" style="stroke: #000000; stroke-width: 0.8"/>
      </g>
     </g>
     <g id="text_12">
      <!-- −3 -->
      <g transform="translate(29.19 179.306019) scale(0.14 -0.14)">
       <defs>
        <path id="Ruda-Regular-33" d="M 1613 -83 
Q 1331 -83 1097 -35 
Q 864 13 685 80 
Q 506 147 390 208 
Q 275 269 230 294 
L 435 704 
Q 480 685 601 633 
Q 723 582 899 528 
Q 1075 474 1280 435 
Q 1485 397 1696 397 
Q 2093 397 2237 592 
Q 2381 787 2381 1197 
Q 2381 1734 2169 1939 
Q 1958 2144 1510 2144 
L 915 2144 
L 915 2566 
Q 1306 2598 1568 2630 
Q 1830 2662 1984 2732 
Q 2138 2803 2202 2947 
Q 2266 3091 2266 3341 
Q 2266 3546 2230 3690 
Q 2195 3834 2131 3898 
Q 2048 3994 1862 4032 
Q 1677 4070 1408 4070 
Q 1293 4070 1181 4064 
Q 1069 4058 918 4042 
Q 768 4026 531 3994 
L 467 4429 
Q 582 4461 752 4483 
Q 922 4506 1110 4518 
Q 1299 4531 1453 4531 
Q 1843 4531 2150 4428 
Q 2458 4326 2637 4083 
Q 2816 3840 2816 3411 
Q 2816 3098 2726 2902 
Q 2637 2707 2512 2601 
Q 2387 2496 2272 2454 
Q 2157 2413 2099 2400 
L 2099 2374 
Q 2227 2355 2371 2297 
Q 2515 2240 2649 2115 
Q 2784 1990 2867 1779 
Q 2950 1568 2950 1242 
Q 2950 883 2822 582 
Q 2694 282 2400 99 
Q 2106 -83 1613 -83 
z
" transform="scale(0.015625)"/>
       </defs>
       <use xlink:href="#Ruda-Regular-2212"/>
       <use xlink:href="#Ruda-Regular-33" x="59.999985"/>
      </g>
     </g>
    </g>
    <g id="ytick_6">
     <g id="line2d_12">
      <g>
       <use xlink:href="#m8a60e0a003" x="52.22" y="132.170159" style="stroke: #000000; stroke-width: 0.8"/>
      </g>
     </g>
     <g id="text_13">
      <!-- −2 -->
      <g transform="translate(29.26 137.44094) scale(0.14 -0.14)">
       <defs>
        <path id="Ruda-Regular-32" d="M 358 0 
L 358 416 
Q 358 416 652 761 
Q 947 1107 1510 1824 
Q 1914 2336 2170 2736 
Q 2426 3136 2426 3507 
Q 2426 3750 2294 3900 
Q 2163 4051 1837 4051 
Q 1632 4051 1405 3990 
Q 1178 3930 957 3834 
Q 736 3738 550 3616 
L 326 4019 
Q 429 4109 637 4230 
Q 845 4352 1126 4441 
Q 1408 4531 1715 4531 
Q 2074 4531 2352 4396 
Q 2630 4262 2790 4019 
Q 2950 3776 2950 3450 
Q 2950 3174 2838 2896 
Q 2726 2618 2556 2352 
Q 2387 2086 2202 1843 
Q 2131 1747 2003 1584 
Q 1875 1421 1728 1229 
Q 1581 1037 1446 867 
Q 1312 698 1225 589 
Q 1139 480 1139 480 
L 1139 448 
L 3046 480 
L 3046 0 
L 358 0 
z
" transform="scale(0.015625)"/>
       </defs>
       <use xlink:href="#Ruda-Regular-2212"/>
       <use xlink:href="#Ruda-Regular-32" x="59.999985"/>
      </g>
     </g>
    </g>
    <g id="ytick_7">
     <g id="line2d_13">
      <g>
       <use xlink:href="#m8a60e0a003" x="52.22" y="90.305079" style="stroke: #000000; stroke-width: 0.8"/>
      </g>
     </g>
     <g id="text_14">
      <!-- −1 -->
      <g transform="translate(29.721563 95.575861) scale(0.14 -0.14)">
       <defs>
        <path id="Ruda-Regular-31" d="M 493 0 
L 493 461 
L 1562 448 
L 1606 3962 
L 1574 3962 
L 634 2970 
L 275 3315 
L 1530 4493 
L 2106 4448 
L 2106 448 
L 3046 461 
L 3046 0 
L 493 0 
z
" transform="scale(0.015625)"/>
       </defs>
       <use xlink:href="#Ruda-Regular-2212"/>
       <use xlink:href="#Ruda-Regular-31" x="59.999985"/>
      </g>
     </g>
    </g>
    <g id="ytick_8">
     <g id="line2d_14">
      <g>
       <use xlink:href="#m8a60e0a003" x="52.22" y="48.44" style="stroke: #000000; stroke-width: 0.8"/>
      </g>
     </g>
     <g id="text_15">
      <!-- 0 -->
      <g transform="translate(37.211563 53.710781) scale(0.14 -0.14)">
       <defs>
        <path id="Ruda-Regular-30" d="M 1830 -83 
Q 1523 -83 1260 19 
Q 998 122 803 374 
Q 608 627 496 1078 
Q 384 1530 384 2234 
Q 384 2931 496 3379 
Q 608 3827 803 4080 
Q 998 4333 1260 4432 
Q 1523 4531 1830 4531 
Q 2138 4531 2400 4432 
Q 2662 4333 2860 4080 
Q 3059 3827 3168 3379 
Q 3277 2931 3277 2234 
Q 3277 1530 3168 1078 
Q 3059 627 2860 374 
Q 2662 122 2400 19 
Q 2138 -83 1830 -83 
z
M 1837 403 
Q 2131 403 2326 553 
Q 2522 704 2624 1101 
Q 2726 1498 2726 2234 
Q 2726 2803 2665 3161 
Q 2605 3520 2489 3712 
Q 2374 3904 2208 3977 
Q 2042 4051 1830 4051 
Q 1619 4051 1452 3980 
Q 1286 3910 1171 3718 
Q 1056 3526 998 3171 
Q 941 2816 941 2246 
Q 941 1510 1040 1110 
Q 1139 710 1340 556 
Q 1542 403 1837 403 
z
" transform="scale(0.015625)"/>
       </defs>
       <use xlink:href="#Ruda-Regular-30"/>
      </g>
     </g>
    </g>
    <g id="text_16">
     <!-- Dissociation Constant (kcal/mol) -->
     <g transform="translate(22.436563 316.8425) rotate(-90) scale(0.16 -0.16)">
      <defs>
       <path id="Ruda-Regular-44" d="M 1933 -90 
Q 1805 -90 1616 -80 
Q 1427 -70 1232 -54 
Q 1037 -38 883 -25 
Q 730 -13 672 -6 
L 672 4454 
Q 698 4454 838 4467 
Q 979 4480 1184 4496 
Q 1389 4512 1609 4525 
Q 1830 4538 2003 4538 
Q 2496 4538 2806 4355 
Q 3117 4173 3283 3856 
Q 3450 3539 3514 3132 
Q 3578 2726 3578 2278 
Q 3578 1395 3363 876 
Q 3149 358 2777 134 
Q 2406 -90 1933 -90 
z
M 1862 378 
Q 2208 378 2374 426 
Q 2541 474 2624 557 
Q 2714 646 2794 838 
Q 2874 1030 2925 1388 
Q 2976 1747 2976 2323 
Q 2976 2906 2896 3347 
Q 2816 3789 2637 3942 
Q 2573 4000 2435 4035 
Q 2298 4070 2016 4070 
Q 1760 4070 1523 4048 
Q 1286 4026 1114 4013 
L 1210 4269 
L 1210 198 
L 1094 461 
Q 1280 435 1459 406 
Q 1638 378 1862 378 
z
" transform="scale(0.015625)"/>
       <path id="Ruda-Regular-6f" d="M 1843 -83 
Q 1312 -83 1008 153 
Q 704 390 576 825 
Q 448 1261 448 1862 
Q 448 2464 576 2899 
Q 704 3334 1008 3571 
Q 1312 3808 1843 3808 
Q 2374 3808 2678 3571 
Q 2982 3334 3110 2899 
Q 3238 2464 3238 1862 
Q 3238 1261 3110 825 
Q 2982 390 2678 153 
Q 2374 -83 1843 -83 
z
M 1843 378 
Q 2086 378 2249 435 
Q 2413 493 2512 646 
Q 2611 800 2652 1094 
Q 2694 1389 2694 1862 
Q 2694 2336 2652 2630 
Q 2611 2925 2512 3081 
Q 2413 3238 2249 3292 
Q 2086 3347 1843 3347 
Q 1600 3347 1437 3292 
Q 1274 3238 1174 3081 
Q 1075 2925 1030 2630 
Q 986 2336 986 1862 
Q 986 1389 1030 1094 
Q 1075 800 1174 646 
Q 1274 493 1437 435 
Q 1600 378 1843 378 
z
" transform="scale(0.015625)"/>
       <path id="Ruda-Regular-6e" d="M 646 0 
L 646 3725 
L 1005 3725 
L 1062 3360 
L 1094 3360 
Q 1152 3392 1286 3465 
Q 1421 3539 1606 3619 
Q 1792 3699 2003 3753 
Q 2214 3808 2426 3808 
Q 2778 3808 2963 3632 
Q 3149 3456 3216 3155 
Q 3283 2854 3283 2477 
L 3283 0 
L 2752 0 
L 2752 2291 
Q 2752 2669 2739 2867 
Q 2726 3066 2656 3168 
Q 2605 3251 2509 3276 
Q 2413 3302 2304 3302 
Q 2074 3302 1834 3228 
Q 1594 3155 1414 3075 
Q 1235 2995 1178 2963 
L 1178 0 
L 646 0 
z
" transform="scale(0.015625)"/>
       <path id="Ruda-Regular-20" transform="scale(0.015625)"/>
       <path id="Ruda-Regular-28" d="M 1581 -794 
Q 1286 -614 1024 -265 
Q 762 83 602 662 
Q 442 1242 442 2106 
Q 442 2982 602 3561 
Q 762 4141 1024 4486 
Q 1286 4832 1581 5011 
L 1824 4672 
Q 1370 4384 1178 3721 
Q 986 3059 986 2106 
Q 986 1165 1178 499 
Q 1370 -166 1824 -461 
L 1581 -794 
z
" transform="scale(0.015625)"/>
       <path id="Ruda-Regular-6b" d="M 2707 0 
L 1114 2010 
L 2598 3725 
L 3283 3725 
L 1722 2048 
L 1722 2016 
L 3398 0 
L 2707 0 
z
M 576 0 
L 608 2054 
L 576 4819 
L 1107 4819 
L 1107 0 
L 576 0 
z
" transform="scale(0.015625)"/>
       <path id="Ruda-Regular-2f" d="M 26 -627 
L 1114 2042 
L 2042 4448 
L 2611 4448 
L 1549 1843 
L 589 -627 
L 26 -627 
z
" transform="scale(0.015625)"/>
       <path id="Ruda-Regular-6d" d="M 646 0 
L 646 3725 
L 1005 3725 
L 1062 3360 
L 1088 3360 
Q 1146 3392 1280 3465 
Q 1414 3539 1593 3619 
Q 1773 3699 1971 3753 
Q 2170 3808 2362 3808 
Q 2637 3808 2838 3680 
Q 3040 3552 3123 3328 
Q 3392 3494 3721 3651 
Q 4051 3808 4422 3808 
Q 4768 3808 4960 3641 
Q 5152 3475 5229 3171 
Q 5306 2867 5306 2451 
L 5306 0 
L 4774 0 
L 4774 2272 
Q 4774 2573 4761 2809 
Q 4749 3046 4678 3155 
Q 4614 3258 4502 3280 
Q 4390 3302 4320 3302 
Q 4147 3302 3964 3254 
Q 3782 3206 3622 3139 
Q 3462 3072 3356 3014 
Q 3251 2957 3219 2938 
Q 3232 2835 3238 2720 
Q 3245 2605 3245 2477 
L 3245 0 
L 2714 0 
L 2714 2291 
Q 2714 2656 2698 2854 
Q 2682 3053 2611 3162 
Q 2547 3251 2451 3276 
Q 2355 3302 2266 3302 
Q 2048 3302 1830 3235 
Q 1613 3168 1440 3088 
Q 1267 3008 1178 2970 
L 1178 0 
L 646 0 
z
" transform="scale(0.015625)"/>
       <path id="Ruda-Regular-29" d="M 435 -794 
L 198 -461 
Q 653 -166 845 499 
Q 1037 1165 1037 2106 
Q 1037 3059 845 3721 
Q 653 4384 198 4672 
L 435 5011 
Q 736 4832 998 4486 
Q 1261 4141 1421 3561 
Q 1581 2982 1581 2106 
Q 1581 1242 1421 662 
Q 1261 83 998 -265 
Q 736 -614 435 -794 
z
" transform="scale(0.015625)"/>
      </defs>
      <use xlink:href="#Ruda-Regular-44"/>
      <use xlink:href="#Ruda-Regular-69" x="63.099991"/>
      <use xlink:href="#Ruda-Regular-73" x="92.599976"/>
      <use xlink:href="#Ruda-Regular-73" x="141.799973"/>
      <use xlink:href="#Ruda-Regular-6f" x="190.999969"/>
      <use xlink:href="#Ruda-Regular-63" x="248.59996"/>
      <use xlink:href="#Ruda-Regular-69" x="300.399948"/>
      <use xlink:href="#Ruda-Regular-61" x="329.899933"/>
      <use xlink:href="#Ruda-Regular-74" x="386.799927"/>
      <use xlink:href="#Ruda-Regular-69" x="423.199921"/>
      <use xlink:href="#Ruda-Regular-6f" x="452.699905"/>
      <use xlink:href="#Ruda-Regular-6e" x="510.299896"/>
      <use xlink:href="#Ruda-Regular-20" x="570.399887"/>
      <use xlink:href="#Ruda-Regular-43" x="594.399872"/>
      <use xlink:href="#Ruda-Regular-6f" x="652.69986"/>
      <use xlink:href="#Ruda-Regular-6e" x="710.29985"/>
      <use xlink:href="#Ruda-Regular-73" x="770.399841"/>
      <use xlink:href="#Ruda-Regular-74" x="819.599838"/>
      <use xlink:href="#Ruda-Regular-61" x="855.999832"/>
      <use xlink:href="#Ruda-Regular-6e" x="912.899826"/>
      <use xlink:href="#Ruda-Regular-74" x="972.999817"/>
      <use xlink:href="#Ruda-Regular-20" x="1009.399811"/>
      <use xlink:href="#Ruda-Regular-28" x="1033.399796"/>
      <use xlink:href="#Ruda-Regular-6b" x="1064.999786"/>
      <use xlink:href="#Ruda-Regular-63" x="1117.199783"/>
      <use xlink:href="#Ruda-Regular-61" x="1168.999771"/>
      <use xlink:href="#Ruda-Regular-6c" x="1225.899765"/>
      <use xlink:href="#Ruda-Regular-2f" x="1255.39975"/>
      <use xlink:href="#Ruda-Regular-6d" x="1298.399734"/>
      <use xlink:href="#Ruda-Regular-6f" x="1390.099716"/>
      <use xlink:href="#Ruda-Regular-6c" x="1447.699707"/>
      <use xlink:href="#Ruda-Regular-29" x="1477.199692"/>
     </g>
    </g>
   </g>
   <g id="patch_15">
    <path d="M 52.22 343.84 
L 52.22 48.44 
" style="fill: none; stroke: #000000; stroke-width: 0.8; stroke-linejoin: miter; stroke-linecap: square"/>
   </g>
   <g id="patch_16">
    <path d="M 493.2 343.84 
L 493.2 48.44 
" style="fill: none; stroke: #000000; stroke-width: 0.8; stroke-linejoin: miter; stroke-linecap: square"/>
   </g>
   <g id="patch_17">
    <path d="M 52.22 343.84 
L 493.2 343.84 
" style="fill: none; stroke: #000000; stroke-width: 0.8; stroke-linejoin: miter; stroke-linecap: square"/>
   </g>
   <g id="patch_18">
    <path d="M 52.22 48.44 
L 493.2 48.44 
" style="fill: none; stroke: #000000; stroke-width: 0.8; stroke-linejoin: miter; stroke-linecap: square"/>
   </g>
   <g id="legend_1">
    <g id="patch_19">
     <path d="M 64.82 334.84 
L 189.635938 334.84 
Q 193.235938 334.84 193.235938 331.24 
L 193.235938 281.959375 
Q 193.235938 278.359375 189.635938 278.359375 
L 64.82 278.359375 
Q 61.22 278.359375 61.22 281.959375 
L 61.22 331.24 
Q 61.22 334.84 64.82 334.84 
z
" style="fill: #ffffff; opacity: 0.8; stroke: #cccccc; stroke-linejoin: miter"/>
    </g>
    <g id="patch_20">
     <path d="M 68.42 299.112813 
L 104.42 299.112813 
L 104.42 286.512812 
L 68.42 286.512812 
z
" style="fill: #e0218a"/>
    </g>
    <g id="text_17">
     <!-- BARBIE1 -->
     <g transform="translate(118.82 299.112813) scale(0.18 -0.18)">
      <defs>
       <path id="Ruda-Regular-42" d="M 2067 -90 
Q 1830 -90 1590 -74 
Q 1350 -58 1152 -35 
Q 954 -13 826 3 
Q 698 19 678 26 
L 704 2067 
L 672 4461 
Q 698 4461 826 4473 
Q 954 4486 1152 4502 
Q 1350 4518 1577 4528 
Q 1805 4538 2022 4538 
Q 2374 4538 2656 4429 
Q 2938 4320 3107 4061 
Q 3277 3802 3277 3347 
Q 3277 2995 3171 2790 
Q 3066 2586 2922 2486 
Q 2778 2387 2659 2355 
Q 2541 2323 2522 2323 
L 2560 2573 
L 2560 2067 
L 2490 2310 
Q 2566 2310 2716 2275 
Q 2867 2240 3020 2137 
Q 3174 2035 3283 1833 
Q 3392 1632 3392 1299 
Q 3392 883 3280 611 
Q 3168 339 2976 185 
Q 2784 32 2550 -29 
Q 2317 -90 2067 -90 
z
M 2138 326 
Q 2554 326 2688 556 
Q 2822 787 2822 1267 
Q 2822 1747 2601 1926 
Q 2381 2106 1997 2106 
L 966 2106 
L 1210 2240 
L 1222 154 
L 1210 390 
Q 1242 390 1370 374 
Q 1498 358 1696 342 
Q 1894 326 2138 326 
z
M 2048 2522 
Q 2445 2522 2582 2710 
Q 2720 2899 2720 3328 
Q 2720 3782 2553 3961 
Q 2387 4141 1997 4141 
Q 1773 4141 1593 4128 
Q 1414 4115 1299 4102 
Q 1184 4090 1152 4083 
L 1210 4333 
L 1210 2374 
L 966 2528 
L 2048 2522 
z
" transform="scale(0.015625)"/>
       <path id="Ruda-Regular-41" d="M 32 0 
L 1242 4448 
L 1997 4448 
L 3206 0 
L 2656 0 
L 2317 1331 
L 2586 1178 
L 666 1178 
L 922 1331 
L 582 0 
L 32 0 
z
M 934 1402 
L 755 1651 
L 2483 1651 
L 2304 1402 
L 1581 4211 
L 1882 3974 
L 1357 3974 
L 1658 4211 
L 934 1402 
z
" transform="scale(0.015625)"/>
       <path id="Ruda-Regular-52" d="M 672 0 
L 704 2106 
L 685 4448 
Q 755 4461 915 4473 
Q 1075 4486 1280 4499 
Q 1485 4512 1699 4521 
Q 1914 4531 2099 4531 
Q 2534 4531 2854 4396 
Q 3174 4262 3347 3958 
Q 3520 3654 3520 3149 
Q 3520 2592 3277 2265 
Q 3034 1939 2573 1830 
L 2573 1811 
L 3578 0 
L 2944 0 
L 2048 1766 
L 1216 1798 
L 1216 0 
L 672 0 
z
M 2163 2214 
Q 2637 2214 2793 2441 
Q 2950 2669 2950 3155 
Q 2950 3552 2883 3760 
Q 2816 3968 2701 4032 
Q 2630 4077 2486 4099 
Q 2342 4122 2176 4122 
Q 1914 4122 1642 4096 
Q 1370 4070 1222 4051 
L 1210 2278 
Q 1434 2253 1686 2233 
Q 1939 2214 2163 2214 
z
" transform="scale(0.015625)"/>
       <path id="Ruda-Regular-49" d="M 672 -6 
L 691 2035 
L 672 4448 
L 1216 4448 
L 1190 2483 
L 1216 0 
L 672 -6 
z
" transform="scale(0.015625)"/>
      </defs>
      <use xlink:href="#Ruda-Regular-42"/>
      <use xlink:href="#Ruda-Regular-41" x="61.399994"/>
      <use xlink:href="#Ruda-Regular-52" x="111.999985"/>
      <use xlink:href="#Ruda-Regular-42" x="175.499969"/>
      <use xlink:href="#Ruda-Regular-49" x="236.899963"/>
      <use xlink:href="#Ruda-Regular-45" x="266.399948"/>
      <use xlink:href="#Ruda-Regular-31" x="317.799942"/>
     </g>
    </g>
    <g id="patch_21">
     <path d="M 68.42 324.653125 
L 104.42 324.653125 
L 104.42 312.053125 
L 68.42 312.053125 
z
" style="fill: #477081"/>
    </g>
    <g id="text_18">
     <!-- BaCBM2 -->
     <g transform="translate(118.82 324.653125) scale(0.18 -0.18)">
      <defs>
       <path id="Ruda-Regular-4d" d="M 640 0 
L 794 4448 
L 1574 4448 
L 2579 1549 
L 2624 1549 
L 3635 4448 
L 4416 4448 
L 4570 0 
L 4032 0 
L 3981 3910 
L 3936 3910 
L 2931 1043 
L 2272 1043 
L 1274 3910 
L 1229 3910 
L 1178 0 
L 640 0 
z
" transform="scale(0.015625)"/>
      </defs>
      <use xlink:href="#Ruda-Regular-42"/>
      <use xlink:href="#Ruda-Regular-61" x="61.399994"/>
      <use xlink:href="#Ruda-Regular-43" x="118.299988"/>
      <use xlink:href="#Ruda-Regular-42" x="176.599976"/>
      <use xlink:href="#Ruda-Regular-4d" x="237.999969"/>
      <use xlink:href="#Ruda-Regular-32" x="319.399963"/>
     </g>
    </g>
   </g>
  </g>
 </g>
 <defs>
  <clipPath id="p7cd1185be2">
   <rect x="52.22" y="48.44" width="440.98" height="295.4"/>
  </clipPath>
 </defs>
</svg>
