<?xml version="1.0" encoding="utf-8" standalone="no"?>
<!DOCTYPE svg PUBLIC "-//W3C//DTD SVG 1.1//EN"
  "http://www.w3.org/Graphics/SVG/1.1/DTD/svg11.dtd">
<svg xmlns:xlink="http://www.w3.org/1999/xlink" width="443.79pt" height="216.580625pt" viewBox="0 0 443.79 216.580625" xmlns="http://www.w3.org/2000/svg" version="1.1">
 <metadata>
  <rdf:RDF xmlns:dc="http://purl.org/dc/elements/1.1/" xmlns:cc="http://creativecommons.org/ns#" xmlns:rdf="http://www.w3.org/1999/02/22-rdf-syntax-ns#">
   <cc:Work>
    <dc:type rdf:resource="http://purl.org/dc/dcmitype/StillImage"/>
    <dc:date>2024-09-28T22:33:22.161036</dc:date>
    <dc:format>image/svg+xml</dc:format>
    <dc:creator>
     <cc:Agent>
      <dc:title>Matplotlib v3.5.3, https://matplotlib.org/</dc:title>
     </cc:Agent>
    </dc:creator>
   </cc:Work>
  </rdf:RDF>
 </metadata>
 <defs>
  <style type="text/css">*{stroke-linejoin: round; stroke-linecap: butt}</style>
 </defs>
 <g id="figure_1">
  <g id="patch_1">
   <path d="M 0 216.580625 
L 443.79 216.580625 
L 443.79 -0 
L 0 -0 
L 0 216.580625 
z
" style="fill: none"/>
  </g>
  <g id="axes_1">
   <g id="patch_2">
    <path d="M 51.99 173.52 
L 330.99 173.52 
L 330.99 7.2 
L 51.99 7.2 
L 51.99 173.52 
z
" style="fill: none"/>
   </g>
   <g id="PolyCollection_1">
    <defs>
     <path id="m2f56356826" d="M 51.99 -43.060625 
L 51.99 -43.060625 
L 54.808182 -54.804933 
L 57.626364 -65.648039 
L 60.444545 -75.655966 
L 63.262727 -84.889955 
L 66.080909 -93.406798 
L 68.899091 -101.259144 
L 71.717273 -108.495798 
L 74.535455 -115.161997 
L 77.353636 -121.299667 
L 80.171818 -126.947673 
L 82.99 -132.142049 
L 85.808182 -136.916217 
L 88.626364 -141.301199 
L 91.444545 -145.3258 
L 94.262727 -149.016801 
L 97.080909 -152.399117 
L 99.899091 -155.495958 
L 102.717273 -158.328962 
L 105.535455 -160.918326 
L 108.353636 -163.28291 
L 111.171818 -165.440337 
L 113.99 -167.407072 
L 116.808182 -169.198491 
L 119.626364 -170.828945 
L 122.444545 -172.311809 
L 125.262727 -173.659528 
L 128.080909 -174.883661 
L 130.899091 -175.994923 
L 133.717273 -177.003221 
L 136.535455 -177.917698 
L 139.353636 -178.74677 
L 142.171818 -179.498172 
L 144.99 -180.178992 
L 147.808182 -180.795722 
L 150.626364 -181.354288 
L 153.444545 -181.860101 
L 156.262727 -182.318087 
L 159.080909 -182.73273 
L 161.899091 -183.108107 
L 164.717273 -183.44792 
L 167.535455 -183.755529 
L 170.353636 -184.033982 
L 173.171818 -184.286042 
L 175.99 -184.514211 
L 178.808182 -184.720759 
L 181.626364 -184.907737 
L 184.444545 -185.077005 
L 187.262727 -185.230245 
L 190.080909 -185.368981 
L 192.899091 -185.494589 
L 195.717273 -185.608317 
L 198.535455 -185.711293 
L 201.353636 -185.804537 
L 204.171818 -185.888972 
L 206.99 -185.965435 
L 209.808182 -186.03468 
L 212.626364 -186.097392 
L 215.444545 -186.154188 
L 218.262727 -186.20563 
L 221.080909 -186.252224 
L 223.899091 -186.294427 
L 226.717273 -186.332655 
L 229.535455 -186.367284 
L 232.353636 -186.398653 
L 235.171818 -186.42707 
L 237.99 -186.452813 
L 240.808182 -186.476134 
L 243.626364 -186.497262 
L 246.444545 -186.516403 
L 249.262727 -186.533744 
L 252.080909 -186.549455 
L 254.899091 -186.563689 
L 257.717273 -186.576584 
L 260.535455 -186.588268 
L 263.353636 -186.598854 
L 266.171818 -186.608444 
L 268.99 -186.617133 
L 271.808182 -186.625005 
L 274.626364 -186.632137 
L 277.444545 -186.638599 
L 280.262727 -186.644452 
L 283.080909 -186.649756 
L 285.899091 -186.65456 
L 288.717273 -186.658912 
L 291.535455 -186.662855 
L 294.353636 -186.666427 
L 297.171818 -186.669662 
L 299.99 -186.672593 
L 302.808182 -186.675248 
L 305.626364 -186.677652 
L 308.444545 -186.67983 
L 311.262727 -186.681802 
L 314.080909 -186.683589 
L 316.899091 -186.685207 
L 319.717273 -186.686672 
L 322.535455 -186.687998 
L 325.353636 -186.6892 
L 328.171818 -186.690287 
L 330.99 -186.691272 
L 330.99 -201.792659 
L 330.99 -201.792659 
L 328.171818 -201.790092 
L 325.353636 -201.78729 
L 322.535455 -201.784231 
L 319.717273 -201.780893 
L 316.899091 -201.777249 
L 314.080909 -201.773271 
L 311.262727 -201.768929 
L 308.444545 -201.764191 
L 305.626364 -201.759019 
L 302.808182 -201.753374 
L 299.99 -201.747213 
L 297.171818 -201.740489 
L 294.353636 -201.733152 
L 291.535455 -201.725144 
L 288.717273 -201.716405 
L 285.899091 -201.706869 
L 283.080909 -201.696464 
L 280.262727 -201.68511 
L 277.444545 -201.672721 
L 274.626364 -201.659203 
L 271.808182 -201.644455 
L 268.99 -201.628364 
L 266.171818 -201.61081 
L 263.353636 -201.591659 
L 260.535455 -201.570769 
L 257.717273 -201.547981 
L 254.899091 -201.523124 
L 252.080909 -201.496013 
L 249.262727 -201.466444 
L 246.444545 -201.434196 
L 243.626364 -201.399028 
L 240.808182 -201.360679 
L 237.99 -201.318863 
L 235.171818 -201.273269 
L 232.353636 -201.22356 
L 229.535455 -201.169368 
L 226.717273 -201.110293 
L 223.899091 -201.0459 
L 221.080909 -200.975716 
L 218.262727 -200.899226 
L 215.444545 -200.81587 
L 212.626364 -200.725041 
L 209.808182 -200.626077 
L 206.99 -200.51826 
L 204.171818 -200.400809 
L 201.353636 -200.272877 
L 198.535455 -200.133543 
L 195.717273 -199.981806 
L 192.899091 -199.81658 
L 190.080909 -199.636687 
L 187.262727 -199.440846 
L 184.444545 -199.227669 
L 181.626364 -198.995648 
L 178.808182 -198.743147 
L 175.99 -198.468389 
L 173.171818 -198.169449 
L 170.353636 -197.844233 
L 167.535455 -197.490473 
L 164.717273 -197.1057 
L 161.899091 -196.687239 
L 159.080909 -196.232176 
L 156.262727 -195.737348 
L 153.444545 -195.199308 
L 150.626364 -194.614303 
L 147.808182 -193.97824 
L 144.99 -193.286648 
L 142.171818 -192.534635 
L 139.353636 -191.716841 
L 136.535455 -190.827378 
L 133.717273 -189.859767 
L 130.899091 -188.80686 
L 128.080909 -187.660753 
L 125.262727 -186.412686 
L 122.444545 -185.052926 
L 119.626364 -183.570642 
L 116.808182 -181.953757 
L 113.99 -180.188789 
L 111.171818 -178.260677 
L 108.353636 -176.152587 
L 105.535455 -173.845708 
L 102.717273 -171.319027 
L 99.899091 -168.549096 
L 97.080909 -165.509773 
L 94.262727 -162.171951 
L 91.444545 -158.503261 
L 88.626364 -154.467755 
L 85.808182 -150.025552 
L 82.99 -145.132458 
L 80.171818 -139.739544 
L 77.353636 -133.792673 
L 74.535455 -127.231988 
L 71.717273 -119.991337 
L 68.899091 -111.997635 
L 66.080909 -103.170159 
L 63.262727 -93.419771 
L 60.444545 -82.648047 
L 57.626364 -70.746329 
L 54.808182 -57.594661 
L 51.99 -43.060625 
z
" style="stroke: #df208a; stroke-opacity: 0.2"/>
    </defs>
    <g clip-path="url(#pa9347d03db)">
     <use xlink:href="#m2f56356826" x="0" y="216.580625" style="fill: #df208a; fill-opacity: 0.2; stroke: #df208a; stroke-opacity: 0.2"/>
    </g>
   </g>
   <g id="PolyCollection_2">
    <defs>
     <path id="m658a6837ac" d="M 51.99 -43.060625 
L 51.99 -43.060625 
L 54.808182 -50.454882 
L 57.626364 -57.383346 
L 60.444545 -63.872575 
L 63.262727 -69.947752 
L 66.080909 -75.632728 
L 68.899091 -80.950079 
L 71.717273 -85.921161 
L 74.535455 -90.566164 
L 77.353636 -94.904163 
L 80.171818 -98.953175 
L 82.99 -102.730209 
L 85.808182 -106.251326 
L 88.626364 -109.531685 
L 91.444545 -112.585597 
L 94.262727 -115.42658 
L 97.080909 -118.067404 
L 99.899091 -120.520145 
L 102.717273 -122.796228 
L 105.535455 -124.906472 
L 108.353636 -126.861136 
L 111.171818 -128.669952 
L 113.99 -130.342164 
L 116.808182 -131.886558 
L 119.626364 -133.311487 
L 122.444545 -134.624898 
L 125.262727 -135.834343 
L 128.080909 -136.947001 
L 130.899091 -137.969686 
L 133.717273 -138.908857 
L 136.535455 -139.770627 
L 139.353636 -140.560769 
L 142.171818 -141.284719 
L 144.99 -141.94759 
L 147.808182 -142.554174 
L 150.626364 -143.108953 
L 153.444545 -143.616108 
L 156.262727 -144.07953 
L 159.080909 -144.502831 
L 161.899091 -144.889359 
L 164.717273 -145.242207 
L 167.535455 -145.564233 
L 170.353636 -145.858067 
L 173.171818 -146.126133 
L 175.99 -146.370653 
L 178.808182 -146.593669 
L 181.626364 -146.797054 
L 184.444545 -146.982521 
L 187.262727 -147.151639 
L 190.080909 -147.305842 
L 192.899091 -147.446442 
L 195.717273 -147.574636 
L 198.535455 -147.691518 
L 201.353636 -147.798085 
L 204.171818 -147.895249 
L 206.99 -147.983841 
L 209.808182 -148.064617 
L 212.626364 -148.138269 
L 215.444545 -148.205426 
L 218.262727 -148.266663 
L 221.080909 -148.322503 
L 223.899091 -148.373423 
L 226.717273 -148.419858 
L 229.535455 -148.462203 
L 232.353636 -148.50082 
L 235.171818 -148.536039 
L 237.99 -148.568158 
L 240.808182 -148.597451 
L 243.626364 -148.624168 
L 246.444545 -148.648535 
L 249.262727 -148.67076 
L 252.080909 -148.691031 
L 254.899091 -148.70952 
L 257.717273 -148.726383 
L 260.535455 -148.741765 
L 263.353636 -148.755794 
L 266.171818 -148.768591 
L 268.99 -148.780262 
L 271.808182 -148.790908 
L 274.626364 -148.800617 
L 277.444545 -148.809473 
L 280.262727 -148.81755 
L 283.080909 -148.824917 
L 285.899091 -148.831635 
L 288.717273 -148.837762 
L 291.535455 -148.843349 
L 294.353636 -148.848445 
L 297.171818 -148.853091 
L 299.99 -148.857328 
L 302.808182 -148.861191 
L 305.626364 -148.864713 
L 308.444545 -148.867924 
L 311.262727 -148.870851 
L 314.080909 -148.87352 
L 316.899091 -148.875952 
L 319.717273 -148.878169 
L 322.535455 -148.88019 
L 325.353636 -148.882031 
L 328.171818 -148.883709 
L 330.99 -148.885238 
L 330.99 -163.959929 
L 330.99 -163.959929 
L 328.171818 -163.955055 
L 325.353636 -163.94979 
L 322.535455 -163.944105 
L 319.717273 -163.937966 
L 316.899091 -163.931336 
L 314.080909 -163.924177 
L 311.262727 -163.916447 
L 308.444545 -163.908101 
L 305.626364 -163.899089 
L 302.808182 -163.88936 
L 299.99 -163.878856 
L 297.171818 -163.867517 
L 294.353636 -163.855277 
L 291.535455 -163.842065 
L 288.717273 -163.827804 
L 285.899091 -163.812411 
L 283.080909 -163.795799 
L 280.262727 -163.777872 
L 277.444545 -163.758526 
L 274.626364 -163.737652 
L 271.808182 -163.715129 
L 268.99 -163.690829 
L 266.171818 -163.664613 
L 263.353636 -163.636334 
L 260.535455 -163.605832 
L 257.717273 -163.572933 
L 254.899091 -163.537453 
L 252.080909 -163.499192 
L 249.262727 -163.457938 
L 246.444545 -163.413459 
L 243.626364 -163.365509 
L 240.808182 -163.313822 
L 237.99 -163.258113 
L 235.171818 -163.198076 
L 232.353636 -163.133382 
L 229.535455 -163.063677 
L 226.717273 -162.988584 
L 223.899091 -162.907697 
L 221.080909 -162.820579 
L 218.262727 -162.726763 
L 215.444545 -162.625749 
L 212.626364 -162.517 
L 209.808182 -162.39994 
L 206.99 -162.273954 
L 204.171818 -162.138382 
L 201.353636 -161.992516 
L 198.535455 -161.835599 
L 195.717273 -161.666821 
L 192.899091 -161.485314 
L 190.080909 -161.290146 
L 187.262727 -161.080323 
L 184.444545 -160.854778 
L 181.626364 -160.612365 
L 178.808182 -160.351859 
L 175.99 -160.071942 
L 173.171818 -159.7712 
L 170.353636 -159.448113 
L 167.535455 -159.101042 
L 164.717273 -158.728221 
L 161.899091 -158.327743 
L 159.080909 -157.897542 
L 156.262727 -157.435377 
L 153.444545 -156.938809 
L 150.626364 -156.405179 
L 147.808182 -155.831578 
L 144.99 -155.214813 
L 142.171818 -154.551376 
L 139.353636 -153.837391 
L 136.535455 -153.068577 
L 133.717273 -152.240186 
L 130.899091 -151.346948 
L 128.080909 -150.383002 
L 125.262727 -149.341829 
L 122.444545 -148.21617 
L 119.626364 -146.997948 
L 116.808182 -145.678176 
L 113.99 -144.246866 
L 111.171818 -142.692931 
L 108.353636 -141.004078 
L 105.535455 -139.166699 
L 102.717273 -137.165753 
L 99.899091 -134.984635 
L 97.080909 -132.605044 
L 94.262727 -130.006835 
L 91.444545 -127.167853 
L 88.626364 -124.063758 
L 85.808182 -120.667833 
L 82.99 -116.950773 
L 80.171818 -112.880445 
L 77.353636 -108.421638 
L 74.535455 -103.535777 
L 71.717273 -98.180614 
L 68.899091 -92.309888 
L 66.080909 -85.872954 
L 63.262727 -78.81437 
L 60.444545 -71.073454 
L 57.626364 -62.58379 
L 54.808182 -53.272694 
L 51.99 -43.060625 
z
" style="stroke: #1b6872; stroke-opacity: 0.2"/>
    </defs>
    <g clip-path="url(#pa9347d03db)">
     <use xlink:href="#m658a6837ac" x="0" y="216.580625" style="fill: #1b6872; fill-opacity: 0.2; stroke: #1b6872; stroke-opacity: 0.2"/>
    </g>
   </g>
   <g id="matplotlib.axis_1">
    <g id="xtick_1">
     <g id="line2d_1">
      <path d="M 51.99 173.52 
L 51.99 7.2 
" clip-path="url(#pa9347d03db)" style="fill: none; stroke-dasharray: 1.11,0.48; stroke-dashoffset: 0; stroke: #808080; stroke-opacity: 0.8; stroke-width: 0.3"/>
     </g>
     <g id="line2d_2">
      <defs>
       <path id="m10bf6dd6aa" d="M 0 0 
L 0 3.5 
" style="stroke: #000000; stroke-width: 0.8"/>
      </defs>
      <g>
       <use xlink:href="#m10bf6dd6aa" x="51.99" y="173.52" style="stroke: #000000; stroke-width: 0.8"/>
      </g>
     </g>
     <g id="text_1">
      <!-- 0 -->
      <g transform="translate(48.80875 188.118437)scale(0.1 -0.1)">
       <defs>
        <path id="DejaVuSans-30" d="M 2034 4250 
Q 1547 4250 1301 3770 
Q 1056 3291 1056 2328 
Q 1056 1369 1301 889 
Q 1547 409 2034 409 
Q 2525 409 2770 889 
Q 3016 1369 3016 2328 
Q 3016 3291 2770 3770 
Q 2525 4250 2034 4250 
z
M 2034 4750 
Q 2819 4750 3233 4129 
Q 3647 3509 3647 2328 
Q 3647 1150 3233 529 
Q 2819 -91 2034 -91 
Q 1250 -91 836 529 
Q 422 1150 422 2328 
Q 422 3509 836 4129 
Q 1250 4750 2034 4750 
z
" transform="scale(0.015625)"/>
       </defs>
       <use xlink:href="#DejaVuSans-30"/>
      </g>
     </g>
    </g>
    <g id="xtick_2">
     <g id="line2d_3">
      <path d="M 107.79 173.52 
L 107.79 7.2 
" clip-path="url(#pa9347d03db)" style="fill: none; stroke-dasharray: 1.11,0.48; stroke-dashoffset: 0; stroke: #808080; stroke-opacity: 0.8; stroke-width: 0.3"/>
     </g>
     <g id="line2d_4">
      <g>
       <use xlink:href="#m10bf6dd6aa" x="107.79" y="173.52" style="stroke: #000000; stroke-width: 0.8"/>
      </g>
     </g>
     <g id="text_2">
      <!-- 20 -->
      <g transform="translate(101.4275 188.118437)scale(0.1 -0.1)">
       <defs>
        <path id="DejaVuSans-32" d="M 1228 531 
L 3431 531 
L 3431 0 
L 469 0 
L 469 531 
Q 828 903 1448 1529 
Q 2069 2156 2228 2338 
Q 2531 2678 2651 2914 
Q 2772 3150 2772 3378 
Q 2772 3750 2511 3984 
Q 2250 4219 1831 4219 
Q 1534 4219 1204 4116 
Q 875 4013 500 3803 
L 500 4441 
Q 881 4594 1212 4672 
Q 1544 4750 1819 4750 
Q 2544 4750 2975 4387 
Q 3406 4025 3406 3419 
Q 3406 3131 3298 2873 
Q 3191 2616 2906 2266 
Q 2828 2175 2409 1742 
Q 1991 1309 1228 531 
z
" transform="scale(0.015625)"/>
       </defs>
       <use xlink:href="#DejaVuSans-32"/>
       <use xlink:href="#DejaVuSans-30" x="63.623047"/>
      </g>
     </g>
    </g>
    <g id="xtick_3">
     <g id="line2d_5">
      <path d="M 163.59 173.52 
L 163.59 7.2 
" clip-path="url(#pa9347d03db)" style="fill: none; stroke-dasharray: 1.11,0.48; stroke-dashoffset: 0; stroke: #808080; stroke-opacity: 0.8; stroke-width: 0.3"/>
     </g>
     <g id="line2d_6">
      <g>
       <use xlink:href="#m10bf6dd6aa" x="163.59" y="173.52" style="stroke: #000000; stroke-width: 0.8"/>
      </g>
     </g>
     <g id="text_3">
      <!-- 40 -->
      <g transform="translate(157.2275 188.118437)scale(0.1 -0.1)">
       <defs>
        <path id="DejaVuSans-34" d="M 2419 4116 
L 825 1625 
L 2419 1625 
L 2419 4116 
z
M 2253 4666 
L 3047 4666 
L 3047 1625 
L 3713 1625 
L 3713 1100 
L 3047 1100 
L 3047 0 
L 2419 0 
L 2419 1100 
L 313 1100 
L 313 1709 
L 2253 4666 
z
" transform="scale(0.015625)"/>
       </defs>
       <use xlink:href="#DejaVuSans-34"/>
       <use xlink:href="#DejaVuSans-30" x="63.623047"/>
      </g>
     </g>
    </g>
    <g id="xtick_4">
     <g id="line2d_7">
      <path d="M 219.39 173.52 
L 219.39 7.2 
" clip-path="url(#pa9347d03db)" style="fill: none; stroke-dasharray: 1.11,0.48; stroke-dashoffset: 0; stroke: #808080; stroke-opacity: 0.8; stroke-width: 0.3"/>
     </g>
     <g id="line2d_8">
      <g>
       <use xlink:href="#m10bf6dd6aa" x="219.39" y="173.52" style="stroke: #000000; stroke-width: 0.8"/>
      </g>
     </g>
     <g id="text_4">
      <!-- 60 -->
      <g transform="translate(213.0275 188.118437)scale(0.1 -0.1)">
       <defs>
        <path id="DejaVuSans-36" d="M 2113 2584 
Q 1688 2584 1439 2293 
Q 1191 2003 1191 1497 
Q 1191 994 1439 701 
Q 1688 409 2113 409 
Q 2538 409 2786 701 
Q 3034 994 3034 1497 
Q 3034 2003 2786 2293 
Q 2538 2584 2113 2584 
z
M 3366 4563 
L 3366 3988 
Q 3128 4100 2886 4159 
Q 2644 4219 2406 4219 
Q 1781 4219 1451 3797 
Q 1122 3375 1075 2522 
Q 1259 2794 1537 2939 
Q 1816 3084 2150 3084 
Q 2853 3084 3261 2657 
Q 3669 2231 3669 1497 
Q 3669 778 3244 343 
Q 2819 -91 2113 -91 
Q 1303 -91 875 529 
Q 447 1150 447 2328 
Q 447 3434 972 4092 
Q 1497 4750 2381 4750 
Q 2619 4750 2861 4703 
Q 3103 4656 3366 4563 
z
" transform="scale(0.015625)"/>
       </defs>
       <use xlink:href="#DejaVuSans-36"/>
       <use xlink:href="#DejaVuSans-30" x="63.623047"/>
      </g>
     </g>
    </g>
    <g id="xtick_5">
     <g id="line2d_9">
      <path d="M 275.19 173.52 
L 275.19 7.2 
" clip-path="url(#pa9347d03db)" style="fill: none; stroke-dasharray: 1.11,0.48; stroke-dashoffset: 0; stroke: #808080; stroke-opacity: 0.8; stroke-width: 0.3"/>
     </g>
     <g id="line2d_10">
      <g>
       <use xlink:href="#m10bf6dd6aa" x="275.19" y="173.52" style="stroke: #000000; stroke-width: 0.8"/>
      </g>
     </g>
     <g id="text_5">
      <!-- 80 -->
      <g transform="translate(268.8275 188.118437)scale(0.1 -0.1)">
       <defs>
        <path id="DejaVuSans-38" d="M 2034 2216 
Q 1584 2216 1326 1975 
Q 1069 1734 1069 1313 
Q 1069 891 1326 650 
Q 1584 409 2034 409 
Q 2484 409 2743 651 
Q 3003 894 3003 1313 
Q 3003 1734 2745 1975 
Q 2488 2216 2034 2216 
z
M 1403 2484 
Q 997 2584 770 2862 
Q 544 3141 544 3541 
Q 544 4100 942 4425 
Q 1341 4750 2034 4750 
Q 2731 4750 3128 4425 
Q 3525 4100 3525 3541 
Q 3525 3141 3298 2862 
Q 3072 2584 2669 2484 
Q 3125 2378 3379 2068 
Q 3634 1759 3634 1313 
Q 3634 634 3220 271 
Q 2806 -91 2034 -91 
Q 1263 -91 848 271 
Q 434 634 434 1313 
Q 434 1759 690 2068 
Q 947 2378 1403 2484 
z
M 1172 3481 
Q 1172 3119 1398 2916 
Q 1625 2713 2034 2713 
Q 2441 2713 2670 2916 
Q 2900 3119 2900 3481 
Q 2900 3844 2670 4047 
Q 2441 4250 2034 4250 
Q 1625 4250 1398 4047 
Q 1172 3844 1172 3481 
z
" transform="scale(0.015625)"/>
       </defs>
       <use xlink:href="#DejaVuSans-38"/>
       <use xlink:href="#DejaVuSans-30" x="63.623047"/>
      </g>
     </g>
    </g>
    <g id="xtick_6">
     <g id="line2d_11">
      <path d="M 330.99 173.52 
L 330.99 7.2 
" clip-path="url(#pa9347d03db)" style="fill: none; stroke-dasharray: 1.11,0.48; stroke-dashoffset: 0; stroke: #808080; stroke-opacity: 0.8; stroke-width: 0.3"/>
     </g>
     <g id="line2d_12">
      <g>
       <use xlink:href="#m10bf6dd6aa" x="330.99" y="173.52" style="stroke: #000000; stroke-width: 0.8"/>
      </g>
     </g>
     <g id="text_6">
      <!-- 100 -->
      <g transform="translate(321.44625 188.118437)scale(0.1 -0.1)">
       <defs>
        <path id="DejaVuSans-31" d="M 794 531 
L 1825 531 
L 1825 4091 
L 703 3866 
L 703 4441 
L 1819 4666 
L 2450 4666 
L 2450 531 
L 3481 531 
L 3481 0 
L 794 0 
L 794 531 
z
" transform="scale(0.015625)"/>
       </defs>
       <use xlink:href="#DejaVuSans-31"/>
       <use xlink:href="#DejaVuSans-30" x="63.623047"/>
       <use xlink:href="#DejaVuSans-30" x="127.246094"/>
      </g>
     </g>
    </g>
    <g id="text_7">
     <!-- Time (days) -->
     <g transform="translate(149.49 206.725625)scale(0.16 -0.16)">
      <defs>
       <path id="Ruda-Regular-54" d="M 1248 0 
L 1261 3994 
L 13 3974 
L 13 4448 
L 3021 4448 
L 3021 3974 
L 1773 3994 
L 1786 0 
L 1248 0 
z
" transform="scale(0.015625)"/>
       <path id="Ruda-Regular-69" d="M 678 0 
L 678 3725 
L 1210 3725 
L 1210 0 
L 678 0 
z
M 621 4358 
L 621 4902 
L 1274 4902 
L 1274 4358 
L 621 4358 
z
" transform="scale(0.015625)"/>
       <path id="Ruda-Regular-6d" d="M 646 0 
L 646 3725 
L 1005 3725 
L 1062 3360 
L 1088 3360 
Q 1146 3392 1280 3465 
Q 1414 3539 1593 3619 
Q 1773 3699 1971 3753 
Q 2170 3808 2362 3808 
Q 2637 3808 2838 3680 
Q 3040 3552 3123 3328 
Q 3392 3494 3721 3651 
Q 4051 3808 4422 3808 
Q 4768 3808 4960 3641 
Q 5152 3475 5229 3171 
Q 5306 2867 5306 2451 
L 5306 0 
L 4774 0 
L 4774 2272 
Q 4774 2573 4761 2809 
Q 4749 3046 4678 3155 
Q 4614 3258 4502 3280 
Q 4390 3302 4320 3302 
Q 4147 3302 3964 3254 
Q 3782 3206 3622 3139 
Q 3462 3072 3356 3014 
Q 3251 2957 3219 2938 
Q 3232 2835 3238 2720 
Q 3245 2605 3245 2477 
L 3245 0 
L 2714 0 
L 2714 2291 
Q 2714 2656 2698 2854 
Q 2682 3053 2611 3162 
Q 2547 3251 2451 3276 
Q 2355 3302 2266 3302 
Q 2048 3302 1830 3235 
Q 1613 3168 1440 3088 
Q 1267 3008 1178 2970 
L 1178 0 
L 646 0 
z
" transform="scale(0.015625)"/>
       <path id="Ruda-Regular-65" d="M 1946 -90 
Q 1504 -90 1168 99 
Q 832 288 646 720 
Q 461 1152 461 1869 
Q 461 2618 656 3040 
Q 851 3462 1184 3638 
Q 1517 3814 1933 3814 
Q 2349 3814 2640 3648 
Q 2931 3482 3084 3094 
Q 3238 2707 3238 2054 
L 3238 1651 
L 781 1651 
L 1030 1747 
Q 1005 1325 1053 1072 
Q 1101 819 1174 697 
Q 1248 576 1299 525 
Q 1389 448 1517 409 
Q 1645 371 1830 371 
Q 2016 371 2195 400 
Q 2374 429 2528 470 
Q 2682 512 2803 553 
Q 2925 595 3002 614 
L 3136 186 
Q 3078 160 2912 93 
Q 2746 26 2499 -32 
Q 2253 -90 1946 -90 
z
M 1030 1843 
L 781 2074 
L 2938 2118 
L 2694 1882 
Q 2701 2336 2678 2662 
Q 2656 2989 2547 3162 
Q 2502 3232 2393 3293 
Q 2285 3354 1971 3354 
Q 1645 3354 1481 3283 
Q 1318 3213 1229 3098 
Q 992 2784 1030 1843 
z
" transform="scale(0.015625)"/>
       <path id="Ruda-Regular-20" transform="scale(0.015625)"/>
       <path id="Ruda-Regular-28" d="M 1581 -794 
Q 1286 -614 1024 -265 
Q 762 83 602 662 
Q 442 1242 442 2106 
Q 442 2982 602 3561 
Q 762 4141 1024 4486 
Q 1286 4832 1581 5011 
L 1824 4672 
Q 1370 4384 1178 3721 
Q 986 3059 986 2106 
Q 986 1165 1178 499 
Q 1370 -166 1824 -461 
L 1581 -794 
z
" transform="scale(0.015625)"/>
       <path id="Ruda-Regular-64" d="M 1626 -83 
Q 1280 -83 1014 115 
Q 749 314 598 730 
Q 448 1146 448 1792 
Q 448 2413 560 2806 
Q 672 3200 864 3417 
Q 1056 3635 1289 3721 
Q 1523 3808 1773 3808 
Q 1984 3808 2144 3782 
Q 2304 3757 2422 3725 
Q 2541 3693 2611 3661 
L 2611 4819 
L 3142 4819 
L 3142 0 
L 2790 0 
L 2720 384 
L 2688 384 
Q 2605 320 2457 208 
Q 2310 96 2102 6 
Q 1894 -83 1626 -83 
z
M 1658 390 
Q 1786 390 1920 425 
Q 2054 461 2185 512 
Q 2317 563 2429 620 
Q 2541 678 2611 723 
L 2611 3168 
Q 2534 3200 2396 3238 
Q 2259 3277 2086 3305 
Q 1914 3334 1722 3334 
Q 1363 3334 1235 3181 
Q 1184 3110 1129 2956 
Q 1075 2803 1040 2518 
Q 1005 2234 1005 1766 
Q 1005 1242 1059 973 
Q 1114 704 1184 601 
Q 1254 499 1293 467 
Q 1344 422 1440 406 
Q 1536 390 1658 390 
z
" transform="scale(0.015625)"/>
       <path id="Ruda-Regular-61" d="M 1350 -83 
Q 1056 -83 829 54 
Q 602 192 474 457 
Q 346 723 346 1101 
Q 346 1555 528 1814 
Q 710 2074 1043 2182 
Q 1376 2291 1818 2291 
L 2496 2291 
Q 2496 2611 2480 2851 
Q 2464 3091 2374 3206 
Q 2310 3296 2198 3321 
Q 2086 3347 1965 3347 
Q 1715 3347 1475 3299 
Q 1235 3251 1040 3187 
Q 845 3123 729 3075 
Q 614 3027 614 3027 
L 429 3443 
Q 429 3443 550 3497 
Q 672 3552 877 3625 
Q 1082 3699 1334 3753 
Q 1587 3808 1856 3808 
Q 2291 3808 2547 3638 
Q 2803 3469 2915 3165 
Q 3027 2861 3027 2451 
L 3027 0 
L 2682 0 
L 2605 390 
L 2566 390 
Q 2502 346 2384 266 
Q 2266 186 2109 106 
Q 1952 26 1760 -28 
Q 1568 -83 1350 -83 
z
M 1440 384 
Q 1670 384 1878 451 
Q 2086 518 2249 601 
Q 2413 685 2496 736 
L 2496 1798 
Q 2413 1811 2246 1827 
Q 2080 1843 1811 1843 
Q 1216 1843 1075 1722 
Q 992 1658 947 1494 
Q 902 1331 902 1101 
Q 902 723 1027 553 
Q 1152 384 1440 384 
z
" transform="scale(0.015625)"/>
       <path id="Ruda-Regular-79" d="M 762 -1062 
L 1261 390 
L 70 3725 
L 640 3725 
L 1498 1005 
L 1523 1005 
L 2381 3725 
L 2950 3725 
L 1696 237 
L 1325 -1062 
L 762 -1062 
z
" transform="scale(0.015625)"/>
       <path id="Ruda-Regular-73" d="M 1568 -83 
Q 1331 -83 1113 -35 
Q 896 13 723 73 
Q 550 134 451 179 
Q 352 224 352 224 
L 486 678 
Q 486 678 585 633 
Q 685 589 851 528 
Q 1018 467 1229 422 
Q 1440 378 1664 378 
Q 1792 378 1901 400 
Q 2010 422 2074 480 
Q 2144 544 2201 672 
Q 2259 800 2259 979 
Q 2259 1248 2131 1389 
Q 2003 1530 1798 1606 
Q 1594 1683 1363 1747 
Q 1178 1798 998 1862 
Q 819 1926 675 2035 
Q 531 2144 444 2326 
Q 358 2509 358 2797 
Q 358 3251 636 3529 
Q 915 3808 1574 3808 
Q 1798 3808 2003 3779 
Q 2208 3750 2365 3715 
Q 2522 3680 2598 3654 
L 2515 3206 
Q 2515 3206 2428 3228 
Q 2342 3251 2195 3276 
Q 2048 3302 1862 3324 
Q 1677 3347 1472 3347 
Q 1280 3347 1165 3324 
Q 1050 3302 992 3258 
Q 934 3213 896 3113 
Q 858 3014 858 2880 
Q 858 2611 1008 2476 
Q 1158 2342 1392 2272 
Q 1626 2202 1875 2125 
Q 2048 2074 2208 2003 
Q 2368 1933 2499 1817 
Q 2630 1702 2704 1523 
Q 2778 1344 2778 1082 
Q 2778 563 2467 240 
Q 2157 -83 1568 -83 
z
" transform="scale(0.015625)"/>
       <path id="Ruda-Regular-29" d="M 435 -794 
L 198 -461 
Q 653 -166 845 499 
Q 1037 1165 1037 2106 
Q 1037 3059 845 3721 
Q 653 4384 198 4672 
L 435 5011 
Q 736 4832 998 4486 
Q 1261 4141 1421 3561 
Q 1581 2982 1581 2106 
Q 1581 1242 1421 662 
Q 1261 83 998 -265 
Q 736 -614 435 -794 
z
" transform="scale(0.015625)"/>
      </defs>
      <use xlink:href="#Ruda-Regular-54"/>
      <use xlink:href="#Ruda-Regular-69" x="47.399994"/>
      <use xlink:href="#Ruda-Regular-6d" x="76.899979"/>
      <use xlink:href="#Ruda-Regular-65" x="168.59996"/>
      <use xlink:href="#Ruda-Regular-20" x="225.699951"/>
      <use xlink:href="#Ruda-Regular-28" x="249.699936"/>
      <use xlink:href="#Ruda-Regular-64" x="281.299927"/>
      <use xlink:href="#Ruda-Regular-61" x="339.399918"/>
      <use xlink:href="#Ruda-Regular-79" x="396.299911"/>
      <use xlink:href="#Ruda-Regular-73" x="444.199905"/>
      <use xlink:href="#Ruda-Regular-29" x="493.399902"/>
     </g>
    </g>
   </g>
   <g id="matplotlib.axis_2">
    <g id="ytick_1">
     <g id="line2d_13">
      <path d="M 51.99 173.52 
L 330.99 173.52 
" clip-path="url(#pa9347d03db)" style="fill: none; stroke-dasharray: 1.11,0.48; stroke-dashoffset: 0; stroke: #808080; stroke-opacity: 0.8; stroke-width: 0.3"/>
     </g>
     <g id="line2d_14">
      <defs>
       <path id="mfdc6f14a22" d="M 0 0 
L -3.5 0 
" style="stroke: #000000; stroke-width: 0.8"/>
      </defs>
      <g>
       <use xlink:href="#mfdc6f14a22" x="51.99" y="173.52" style="stroke: #000000; stroke-width: 0.8"/>
      </g>
     </g>
     <g id="text_8">
      <!-- 0 -->
      <g transform="translate(38.6275 177.319219)scale(0.1 -0.1)">
       <use xlink:href="#DejaVuSans-30"/>
      </g>
     </g>
    </g>
    <g id="ytick_2">
     <g id="line2d_15">
      <path d="M 51.99 143.28 
L 330.99 143.28 
" clip-path="url(#pa9347d03db)" style="fill: none; stroke-dasharray: 1.11,0.48; stroke-dashoffset: 0; stroke: #808080; stroke-opacity: 0.8; stroke-width: 0.3"/>
     </g>
     <g id="line2d_16">
      <g>
       <use xlink:href="#mfdc6f14a22" x="51.99" y="143.28" style="stroke: #000000; stroke-width: 0.8"/>
      </g>
     </g>
     <g id="text_9">
      <!-- 20 -->
      <g transform="translate(32.265 147.079219)scale(0.1 -0.1)">
       <use xlink:href="#DejaVuSans-32"/>
       <use xlink:href="#DejaVuSans-30" x="63.623047"/>
      </g>
     </g>
    </g>
    <g id="ytick_3">
     <g id="line2d_17">
      <path d="M 51.99 113.04 
L 330.99 113.04 
" clip-path="url(#pa9347d03db)" style="fill: none; stroke-dasharray: 1.11,0.48; stroke-dashoffset: 0; stroke: #808080; stroke-opacity: 0.8; stroke-width: 0.3"/>
     </g>
     <g id="line2d_18">
      <g>
       <use xlink:href="#mfdc6f14a22" x="51.99" y="113.04" style="stroke: #000000; stroke-width: 0.8"/>
      </g>
     </g>
     <g id="text_10">
      <!-- 40 -->
      <g transform="translate(32.265 116.839219)scale(0.1 -0.1)">
       <use xlink:href="#DejaVuSans-34"/>
       <use xlink:href="#DejaVuSans-30" x="63.623047"/>
      </g>
     </g>
    </g>
    <g id="ytick_4">
     <g id="line2d_19">
      <path d="M 51.99 82.8 
L 330.99 82.8 
" clip-path="url(#pa9347d03db)" style="fill: none; stroke-dasharray: 1.11,0.48; stroke-dashoffset: 0; stroke: #808080; stroke-opacity: 0.8; stroke-width: 0.3"/>
     </g>
     <g id="line2d_20">
      <g>
       <use xlink:href="#mfdc6f14a22" x="51.99" y="82.8" style="stroke: #000000; stroke-width: 0.8"/>
      </g>
     </g>
     <g id="text_11">
      <!-- 60 -->
      <g transform="translate(32.265 86.599219)scale(0.1 -0.1)">
       <use xlink:href="#DejaVuSans-36"/>
       <use xlink:href="#DejaVuSans-30" x="63.623047"/>
      </g>
     </g>
    </g>
    <g id="ytick_5">
     <g id="line2d_21">
      <path d="M 51.99 52.56 
L 330.99 52.56 
" clip-path="url(#pa9347d03db)" style="fill: none; stroke-dasharray: 1.11,0.48; stroke-dashoffset: 0; stroke: #808080; stroke-opacity: 0.8; stroke-width: 0.3"/>
     </g>
     <g id="line2d_22">
      <g>
       <use xlink:href="#mfdc6f14a22" x="51.99" y="52.56" style="stroke: #000000; stroke-width: 0.8"/>
      </g>
     </g>
     <g id="text_12">
      <!-- 80 -->
      <g transform="translate(32.265 56.359219)scale(0.1 -0.1)">
       <use xlink:href="#DejaVuSans-38"/>
       <use xlink:href="#DejaVuSans-30" x="63.623047"/>
      </g>
     </g>
    </g>
    <g id="ytick_6">
     <g id="line2d_23">
      <path d="M 51.99 22.32 
L 330.99 22.32 
" clip-path="url(#pa9347d03db)" style="fill: none; stroke-dasharray: 1.11,0.48; stroke-dashoffset: 0; stroke: #808080; stroke-opacity: 0.8; stroke-width: 0.3"/>
     </g>
     <g id="line2d_24">
      <g>
       <use xlink:href="#mfdc6f14a22" x="51.99" y="22.32" style="stroke: #000000; stroke-width: 0.8"/>
      </g>
     </g>
     <g id="text_13">
      <!-- 100 -->
      <g transform="translate(25.9025 26.119219)scale(0.1 -0.1)">
       <use xlink:href="#DejaVuSans-31"/>
       <use xlink:href="#DejaVuSans-30" x="63.623047"/>
       <use xlink:href="#DejaVuSans-30" x="127.246094"/>
      </g>
     </g>
    </g>
    <g id="text_14">
     <!-- Particles Filtered (N) -->
     <g transform="translate(19.2475 165.91)rotate(-90)scale(0.16 -0.16)">
      <defs>
       <path id="Ruda-Regular-50" d="M 672 0 
L 698 2061 
L 672 4448 
Q 672 4448 803 4461 
Q 934 4474 1152 4493 
Q 1370 4512 1629 4525 
Q 1888 4538 2144 4538 
Q 2714 4538 3027 4163 
Q 3341 3789 3341 3040 
Q 3341 2573 3229 2265 
Q 3117 1958 2925 1788 
Q 2733 1619 2496 1548 
Q 2259 1478 2010 1478 
Q 1811 1478 1568 1494 
Q 1325 1510 1210 1517 
L 1210 0 
L 672 0 
z
M 2048 1933 
Q 2253 1933 2381 1955 
Q 2509 1978 2586 2054 
Q 2694 2163 2732 2428 
Q 2771 2694 2771 3104 
Q 2771 3450 2736 3638 
Q 2701 3827 2653 3910 
Q 2605 3994 2554 4026 
Q 2490 4070 2346 4099 
Q 2202 4128 2016 4128 
Q 1766 4128 1545 4105 
Q 1325 4083 1210 4058 
L 1210 2010 
Q 1299 1997 1545 1965 
Q 1792 1933 2048 1933 
z
" transform="scale(0.015625)"/>
       <path id="Ruda-Regular-72" d="M 646 0 
L 646 3725 
L 986 3725 
L 1056 3347 
L 1094 3347 
Q 1094 3347 1193 3417 
Q 1293 3488 1453 3577 
Q 1613 3667 1795 3737 
Q 1978 3808 2138 3808 
Q 2234 3808 2317 3792 
Q 2400 3776 2400 3776 
L 2355 3264 
Q 2355 3264 2272 3270 
Q 2189 3277 2118 3277 
Q 1939 3277 1756 3225 
Q 1574 3174 1420 3097 
Q 1267 3021 1178 2950 
L 1178 0 
L 646 0 
z
" transform="scale(0.015625)"/>
       <path id="Ruda-Regular-74" d="M 1619 -90 
Q 1344 -90 1139 3 
Q 934 96 822 361 
Q 710 627 710 1152 
L 710 3091 
L 288 3091 
L 288 3424 
L 730 3514 
L 870 4384 
L 1242 4384 
L 1242 3507 
L 1984 3507 
L 1984 3078 
L 1242 3078 
L 1242 1114 
Q 1242 762 1261 602 
Q 1280 442 1360 400 
Q 1440 358 1632 358 
Q 1734 358 1811 361 
Q 1888 365 1933 368 
Q 1978 371 1978 371 
L 1978 -58 
Q 1978 -58 1882 -74 
Q 1786 -90 1619 -90 
z
" transform="scale(0.015625)"/>
       <path id="Ruda-Regular-63" d="M 1920 -83 
Q 1485 -83 1152 115 
Q 819 314 633 746 
Q 448 1178 448 1875 
Q 448 2445 573 2822 
Q 698 3200 915 3414 
Q 1133 3629 1427 3718 
Q 1722 3808 2054 3808 
Q 2298 3808 2550 3776 
Q 2803 3744 2963 3706 
L 2899 3258 
Q 2778 3270 2515 3305 
Q 2253 3341 1952 3341 
Q 1715 3341 1552 3302 
Q 1389 3264 1299 3174 
Q 1178 3040 1091 2685 
Q 1005 2330 1005 1837 
Q 1005 1382 1075 1104 
Q 1146 826 1242 682 
Q 1338 538 1414 480 
Q 1466 442 1552 410 
Q 1638 378 1798 378 
Q 1984 378 2176 422 
Q 2368 467 2528 524 
Q 2688 582 2787 627 
Q 2886 672 2886 672 
L 3053 256 
Q 3053 256 2912 173 
Q 2771 90 2515 3 
Q 2259 -83 1920 -83 
z
" transform="scale(0.015625)"/>
       <path id="Ruda-Regular-6c" d="M 678 0 
L 678 4819 
L 1210 4819 
L 1210 0 
L 678 0 
z
" transform="scale(0.015625)"/>
       <path id="Ruda-Regular-46" d="M 672 0 
L 672 4448 
L 2854 4448 
L 2854 3974 
L 966 3994 
L 1216 4237 
L 1171 2381 
L 934 2483 
L 2656 2490 
L 2656 2035 
L 934 2035 
L 1178 2125 
L 1203 0 
L 672 0 
z
" transform="scale(0.015625)"/>
       <path id="Ruda-Regular-4e" d="M 672 0 
L 672 4448 
L 1395 4448 
L 3206 646 
L 3226 646 
L 3142 4448 
L 3680 4448 
L 3680 0 
L 2957 0 
L 1146 3802 
L 1126 3802 
L 1210 0 
L 672 0 
z
" transform="scale(0.015625)"/>
      </defs>
      <use xlink:href="#Ruda-Regular-50"/>
      <use xlink:href="#Ruda-Regular-61" x="58.099991"/>
      <use xlink:href="#Ruda-Regular-72" x="114.999985"/>
      <use xlink:href="#Ruda-Regular-74" x="154.499969"/>
      <use xlink:href="#Ruda-Regular-69" x="190.899963"/>
      <use xlink:href="#Ruda-Regular-63" x="220.399948"/>
      <use xlink:href="#Ruda-Regular-6c" x="272.199936"/>
      <use xlink:href="#Ruda-Regular-65" x="301.699921"/>
      <use xlink:href="#Ruda-Regular-73" x="358.799911"/>
      <use xlink:href="#Ruda-Regular-20" x="407.999908"/>
      <use xlink:href="#Ruda-Regular-46" x="431.999893"/>
      <use xlink:href="#Ruda-Regular-69" x="481.999878"/>
      <use xlink:href="#Ruda-Regular-6c" x="511.499863"/>
      <use xlink:href="#Ruda-Regular-74" x="540.999847"/>
      <use xlink:href="#Ruda-Regular-65" x="577.399841"/>
      <use xlink:href="#Ruda-Regular-72" x="634.499832"/>
      <use xlink:href="#Ruda-Regular-65" x="673.999817"/>
      <use xlink:href="#Ruda-Regular-64" x="731.099808"/>
      <use xlink:href="#Ruda-Regular-20" x="789.199799"/>
      <use xlink:href="#Ruda-Regular-28" x="813.199783"/>
      <use xlink:href="#Ruda-Regular-4e" x="844.799774"/>
      <use xlink:href="#Ruda-Regular-29" x="912.799759"/>
     </g>
    </g>
   </g>
   <g id="line2d_25">
    <path d="M 51.99 173.52 
L 54.808182 160.380828 
L 57.626364 148.383441 
L 60.444545 137.428618 
L 63.262727 127.425762 
L 66.080909 118.292147 
L 68.899091 109.952236 
L 71.717273 102.337057 
L 74.535455 95.383632 
L 77.353636 89.034455 
L 80.171818 83.237017 
L 82.99 77.943372 
L 85.808182 73.10974 
L 88.626364 68.696148 
L 91.444545 64.666094 
L 94.262727 60.986249 
L 97.080909 57.62618 
L 99.899091 54.558098 
L 102.717273 51.75663 
L 105.535455 49.198608 
L 108.353636 46.862876 
L 111.171818 44.730118 
L 113.99 42.782695 
L 116.808182 41.004501 
L 119.626364 39.380832 
L 122.444545 37.898257 
L 125.262727 36.544518 
L 128.080909 35.308418 
L 130.899091 34.179733 
L 133.717273 33.149131 
L 136.535455 32.208087 
L 139.353636 31.34882 
L 142.171818 30.564222 
L 144.99 29.847805 
L 147.808182 29.193644 
L 150.626364 28.596329 
L 153.444545 28.050921 
L 156.262727 27.552908 
L 159.080909 27.098172 
L 161.899091 26.682952 
L 164.717273 26.303815 
L 167.535455 25.957624 
L 170.353636 25.641517 
L 173.171818 25.35288 
L 175.99 25.089325 
L 178.808182 24.848672 
L 181.626364 24.628932 
L 184.444545 24.428288 
L 187.262727 24.245079 
L 190.080909 24.077791 
L 192.899091 23.92504 
L 195.717273 23.785564 
L 198.535455 23.658207 
L 201.353636 23.541918 
L 204.171818 23.435734 
L 206.99 23.338778 
L 209.808182 23.250247 
L 212.626364 23.169409 
L 215.444545 23.095596 
L 218.262727 23.028197 
L 221.080909 22.966655 
L 223.899091 22.910461 
L 226.717273 22.859151 
L 229.535455 22.812299 
L 232.353636 22.769518 
L 235.171818 22.730456 
L 237.99 22.694787 
L 240.808182 22.662219 
L 243.626364 22.63248 
L 246.444545 22.605326 
L 249.262727 22.580531 
L 252.080909 22.557891 
L 254.899091 22.537219 
L 257.717273 22.518342 
L 260.535455 22.501107 
L 263.353636 22.485369 
L 266.171818 22.470998 
L 268.99 22.457877 
L 271.808182 22.445895 
L 274.626364 22.434955 
L 277.444545 22.424965 
L 280.262727 22.415844 
L 283.080909 22.407515 
L 285.899091 22.39991 
L 288.717273 22.392966 
L 291.535455 22.386625 
L 294.353636 22.380836 
L 297.171818 22.375549 
L 299.99 22.370722 
L 302.808182 22.366314 
L 305.626364 22.36229 
L 308.444545 22.358615 
L 311.262727 22.355259 
L 314.080909 22.352195 
L 316.899091 22.349397 
L 319.717273 22.346843 
L 322.535455 22.34451 
L 325.353636 22.34238 
L 328.171818 22.340435 
L 330.99 22.33866 
" clip-path="url(#pa9347d03db)" style="fill: none; stroke: #df208a; stroke-linecap: square"/>
   </g>
   <g id="line2d_26">
    <path d="M 51.99 173.52 
L 54.808182 164.716837 
L 57.626364 156.597057 
L 60.444545 149.10761 
L 63.262727 142.199564 
L 66.080909 135.827784 
L 68.899091 129.950642 
L 71.717273 124.529738 
L 74.535455 119.529654 
L 77.353636 114.917724 
L 80.171818 110.663815 
L 82.99 106.740134 
L 85.808182 103.121045 
L 88.626364 99.782904 
L 91.444545 96.7039 
L 94.262727 93.863918 
L 97.080909 91.244401 
L 99.899091 88.828235 
L 102.717273 86.599635 
L 105.535455 84.544039 
L 108.353636 82.648018 
L 111.171818 80.899184 
L 113.99 79.28611 
L 116.808182 77.798258 
L 119.626364 76.425907 
L 122.444545 75.160091 
L 125.262727 73.992539 
L 128.080909 72.915624 
L 130.899091 71.922308 
L 133.717273 71.006103 
L 136.535455 70.161023 
L 139.353636 69.381545 
L 142.171818 68.662578 
L 144.99 67.999423 
L 147.808182 67.387749 
L 150.626364 66.823559 
L 153.444545 66.303166 
L 156.262727 65.823171 
L 159.080909 65.380438 
L 161.899091 64.972074 
L 164.717273 64.595411 
L 167.535455 64.247988 
L 170.353636 63.927535 
L 173.171818 63.631959 
L 175.99 63.359328 
L 178.808182 63.107861 
L 181.626364 62.875915 
L 184.444545 62.661976 
L 187.262727 62.464644 
L 190.080909 62.282631 
L 192.899091 62.114747 
L 195.717273 61.959896 
L 198.535455 61.817067 
L 201.353636 61.685324 
L 204.171818 61.563809 
L 206.99 61.451727 
L 209.808182 61.348346 
L 212.626364 61.252991 
L 215.444545 61.165037 
L 218.262727 61.083912 
L 221.080909 61.009084 
L 223.899091 60.940065 
L 226.717273 60.876404 
L 229.535455 60.817685 
L 232.353636 60.763524 
L 235.171818 60.713568 
L 237.99 60.66749 
L 240.808182 60.624988 
L 243.626364 60.585786 
L 246.444545 60.549628 
L 249.262727 60.516276 
L 252.080909 60.485513 
L 254.899091 60.457139 
L 257.717273 60.430967 
L 260.535455 60.406827 
L 263.353636 60.384561 
L 266.171818 60.364023 
L 268.99 60.34508 
L 271.808182 60.327607 
L 274.626364 60.311491 
L 277.444545 60.296625 
L 280.262727 60.282914 
L 283.080909 60.270267 
L 285.899091 60.258602 
L 288.717273 60.247842 
L 291.535455 60.237918 
L 294.353636 60.228764 
L 297.171818 60.220321 
L 299.99 60.212533 
L 302.808182 60.20535 
L 305.626364 60.198724 
L 308.444545 60.192613 
L 311.262727 60.186976 
L 314.080909 60.181777 
L 316.899091 60.176981 
L 319.717273 60.172558 
L 322.535455 60.168478 
L 325.353636 60.164714 
L 328.171818 60.161243 
L 330.99 60.158041 
" clip-path="url(#pa9347d03db)" style="fill: none; stroke: #1b6872; stroke-linecap: square"/>
   </g>
   <g id="patch_3">
    <path d="M 51.99 173.52 
L 51.99 7.2 
" style="fill: none; stroke: #000000; stroke-width: 0.8; stroke-linejoin: miter; stroke-linecap: square"/>
   </g>
   <g id="patch_4">
    <path d="M 51.99 173.52 
L 330.99 173.52 
" style="fill: none; stroke: #000000; stroke-width: 0.8; stroke-linejoin: miter; stroke-linecap: square"/>
   </g>
   <g id="legend_1">
    <g id="patch_5">
     <path d="M 344.019375 52.0275 
L 434.19 52.0275 
Q 436.59 52.0275 436.59 49.6275 
L 436.59 15.6 
Q 436.59 13.2 434.19 13.2 
L 344.019375 13.2 
Q 341.619375 13.2 341.619375 15.6 
L 341.619375 49.6275 
Q 341.619375 52.0275 344.019375 52.0275 
L 344.019375 52.0275 
z
" style="fill: none; opacity: 0"/>
    </g>
    <g id="line2d_27">
     <path d="M 346.419375 22.918125 
L 358.419375 22.918125 
L 370.419375 22.918125 
" style="fill: none; stroke: #df208a; stroke-linecap: square"/>
    </g>
    <g id="text_15">
     <!-- BARBIE1 -->
     <g transform="translate(380.019375 27.118125)scale(0.12 -0.12)">
      <defs>
       <path id="DejaVuSans-42" d="M 1259 2228 
L 1259 519 
L 2272 519 
Q 2781 519 3026 730 
Q 3272 941 3272 1375 
Q 3272 1813 3026 2020 
Q 2781 2228 2272 2228 
L 1259 2228 
z
M 1259 4147 
L 1259 2741 
L 2194 2741 
Q 2656 2741 2882 2914 
Q 3109 3088 3109 3444 
Q 3109 3797 2882 3972 
Q 2656 4147 2194 4147 
L 1259 4147 
z
M 628 4666 
L 2241 4666 
Q 2963 4666 3353 4366 
Q 3744 4066 3744 3513 
Q 3744 3084 3544 2831 
Q 3344 2578 2956 2516 
Q 3422 2416 3680 2098 
Q 3938 1781 3938 1306 
Q 3938 681 3513 340 
Q 3088 0 2303 0 
L 628 0 
L 628 4666 
z
" transform="scale(0.015625)"/>
       <path id="DejaVuSans-41" d="M 2188 4044 
L 1331 1722 
L 3047 1722 
L 2188 4044 
z
M 1831 4666 
L 2547 4666 
L 4325 0 
L 3669 0 
L 3244 1197 
L 1141 1197 
L 716 0 
L 50 0 
L 1831 4666 
z
" transform="scale(0.015625)"/>
       <path id="DejaVuSans-52" d="M 2841 2188 
Q 3044 2119 3236 1894 
Q 3428 1669 3622 1275 
L 4263 0 
L 3584 0 
L 2988 1197 
Q 2756 1666 2539 1819 
Q 2322 1972 1947 1972 
L 1259 1972 
L 1259 0 
L 628 0 
L 628 4666 
L 2053 4666 
Q 2853 4666 3247 4331 
Q 3641 3997 3641 3322 
Q 3641 2881 3436 2590 
Q 3231 2300 2841 2188 
z
M 1259 4147 
L 1259 2491 
L 2053 2491 
Q 2509 2491 2742 2702 
Q 2975 2913 2975 3322 
Q 2975 3731 2742 3939 
Q 2509 4147 2053 4147 
L 1259 4147 
z
" transform="scale(0.015625)"/>
       <path id="DejaVuSans-49" d="M 628 4666 
L 1259 4666 
L 1259 0 
L 628 0 
L 628 4666 
z
" transform="scale(0.015625)"/>
       <path id="DejaVuSans-45" d="M 628 4666 
L 3578 4666 
L 3578 4134 
L 1259 4134 
L 1259 2753 
L 3481 2753 
L 3481 2222 
L 1259 2222 
L 1259 531 
L 3634 531 
L 3634 0 
L 628 0 
L 628 4666 
z
" transform="scale(0.015625)"/>
      </defs>
      <use xlink:href="#DejaVuSans-42"/>
      <use xlink:href="#DejaVuSans-41" x="68.603516"/>
      <use xlink:href="#DejaVuSans-52" x="137.011719"/>
      <use xlink:href="#DejaVuSans-42" x="206.494141"/>
      <use xlink:href="#DejaVuSans-49" x="275.097656"/>
      <use xlink:href="#DejaVuSans-45" x="304.589844"/>
      <use xlink:href="#DejaVuSans-31" x="367.773438"/>
     </g>
    </g>
    <g id="line2d_28">
     <path d="M 346.419375 40.531875 
L 358.419375 40.531875 
L 370.419375 40.531875 
" style="fill: none; stroke: #1b6872; stroke-linecap: square"/>
    </g>
    <g id="text_16">
     <!-- BaCBM2 -->
     <g transform="translate(380.019375 44.731875)scale(0.12 -0.12)">
      <defs>
       <path id="DejaVuSans-61" d="M 2194 1759 
Q 1497 1759 1228 1600 
Q 959 1441 959 1056 
Q 959 750 1161 570 
Q 1363 391 1709 391 
Q 2188 391 2477 730 
Q 2766 1069 2766 1631 
L 2766 1759 
L 2194 1759 
z
M 3341 1997 
L 3341 0 
L 2766 0 
L 2766 531 
Q 2569 213 2275 61 
Q 1981 -91 1556 -91 
Q 1019 -91 701 211 
Q 384 513 384 1019 
Q 384 1609 779 1909 
Q 1175 2209 1959 2209 
L 2766 2209 
L 2766 2266 
Q 2766 2663 2505 2880 
Q 2244 3097 1772 3097 
Q 1472 3097 1187 3025 
Q 903 2953 641 2809 
L 641 3341 
Q 956 3463 1253 3523 
Q 1550 3584 1831 3584 
Q 2591 3584 2966 3190 
Q 3341 2797 3341 1997 
z
" transform="scale(0.015625)"/>
       <path id="DejaVuSans-43" d="M 4122 4306 
L 4122 3641 
Q 3803 3938 3442 4084 
Q 3081 4231 2675 4231 
Q 1875 4231 1450 3742 
Q 1025 3253 1025 2328 
Q 1025 1406 1450 917 
Q 1875 428 2675 428 
Q 3081 428 3442 575 
Q 3803 722 4122 1019 
L 4122 359 
Q 3791 134 3420 21 
Q 3050 -91 2638 -91 
Q 1578 -91 968 557 
Q 359 1206 359 2328 
Q 359 3453 968 4101 
Q 1578 4750 2638 4750 
Q 3056 4750 3426 4639 
Q 3797 4528 4122 4306 
z
" transform="scale(0.015625)"/>
       <path id="DejaVuSans-4d" d="M 628 4666 
L 1569 4666 
L 2759 1491 
L 3956 4666 
L 4897 4666 
L 4897 0 
L 4281 0 
L 4281 4097 
L 3078 897 
L 2444 897 
L 1241 4097 
L 1241 0 
L 628 0 
L 628 4666 
z
" transform="scale(0.015625)"/>
      </defs>
      <use xlink:href="#DejaVuSans-42"/>
      <use xlink:href="#DejaVuSans-61" x="68.603516"/>
      <use xlink:href="#DejaVuSans-43" x="129.882812"/>
      <use xlink:href="#DejaVuSans-42" x="199.707031"/>
      <use xlink:href="#DejaVuSans-4d" x="268.310547"/>
      <use xlink:href="#DejaVuSans-32" x="354.589844"/>
     </g>
    </g>
   </g>
  </g>
 </g>
 <defs>
  <clipPath id="pa9347d03db">
   <rect x="51.99" y="7.2" width="279" height="166.32"/>
  </clipPath>
 </defs>
</svg>
