<?xml version="1.0" encoding="utf-8" standalone="no"?>
<!DOCTYPE svg PUBLIC "-//W3C//DTD SVG 1.1//EN"
  "http://www.w3.org/Graphics/SVG/1.1/DTD/svg11.dtd">
<svg xmlns:xlink="http://www.w3.org/1999/xlink" width="440.584063pt" height="269.21375pt" viewBox="0 0 440.584063 269.21375" xmlns="http://www.w3.org/2000/svg" version="1.1">
 <metadata>
  <rdf:RDF xmlns:dc="http://purl.org/dc/elements/1.1/" xmlns:cc="http://creativecommons.org/ns#" xmlns:rdf="http://www.w3.org/1999/02/22-rdf-syntax-ns#">
   <cc:Work>
    <dc:type rdf:resource="http://purl.org/dc/dcmitype/StillImage"/>
    <dc:date>2024-09-27T10:09:31.304930</dc:date>
    <dc:format>image/svg+xml</dc:format>
    <dc:creator>
     <cc:Agent>
      <dc:title>Matplotlib v3.6.2, https://matplotlib.org/</dc:title>
     </cc:Agent>
    </dc:creator>
   </cc:Work>
  </rdf:RDF>
 </metadata>
 <defs>
  <style type="text/css">*{stroke-linejoin: round; stroke-linecap: butt}</style>
 </defs>
 <g id="figure_1">
  <g id="patch_1">
   <path d="M 0 269.21375 
L 440.584063 269.21375 
L 440.584063 0 
L 0 0 
L 0 269.21375 
z
" style="fill: none"/>
  </g>
  <g id="axes_1">
   <g id="patch_2">
    <path d="M 37.38875 228.96 
L 427.98875 228.96 
L 427.98875 7.2 
L 37.38875 7.2 
L 37.38875 228.96 
z
" style="fill: none"/>
   </g>
   <g id="matplotlib.axis_1">
    <g id="xtick_1">
     <g id="line2d_1">
      <path d="M 37.38875 228.96 
L 37.38875 7.2 
" clip-path="url(#pa92e400b76)" style="fill: none; stroke-dasharray: 1.11,0.48; stroke-dashoffset: 0; stroke: #808080; stroke-width: 0.3"/>
     </g>
     <g id="line2d_2">
      <defs>
       <path id="m10033807d8" d="M 0 0 
L 0 3.5 
" style="stroke: #000000; stroke-width: 0.8"/>
      </defs>
      <g>
       <use xlink:href="#m10033807d8" x="37.38875" y="228.96" style="stroke: #000000; stroke-width: 0.8"/>
      </g>
     </g>
     <g id="text_1">
      <!-- 0 -->
      <g transform="translate(34.528594 243.489687) scale(0.1 -0.1)">
       <defs>
        <path id="Ruda-Regular-30" d="M 1830 -83 
Q 1523 -83 1260 19 
Q 998 122 803 374 
Q 608 627 496 1078 
Q 384 1530 384 2234 
Q 384 2931 496 3379 
Q 608 3827 803 4080 
Q 998 4333 1260 4432 
Q 1523 4531 1830 4531 
Q 2138 4531 2400 4432 
Q 2662 4333 2860 4080 
Q 3059 3827 3168 3379 
Q 3277 2931 3277 2234 
Q 3277 1530 3168 1078 
Q 3059 627 2860 374 
Q 2662 122 2400 19 
Q 2138 -83 1830 -83 
z
M 1837 403 
Q 2131 403 2326 553 
Q 2522 704 2624 1101 
Q 2726 1498 2726 2234 
Q 2726 2803 2665 3161 
Q 2605 3520 2489 3712 
Q 2374 3904 2208 3977 
Q 2042 4051 1830 4051 
Q 1619 4051 1452 3980 
Q 1286 3910 1171 3718 
Q 1056 3526 998 3171 
Q 941 2816 941 2246 
Q 941 1510 1040 1110 
Q 1139 710 1340 556 
Q 1542 403 1837 403 
z
" transform="scale(0.015625)"/>
       </defs>
       <use xlink:href="#Ruda-Regular-30"/>
      </g>
     </g>
    </g>
    <g id="xtick_2">
     <g id="line2d_3">
      <path d="M 115.50875 228.96 
L 115.50875 7.2 
" clip-path="url(#pa92e400b76)" style="fill: none; stroke-dasharray: 1.11,0.48; stroke-dashoffset: 0; stroke: #808080; stroke-width: 0.3"/>
     </g>
     <g id="line2d_4">
      <g>
       <use xlink:href="#m10033807d8" x="115.50875" y="228.96" style="stroke: #000000; stroke-width: 0.8"/>
      </g>
     </g>
     <g id="text_2">
      <!-- 2 -->
      <g transform="translate(112.80875 243.489687) scale(0.1 -0.1)">
       <defs>
        <path id="Ruda-Regular-32" d="M 358 0 
L 358 416 
Q 358 416 652 761 
Q 947 1107 1510 1824 
Q 1914 2336 2170 2736 
Q 2426 3136 2426 3507 
Q 2426 3750 2294 3900 
Q 2163 4051 1837 4051 
Q 1632 4051 1405 3990 
Q 1178 3930 957 3834 
Q 736 3738 550 3616 
L 326 4019 
Q 429 4109 637 4230 
Q 845 4352 1126 4441 
Q 1408 4531 1715 4531 
Q 2074 4531 2352 4396 
Q 2630 4262 2790 4019 
Q 2950 3776 2950 3450 
Q 2950 3174 2838 2896 
Q 2726 2618 2556 2352 
Q 2387 2086 2202 1843 
Q 2131 1747 2003 1584 
Q 1875 1421 1728 1229 
Q 1581 1037 1446 867 
Q 1312 698 1225 589 
Q 1139 480 1139 480 
L 1139 448 
L 3046 480 
L 3046 0 
L 358 0 
z
" transform="scale(0.015625)"/>
       </defs>
       <use xlink:href="#Ruda-Regular-32"/>
      </g>
     </g>
    </g>
    <g id="xtick_3">
     <g id="line2d_5">
      <path d="M 193.62875 228.96 
L 193.62875 7.2 
" clip-path="url(#pa92e400b76)" style="fill: none; stroke-dasharray: 1.11,0.48; stroke-dashoffset: 0; stroke: #808080; stroke-width: 0.3"/>
     </g>
     <g id="line2d_6">
      <g>
       <use xlink:href="#m10033807d8" x="193.62875" y="228.96" style="stroke: #000000; stroke-width: 0.8"/>
      </g>
     </g>
     <g id="text_3">
      <!-- 4 -->
      <g transform="translate(190.943594 243.489687) scale(0.1 -0.1)">
       <defs>
        <path id="Ruda-Regular-34" d="M 2176 0 
L 2195 1037 
L 186 1037 
L 186 1440 
L 1197 4518 
L 1722 4448 
L 755 1517 
L 755 1485 
L 2195 1510 
L 2317 3232 
L 2714 3232 
L 2714 1510 
L 3123 1523 
L 3123 1037 
L 2714 1037 
L 2720 0 
L 2176 0 
z
" transform="scale(0.015625)"/>
       </defs>
       <use xlink:href="#Ruda-Regular-34"/>
      </g>
     </g>
    </g>
    <g id="xtick_4">
     <g id="line2d_7">
      <path d="M 271.74875 228.96 
L 271.74875 7.2 
" clip-path="url(#pa92e400b76)" style="fill: none; stroke-dasharray: 1.11,0.48; stroke-dashoffset: 0; stroke: #808080; stroke-width: 0.3"/>
     </g>
     <g id="line2d_8">
      <g>
       <use xlink:href="#m10033807d8" x="271.74875" y="228.96" style="stroke: #000000; stroke-width: 0.8"/>
      </g>
     </g>
     <g id="text_4">
      <!-- 6 -->
      <g transform="translate(268.988594 243.489687) scale(0.1 -0.1)">
       <defs>
        <path id="Ruda-Regular-36" d="M 1798 -83 
Q 1357 -83 1040 125 
Q 723 333 553 816 
Q 384 1299 384 2112 
Q 384 2842 515 3312 
Q 646 3782 873 4051 
Q 1101 4320 1401 4425 
Q 1702 4531 2035 4531 
Q 2304 4531 2502 4489 
Q 2701 4448 2813 4406 
Q 2925 4365 2925 4365 
L 2803 3910 
Q 2803 3910 2726 3929 
Q 2650 3949 2525 3977 
Q 2400 4006 2243 4025 
Q 2086 4045 1926 4045 
Q 1696 4045 1549 3993 
Q 1402 3942 1293 3834 
Q 1158 3693 1072 3411 
Q 986 3130 960 2618 
Q 960 2618 1059 2630 
Q 1158 2643 1315 2652 
Q 1472 2662 1638 2662 
Q 2099 2662 2438 2537 
Q 2778 2413 2963 2125 
Q 3149 1837 3149 1344 
Q 3149 653 2787 285 
Q 2426 -83 1798 -83 
z
M 1837 371 
Q 2285 371 2451 585 
Q 2618 800 2618 1325 
Q 2618 1651 2550 1843 
Q 2483 2035 2297 2118 
Q 2112 2202 1766 2202 
Q 1549 2202 1363 2179 
Q 1178 2157 1062 2134 
Q 947 2112 947 2112 
L 947 1600 
Q 947 1242 995 1024 
Q 1043 806 1107 700 
Q 1171 595 1210 550 
Q 1274 493 1414 432 
Q 1555 371 1837 371 
z
" transform="scale(0.015625)"/>
       </defs>
       <use xlink:href="#Ruda-Regular-36"/>
      </g>
     </g>
    </g>
    <g id="xtick_5">
     <g id="line2d_9">
      <path d="M 349.86875 228.96 
L 349.86875 7.2 
" clip-path="url(#pa92e400b76)" style="fill: none; stroke-dasharray: 1.11,0.48; stroke-dashoffset: 0; stroke: #808080; stroke-width: 0.3"/>
     </g>
     <g id="line2d_10">
      <g>
       <use xlink:href="#m10033807d8" x="349.86875" y="228.96" style="stroke: #000000; stroke-width: 0.8"/>
      </g>
     </g>
     <g id="text_5">
      <!-- 8 -->
      <g transform="translate(347.16875 243.489687) scale(0.1 -0.1)">
       <defs>
        <path id="Ruda-Regular-38" d="M 1702 -83 
Q 1242 -83 928 105 
Q 614 294 457 595 
Q 301 896 301 1216 
Q 301 1498 413 1725 
Q 525 1952 697 2112 
Q 870 2272 1043 2342 
Q 806 2515 620 2774 
Q 435 3034 435 3418 
Q 435 3904 761 4217 
Q 1088 4531 1722 4531 
Q 2157 4531 2445 4380 
Q 2733 4230 2873 3977 
Q 3014 3725 3014 3411 
Q 3014 2982 2819 2720 
Q 2624 2458 2342 2298 
Q 2509 2202 2694 2061 
Q 2880 1920 3014 1705 
Q 3149 1491 3149 1165 
Q 3149 838 2979 553 
Q 2810 269 2486 93 
Q 2163 -83 1702 -83 
z
M 1722 378 
Q 2163 378 2364 566 
Q 2566 755 2566 1088 
Q 2566 1344 2467 1517 
Q 2368 1690 2144 1824 
Q 1920 1958 1542 2086 
Q 1229 1965 1056 1776 
Q 883 1587 883 1165 
Q 883 947 960 768 
Q 1037 589 1222 483 
Q 1408 378 1722 378 
z
M 1837 2515 
Q 2138 2624 2304 2829 
Q 2470 3034 2470 3405 
Q 2470 3712 2307 3901 
Q 2144 4090 1728 4090 
Q 1293 4090 1133 3920 
Q 973 3750 973 3475 
Q 973 3142 1171 2921 
Q 1370 2701 1837 2515 
z
" transform="scale(0.015625)"/>
       </defs>
       <use xlink:href="#Ruda-Regular-38"/>
      </g>
     </g>
    </g>
    <g id="xtick_6">
     <g id="line2d_11">
      <path d="M 427.98875 228.96 
L 427.98875 7.2 
" clip-path="url(#pa92e400b76)" style="fill: none; stroke-dasharray: 1.11,0.48; stroke-dashoffset: 0; stroke: #808080; stroke-width: 0.3"/>
     </g>
     <g id="line2d_12">
      <g>
       <use xlink:href="#m10033807d8" x="427.98875" y="228.96" style="stroke: #000000; stroke-width: 0.8"/>
      </g>
     </g>
     <g id="text_6">
      <!-- 10 -->
      <g transform="translate(422.593438 243.489687) scale(0.1 -0.1)">
       <defs>
        <path id="Ruda-Regular-31" d="M 493 0 
L 493 461 
L 1562 448 
L 1606 3962 
L 1574 3962 
L 634 2970 
L 275 3315 
L 1530 4493 
L 2106 4448 
L 2106 448 
L 3046 461 
L 3046 0 
L 493 0 
z
" transform="scale(0.015625)"/>
       </defs>
       <use xlink:href="#Ruda-Regular-31"/>
       <use xlink:href="#Ruda-Regular-30" x="50.699997"/>
      </g>
     </g>
    </g>
    <g id="text_7">
     <!-- Time (h) -->
     <g transform="translate(206.697969 259.690625) scale(0.14 -0.14)">
      <defs>
       <path id="Ruda-Regular-54" d="M 1248 0 
L 1261 3994 
L 13 3974 
L 13 4448 
L 3021 4448 
L 3021 3974 
L 1773 3994 
L 1786 0 
L 1248 0 
z
" transform="scale(0.015625)"/>
       <path id="Ruda-Regular-69" d="M 678 0 
L 678 3725 
L 1210 3725 
L 1210 0 
L 678 0 
z
M 621 4358 
L 621 4902 
L 1274 4902 
L 1274 4358 
L 621 4358 
z
" transform="scale(0.015625)"/>
       <path id="Ruda-Regular-6d" d="M 646 0 
L 646 3725 
L 1005 3725 
L 1062 3360 
L 1088 3360 
Q 1146 3392 1280 3465 
Q 1414 3539 1593 3619 
Q 1773 3699 1971 3753 
Q 2170 3808 2362 3808 
Q 2637 3808 2838 3680 
Q 3040 3552 3123 3328 
Q 3392 3494 3721 3651 
Q 4051 3808 4422 3808 
Q 4768 3808 4960 3641 
Q 5152 3475 5229 3171 
Q 5306 2867 5306 2451 
L 5306 0 
L 4774 0 
L 4774 2272 
Q 4774 2573 4761 2809 
Q 4749 3046 4678 3155 
Q 4614 3258 4502 3280 
Q 4390 3302 4320 3302 
Q 4147 3302 3964 3254 
Q 3782 3206 3622 3139 
Q 3462 3072 3356 3014 
Q 3251 2957 3219 2938 
Q 3232 2835 3238 2720 
Q 3245 2605 3245 2477 
L 3245 0 
L 2714 0 
L 2714 2291 
Q 2714 2656 2698 2854 
Q 2682 3053 2611 3162 
Q 2547 3251 2451 3276 
Q 2355 3302 2266 3302 
Q 2048 3302 1830 3235 
Q 1613 3168 1440 3088 
Q 1267 3008 1178 2970 
L 1178 0 
L 646 0 
z
" transform="scale(0.015625)"/>
       <path id="Ruda-Regular-65" d="M 1946 -90 
Q 1504 -90 1168 99 
Q 832 288 646 720 
Q 461 1152 461 1869 
Q 461 2618 656 3040 
Q 851 3462 1184 3638 
Q 1517 3814 1933 3814 
Q 2349 3814 2640 3648 
Q 2931 3482 3084 3094 
Q 3238 2707 3238 2054 
L 3238 1651 
L 781 1651 
L 1030 1747 
Q 1005 1325 1053 1072 
Q 1101 819 1174 697 
Q 1248 576 1299 525 
Q 1389 448 1517 409 
Q 1645 371 1830 371 
Q 2016 371 2195 400 
Q 2374 429 2528 470 
Q 2682 512 2803 553 
Q 2925 595 3002 614 
L 3136 186 
Q 3078 160 2912 93 
Q 2746 26 2499 -32 
Q 2253 -90 1946 -90 
z
M 1030 1843 
L 781 2074 
L 2938 2118 
L 2694 1882 
Q 2701 2336 2678 2662 
Q 2656 2989 2547 3162 
Q 2502 3232 2393 3293 
Q 2285 3354 1971 3354 
Q 1645 3354 1481 3283 
Q 1318 3213 1229 3098 
Q 992 2784 1030 1843 
z
" transform="scale(0.015625)"/>
       <path id="Ruda-Regular-20" transform="scale(0.015625)"/>
       <path id="Ruda-Regular-28" d="M 1581 -794 
Q 1286 -614 1024 -265 
Q 762 83 602 662 
Q 442 1242 442 2106 
Q 442 2982 602 3561 
Q 762 4141 1024 4486 
Q 1286 4832 1581 5011 
L 1824 4672 
Q 1370 4384 1178 3721 
Q 986 3059 986 2106 
Q 986 1165 1178 499 
Q 1370 -166 1824 -461 
L 1581 -794 
z
" transform="scale(0.015625)"/>
       <path id="Ruda-Regular-68" d="M 544 0 
L 544 4819 
L 1075 4819 
L 1075 3315 
L 941 3437 
Q 1114 3514 1338 3600 
Q 1562 3686 1789 3747 
Q 2016 3808 2202 3808 
Q 2579 3808 2790 3654 
Q 3002 3501 3088 3206 
Q 3174 2912 3174 2477 
L 3174 0 
L 2643 0 
L 2643 2291 
Q 2643 2650 2617 2854 
Q 2592 3059 2515 3168 
Q 2451 3258 2358 3280 
Q 2266 3302 2131 3302 
Q 1978 3302 1805 3267 
Q 1632 3232 1469 3181 
Q 1306 3130 1181 3082 
Q 1056 3034 1005 3002 
L 1082 3123 
L 1075 0 
L 544 0 
z
" transform="scale(0.015625)"/>
       <path id="Ruda-Regular-29" d="M 435 -794 
L 198 -461 
Q 653 -166 845 499 
Q 1037 1165 1037 2106 
Q 1037 3059 845 3721 
Q 653 4384 198 4672 
L 435 5011 
Q 736 4832 998 4486 
Q 1261 4141 1421 3561 
Q 1581 2982 1581 2106 
Q 1581 1242 1421 662 
Q 1261 83 998 -265 
Q 736 -614 435 -794 
z
" transform="scale(0.015625)"/>
      </defs>
      <use xlink:href="#Ruda-Regular-54"/>
      <use xlink:href="#Ruda-Regular-69" x="47.399994"/>
      <use xlink:href="#Ruda-Regular-6d" x="76.899979"/>
      <use xlink:href="#Ruda-Regular-65" x="168.59996"/>
      <use xlink:href="#Ruda-Regular-20" x="225.699951"/>
      <use xlink:href="#Ruda-Regular-28" x="249.699936"/>
      <use xlink:href="#Ruda-Regular-68" x="281.299927"/>
      <use xlink:href="#Ruda-Regular-29" x="339.699921"/>
     </g>
    </g>
   </g>
   <g id="matplotlib.axis_2">
    <g id="ytick_1">
     <g id="line2d_13">
      <path d="M 37.38875 228.96 
L 427.98875 228.96 
" clip-path="url(#pa92e400b76)" style="fill: none; stroke-dasharray: 1.11,0.48; stroke-dashoffset: 0; stroke: #808080; stroke-width: 0.3"/>
     </g>
     <g id="line2d_14">
      <defs>
       <path id="m7ac14eb423" d="M 0 0 
L -3.5 0 
" style="stroke: #000000; stroke-width: 0.8"/>
      </defs>
      <g>
       <use xlink:href="#m7ac14eb423" x="37.38875" y="228.96" style="stroke: #000000; stroke-width: 0.8"/>
      </g>
     </g>
     <g id="text_8">
      <!-- 0 -->
      <g transform="translate(24.668438 232.724844) scale(0.1 -0.1)">
       <use xlink:href="#Ruda-Regular-30"/>
      </g>
     </g>
    </g>
    <g id="ytick_2">
     <g id="line2d_15">
      <path d="M 37.38875 188.64 
L 427.98875 188.64 
" clip-path="url(#pa92e400b76)" style="fill: none; stroke-dasharray: 1.11,0.48; stroke-dashoffset: 0; stroke: #808080; stroke-width: 0.3"/>
     </g>
     <g id="line2d_16">
      <g>
       <use xlink:href="#m7ac14eb423" x="37.38875" y="188.64" style="stroke: #000000; stroke-width: 0.8"/>
      </g>
     </g>
     <g id="text_9">
      <!-- 1 -->
      <g transform="translate(25.318438 192.404844) scale(0.1 -0.1)">
       <use xlink:href="#Ruda-Regular-31"/>
      </g>
     </g>
    </g>
    <g id="ytick_3">
     <g id="line2d_17">
      <path d="M 37.38875 148.32 
L 427.98875 148.32 
" clip-path="url(#pa92e400b76)" style="fill: none; stroke-dasharray: 1.11,0.48; stroke-dashoffset: 0; stroke: #808080; stroke-width: 0.3"/>
     </g>
     <g id="line2d_18">
      <g>
       <use xlink:href="#m7ac14eb423" x="37.38875" y="148.32" style="stroke: #000000; stroke-width: 0.8"/>
      </g>
     </g>
     <g id="text_10">
      <!-- 2 -->
      <g transform="translate(24.98875 152.084844) scale(0.1 -0.1)">
       <use xlink:href="#Ruda-Regular-32"/>
      </g>
     </g>
    </g>
    <g id="ytick_4">
     <g id="line2d_19">
      <path d="M 37.38875 108 
L 427.98875 108 
" clip-path="url(#pa92e400b76)" style="fill: none; stroke-dasharray: 1.11,0.48; stroke-dashoffset: 0; stroke: #808080; stroke-width: 0.3"/>
     </g>
     <g id="line2d_20">
      <g>
       <use xlink:href="#m7ac14eb423" x="37.38875" y="108" style="stroke: #000000; stroke-width: 0.8"/>
      </g>
     </g>
     <g id="text_11">
      <!-- 3 -->
      <g transform="translate(24.93875 111.764844) scale(0.1 -0.1)">
       <defs>
        <path id="Ruda-Regular-33" d="M 1613 -83 
Q 1331 -83 1097 -35 
Q 864 13 685 80 
Q 506 147 390 208 
Q 275 269 230 294 
L 435 704 
Q 480 685 601 633 
Q 723 582 899 528 
Q 1075 474 1280 435 
Q 1485 397 1696 397 
Q 2093 397 2237 592 
Q 2381 787 2381 1197 
Q 2381 1734 2169 1939 
Q 1958 2144 1510 2144 
L 915 2144 
L 915 2566 
Q 1306 2598 1568 2630 
Q 1830 2662 1984 2732 
Q 2138 2803 2202 2947 
Q 2266 3091 2266 3341 
Q 2266 3546 2230 3690 
Q 2195 3834 2131 3898 
Q 2048 3994 1862 4032 
Q 1677 4070 1408 4070 
Q 1293 4070 1181 4064 
Q 1069 4058 918 4042 
Q 768 4026 531 3994 
L 467 4429 
Q 582 4461 752 4483 
Q 922 4506 1110 4518 
Q 1299 4531 1453 4531 
Q 1843 4531 2150 4428 
Q 2458 4326 2637 4083 
Q 2816 3840 2816 3411 
Q 2816 3098 2726 2902 
Q 2637 2707 2512 2601 
Q 2387 2496 2272 2454 
Q 2157 2413 2099 2400 
L 2099 2374 
Q 2227 2355 2371 2297 
Q 2515 2240 2649 2115 
Q 2784 1990 2867 1779 
Q 2950 1568 2950 1242 
Q 2950 883 2822 582 
Q 2694 282 2400 99 
Q 2106 -83 1613 -83 
z
" transform="scale(0.015625)"/>
       </defs>
       <use xlink:href="#Ruda-Regular-33"/>
      </g>
     </g>
    </g>
    <g id="ytick_5">
     <g id="line2d_21">
      <path d="M 37.38875 67.68 
L 427.98875 67.68 
" clip-path="url(#pa92e400b76)" style="fill: none; stroke-dasharray: 1.11,0.48; stroke-dashoffset: 0; stroke: #808080; stroke-width: 0.3"/>
     </g>
     <g id="line2d_22">
      <g>
       <use xlink:href="#m7ac14eb423" x="37.38875" y="67.68" style="stroke: #000000; stroke-width: 0.8"/>
      </g>
     </g>
     <g id="text_12">
      <!-- 4 -->
      <g transform="translate(25.018438 71.444844) scale(0.1 -0.1)">
       <use xlink:href="#Ruda-Regular-34"/>
      </g>
     </g>
    </g>
    <g id="ytick_6">
     <g id="line2d_23">
      <path d="M 37.38875 27.36 
L 427.98875 27.36 
" clip-path="url(#pa92e400b76)" style="fill: none; stroke-dasharray: 1.11,0.48; stroke-dashoffset: 0; stroke: #808080; stroke-width: 0.3"/>
     </g>
     <g id="line2d_24">
      <g>
       <use xlink:href="#m7ac14eb423" x="37.38875" y="27.36" style="stroke: #000000; stroke-width: 0.8"/>
      </g>
     </g>
     <g id="text_13">
      <!-- 5 -->
      <g transform="translate(25.298125 31.124844) scale(0.1 -0.1)">
       <defs>
        <path id="Ruda-Regular-35" d="M 1555 -83 
Q 1261 -83 1008 -12 
Q 755 58 566 150 
Q 378 243 275 313 
Q 173 384 173 384 
L 378 787 
Q 378 787 490 729 
Q 602 672 784 592 
Q 966 512 1190 454 
Q 1414 397 1638 397 
Q 1939 397 2086 493 
Q 2208 576 2269 806 
Q 2330 1037 2330 1261 
Q 2330 1466 2282 1677 
Q 2234 1888 2144 1971 
Q 2042 2080 1728 2121 
Q 1414 2163 986 2163 
Q 845 2163 729 2160 
Q 614 2157 547 2153 
Q 480 2150 480 2150 
L 806 4448 
L 2694 4448 
L 2694 3981 
L 1254 4006 
L 1069 2643 
Q 1459 2624 1792 2566 
Q 2125 2509 2371 2368 
Q 2618 2227 2755 1974 
Q 2893 1722 2893 1312 
Q 2893 653 2534 285 
Q 2176 -83 1555 -83 
z
" transform="scale(0.015625)"/>
       </defs>
       <use xlink:href="#Ruda-Regular-35"/>
      </g>
     </g>
    </g>
    <g id="text_14">
     <!-- Concentration (g/L) -->
     <g transform="translate(18.161562 180.2575) rotate(-90) scale(0.14 -0.14)">
      <defs>
       <path id="Ruda-Regular-43" d="M 1997 -90 
Q 1542 -90 1196 131 
Q 851 352 656 851 
Q 461 1350 461 2176 
Q 461 2906 585 3370 
Q 710 3834 931 4090 
Q 1152 4346 1453 4442 
Q 1754 4538 2106 4538 
Q 2259 4538 2470 4522 
Q 2682 4506 2880 4483 
Q 3078 4461 3181 4435 
L 3117 3974 
Q 3059 3981 2931 3993 
Q 2803 4006 2649 4019 
Q 2496 4032 2355 4041 
Q 2214 4051 2138 4051 
Q 1824 4051 1635 4019 
Q 1446 3987 1357 3878 
Q 1274 3776 1197 3577 
Q 1120 3379 1075 3036 
Q 1030 2694 1030 2157 
Q 1030 1478 1161 1072 
Q 1293 666 1421 538 
Q 1510 448 1638 413 
Q 1766 378 1926 378 
Q 2170 378 2397 429 
Q 2624 480 2800 550 
Q 2976 621 3078 672 
Q 3181 723 3181 723 
L 3366 301 
Q 3366 301 3267 243 
Q 3168 186 2989 106 
Q 2810 26 2557 -32 
Q 2304 -90 1997 -90 
z
" transform="scale(0.015625)"/>
       <path id="Ruda-Regular-6f" d="M 1843 -83 
Q 1312 -83 1008 153 
Q 704 390 576 825 
Q 448 1261 448 1862 
Q 448 2464 576 2899 
Q 704 3334 1008 3571 
Q 1312 3808 1843 3808 
Q 2374 3808 2678 3571 
Q 2982 3334 3110 2899 
Q 3238 2464 3238 1862 
Q 3238 1261 3110 825 
Q 2982 390 2678 153 
Q 2374 -83 1843 -83 
z
M 1843 378 
Q 2086 378 2249 435 
Q 2413 493 2512 646 
Q 2611 800 2652 1094 
Q 2694 1389 2694 1862 
Q 2694 2336 2652 2630 
Q 2611 2925 2512 3081 
Q 2413 3238 2249 3292 
Q 2086 3347 1843 3347 
Q 1600 3347 1437 3292 
Q 1274 3238 1174 3081 
Q 1075 2925 1030 2630 
Q 986 2336 986 1862 
Q 986 1389 1030 1094 
Q 1075 800 1174 646 
Q 1274 493 1437 435 
Q 1600 378 1843 378 
z
" transform="scale(0.015625)"/>
       <path id="Ruda-Regular-6e" d="M 646 0 
L 646 3725 
L 1005 3725 
L 1062 3360 
L 1094 3360 
Q 1152 3392 1286 3465 
Q 1421 3539 1606 3619 
Q 1792 3699 2003 3753 
Q 2214 3808 2426 3808 
Q 2778 3808 2963 3632 
Q 3149 3456 3216 3155 
Q 3283 2854 3283 2477 
L 3283 0 
L 2752 0 
L 2752 2291 
Q 2752 2669 2739 2867 
Q 2726 3066 2656 3168 
Q 2605 3251 2509 3276 
Q 2413 3302 2304 3302 
Q 2074 3302 1834 3228 
Q 1594 3155 1414 3075 
Q 1235 2995 1178 2963 
L 1178 0 
L 646 0 
z
" transform="scale(0.015625)"/>
       <path id="Ruda-Regular-63" d="M 1920 -83 
Q 1485 -83 1152 115 
Q 819 314 633 746 
Q 448 1178 448 1875 
Q 448 2445 573 2822 
Q 698 3200 915 3414 
Q 1133 3629 1427 3718 
Q 1722 3808 2054 3808 
Q 2298 3808 2550 3776 
Q 2803 3744 2963 3706 
L 2899 3258 
Q 2778 3270 2515 3305 
Q 2253 3341 1952 3341 
Q 1715 3341 1552 3302 
Q 1389 3264 1299 3174 
Q 1178 3040 1091 2685 
Q 1005 2330 1005 1837 
Q 1005 1382 1075 1104 
Q 1146 826 1242 682 
Q 1338 538 1414 480 
Q 1466 442 1552 410 
Q 1638 378 1798 378 
Q 1984 378 2176 422 
Q 2368 467 2528 524 
Q 2688 582 2787 627 
Q 2886 672 2886 672 
L 3053 256 
Q 3053 256 2912 173 
Q 2771 90 2515 3 
Q 2259 -83 1920 -83 
z
" transform="scale(0.015625)"/>
       <path id="Ruda-Regular-74" d="M 1619 -90 
Q 1344 -90 1139 3 
Q 934 96 822 361 
Q 710 627 710 1152 
L 710 3091 
L 288 3091 
L 288 3424 
L 730 3514 
L 870 4384 
L 1242 4384 
L 1242 3507 
L 1984 3507 
L 1984 3078 
L 1242 3078 
L 1242 1114 
Q 1242 762 1261 602 
Q 1280 442 1360 400 
Q 1440 358 1632 358 
Q 1734 358 1811 361 
Q 1888 365 1933 368 
Q 1978 371 1978 371 
L 1978 -58 
Q 1978 -58 1882 -74 
Q 1786 -90 1619 -90 
z
" transform="scale(0.015625)"/>
       <path id="Ruda-Regular-72" d="M 646 0 
L 646 3725 
L 986 3725 
L 1056 3347 
L 1094 3347 
Q 1094 3347 1193 3417 
Q 1293 3488 1453 3577 
Q 1613 3667 1795 3737 
Q 1978 3808 2138 3808 
Q 2234 3808 2317 3792 
Q 2400 3776 2400 3776 
L 2355 3264 
Q 2355 3264 2272 3270 
Q 2189 3277 2118 3277 
Q 1939 3277 1756 3225 
Q 1574 3174 1420 3097 
Q 1267 3021 1178 2950 
L 1178 0 
L 646 0 
z
" transform="scale(0.015625)"/>
       <path id="Ruda-Regular-61" d="M 1350 -83 
Q 1056 -83 829 54 
Q 602 192 474 457 
Q 346 723 346 1101 
Q 346 1555 528 1814 
Q 710 2074 1043 2182 
Q 1376 2291 1818 2291 
L 2496 2291 
Q 2496 2611 2480 2851 
Q 2464 3091 2374 3206 
Q 2310 3296 2198 3321 
Q 2086 3347 1965 3347 
Q 1715 3347 1475 3299 
Q 1235 3251 1040 3187 
Q 845 3123 729 3075 
Q 614 3027 614 3027 
L 429 3443 
Q 429 3443 550 3497 
Q 672 3552 877 3625 
Q 1082 3699 1334 3753 
Q 1587 3808 1856 3808 
Q 2291 3808 2547 3638 
Q 2803 3469 2915 3165 
Q 3027 2861 3027 2451 
L 3027 0 
L 2682 0 
L 2605 390 
L 2566 390 
Q 2502 346 2384 266 
Q 2266 186 2109 106 
Q 1952 26 1760 -28 
Q 1568 -83 1350 -83 
z
M 1440 384 
Q 1670 384 1878 451 
Q 2086 518 2249 601 
Q 2413 685 2496 736 
L 2496 1798 
Q 2413 1811 2246 1827 
Q 2080 1843 1811 1843 
Q 1216 1843 1075 1722 
Q 992 1658 947 1494 
Q 902 1331 902 1101 
Q 902 723 1027 553 
Q 1152 384 1440 384 
z
" transform="scale(0.015625)"/>
       <path id="Ruda-Regular-67" d="M 1619 -1146 
Q 1363 -1146 1139 -1120 
Q 915 -1094 748 -1059 
Q 582 -1024 486 -998 
Q 390 -973 390 -973 
L 454 -493 
Q 813 -557 1190 -605 
Q 1568 -653 1920 -653 
Q 2278 -653 2400 -595 
Q 2522 -538 2522 -416 
Q 2522 -346 2490 -288 
Q 2458 -230 2374 -169 
Q 2291 -109 2131 -32 
Q 1971 45 1709 154 
Q 1344 307 1181 374 
Q 1018 442 976 464 
Q 934 486 934 506 
Q 934 512 966 592 
Q 998 672 1049 787 
Q 1101 902 1152 1027 
Q 1203 1152 1242 1242 
Q 819 1325 560 1651 
Q 301 1978 301 2445 
Q 301 2970 505 3264 
Q 710 3558 1046 3683 
Q 1382 3808 1773 3808 
Q 1901 3808 2077 3801 
Q 2253 3795 2435 3782 
Q 2618 3770 2774 3757 
Q 2931 3744 3027 3737 
Q 3123 3731 3123 3731 
L 3123 3392 
L 2701 3328 
Q 2701 3334 2755 3196 
Q 2810 3059 2864 2857 
Q 2918 2656 2918 2464 
Q 2918 2099 2758 1814 
Q 2598 1530 2297 1366 
Q 1997 1203 1574 1203 
Q 1555 1101 1529 963 
Q 1504 826 1504 800 
Q 1504 787 1545 764 
Q 1587 742 1712 694 
Q 1837 646 2080 538 
Q 2451 384 2649 237 
Q 2848 90 2925 -51 
Q 3002 -192 3002 -333 
Q 3002 -589 2826 -771 
Q 2650 -954 2339 -1050 
Q 2029 -1146 1619 -1146 
z
M 1606 1664 
Q 1894 1664 2070 1734 
Q 2246 1805 2326 1981 
Q 2406 2157 2406 2477 
Q 2406 2842 2361 3062 
Q 2317 3283 2278 3302 
Q 2266 3315 2170 3324 
Q 2074 3334 1958 3337 
Q 1843 3341 1756 3344 
Q 1670 3347 1670 3347 
Q 1370 3347 1181 3276 
Q 992 3206 905 3020 
Q 819 2835 819 2477 
Q 819 2003 1001 1833 
Q 1184 1664 1606 1664 
z
" transform="scale(0.015625)"/>
       <path id="Ruda-Regular-2f" d="M 26 -627 
L 1114 2042 
L 2042 4448 
L 2611 4448 
L 1549 1843 
L 589 -627 
L 26 -627 
z
" transform="scale(0.015625)"/>
       <path id="Ruda-Regular-4c" d="M 672 0 
L 672 4448 
L 1210 4448 
L 1178 218 
L 934 461 
L 2784 474 
L 2784 0 
L 672 0 
z
" transform="scale(0.015625)"/>
      </defs>
      <use xlink:href="#Ruda-Regular-43"/>
      <use xlink:href="#Ruda-Regular-6f" x="58.299988"/>
      <use xlink:href="#Ruda-Regular-6e" x="115.899979"/>
      <use xlink:href="#Ruda-Regular-63" x="175.999969"/>
      <use xlink:href="#Ruda-Regular-65" x="227.799957"/>
      <use xlink:href="#Ruda-Regular-6e" x="284.899948"/>
      <use xlink:href="#Ruda-Regular-74" x="344.999939"/>
      <use xlink:href="#Ruda-Regular-72" x="381.399933"/>
      <use xlink:href="#Ruda-Regular-61" x="420.899918"/>
      <use xlink:href="#Ruda-Regular-74" x="477.799911"/>
      <use xlink:href="#Ruda-Regular-69" x="514.199905"/>
      <use xlink:href="#Ruda-Regular-6f" x="543.69989"/>
      <use xlink:href="#Ruda-Regular-6e" x="601.299881"/>
      <use xlink:href="#Ruda-Regular-20" x="661.399872"/>
      <use xlink:href="#Ruda-Regular-28" x="685.399857"/>
      <use xlink:href="#Ruda-Regular-67" x="716.999847"/>
      <use xlink:href="#Ruda-Regular-2f" x="769.099838"/>
      <use xlink:href="#Ruda-Regular-4c" x="812.099823"/>
      <use xlink:href="#Ruda-Regular-29" x="856.699814"/>
     </g>
    </g>
   </g>
   <g id="line2d_25">
    <path d="M 37.38875 224.928 
L 52.246408 223.917034 
L 65.540101 222.799652 
L 77.660822 221.566737 
L 88.999561 220.191297 
L 99.165327 218.742398 
L 108.940101 217.124498 
L 117.932894 215.411381 
L 126.534696 213.542035 
L 134.354516 211.620672 
L 141.783345 209.57515 
L 148.821182 207.416432 
L 155.468029 205.158836 
L 162.114876 202.666529 
L 168.370732 200.085091 
L 174.235597 197.437741 
L 180.100462 194.550725 
L 185.574336 191.621604 
L 191.048209 188.447487 
L 196.522083 185.009153 
L 201.604966 181.56214 
L 206.687849 177.852956 
L 211.770732 173.864298 
L 216.853615 169.578867 
L 221.936498 164.980115 
L 226.62839 160.44447 
L 231.711273 155.206634 
L 236.794155 149.631215 
L 242.268029 143.274037 
L 255.561723 127.590376 
L 257.125687 126.186193 
L 258.29866 125.360464 
L 259.471633 124.778004 
L 260.644606 124.431669 
L 262.20857 124.224692 
L 264.945507 124.139342 
L 280.585146 124.128 
L 427.98875 124.128 
L 427.98875 124.128 
" clip-path="url(#pa92e400b76)" style="fill: none; stroke: #1b6872; stroke-width: 2; stroke-linecap: square"/>
   </g>
   <g id="line2d_26">
    <path d="M 37.38875 27.36 
L 48.336498 28.805289 
L 58.111273 30.313044 
L 67.495056 31.984659 
L 76.096858 33.738553 
L 84.307669 35.638039 
L 92.127489 37.678413 
L 99.556318 39.851731 
L 106.594155 42.146609 
L 113.241002 44.5481 
L 119.496858 47.037676 
L 125.752714 49.771806 
L 131.617579 52.578295 
L 137.482444 55.642038 
L 142.956318 58.754161 
L 148.430191 62.131206 
L 153.513074 65.523627 
L 158.595957 69.182742 
L 163.67884 73.129088 
L 168.370732 77.045818 
L 173.062624 81.244512 
L 177.754516 85.74482 
L 182.446408 90.5676 
L 187.1383 95.734934 
L 191.4392 100.794224 
L 195.740101 106.181445 
L 200.041002 111.916225 
L 204.341903 118.018878 
L 208.642804 124.510238 
L 212.943705 131.411371 
L 217.244606 138.743116 
L 221.545507 146.525326 
L 225.846408 154.775594 
L 230.147309 163.507053 
L 234.448209 172.724339 
L 239.140101 183.31909 
L 244.222984 195.357708 
L 253.997759 218.763411 
L 255.952714 222.789925 
L 257.125687 224.843613 
L 258.29866 226.495073 
L 259.471633 227.659993 
L 260.253615 228.168 
L 261.426588 228.61265 
L 262.990552 228.854132 
L 265.727489 228.947821 
L 280.194155 228.96 
L 427.98875 228.96 
L 427.98875 228.96 
" clip-path="url(#pa92e400b76)" style="fill: none; stroke: #df208a; stroke-width: 2; stroke-linecap: square"/>
   </g>
   <g id="line2d_27">
    <path d="M 37.38875 228.96 
L 79.615777 228.86265 
L 96.42839 227.793274 
L 111.286047 226.631588 
L 124.579741 225.375884 
L 136.700462 224.013058 
L 147.648209 222.567978 
L 157.813975 221.011628 
L 167.58875 219.288518 
L 176.581543 217.477492 
L 185.183345 215.514486 
L 193.003164 213.509436 
L 200.431993 211.387803 
L 207.860822 209.032859 
L 214.89866 206.566456 
L 221.545507 204.009968 
L 228.192354 201.219778 
L 234.8392 198.190235 
L 241.877038 194.737397 
L 254.779741 188.300064 
L 257.125687 187.446973 
L 258.689651 187.090026 
L 260.253615 186.950876 
L 262.20857 187.011403 
L 266.900462 187.465549 
L 298.961723 190.734359 
L 329.068029 193.569994 
L 360.347309 196.293523 
L 393.190552 198.927946 
L 427.206768 201.432702 
L 427.98875 201.487756 
L 427.98875 201.487756 
" clip-path="url(#pa92e400b76)" style="fill: none; stroke: #efb475; stroke-width: 2; stroke-linecap: square"/>
   </g>
   <g id="line2d_28">
    <path d="M 78.051813 228.96 
L 78.051813 178.39872 
" clip-path="url(#pa92e400b76)" style="fill: none; stroke-dasharray: 3.7,1.6; stroke-dashoffset: 0; stroke: #808080"/>
   </g>
   <g id="patch_3">
    <path d="M 37.38875 228.96 
L 37.38875 7.2 
" style="fill: none; stroke: #000000; stroke-width: 0.8; stroke-linejoin: miter; stroke-linecap: square"/>
   </g>
   <g id="patch_4">
    <path d="M 427.98875 228.96 
L 427.98875 7.2 
" style="fill: none; stroke: #000000; stroke-width: 0.8; stroke-linejoin: miter; stroke-linecap: square"/>
   </g>
   <g id="patch_5">
    <path d="M 37.38875 228.96 
L 427.98875 228.96 
" style="fill: none; stroke: #000000; stroke-width: 0.8; stroke-linejoin: miter; stroke-linecap: square"/>
   </g>
   <g id="patch_6">
    <path d="M 37.38875 7.2 
L 427.98875 7.2 
" style="fill: none; stroke: #000000; stroke-width: 0.8; stroke-linejoin: miter; stroke-linecap: square"/>
   </g>
   <g id="legend_1">
    <g id="patch_7">
     <path d="M 311.290625 85.460625 
L 419.58875 85.460625 
Q 421.98875 85.460625 421.98875 83.060625 
L 421.98875 15.6 
Q 421.98875 13.2 419.58875 13.2 
L 311.290625 13.2 
Q 308.890625 13.2 308.890625 15.6 
L 308.890625 83.060625 
Q 308.890625 85.460625 311.290625 85.460625 
z
" style="fill: #ffffff; opacity: 0.8; stroke: #cccccc; stroke-linejoin: miter"/>
    </g>
    <g id="line2d_29">
     <path d="M 313.690625 22.835625 
L 325.690625 22.835625 
L 337.690625 22.835625 
" style="fill: none; stroke: #1b6872; stroke-width: 2; stroke-linecap: square"/>
    </g>
    <g id="text_15">
     <!-- Cells (X) -->
     <g transform="translate(347.290625 27.035625) scale(0.12 -0.12)">
      <defs>
       <path id="Ruda-Regular-6c" d="M 678 0 
L 678 4819 
L 1210 4819 
L 1210 0 
L 678 0 
z
" transform="scale(0.015625)"/>
       <path id="Ruda-Regular-73" d="M 1568 -83 
Q 1331 -83 1113 -35 
Q 896 13 723 73 
Q 550 134 451 179 
Q 352 224 352 224 
L 486 678 
Q 486 678 585 633 
Q 685 589 851 528 
Q 1018 467 1229 422 
Q 1440 378 1664 378 
Q 1792 378 1901 400 
Q 2010 422 2074 480 
Q 2144 544 2201 672 
Q 2259 800 2259 979 
Q 2259 1248 2131 1389 
Q 2003 1530 1798 1606 
Q 1594 1683 1363 1747 
Q 1178 1798 998 1862 
Q 819 1926 675 2035 
Q 531 2144 444 2326 
Q 358 2509 358 2797 
Q 358 3251 636 3529 
Q 915 3808 1574 3808 
Q 1798 3808 2003 3779 
Q 2208 3750 2365 3715 
Q 2522 3680 2598 3654 
L 2515 3206 
Q 2515 3206 2428 3228 
Q 2342 3251 2195 3276 
Q 2048 3302 1862 3324 
Q 1677 3347 1472 3347 
Q 1280 3347 1165 3324 
Q 1050 3302 992 3258 
Q 934 3213 896 3113 
Q 858 3014 858 2880 
Q 858 2611 1008 2476 
Q 1158 2342 1392 2272 
Q 1626 2202 1875 2125 
Q 2048 2074 2208 2003 
Q 2368 1933 2499 1817 
Q 2630 1702 2704 1523 
Q 2778 1344 2778 1082 
Q 2778 563 2467 240 
Q 2157 -83 1568 -83 
z
" transform="scale(0.015625)"/>
       <path id="Ruda-Regular-58" d="M 102 0 
L 1472 2490 
L 1530 2163 
L 192 4448 
L 794 4448 
L 1875 2445 
L 1421 2643 
L 1946 2643 
L 1536 2451 
L 2630 4448 
L 3232 4448 
L 1875 2163 
L 1914 2419 
L 3328 0 
L 2694 0 
L 1562 2131 
L 1862 1920 
L 1453 1920 
L 1792 2131 
L 736 0 
L 102 0 
z
" transform="scale(0.015625)"/>
      </defs>
      <use xlink:href="#Ruda-Regular-43"/>
      <use xlink:href="#Ruda-Regular-65" x="58.299988"/>
      <use xlink:href="#Ruda-Regular-6c" x="115.399979"/>
      <use xlink:href="#Ruda-Regular-6c" x="144.899963"/>
      <use xlink:href="#Ruda-Regular-73" x="174.399948"/>
      <use xlink:href="#Ruda-Regular-20" x="223.599945"/>
      <use xlink:href="#Ruda-Regular-28" x="247.59993"/>
      <use xlink:href="#Ruda-Regular-58" x="279.199921"/>
      <use xlink:href="#Ruda-Regular-29" x="332.799911"/>
     </g>
    </g>
    <g id="line2d_30">
     <path d="M 313.690625 39.8625 
L 325.690625 39.8625 
L 337.690625 39.8625 
" style="fill: none; stroke: #df208a; stroke-width: 2; stroke-linecap: square"/>
    </g>
    <g id="text_16">
     <!-- Substrate (S) -->
     <g transform="translate(347.290625 44.0625) scale(0.12 -0.12)">
      <defs>
       <path id="Ruda-Regular-53" d="M 1574 -90 
Q 1312 -90 1069 -29 
Q 826 32 637 115 
Q 448 198 339 259 
Q 230 320 230 320 
Q 230 320 259 387 
Q 288 454 326 540 
Q 365 627 393 691 
Q 422 755 422 755 
Q 422 755 528 700 
Q 634 646 813 579 
Q 992 512 1222 457 
Q 1453 403 1702 403 
Q 1862 403 1955 432 
Q 2048 461 2086 486 
Q 2214 576 2284 733 
Q 2355 890 2355 1139 
Q 2355 1382 2252 1542 
Q 2150 1702 1980 1811 
Q 1811 1920 1613 2003 
Q 1357 2112 1133 2221 
Q 909 2330 736 2470 
Q 563 2611 467 2825 
Q 371 3040 371 3360 
Q 371 3693 518 3958 
Q 666 4224 960 4381 
Q 1254 4538 1690 4538 
Q 1901 4538 2086 4515 
Q 2272 4493 2419 4467 
Q 2566 4442 2649 4419 
Q 2733 4397 2733 4397 
L 2643 3936 
Q 2643 3936 2553 3952 
Q 2464 3968 2310 3993 
Q 2157 4019 1965 4035 
Q 1773 4051 1574 4051 
Q 1414 4051 1321 4032 
Q 1229 4013 1158 3968 
Q 1075 3923 1001 3785 
Q 928 3648 928 3411 
Q 928 3149 1062 2982 
Q 1197 2816 1414 2710 
Q 1632 2605 1875 2502 
Q 2067 2426 2252 2326 
Q 2438 2227 2585 2086 
Q 2733 1946 2822 1731 
Q 2912 1517 2912 1210 
Q 2912 819 2742 528 
Q 2573 237 2272 73 
Q 1971 -90 1574 -90 
z
" transform="scale(0.015625)"/>
       <path id="Ruda-Regular-75" d="M 1498 -83 
Q 1242 -83 1027 41 
Q 813 166 688 454 
Q 563 742 563 1248 
L 563 3725 
L 1094 3725 
L 1094 1446 
Q 1094 1094 1113 870 
Q 1133 646 1184 557 
Q 1229 486 1328 454 
Q 1427 422 1555 422 
Q 1843 422 2128 534 
Q 2413 646 2662 762 
L 2662 3725 
L 3194 3725 
L 3194 0 
L 2835 0 
L 2771 358 
L 2733 358 
Q 2637 307 2445 201 
Q 2253 96 2009 6 
Q 1766 -83 1498 -83 
z
" transform="scale(0.015625)"/>
       <path id="Ruda-Regular-62" d="M 1952 -83 
Q 1779 -83 1526 -48 
Q 1274 -13 1018 41 
Q 762 96 576 160 
L 576 4819 
L 1107 4819 
L 1107 3667 
Q 1216 3693 1369 3725 
Q 1523 3757 1705 3782 
Q 1888 3808 2074 3808 
Q 2637 3808 2937 3363 
Q 3238 2918 3238 1926 
Q 3238 1312 3129 918 
Q 3021 525 2835 307 
Q 2650 90 2422 3 
Q 2195 -83 1952 -83 
z
M 1952 390 
Q 2125 390 2224 412 
Q 2323 435 2387 493 
Q 2445 550 2515 697 
Q 2586 845 2634 1161 
Q 2682 1478 2682 2029 
Q 2682 2579 2627 2867 
Q 2573 3155 2477 3232 
Q 2342 3334 2022 3334 
Q 1696 3334 1462 3270 
Q 1229 3206 1107 3162 
L 1107 493 
Q 1178 474 1293 451 
Q 1408 429 1571 409 
Q 1734 390 1952 390 
z
" transform="scale(0.015625)"/>
      </defs>
      <use xlink:href="#Ruda-Regular-53"/>
      <use xlink:href="#Ruda-Regular-75" x="51.099991"/>
      <use xlink:href="#Ruda-Regular-62" x="111.099976"/>
      <use xlink:href="#Ruda-Regular-73" x="168.699966"/>
      <use xlink:href="#Ruda-Regular-74" x="217.899963"/>
      <use xlink:href="#Ruda-Regular-72" x="254.299957"/>
      <use xlink:href="#Ruda-Regular-61" x="293.799942"/>
      <use xlink:href="#Ruda-Regular-74" x="350.699936"/>
      <use xlink:href="#Ruda-Regular-65" x="387.09993"/>
      <use xlink:href="#Ruda-Regular-20" x="444.199921"/>
      <use xlink:href="#Ruda-Regular-28" x="468.199905"/>
      <use xlink:href="#Ruda-Regular-53" x="499.799896"/>
      <use xlink:href="#Ruda-Regular-29" x="550.899887"/>
     </g>
    </g>
    <g id="line2d_31">
     <path d="M 313.690625 56.889375 
L 325.690625 56.889375 
L 337.690625 56.889375 
" style="fill: none; stroke: #efb475; stroke-width: 2; stroke-linecap: square"/>
    </g>
    <g id="text_17">
     <!-- Product (P) -->
     <g transform="translate(347.290625 61.089375) scale(0.12 -0.12)">
      <defs>
       <path id="Ruda-Regular-50" d="M 672 0 
L 698 2061 
L 672 4448 
Q 672 4448 803 4461 
Q 934 4474 1152 4493 
Q 1370 4512 1629 4525 
Q 1888 4538 2144 4538 
Q 2714 4538 3027 4163 
Q 3341 3789 3341 3040 
Q 3341 2573 3229 2265 
Q 3117 1958 2925 1788 
Q 2733 1619 2496 1548 
Q 2259 1478 2010 1478 
Q 1811 1478 1568 1494 
Q 1325 1510 1210 1517 
L 1210 0 
L 672 0 
z
M 2048 1933 
Q 2253 1933 2381 1955 
Q 2509 1978 2586 2054 
Q 2694 2163 2732 2428 
Q 2771 2694 2771 3104 
Q 2771 3450 2736 3638 
Q 2701 3827 2653 3910 
Q 2605 3994 2554 4026 
Q 2490 4070 2346 4099 
Q 2202 4128 2016 4128 
Q 1766 4128 1545 4105 
Q 1325 4083 1210 4058 
L 1210 2010 
Q 1299 1997 1545 1965 
Q 1792 1933 2048 1933 
z
" transform="scale(0.015625)"/>
       <path id="Ruda-Regular-64" d="M 1626 -83 
Q 1280 -83 1014 115 
Q 749 314 598 730 
Q 448 1146 448 1792 
Q 448 2413 560 2806 
Q 672 3200 864 3417 
Q 1056 3635 1289 3721 
Q 1523 3808 1773 3808 
Q 1984 3808 2144 3782 
Q 2304 3757 2422 3725 
Q 2541 3693 2611 3661 
L 2611 4819 
L 3142 4819 
L 3142 0 
L 2790 0 
L 2720 384 
L 2688 384 
Q 2605 320 2457 208 
Q 2310 96 2102 6 
Q 1894 -83 1626 -83 
z
M 1658 390 
Q 1786 390 1920 425 
Q 2054 461 2185 512 
Q 2317 563 2429 620 
Q 2541 678 2611 723 
L 2611 3168 
Q 2534 3200 2396 3238 
Q 2259 3277 2086 3305 
Q 1914 3334 1722 3334 
Q 1363 3334 1235 3181 
Q 1184 3110 1129 2956 
Q 1075 2803 1040 2518 
Q 1005 2234 1005 1766 
Q 1005 1242 1059 973 
Q 1114 704 1184 601 
Q 1254 499 1293 467 
Q 1344 422 1440 406 
Q 1536 390 1658 390 
z
" transform="scale(0.015625)"/>
      </defs>
      <use xlink:href="#Ruda-Regular-50"/>
      <use xlink:href="#Ruda-Regular-72" x="58.099991"/>
      <use xlink:href="#Ruda-Regular-6f" x="97.599976"/>
      <use xlink:href="#Ruda-Regular-64" x="155.199966"/>
      <use xlink:href="#Ruda-Regular-75" x="213.299957"/>
      <use xlink:href="#Ruda-Regular-63" x="273.299942"/>
      <use xlink:href="#Ruda-Regular-74" x="325.09993"/>
      <use xlink:href="#Ruda-Regular-20" x="361.499924"/>
      <use xlink:href="#Ruda-Regular-28" x="385.499908"/>
      <use xlink:href="#Ruda-Regular-50" x="417.099899"/>
      <use xlink:href="#Ruda-Regular-29" x="475.19989"/>
     </g>
    </g>
    <g id="line2d_32">
     <path d="M 313.690625 74.311875 
L 325.690625 74.311875 
L 337.690625 74.311875 
" style="fill: none; stroke-dasharray: 3.7,1.6; stroke-dashoffset: 0; stroke: #808080"/>
    </g>
    <g id="text_18">
     <!-- Indução -->
     <g transform="translate(347.290625 78.511875) scale(0.12 -0.12)">
      <defs>
       <path id="Ruda-Regular-49" d="M 672 -6 
L 691 2035 
L 672 4448 
L 1216 4448 
L 1190 2483 
L 1216 0 
L 672 -6 
z
" transform="scale(0.015625)"/>
       <path id="Ruda-Regular-e7" d="M 1731 -1146 
Q 1558 -1146 1411 -1117 
Q 1264 -1088 1264 -1088 
L 1264 -691 
Q 1264 -691 1341 -697 
Q 1418 -704 1514 -713 
Q 1610 -723 1674 -723 
Q 1866 -723 1942 -688 
Q 2019 -653 2019 -525 
Q 2019 -358 1987 -204 
Q 1955 -51 1930 38 
L 2307 64 
Q 2333 6 2358 -90 
Q 2384 -186 2406 -294 
Q 2429 -403 2429 -506 
Q 2429 -800 2230 -973 
Q 2032 -1146 1731 -1146 
z
M 1920 -83 
Q 1485 -83 1152 115 
Q 819 314 633 746 
Q 448 1178 448 1875 
Q 448 2445 573 2822 
Q 698 3200 915 3414 
Q 1133 3629 1427 3718 
Q 1722 3808 2054 3808 
Q 2298 3808 2550 3776 
Q 2803 3744 2963 3706 
L 2899 3258 
Q 2778 3270 2515 3305 
Q 2253 3341 1952 3341 
Q 1715 3341 1552 3302 
Q 1389 3264 1299 3174 
Q 1178 3040 1091 2685 
Q 1005 2330 1005 1837 
Q 1005 1382 1075 1104 
Q 1146 826 1242 682 
Q 1338 538 1414 480 
Q 1466 442 1552 410 
Q 1638 378 1798 378 
Q 1984 378 2176 422 
Q 2368 467 2528 524 
Q 2688 582 2787 627 
Q 2886 672 2886 672 
L 3053 256 
Q 3053 256 2912 173 
Q 2771 90 2515 3 
Q 2259 -83 1920 -83 
z
" transform="scale(0.015625)"/>
       <path id="Ruda-Regular-e3" d="M 1350 -83 
Q 1056 -83 829 54 
Q 602 192 474 457 
Q 346 723 346 1101 
Q 346 1555 528 1814 
Q 710 2074 1043 2182 
Q 1376 2291 1818 2291 
L 2496 2291 
Q 2496 2611 2480 2851 
Q 2464 3091 2374 3206 
Q 2310 3296 2198 3321 
Q 2086 3347 1965 3347 
Q 1715 3347 1475 3299 
Q 1235 3251 1040 3187 
Q 845 3123 729 3075 
Q 614 3027 614 3027 
L 429 3443 
Q 429 3443 550 3497 
Q 672 3552 877 3625 
Q 1082 3699 1334 3753 
Q 1587 3808 1856 3808 
Q 2291 3808 2547 3638 
Q 2803 3469 2915 3165 
Q 3027 2861 3027 2451 
L 3027 0 
L 2682 0 
L 2605 390 
L 2566 390 
Q 2502 346 2384 266 
Q 2266 186 2109 106 
Q 1952 26 1760 -28 
Q 1568 -83 1350 -83 
z
M 1440 384 
Q 1670 384 1878 451 
Q 2086 518 2249 601 
Q 2413 685 2496 736 
L 2496 1798 
Q 2413 1811 2246 1827 
Q 2080 1843 1811 1843 
Q 1216 1843 1075 1722 
Q 992 1658 947 1494 
Q 902 1331 902 1101 
Q 902 723 1027 553 
Q 1152 384 1440 384 
z
M 2290 4320 
Q 2187 4320 2036 4368 
Q 1886 4416 1732 4480 
Q 1579 4544 1460 4592 
Q 1342 4640 1298 4640 
Q 1259 4640 1217 4566 
Q 1176 4493 1150 4419 
Q 1125 4346 1125 4346 
L 792 4384 
Q 792 4749 917 4889 
Q 1042 5030 1259 5030 
Q 1368 5030 1512 4985 
Q 1656 4941 1803 4880 
Q 1950 4819 2068 4771 
Q 2187 4723 2232 4723 
Q 2277 4723 2315 4793 
Q 2354 4864 2382 4937 
Q 2411 5011 2411 5011 
L 2750 4966 
Q 2750 4608 2632 4464 
Q 2514 4320 2290 4320 
z
" transform="scale(0.015625)"/>
      </defs>
      <use xlink:href="#Ruda-Regular-49"/>
      <use xlink:href="#Ruda-Regular-6e" x="29.499985"/>
      <use xlink:href="#Ruda-Regular-64" x="89.599976"/>
      <use xlink:href="#Ruda-Regular-75" x="147.699966"/>
      <use xlink:href="#Ruda-Regular-e7" x="207.699951"/>
      <use xlink:href="#Ruda-Regular-e3" x="259.499939"/>
      <use xlink:href="#Ruda-Regular-6f" x="316.399933"/>
     </g>
    </g>
   </g>
  </g>
 </g>
 <defs>
  <clipPath id="pa92e400b76">
   <rect x="37.38875" y="7.2" width="390.6" height="221.76"/>
  </clipPath>
 </defs>
</svg>
