<?xml version="1.0" encoding="utf-8" standalone="no"?>
<!DOCTYPE svg PUBLIC "-//W3C//DTD SVG 1.1//EN"
  "http://www.w3.org/Graphics/SVG/1.1/DTD/svg11.dtd">
<svg xmlns:xlink="http://www.w3.org/1999/xlink" width="460.8pt" height="345.6pt" viewBox="0 0 460.8 345.6" xmlns="http://www.w3.org/2000/svg" version="1.1">
 <metadata>
  <rdf:RDF xmlns:dc="http://purl.org/dc/elements/1.1/" xmlns:cc="http://creativecommons.org/ns#" xmlns:rdf="http://www.w3.org/1999/02/22-rdf-syntax-ns#">
   <cc:Work>
    <dc:type rdf:resource="http://purl.org/dc/dcmitype/StillImage"/>
    <dc:date>2024-09-26T22:44:28.017862</dc:date>
    <dc:format>image/svg+xml</dc:format>
    <dc:creator>
     <cc:Agent>
      <dc:title>Matplotlib v3.6.2, https://matplotlib.org/</dc:title>
     </cc:Agent>
    </dc:creator>
   </cc:Work>
  </rdf:RDF>
 </metadata>
 <defs>
  <style type="text/css">*{stroke-linejoin: round; stroke-linecap: butt}</style>
 </defs>
 <g id="figure_1">
  <g id="patch_1">
   <path d="M 0 345.6 
L 460.8 345.6 
L 460.8 0 
L 0 0 
L 0 345.6 
z
" style="fill: none"/>
  </g>
  <g id="axes_1">
   <g id="patch_2">
    <path d="M 49.97 313.4 
L 450 313.4 
L 450 14.4 
L 49.97 14.4 
L 49.97 313.4 
z
" style="fill: none"/>
   </g>
   <g id="patch_3">
    <path d="M 68.153182 612.4 
L 229.781465 612.4 
L 229.781465 117.256 
L 68.153182 117.256 
z
" clip-path="url(#p46aeb7e64e)" style="fill: #e0218a"/>
   </g>
   <g id="patch_4">
    <path d="M 270.188535 612.4 
L 431.816818 612.4 
L 431.816818 142.8504 
L 270.188535 142.8504 
z
" clip-path="url(#p46aeb7e64e)" style="fill: #477081"/>
   </g>
   <g id="matplotlib.axis_1">
    <g id="xtick_1">
     <g id="line2d_1">
      <defs>
       <path id="mf10dd6aa05" d="M 0 0 
L 0 3.5 
" style="stroke: #000000; stroke-width: 0.8"/>
      </defs>
      <g>
       <use xlink:href="#mf10dd6aa05" x="148.967323" y="313.4" style="stroke: #000000; stroke-width: 0.8"/>
      </g>
     </g>
     <g id="text_1">
      <!-- BARBIE1 -->
      <g transform="translate(119.486073 332.4475) scale(0.16 -0.16)">
       <defs>
        <path id="Ruda-Regular-42" d="M 2067 -90 
Q 1830 -90 1590 -74 
Q 1350 -58 1152 -35 
Q 954 -13 826 3 
Q 698 19 678 26 
L 704 2067 
L 672 4461 
Q 698 4461 826 4473 
Q 954 4486 1152 4502 
Q 1350 4518 1577 4528 
Q 1805 4538 2022 4538 
Q 2374 4538 2656 4429 
Q 2938 4320 3107 4061 
Q 3277 3802 3277 3347 
Q 3277 2995 3171 2790 
Q 3066 2586 2922 2486 
Q 2778 2387 2659 2355 
Q 2541 2323 2522 2323 
L 2560 2573 
L 2560 2067 
L 2490 2310 
Q 2566 2310 2716 2275 
Q 2867 2240 3020 2137 
Q 3174 2035 3283 1833 
Q 3392 1632 3392 1299 
Q 3392 883 3280 611 
Q 3168 339 2976 185 
Q 2784 32 2550 -29 
Q 2317 -90 2067 -90 
z
M 2138 326 
Q 2554 326 2688 556 
Q 2822 787 2822 1267 
Q 2822 1747 2601 1926 
Q 2381 2106 1997 2106 
L 966 2106 
L 1210 2240 
L 1222 154 
L 1210 390 
Q 1242 390 1370 374 
Q 1498 358 1696 342 
Q 1894 326 2138 326 
z
M 2048 2522 
Q 2445 2522 2582 2710 
Q 2720 2899 2720 3328 
Q 2720 3782 2553 3961 
Q 2387 4141 1997 4141 
Q 1773 4141 1593 4128 
Q 1414 4115 1299 4102 
Q 1184 4090 1152 4083 
L 1210 4333 
L 1210 2374 
L 966 2528 
L 2048 2522 
z
" transform="scale(0.015625)"/>
        <path id="Ruda-Regular-41" d="M 32 0 
L 1242 4448 
L 1997 4448 
L 3206 0 
L 2656 0 
L 2317 1331 
L 2586 1178 
L 666 1178 
L 922 1331 
L 582 0 
L 32 0 
z
M 934 1402 
L 755 1651 
L 2483 1651 
L 2304 1402 
L 1581 4211 
L 1882 3974 
L 1357 3974 
L 1658 4211 
L 934 1402 
z
" transform="scale(0.015625)"/>
        <path id="Ruda-Regular-52" d="M 672 0 
L 704 2106 
L 685 4448 
Q 755 4461 915 4473 
Q 1075 4486 1280 4499 
Q 1485 4512 1699 4521 
Q 1914 4531 2099 4531 
Q 2534 4531 2854 4396 
Q 3174 4262 3347 3958 
Q 3520 3654 3520 3149 
Q 3520 2592 3277 2265 
Q 3034 1939 2573 1830 
L 2573 1811 
L 3578 0 
L 2944 0 
L 2048 1766 
L 1216 1798 
L 1216 0 
L 672 0 
z
M 2163 2214 
Q 2637 2214 2793 2441 
Q 2950 2669 2950 3155 
Q 2950 3552 2883 3760 
Q 2816 3968 2701 4032 
Q 2630 4077 2486 4099 
Q 2342 4122 2176 4122 
Q 1914 4122 1642 4096 
Q 1370 4070 1222 4051 
L 1210 2278 
Q 1434 2253 1686 2233 
Q 1939 2214 2163 2214 
z
" transform="scale(0.015625)"/>
        <path id="Ruda-Regular-49" d="M 672 -6 
L 691 2035 
L 672 4448 
L 1216 4448 
L 1190 2483 
L 1216 0 
L 672 -6 
z
" transform="scale(0.015625)"/>
        <path id="Ruda-Regular-45" d="M 672 0 
L 672 4448 
L 2854 4448 
L 2854 3974 
L 966 3994 
L 1216 4237 
L 1171 2330 
L 934 2490 
L 2701 2490 
L 2701 2035 
L 934 2035 
L 1171 2221 
L 1216 218 
L 966 461 
L 2854 474 
L 2854 0 
L 672 0 
z
" transform="scale(0.015625)"/>
        <path id="Ruda-Regular-31" d="M 493 0 
L 493 461 
L 1562 448 
L 1606 3962 
L 1574 3962 
L 634 2970 
L 275 3315 
L 1530 4493 
L 2106 4448 
L 2106 448 
L 3046 461 
L 3046 0 
L 493 0 
z
" transform="scale(0.015625)"/>
       </defs>
       <use xlink:href="#Ruda-Regular-42"/>
       <use xlink:href="#Ruda-Regular-41" x="61.399994"/>
       <use xlink:href="#Ruda-Regular-52" x="111.999985"/>
       <use xlink:href="#Ruda-Regular-42" x="175.499969"/>
       <use xlink:href="#Ruda-Regular-49" x="236.899963"/>
       <use xlink:href="#Ruda-Regular-45" x="266.399948"/>
       <use xlink:href="#Ruda-Regular-31" x="317.799942"/>
      </g>
     </g>
    </g>
    <g id="xtick_2">
     <g id="line2d_2">
      <g>
       <use xlink:href="#mf10dd6aa05" x="351.002677" y="313.4" style="stroke: #000000; stroke-width: 0.8"/>
      </g>
     </g>
     <g id="text_2">
      <!-- BaCBM2 -->
      <g transform="translate(321.128927 332.4475) scale(0.16 -0.16)">
       <defs>
        <path id="Ruda-Regular-61" d="M 1350 -83 
Q 1056 -83 829 54 
Q 602 192 474 457 
Q 346 723 346 1101 
Q 346 1555 528 1814 
Q 710 2074 1043 2182 
Q 1376 2291 1818 2291 
L 2496 2291 
Q 2496 2611 2480 2851 
Q 2464 3091 2374 3206 
Q 2310 3296 2198 3321 
Q 2086 3347 1965 3347 
Q 1715 3347 1475 3299 
Q 1235 3251 1040 3187 
Q 845 3123 729 3075 
Q 614 3027 614 3027 
L 429 3443 
Q 429 3443 550 3497 
Q 672 3552 877 3625 
Q 1082 3699 1334 3753 
Q 1587 3808 1856 3808 
Q 2291 3808 2547 3638 
Q 2803 3469 2915 3165 
Q 3027 2861 3027 2451 
L 3027 0 
L 2682 0 
L 2605 390 
L 2566 390 
Q 2502 346 2384 266 
Q 2266 186 2109 106 
Q 1952 26 1760 -28 
Q 1568 -83 1350 -83 
z
M 1440 384 
Q 1670 384 1878 451 
Q 2086 518 2249 601 
Q 2413 685 2496 736 
L 2496 1798 
Q 2413 1811 2246 1827 
Q 2080 1843 1811 1843 
Q 1216 1843 1075 1722 
Q 992 1658 947 1494 
Q 902 1331 902 1101 
Q 902 723 1027 553 
Q 1152 384 1440 384 
z
" transform="scale(0.015625)"/>
        <path id="Ruda-Regular-43" d="M 1997 -90 
Q 1542 -90 1196 131 
Q 851 352 656 851 
Q 461 1350 461 2176 
Q 461 2906 585 3370 
Q 710 3834 931 4090 
Q 1152 4346 1453 4442 
Q 1754 4538 2106 4538 
Q 2259 4538 2470 4522 
Q 2682 4506 2880 4483 
Q 3078 4461 3181 4435 
L 3117 3974 
Q 3059 3981 2931 3993 
Q 2803 4006 2649 4019 
Q 2496 4032 2355 4041 
Q 2214 4051 2138 4051 
Q 1824 4051 1635 4019 
Q 1446 3987 1357 3878 
Q 1274 3776 1197 3577 
Q 1120 3379 1075 3036 
Q 1030 2694 1030 2157 
Q 1030 1478 1161 1072 
Q 1293 666 1421 538 
Q 1510 448 1638 413 
Q 1766 378 1926 378 
Q 2170 378 2397 429 
Q 2624 480 2800 550 
Q 2976 621 3078 672 
Q 3181 723 3181 723 
L 3366 301 
Q 3366 301 3267 243 
Q 3168 186 2989 106 
Q 2810 26 2557 -32 
Q 2304 -90 1997 -90 
z
" transform="scale(0.015625)"/>
        <path id="Ruda-Regular-4d" d="M 640 0 
L 794 4448 
L 1574 4448 
L 2579 1549 
L 2624 1549 
L 3635 4448 
L 4416 4448 
L 4570 0 
L 4032 0 
L 3981 3910 
L 3936 3910 
L 2931 1043 
L 2272 1043 
L 1274 3910 
L 1229 3910 
L 1178 0 
L 640 0 
z
" transform="scale(0.015625)"/>
        <path id="Ruda-Regular-32" d="M 358 0 
L 358 416 
Q 358 416 652 761 
Q 947 1107 1510 1824 
Q 1914 2336 2170 2736 
Q 2426 3136 2426 3507 
Q 2426 3750 2294 3900 
Q 2163 4051 1837 4051 
Q 1632 4051 1405 3990 
Q 1178 3930 957 3834 
Q 736 3738 550 3616 
L 326 4019 
Q 429 4109 637 4230 
Q 845 4352 1126 4441 
Q 1408 4531 1715 4531 
Q 2074 4531 2352 4396 
Q 2630 4262 2790 4019 
Q 2950 3776 2950 3450 
Q 2950 3174 2838 2896 
Q 2726 2618 2556 2352 
Q 2387 2086 2202 1843 
Q 2131 1747 2003 1584 
Q 1875 1421 1728 1229 
Q 1581 1037 1446 867 
Q 1312 698 1225 589 
Q 1139 480 1139 480 
L 1139 448 
L 3046 480 
L 3046 0 
L 358 0 
z
" transform="scale(0.015625)"/>
       </defs>
       <use xlink:href="#Ruda-Regular-42"/>
       <use xlink:href="#Ruda-Regular-61" x="61.399994"/>
       <use xlink:href="#Ruda-Regular-43" x="118.299988"/>
       <use xlink:href="#Ruda-Regular-42" x="176.599976"/>
       <use xlink:href="#Ruda-Regular-4d" x="237.999969"/>
       <use xlink:href="#Ruda-Regular-32" x="319.399963"/>
      </g>
     </g>
    </g>
   </g>
   <g id="matplotlib.axis_2">
    <g id="ytick_1">
     <g id="line2d_3">
      <defs>
       <path id="m0e9d4324f3" d="M 0 0 
L -3.5 0 
" style="stroke: #000000; stroke-width: 0.8"/>
      </defs>
      <g>
       <use xlink:href="#m0e9d4324f3" x="49.97" y="313.4" style="stroke: #000000; stroke-width: 0.8"/>
      </g>
     </g>
     <g id="text_3">
      <!-- 0.5 -->
      <g transform="translate(29.618438 317.164844) scale(0.1 -0.1)">
       <defs>
        <path id="Ruda-Regular-30" d="M 1830 -83 
Q 1523 -83 1260 19 
Q 998 122 803 374 
Q 608 627 496 1078 
Q 384 1530 384 2234 
Q 384 2931 496 3379 
Q 608 3827 803 4080 
Q 998 4333 1260 4432 
Q 1523 4531 1830 4531 
Q 2138 4531 2400 4432 
Q 2662 4333 2860 4080 
Q 3059 3827 3168 3379 
Q 3277 2931 3277 2234 
Q 3277 1530 3168 1078 
Q 3059 627 2860 374 
Q 2662 122 2400 19 
Q 2138 -83 1830 -83 
z
M 1837 403 
Q 2131 403 2326 553 
Q 2522 704 2624 1101 
Q 2726 1498 2726 2234 
Q 2726 2803 2665 3161 
Q 2605 3520 2489 3712 
Q 2374 3904 2208 3977 
Q 2042 4051 1830 4051 
Q 1619 4051 1452 3980 
Q 1286 3910 1171 3718 
Q 1056 3526 998 3171 
Q 941 2816 941 2246 
Q 941 1510 1040 1110 
Q 1139 710 1340 556 
Q 1542 403 1837 403 
z
" transform="scale(0.015625)"/>
        <path id="Ruda-Regular-2e" d="M 486 0 
L 486 570 
L 1139 570 
L 1139 0 
L 486 0 
z
" transform="scale(0.015625)"/>
        <path id="Ruda-Regular-35" d="M 1555 -83 
Q 1261 -83 1008 -12 
Q 755 58 566 150 
Q 378 243 275 313 
Q 173 384 173 384 
L 378 787 
Q 378 787 490 729 
Q 602 672 784 592 
Q 966 512 1190 454 
Q 1414 397 1638 397 
Q 1939 397 2086 493 
Q 2208 576 2269 806 
Q 2330 1037 2330 1261 
Q 2330 1466 2282 1677 
Q 2234 1888 2144 1971 
Q 2042 2080 1728 2121 
Q 1414 2163 986 2163 
Q 845 2163 729 2160 
Q 614 2157 547 2153 
Q 480 2150 480 2150 
L 806 4448 
L 2694 4448 
L 2694 3981 
L 1254 4006 
L 1069 2643 
Q 1459 2624 1792 2566 
Q 2125 2509 2371 2368 
Q 2618 2227 2755 1974 
Q 2893 1722 2893 1312 
Q 2893 653 2534 285 
Q 2176 -83 1555 -83 
z
" transform="scale(0.015625)"/>
       </defs>
       <use xlink:href="#Ruda-Regular-30"/>
       <use xlink:href="#Ruda-Regular-2e" x="57.199997"/>
       <use xlink:href="#Ruda-Regular-35" x="82.599991"/>
      </g>
     </g>
    </g>
    <g id="ytick_2">
     <g id="line2d_4">
      <g>
       <use xlink:href="#m0e9d4324f3" x="49.97" y="253.6" style="stroke: #000000; stroke-width: 0.8"/>
      </g>
     </g>
     <g id="text_4">
      <!-- 0.6 -->
      <g transform="translate(29.18875 257.364844) scale(0.1 -0.1)">
       <defs>
        <path id="Ruda-Regular-36" d="M 1798 -83 
Q 1357 -83 1040 125 
Q 723 333 553 816 
Q 384 1299 384 2112 
Q 384 2842 515 3312 
Q 646 3782 873 4051 
Q 1101 4320 1401 4425 
Q 1702 4531 2035 4531 
Q 2304 4531 2502 4489 
Q 2701 4448 2813 4406 
Q 2925 4365 2925 4365 
L 2803 3910 
Q 2803 3910 2726 3929 
Q 2650 3949 2525 3977 
Q 2400 4006 2243 4025 
Q 2086 4045 1926 4045 
Q 1696 4045 1549 3993 
Q 1402 3942 1293 3834 
Q 1158 3693 1072 3411 
Q 986 3130 960 2618 
Q 960 2618 1059 2630 
Q 1158 2643 1315 2652 
Q 1472 2662 1638 2662 
Q 2099 2662 2438 2537 
Q 2778 2413 2963 2125 
Q 3149 1837 3149 1344 
Q 3149 653 2787 285 
Q 2426 -83 1798 -83 
z
M 1837 371 
Q 2285 371 2451 585 
Q 2618 800 2618 1325 
Q 2618 1651 2550 1843 
Q 2483 2035 2297 2118 
Q 2112 2202 1766 2202 
Q 1549 2202 1363 2179 
Q 1178 2157 1062 2134 
Q 947 2112 947 2112 
L 947 1600 
Q 947 1242 995 1024 
Q 1043 806 1107 700 
Q 1171 595 1210 550 
Q 1274 493 1414 432 
Q 1555 371 1837 371 
z
" transform="scale(0.015625)"/>
       </defs>
       <use xlink:href="#Ruda-Regular-30"/>
       <use xlink:href="#Ruda-Regular-2e" x="57.199997"/>
       <use xlink:href="#Ruda-Regular-36" x="82.599991"/>
      </g>
     </g>
    </g>
    <g id="ytick_3">
     <g id="line2d_5">
      <g>
       <use xlink:href="#m0e9d4324f3" x="49.97" y="193.8" style="stroke: #000000; stroke-width: 0.8"/>
      </g>
     </g>
     <g id="text_5">
      <!-- 0.7 -->
      <g transform="translate(29.999688 197.564844) scale(0.1 -0.1)">
       <defs>
        <path id="Ruda-Regular-37" d="M 1050 -45 
L 480 6 
L 2323 3962 
L 2323 4000 
L 154 3962 
L 154 4448 
L 2867 4448 
L 2867 4096 
L 1050 -45 
z
" transform="scale(0.015625)"/>
       </defs>
       <use xlink:href="#Ruda-Regular-30"/>
       <use xlink:href="#Ruda-Regular-2e" x="57.199997"/>
       <use xlink:href="#Ruda-Regular-37" x="82.599991"/>
      </g>
     </g>
    </g>
    <g id="ytick_4">
     <g id="line2d_6">
      <g>
       <use xlink:href="#m0e9d4324f3" x="49.97" y="134" style="stroke: #000000; stroke-width: 0.8"/>
      </g>
     </g>
     <g id="text_6">
      <!-- 0.8 -->
      <g transform="translate(29.309063 137.764844) scale(0.1 -0.1)">
       <defs>
        <path id="Ruda-Regular-38" d="M 1702 -83 
Q 1242 -83 928 105 
Q 614 294 457 595 
Q 301 896 301 1216 
Q 301 1498 413 1725 
Q 525 1952 697 2112 
Q 870 2272 1043 2342 
Q 806 2515 620 2774 
Q 435 3034 435 3418 
Q 435 3904 761 4217 
Q 1088 4531 1722 4531 
Q 2157 4531 2445 4380 
Q 2733 4230 2873 3977 
Q 3014 3725 3014 3411 
Q 3014 2982 2819 2720 
Q 2624 2458 2342 2298 
Q 2509 2202 2694 2061 
Q 2880 1920 3014 1705 
Q 3149 1491 3149 1165 
Q 3149 838 2979 553 
Q 2810 269 2486 93 
Q 2163 -83 1702 -83 
z
M 1722 378 
Q 2163 378 2364 566 
Q 2566 755 2566 1088 
Q 2566 1344 2467 1517 
Q 2368 1690 2144 1824 
Q 1920 1958 1542 2086 
Q 1229 1965 1056 1776 
Q 883 1587 883 1165 
Q 883 947 960 768 
Q 1037 589 1222 483 
Q 1408 378 1722 378 
z
M 1837 2515 
Q 2138 2624 2304 2829 
Q 2470 3034 2470 3405 
Q 2470 3712 2307 3901 
Q 2144 4090 1728 4090 
Q 1293 4090 1133 3920 
Q 973 3750 973 3475 
Q 973 3142 1171 2921 
Q 1370 2701 1837 2515 
z
" transform="scale(0.015625)"/>
       </defs>
       <use xlink:href="#Ruda-Regular-30"/>
       <use xlink:href="#Ruda-Regular-2e" x="57.199997"/>
       <use xlink:href="#Ruda-Regular-38" x="82.599991"/>
      </g>
     </g>
    </g>
    <g id="ytick_5">
     <g id="line2d_7">
      <g>
       <use xlink:href="#m0e9d4324f3" x="49.97" y="74.2" style="stroke: #000000; stroke-width: 0.8"/>
      </g>
     </g>
     <g id="text_7">
      <!-- 0.9 -->
      <g transform="translate(29.209063 77.964844) scale(0.1 -0.1)">
       <defs>
        <path id="Ruda-Regular-39" d="M 1722 -83 
Q 1472 -83 1251 -25 
Q 1030 32 864 112 
Q 698 192 602 249 
Q 506 307 506 307 
L 704 710 
Q 704 710 793 659 
Q 883 608 1036 541 
Q 1190 474 1382 422 
Q 1574 371 1779 371 
Q 1946 371 2048 412 
Q 2150 454 2221 531 
Q 2362 678 2464 1033 
Q 2566 1389 2566 1888 
Q 2566 1888 2432 1862 
Q 2298 1837 2102 1814 
Q 1907 1792 1709 1792 
Q 1312 1792 1014 1929 
Q 717 2067 550 2358 
Q 384 2650 384 3110 
Q 384 3782 736 4156 
Q 1088 4531 1722 4531 
Q 2144 4531 2464 4326 
Q 2784 4122 2960 3629 
Q 3136 3136 3136 2266 
Q 3136 1517 2989 992 
Q 2842 467 2531 192 
Q 2221 -83 1722 -83 
z
M 1683 2278 
Q 1926 2278 2124 2316 
Q 2323 2355 2444 2393 
Q 2566 2432 2566 2432 
Q 2566 3021 2515 3337 
Q 2464 3654 2390 3788 
Q 2317 3923 2234 3968 
Q 2138 4019 2000 4044 
Q 1862 4070 1702 4070 
Q 1370 4070 1200 3964 
Q 1030 3859 972 3641 
Q 915 3424 915 3091 
Q 915 2854 960 2668 
Q 1005 2483 1168 2380 
Q 1331 2278 1683 2278 
z
" transform="scale(0.015625)"/>
       </defs>
       <use xlink:href="#Ruda-Regular-30"/>
       <use xlink:href="#Ruda-Regular-2e" x="57.199997"/>
       <use xlink:href="#Ruda-Regular-39" x="82.599991"/>
      </g>
     </g>
    </g>
    <g id="ytick_6">
     <g id="line2d_8">
      <g>
       <use xlink:href="#m0e9d4324f3" x="49.97" y="14.4" style="stroke: #000000; stroke-width: 0.8"/>
      </g>
     </g>
     <g id="text_8">
      <!-- 1.0 -->
      <g transform="translate(29.63875 18.164844) scale(0.1 -0.1)">
       <use xlink:href="#Ruda-Regular-31"/>
       <use xlink:href="#Ruda-Regular-2e" x="50.699997"/>
       <use xlink:href="#Ruda-Regular-30" x="76.099991"/>
      </g>
     </g>
    </g>
    <g id="text_9">
     <!-- Efficiency -->
     <g transform="translate(22.53375 199.635) rotate(-90) scale(0.16 -0.16)">
      <defs>
       <path id="Ruda-Regular-66" d="M 736 0 
L 736 3098 
L 320 3098 
L 320 3424 
L 736 3507 
Q 742 4013 876 4317 
Q 1011 4621 1257 4761 
Q 1504 4902 1837 4902 
Q 1901 4902 1984 4899 
Q 2067 4896 2131 4893 
Q 2195 4890 2195 4890 
L 2157 4442 
Q 2157 4442 2070 4445 
Q 1984 4448 1878 4451 
Q 1773 4454 1709 4454 
Q 1536 4454 1440 4387 
Q 1344 4320 1305 4118 
Q 1267 3917 1261 3507 
L 2080 3507 
L 2080 3078 
L 1267 3078 
L 1267 0 
L 736 0 
z
" transform="scale(0.015625)"/>
       <path id="Ruda-Regular-69" d="M 678 0 
L 678 3725 
L 1210 3725 
L 1210 0 
L 678 0 
z
M 621 4358 
L 621 4902 
L 1274 4902 
L 1274 4358 
L 621 4358 
z
" transform="scale(0.015625)"/>
       <path id="Ruda-Regular-63" d="M 1920 -83 
Q 1485 -83 1152 115 
Q 819 314 633 746 
Q 448 1178 448 1875 
Q 448 2445 573 2822 
Q 698 3200 915 3414 
Q 1133 3629 1427 3718 
Q 1722 3808 2054 3808 
Q 2298 3808 2550 3776 
Q 2803 3744 2963 3706 
L 2899 3258 
Q 2778 3270 2515 3305 
Q 2253 3341 1952 3341 
Q 1715 3341 1552 3302 
Q 1389 3264 1299 3174 
Q 1178 3040 1091 2685 
Q 1005 2330 1005 1837 
Q 1005 1382 1075 1104 
Q 1146 826 1242 682 
Q 1338 538 1414 480 
Q 1466 442 1552 410 
Q 1638 378 1798 378 
Q 1984 378 2176 422 
Q 2368 467 2528 524 
Q 2688 582 2787 627 
Q 2886 672 2886 672 
L 3053 256 
Q 3053 256 2912 173 
Q 2771 90 2515 3 
Q 2259 -83 1920 -83 
z
" transform="scale(0.015625)"/>
       <path id="Ruda-Regular-65" d="M 1946 -90 
Q 1504 -90 1168 99 
Q 832 288 646 720 
Q 461 1152 461 1869 
Q 461 2618 656 3040 
Q 851 3462 1184 3638 
Q 1517 3814 1933 3814 
Q 2349 3814 2640 3648 
Q 2931 3482 3084 3094 
Q 3238 2707 3238 2054 
L 3238 1651 
L 781 1651 
L 1030 1747 
Q 1005 1325 1053 1072 
Q 1101 819 1174 697 
Q 1248 576 1299 525 
Q 1389 448 1517 409 
Q 1645 371 1830 371 
Q 2016 371 2195 400 
Q 2374 429 2528 470 
Q 2682 512 2803 553 
Q 2925 595 3002 614 
L 3136 186 
Q 3078 160 2912 93 
Q 2746 26 2499 -32 
Q 2253 -90 1946 -90 
z
M 1030 1843 
L 781 2074 
L 2938 2118 
L 2694 1882 
Q 2701 2336 2678 2662 
Q 2656 2989 2547 3162 
Q 2502 3232 2393 3293 
Q 2285 3354 1971 3354 
Q 1645 3354 1481 3283 
Q 1318 3213 1229 3098 
Q 992 2784 1030 1843 
z
" transform="scale(0.015625)"/>
       <path id="Ruda-Regular-6e" d="M 646 0 
L 646 3725 
L 1005 3725 
L 1062 3360 
L 1094 3360 
Q 1152 3392 1286 3465 
Q 1421 3539 1606 3619 
Q 1792 3699 2003 3753 
Q 2214 3808 2426 3808 
Q 2778 3808 2963 3632 
Q 3149 3456 3216 3155 
Q 3283 2854 3283 2477 
L 3283 0 
L 2752 0 
L 2752 2291 
Q 2752 2669 2739 2867 
Q 2726 3066 2656 3168 
Q 2605 3251 2509 3276 
Q 2413 3302 2304 3302 
Q 2074 3302 1834 3228 
Q 1594 3155 1414 3075 
Q 1235 2995 1178 2963 
L 1178 0 
L 646 0 
z
" transform="scale(0.015625)"/>
       <path id="Ruda-Regular-79" d="M 762 -1062 
L 1261 390 
L 70 3725 
L 640 3725 
L 1498 1005 
L 1523 1005 
L 2381 3725 
L 2950 3725 
L 1696 237 
L 1325 -1062 
L 762 -1062 
z
" transform="scale(0.015625)"/>
      </defs>
      <use xlink:href="#Ruda-Regular-45"/>
      <use xlink:href="#Ruda-Regular-66" x="51.399994"/>
      <use xlink:href="#Ruda-Regular-66" x="85.199982"/>
      <use xlink:href="#Ruda-Regular-69" x="118.999969"/>
      <use xlink:href="#Ruda-Regular-63" x="148.499954"/>
      <use xlink:href="#Ruda-Regular-69" x="200.299942"/>
      <use xlink:href="#Ruda-Regular-65" x="229.799927"/>
      <use xlink:href="#Ruda-Regular-6e" x="286.899918"/>
      <use xlink:href="#Ruda-Regular-63" x="346.999908"/>
      <use xlink:href="#Ruda-Regular-79" x="398.799896"/>
     </g>
    </g>
   </g>
   <g id="LineCollection_1">
    <path d="M 148.967323 131.326166 
L 148.967323 103.185834 
" clip-path="url(#p46aeb7e64e)" style="fill: none; stroke: #000000; stroke-width: 1.5"/>
   </g>
   <g id="line2d_9">
    <defs>
     <path id="mcac2514538" d="M 4 0 
L -4 -0 
" style="stroke: #000000"/>
    </defs>
    <g clip-path="url(#p46aeb7e64e)">
     <use xlink:href="#mcac2514538" x="148.967323" y="131.326166" style="stroke: #000000"/>
    </g>
   </g>
   <g id="line2d_10">
    <g clip-path="url(#p46aeb7e64e)">
     <use xlink:href="#mcac2514538" x="148.967323" y="103.185834" style="stroke: #000000"/>
    </g>
   </g>
   <g id="LineCollection_2">
    <path d="M 351.002677 154.619915 
L 351.002677 131.080885 
" clip-path="url(#p46aeb7e64e)" style="fill: none; stroke: #000000; stroke-width: 1.5"/>
   </g>
   <g id="line2d_11">
    <g clip-path="url(#p46aeb7e64e)">
     <use xlink:href="#mcac2514538" x="351.002677" y="154.619915" style="stroke: #000000"/>
    </g>
   </g>
   <g id="line2d_12">
    <g clip-path="url(#p46aeb7e64e)">
     <use xlink:href="#mcac2514538" x="351.002677" y="131.080885" style="stroke: #000000"/>
    </g>
   </g>
   <g id="patch_5">
    <path d="M 49.97 313.4 
L 49.97 14.4 
" style="fill: none; stroke: #000000; stroke-width: 0.8; stroke-linejoin: miter; stroke-linecap: square"/>
   </g>
   <g id="patch_6">
    <path d="M 450 313.4 
L 450 14.4 
" style="fill: none; stroke: #000000; stroke-width: 0.8; stroke-linejoin: miter; stroke-linecap: square"/>
   </g>
   <g id="patch_7">
    <path d="M 49.97 313.4 
L 450 313.4 
" style="fill: none; stroke: #000000; stroke-width: 0.8; stroke-linejoin: miter; stroke-linecap: square"/>
   </g>
   <g id="patch_8">
    <path d="M 49.97 14.4 
L 450 14.4 
" style="fill: none; stroke: #000000; stroke-width: 0.8; stroke-linejoin: miter; stroke-linecap: square"/>
   </g>
  </g>
 </g>
 <defs>
  <clipPath id="p46aeb7e64e">
   <rect x="49.97" y="14.4" width="400.03" height="299"/>
  </clipPath>
 </defs>
</svg>
