<?xml version="1.0" encoding="utf-8" standalone="no"?>
<!DOCTYPE svg PUBLIC "-//W3C//DTD SVG 1.1//EN"
  "http://www.w3.org/Graphics/SVG/1.1/DTD/svg11.dtd">
<svg xmlns:xlink="http://www.w3.org/1999/xlink" width="432pt" height="360pt" viewBox="0 0 432 360" xmlns="http://www.w3.org/2000/svg" version="1.1">
 <metadata>
  <rdf:RDF xmlns:dc="http://purl.org/dc/elements/1.1/" xmlns:cc="http://creativecommons.org/ns#" xmlns:rdf="http://www.w3.org/1999/02/22-rdf-syntax-ns#">
   <cc:Work>
    <dc:type rdf:resource="http://purl.org/dc/dcmitype/StillImage"/>
    <dc:date>2024-09-26T19:04:51.331736</dc:date>
    <dc:format>image/svg+xml</dc:format>
    <dc:creator>
     <cc:Agent>
      <dc:title>Matplotlib v3.6.2, https://matplotlib.org/</dc:title>
     </cc:Agent>
    </dc:creator>
   </cc:Work>
  </rdf:RDF>
 </metadata>
 <defs>
  <style type="text/css">*{stroke-linejoin: round; stroke-linecap: butt}</style>
 </defs>
 <g id="figure_1">
  <g id="patch_1">
   <path d="M 0 360 
L 432 360 
L 432 0 
L 0 0 
L 0 360 
z
" style="fill: none"/>
  </g>
  <g id="axes_1">
   <g id="patch_2">
    <path d="M 60.23 316.02625 
L 418.32 316.02625 
L 418.32 10.8 
L 60.23 10.8 
L 60.23 316.02625 
z
" style="fill: none"/>
   </g>
   <g id="patch_3">
    <path d="M 60.23 316.02625 
L 78.1345 316.02625 
L 78.1345 297.471463 
L 60.23 297.471463 
z
" clip-path="url(#p829c576085)" style="fill: #477081"/>
   </g>
   <g id="patch_4">
    <path d="M 78.1345 316.02625 
L 96.039 316.02625 
L 96.039 278.916676 
L 78.1345 278.916676 
z
" clip-path="url(#p829c576085)" style="fill: #477081"/>
   </g>
   <g id="patch_5">
    <path d="M 96.039 316.02625 
L 113.9435 316.02625 
L 113.9435 223.252314 
L 96.039 223.252314 
z
" clip-path="url(#p829c576085)" style="fill: #477081"/>
   </g>
   <g id="patch_6">
    <path d="M 113.9435 316.02625 
L 131.848 316.02625 
L 131.848 241.807101 
L 113.9435 241.807101 
z
" clip-path="url(#p829c576085)" style="fill: #477081"/>
   </g>
   <g id="patch_7">
    <path d="M 131.848 316.02625 
L 149.7525 316.02625 
L 149.7525 223.252314 
L 131.848 223.252314 
z
" clip-path="url(#p829c576085)" style="fill: #477081"/>
   </g>
   <g id="patch_8">
    <path d="M 149.7525 316.02625 
L 167.657 316.02625 
L 167.657 161.403023 
L 149.7525 161.403023 
z
" clip-path="url(#p829c576085)" style="fill: #477081"/>
   </g>
   <g id="patch_9">
    <path d="M 167.657 316.02625 
L 185.5615 316.02625 
L 185.5615 161.403023 
L 167.657 161.403023 
z
" clip-path="url(#p829c576085)" style="fill: #477081"/>
   </g>
   <g id="patch_10">
    <path d="M 185.5615 316.02625 
L 203.466 316.02625 
L 203.466 179.95781 
L 185.5615 179.95781 
z
" clip-path="url(#p829c576085)" style="fill: #477081"/>
   </g>
   <g id="patch_11">
    <path d="M 203.466 316.02625 
L 221.3705 316.02625 
L 221.3705 105.738661 
L 203.466 105.738661 
z
" clip-path="url(#p829c576085)" style="fill: #477081"/>
   </g>
   <g id="patch_12">
    <path d="M 221.3705 316.02625 
L 239.275 316.02625 
L 239.275 74.814016 
L 221.3705 74.814016 
z
" clip-path="url(#p829c576085)" style="fill: #477081"/>
   </g>
   <g id="patch_13">
    <path d="M 239.275 316.02625 
L 257.1795 316.02625 
L 257.1795 111.92359 
L 239.275 111.92359 
z
" clip-path="url(#p829c576085)" style="fill: #477081"/>
   </g>
   <g id="patch_14">
    <path d="M 257.1795 316.02625 
L 275.084 316.02625 
L 275.084 25.334583 
L 257.1795 25.334583 
z
" clip-path="url(#p829c576085)" style="fill: #477081"/>
   </g>
   <g id="patch_15">
    <path d="M 275.084 316.02625 
L 292.9885 316.02625 
L 292.9885 118.10852 
L 275.084 118.10852 
z
" clip-path="url(#p829c576085)" style="fill: #477081"/>
   </g>
   <g id="patch_16">
    <path d="M 292.9885 316.02625 
L 310.893 316.02625 
L 310.893 74.814016 
L 292.9885 74.814016 
z
" clip-path="url(#p829c576085)" style="fill: #477081"/>
   </g>
   <g id="patch_17">
    <path d="M 310.893 316.02625 
L 328.7975 316.02625 
L 328.7975 99.553732 
L 310.893 99.553732 
z
" clip-path="url(#p829c576085)" style="fill: #477081"/>
   </g>
   <g id="patch_18">
    <path d="M 328.7975 316.02625 
L 346.702 316.02625 
L 346.702 186.142739 
L 328.7975 186.142739 
z
" clip-path="url(#p829c576085)" style="fill: #477081"/>
   </g>
   <g id="patch_19">
    <path d="M 346.702 316.02625 
L 364.6065 316.02625 
L 364.6065 136.663307 
L 346.702 136.663307 
z
" clip-path="url(#p829c576085)" style="fill: #477081"/>
   </g>
   <g id="patch_20">
    <path d="M 364.6065 316.02625 
L 382.511 316.02625 
L 382.511 155.218094 
L 364.6065 155.218094 
z
" clip-path="url(#p829c576085)" style="fill: #477081"/>
   </g>
   <g id="patch_21">
    <path d="M 382.511 316.02625 
L 400.4155 316.02625 
L 400.4155 241.807101 
L 382.511 241.807101 
z
" clip-path="url(#p829c576085)" style="fill: #477081"/>
   </g>
   <g id="patch_22">
    <path d="M 400.4155 316.02625 
L 418.32 316.02625 
L 418.32 229.437243 
L 400.4155 229.437243 
z
" clip-path="url(#p829c576085)" style="fill: #477081"/>
   </g>
   <g id="matplotlib.axis_1">
    <g id="xtick_1">
     <g id="line2d_1">
      <defs>
       <path id="mb51cb93456" d="M 0 0 
L 0 3.5 
" style="stroke: #000000; stroke-width: 0.8"/>
      </defs>
      <g>
       <use xlink:href="#mb51cb93456" x="69.109914" y="316.02625" style="stroke: #000000; stroke-width: 0.8"/>
      </g>
     </g>
     <g id="text_1">
      <!-- −70 -->
      <g transform="translate(60.89507 330.555937) scale(0.1 -0.1)">
       <defs>
        <path id="Ruda-Regular-2212" d="M 333 1651 
L 333 2099 
L 3629 2099 
L 3629 1651 
L 333 1651 
z
" transform="scale(0.015625)"/>
        <path id="Ruda-Regular-37" d="M 1050 -45 
L 480 6 
L 2323 3962 
L 2323 4000 
L 154 3962 
L 154 4448 
L 2867 4448 
L 2867 4096 
L 1050 -45 
z
" transform="scale(0.015625)"/>
        <path id="Ruda-Regular-30" d="M 1830 -83 
Q 1523 -83 1260 19 
Q 998 122 803 374 
Q 608 627 496 1078 
Q 384 1530 384 2234 
Q 384 2931 496 3379 
Q 608 3827 803 4080 
Q 998 4333 1260 4432 
Q 1523 4531 1830 4531 
Q 2138 4531 2400 4432 
Q 2662 4333 2860 4080 
Q 3059 3827 3168 3379 
Q 3277 2931 3277 2234 
Q 3277 1530 3168 1078 
Q 3059 627 2860 374 
Q 2662 122 2400 19 
Q 2138 -83 1830 -83 
z
M 1837 403 
Q 2131 403 2326 553 
Q 2522 704 2624 1101 
Q 2726 1498 2726 2234 
Q 2726 2803 2665 3161 
Q 2605 3520 2489 3712 
Q 2374 3904 2208 3977 
Q 2042 4051 1830 4051 
Q 1619 4051 1452 3980 
Q 1286 3910 1171 3718 
Q 1056 3526 998 3171 
Q 941 2816 941 2246 
Q 941 1510 1040 1110 
Q 1139 710 1340 556 
Q 1542 403 1837 403 
z
" transform="scale(0.015625)"/>
       </defs>
       <use xlink:href="#Ruda-Regular-2212"/>
       <use xlink:href="#Ruda-Regular-37" x="59.999985"/>
       <use xlink:href="#Ruda-Regular-30" x="107.099976"/>
      </g>
     </g>
    </g>
    <g id="xtick_2">
     <g id="line2d_2">
      <g>
       <use xlink:href="#mb51cb93456" x="118.997069" y="316.02625" style="stroke: #000000; stroke-width: 0.8"/>
      </g>
     </g>
     <g id="text_2">
      <!-- −60 -->
      <g transform="translate(110.376756 330.555937) scale(0.1 -0.1)">
       <defs>
        <path id="Ruda-Regular-36" d="M 1798 -83 
Q 1357 -83 1040 125 
Q 723 333 553 816 
Q 384 1299 384 2112 
Q 384 2842 515 3312 
Q 646 3782 873 4051 
Q 1101 4320 1401 4425 
Q 1702 4531 2035 4531 
Q 2304 4531 2502 4489 
Q 2701 4448 2813 4406 
Q 2925 4365 2925 4365 
L 2803 3910 
Q 2803 3910 2726 3929 
Q 2650 3949 2525 3977 
Q 2400 4006 2243 4025 
Q 2086 4045 1926 4045 
Q 1696 4045 1549 3993 
Q 1402 3942 1293 3834 
Q 1158 3693 1072 3411 
Q 986 3130 960 2618 
Q 960 2618 1059 2630 
Q 1158 2643 1315 2652 
Q 1472 2662 1638 2662 
Q 2099 2662 2438 2537 
Q 2778 2413 2963 2125 
Q 3149 1837 3149 1344 
Q 3149 653 2787 285 
Q 2426 -83 1798 -83 
z
M 1837 371 
Q 2285 371 2451 585 
Q 2618 800 2618 1325 
Q 2618 1651 2550 1843 
Q 2483 2035 2297 2118 
Q 2112 2202 1766 2202 
Q 1549 2202 1363 2179 
Q 1178 2157 1062 2134 
Q 947 2112 947 2112 
L 947 1600 
Q 947 1242 995 1024 
Q 1043 806 1107 700 
Q 1171 595 1210 550 
Q 1274 493 1414 432 
Q 1555 371 1837 371 
z
" transform="scale(0.015625)"/>
       </defs>
       <use xlink:href="#Ruda-Regular-2212"/>
       <use xlink:href="#Ruda-Regular-36" x="59.999985"/>
       <use xlink:href="#Ruda-Regular-30" x="115.199982"/>
      </g>
     </g>
    </g>
    <g id="xtick_3">
     <g id="line2d_3">
      <g>
       <use xlink:href="#mb51cb93456" x="168.884224" y="316.02625" style="stroke: #000000; stroke-width: 0.8"/>
      </g>
     </g>
     <g id="text_3">
      <!-- −50 -->
      <g transform="translate(160.478755 330.555937) scale(0.1 -0.1)">
       <defs>
        <path id="Ruda-Regular-35" d="M 1555 -83 
Q 1261 -83 1008 -12 
Q 755 58 566 150 
Q 378 243 275 313 
Q 173 384 173 384 
L 378 787 
Q 378 787 490 729 
Q 602 672 784 592 
Q 966 512 1190 454 
Q 1414 397 1638 397 
Q 1939 397 2086 493 
Q 2208 576 2269 806 
Q 2330 1037 2330 1261 
Q 2330 1466 2282 1677 
Q 2234 1888 2144 1971 
Q 2042 2080 1728 2121 
Q 1414 2163 986 2163 
Q 845 2163 729 2160 
Q 614 2157 547 2153 
Q 480 2150 480 2150 
L 806 4448 
L 2694 4448 
L 2694 3981 
L 1254 4006 
L 1069 2643 
Q 1459 2624 1792 2566 
Q 2125 2509 2371 2368 
Q 2618 2227 2755 1974 
Q 2893 1722 2893 1312 
Q 2893 653 2534 285 
Q 2176 -83 1555 -83 
z
" transform="scale(0.015625)"/>
       </defs>
       <use xlink:href="#Ruda-Regular-2212"/>
       <use xlink:href="#Ruda-Regular-35" x="59.999985"/>
       <use xlink:href="#Ruda-Regular-30" x="110.899979"/>
      </g>
     </g>
    </g>
    <g id="xtick_4">
     <g id="line2d_4">
      <g>
       <use xlink:href="#mb51cb93456" x="218.771379" y="316.02625" style="stroke: #000000; stroke-width: 0.8"/>
      </g>
     </g>
     <g id="text_4">
      <!-- −40 -->
      <g transform="translate(210.226067 330.555937) scale(0.1 -0.1)">
       <defs>
        <path id="Ruda-Regular-34" d="M 2176 0 
L 2195 1037 
L 186 1037 
L 186 1440 
L 1197 4518 
L 1722 4448 
L 755 1517 
L 755 1485 
L 2195 1510 
L 2317 3232 
L 2714 3232 
L 2714 1510 
L 3123 1523 
L 3123 1037 
L 2714 1037 
L 2720 0 
L 2176 0 
z
" transform="scale(0.015625)"/>
       </defs>
       <use xlink:href="#Ruda-Regular-2212"/>
       <use xlink:href="#Ruda-Regular-34" x="59.999985"/>
       <use xlink:href="#Ruda-Regular-30" x="113.699982"/>
      </g>
     </g>
    </g>
    <g id="xtick_5">
     <g id="line2d_5">
      <g>
       <use xlink:href="#mb51cb93456" x="268.658534" y="316.02625" style="stroke: #000000; stroke-width: 0.8"/>
      </g>
     </g>
     <g id="text_5">
      <!-- −30 -->
      <g transform="translate(260.073378 330.555937) scale(0.1 -0.1)">
       <defs>
        <path id="Ruda-Regular-33" d="M 1613 -83 
Q 1331 -83 1097 -35 
Q 864 13 685 80 
Q 506 147 390 208 
Q 275 269 230 294 
L 435 704 
Q 480 685 601 633 
Q 723 582 899 528 
Q 1075 474 1280 435 
Q 1485 397 1696 397 
Q 2093 397 2237 592 
Q 2381 787 2381 1197 
Q 2381 1734 2169 1939 
Q 1958 2144 1510 2144 
L 915 2144 
L 915 2566 
Q 1306 2598 1568 2630 
Q 1830 2662 1984 2732 
Q 2138 2803 2202 2947 
Q 2266 3091 2266 3341 
Q 2266 3546 2230 3690 
Q 2195 3834 2131 3898 
Q 2048 3994 1862 4032 
Q 1677 4070 1408 4070 
Q 1293 4070 1181 4064 
Q 1069 4058 918 4042 
Q 768 4026 531 3994 
L 467 4429 
Q 582 4461 752 4483 
Q 922 4506 1110 4518 
Q 1299 4531 1453 4531 
Q 1843 4531 2150 4428 
Q 2458 4326 2637 4083 
Q 2816 3840 2816 3411 
Q 2816 3098 2726 2902 
Q 2637 2707 2512 2601 
Q 2387 2496 2272 2454 
Q 2157 2413 2099 2400 
L 2099 2374 
Q 2227 2355 2371 2297 
Q 2515 2240 2649 2115 
Q 2784 1990 2867 1779 
Q 2950 1568 2950 1242 
Q 2950 883 2822 582 
Q 2694 282 2400 99 
Q 2106 -83 1613 -83 
z
" transform="scale(0.015625)"/>
       </defs>
       <use xlink:href="#Ruda-Regular-2212"/>
       <use xlink:href="#Ruda-Regular-33" x="59.999985"/>
       <use xlink:href="#Ruda-Regular-30" x="114.499969"/>
      </g>
     </g>
    </g>
    <g id="xtick_6">
     <g id="line2d_6">
      <g>
       <use xlink:href="#mb51cb93456" x="318.54569" y="316.02625" style="stroke: #000000; stroke-width: 0.8"/>
      </g>
     </g>
     <g id="text_6">
      <!-- −20 -->
      <g transform="translate(309.985533 330.555937) scale(0.1 -0.1)">
       <defs>
        <path id="Ruda-Regular-32" d="M 358 0 
L 358 416 
Q 358 416 652 761 
Q 947 1107 1510 1824 
Q 1914 2336 2170 2736 
Q 2426 3136 2426 3507 
Q 2426 3750 2294 3900 
Q 2163 4051 1837 4051 
Q 1632 4051 1405 3990 
Q 1178 3930 957 3834 
Q 736 3738 550 3616 
L 326 4019 
Q 429 4109 637 4230 
Q 845 4352 1126 4441 
Q 1408 4531 1715 4531 
Q 2074 4531 2352 4396 
Q 2630 4262 2790 4019 
Q 2950 3776 2950 3450 
Q 2950 3174 2838 2896 
Q 2726 2618 2556 2352 
Q 2387 2086 2202 1843 
Q 2131 1747 2003 1584 
Q 1875 1421 1728 1229 
Q 1581 1037 1446 867 
Q 1312 698 1225 589 
Q 1139 480 1139 480 
L 1139 448 
L 3046 480 
L 3046 0 
L 358 0 
z
" transform="scale(0.015625)"/>
       </defs>
       <use xlink:href="#Ruda-Regular-2212"/>
       <use xlink:href="#Ruda-Regular-32" x="59.999985"/>
       <use xlink:href="#Ruda-Regular-30" x="113.999969"/>
      </g>
     </g>
    </g>
    <g id="xtick_7">
     <g id="line2d_7">
      <g>
       <use xlink:href="#mb51cb93456" x="368.432845" y="316.02625" style="stroke: #000000; stroke-width: 0.8"/>
      </g>
     </g>
     <g id="text_7">
      <!-- −10 -->
      <g transform="translate(360.037532 330.555937) scale(0.1 -0.1)">
       <defs>
        <path id="Ruda-Regular-31" d="M 493 0 
L 493 461 
L 1562 448 
L 1606 3962 
L 1574 3962 
L 634 2970 
L 275 3315 
L 1530 4493 
L 2106 4448 
L 2106 448 
L 3046 461 
L 3046 0 
L 493 0 
z
" transform="scale(0.015625)"/>
       </defs>
       <use xlink:href="#Ruda-Regular-2212"/>
       <use xlink:href="#Ruda-Regular-31" x="59.999985"/>
       <use xlink:href="#Ruda-Regular-30" x="110.699982"/>
      </g>
     </g>
    </g>
    <g id="xtick_8">
     <g id="line2d_8">
      <g>
       <use xlink:href="#mb51cb93456" x="418.32" y="316.02625" style="stroke: #000000; stroke-width: 0.8"/>
      </g>
     </g>
     <g id="text_8">
      <!-- 0 -->
      <g transform="translate(415.459844 330.555937) scale(0.1 -0.1)">
       <use xlink:href="#Ruda-Regular-30"/>
      </g>
     </g>
    </g>
    <g id="text_9">
     <!-- Energy (eV) -->
     <g transform="translate(204.067187 347.176875) scale(0.14 -0.14)">
      <defs>
       <path id="Ruda-Regular-45" d="M 672 0 
L 672 4448 
L 2854 4448 
L 2854 3974 
L 966 3994 
L 1216 4237 
L 1171 2330 
L 934 2490 
L 2701 2490 
L 2701 2035 
L 934 2035 
L 1171 2221 
L 1216 218 
L 966 461 
L 2854 474 
L 2854 0 
L 672 0 
z
" transform="scale(0.015625)"/>
       <path id="Ruda-Regular-6e" d="M 646 0 
L 646 3725 
L 1005 3725 
L 1062 3360 
L 1094 3360 
Q 1152 3392 1286 3465 
Q 1421 3539 1606 3619 
Q 1792 3699 2003 3753 
Q 2214 3808 2426 3808 
Q 2778 3808 2963 3632 
Q 3149 3456 3216 3155 
Q 3283 2854 3283 2477 
L 3283 0 
L 2752 0 
L 2752 2291 
Q 2752 2669 2739 2867 
Q 2726 3066 2656 3168 
Q 2605 3251 2509 3276 
Q 2413 3302 2304 3302 
Q 2074 3302 1834 3228 
Q 1594 3155 1414 3075 
Q 1235 2995 1178 2963 
L 1178 0 
L 646 0 
z
" transform="scale(0.015625)"/>
       <path id="Ruda-Regular-65" d="M 1946 -90 
Q 1504 -90 1168 99 
Q 832 288 646 720 
Q 461 1152 461 1869 
Q 461 2618 656 3040 
Q 851 3462 1184 3638 
Q 1517 3814 1933 3814 
Q 2349 3814 2640 3648 
Q 2931 3482 3084 3094 
Q 3238 2707 3238 2054 
L 3238 1651 
L 781 1651 
L 1030 1747 
Q 1005 1325 1053 1072 
Q 1101 819 1174 697 
Q 1248 576 1299 525 
Q 1389 448 1517 409 
Q 1645 371 1830 371 
Q 2016 371 2195 400 
Q 2374 429 2528 470 
Q 2682 512 2803 553 
Q 2925 595 3002 614 
L 3136 186 
Q 3078 160 2912 93 
Q 2746 26 2499 -32 
Q 2253 -90 1946 -90 
z
M 1030 1843 
L 781 2074 
L 2938 2118 
L 2694 1882 
Q 2701 2336 2678 2662 
Q 2656 2989 2547 3162 
Q 2502 3232 2393 3293 
Q 2285 3354 1971 3354 
Q 1645 3354 1481 3283 
Q 1318 3213 1229 3098 
Q 992 2784 1030 1843 
z
" transform="scale(0.015625)"/>
       <path id="Ruda-Regular-72" d="M 646 0 
L 646 3725 
L 986 3725 
L 1056 3347 
L 1094 3347 
Q 1094 3347 1193 3417 
Q 1293 3488 1453 3577 
Q 1613 3667 1795 3737 
Q 1978 3808 2138 3808 
Q 2234 3808 2317 3792 
Q 2400 3776 2400 3776 
L 2355 3264 
Q 2355 3264 2272 3270 
Q 2189 3277 2118 3277 
Q 1939 3277 1756 3225 
Q 1574 3174 1420 3097 
Q 1267 3021 1178 2950 
L 1178 0 
L 646 0 
z
" transform="scale(0.015625)"/>
       <path id="Ruda-Regular-67" d="M 1619 -1146 
Q 1363 -1146 1139 -1120 
Q 915 -1094 748 -1059 
Q 582 -1024 486 -998 
Q 390 -973 390 -973 
L 454 -493 
Q 813 -557 1190 -605 
Q 1568 -653 1920 -653 
Q 2278 -653 2400 -595 
Q 2522 -538 2522 -416 
Q 2522 -346 2490 -288 
Q 2458 -230 2374 -169 
Q 2291 -109 2131 -32 
Q 1971 45 1709 154 
Q 1344 307 1181 374 
Q 1018 442 976 464 
Q 934 486 934 506 
Q 934 512 966 592 
Q 998 672 1049 787 
Q 1101 902 1152 1027 
Q 1203 1152 1242 1242 
Q 819 1325 560 1651 
Q 301 1978 301 2445 
Q 301 2970 505 3264 
Q 710 3558 1046 3683 
Q 1382 3808 1773 3808 
Q 1901 3808 2077 3801 
Q 2253 3795 2435 3782 
Q 2618 3770 2774 3757 
Q 2931 3744 3027 3737 
Q 3123 3731 3123 3731 
L 3123 3392 
L 2701 3328 
Q 2701 3334 2755 3196 
Q 2810 3059 2864 2857 
Q 2918 2656 2918 2464 
Q 2918 2099 2758 1814 
Q 2598 1530 2297 1366 
Q 1997 1203 1574 1203 
Q 1555 1101 1529 963 
Q 1504 826 1504 800 
Q 1504 787 1545 764 
Q 1587 742 1712 694 
Q 1837 646 2080 538 
Q 2451 384 2649 237 
Q 2848 90 2925 -51 
Q 3002 -192 3002 -333 
Q 3002 -589 2826 -771 
Q 2650 -954 2339 -1050 
Q 2029 -1146 1619 -1146 
z
M 1606 1664 
Q 1894 1664 2070 1734 
Q 2246 1805 2326 1981 
Q 2406 2157 2406 2477 
Q 2406 2842 2361 3062 
Q 2317 3283 2278 3302 
Q 2266 3315 2170 3324 
Q 2074 3334 1958 3337 
Q 1843 3341 1756 3344 
Q 1670 3347 1670 3347 
Q 1370 3347 1181 3276 
Q 992 3206 905 3020 
Q 819 2835 819 2477 
Q 819 2003 1001 1833 
Q 1184 1664 1606 1664 
z
" transform="scale(0.015625)"/>
       <path id="Ruda-Regular-79" d="M 762 -1062 
L 1261 390 
L 70 3725 
L 640 3725 
L 1498 1005 
L 1523 1005 
L 2381 3725 
L 2950 3725 
L 1696 237 
L 1325 -1062 
L 762 -1062 
z
" transform="scale(0.015625)"/>
       <path id="Ruda-Regular-20" transform="scale(0.015625)"/>
       <path id="Ruda-Regular-28" d="M 1581 -794 
Q 1286 -614 1024 -265 
Q 762 83 602 662 
Q 442 1242 442 2106 
Q 442 2982 602 3561 
Q 762 4141 1024 4486 
Q 1286 4832 1581 5011 
L 1824 4672 
Q 1370 4384 1178 3721 
Q 986 3059 986 2106 
Q 986 1165 1178 499 
Q 1370 -166 1824 -461 
L 1581 -794 
z
" transform="scale(0.015625)"/>
       <path id="Ruda-Regular-56" d="M 1235 0 
L 32 4448 
L 582 4448 
L 1600 474 
L 1638 474 
L 2656 4448 
L 3206 4448 
L 2003 0 
L 1235 0 
z
" transform="scale(0.015625)"/>
       <path id="Ruda-Regular-29" d="M 435 -794 
L 198 -461 
Q 653 -166 845 499 
Q 1037 1165 1037 2106 
Q 1037 3059 845 3721 
Q 653 4384 198 4672 
L 435 5011 
Q 736 4832 998 4486 
Q 1261 4141 1421 3561 
Q 1581 2982 1581 2106 
Q 1581 1242 1421 662 
Q 1261 83 998 -265 
Q 736 -614 435 -794 
z
" transform="scale(0.015625)"/>
      </defs>
      <use xlink:href="#Ruda-Regular-45"/>
      <use xlink:href="#Ruda-Regular-6e" x="51.399994"/>
      <use xlink:href="#Ruda-Regular-65" x="111.499985"/>
      <use xlink:href="#Ruda-Regular-72" x="168.599976"/>
      <use xlink:href="#Ruda-Regular-67" x="208.09996"/>
      <use xlink:href="#Ruda-Regular-79" x="260.199951"/>
      <use xlink:href="#Ruda-Regular-20" x="308.099945"/>
      <use xlink:href="#Ruda-Regular-28" x="332.09993"/>
      <use xlink:href="#Ruda-Regular-65" x="363.699921"/>
      <use xlink:href="#Ruda-Regular-56" x="420.799911"/>
      <use xlink:href="#Ruda-Regular-29" x="471.399902"/>
     </g>
    </g>
   </g>
   <g id="matplotlib.axis_2">
    <g id="ytick_1">
     <g id="line2d_9">
      <defs>
       <path id="m98a13619e5" d="M 0 0 
L -3.5 0 
" style="stroke: #000000; stroke-width: 0.8"/>
      </defs>
      <g>
       <use xlink:href="#m98a13619e5" x="60.23" y="316.02625" style="stroke: #000000; stroke-width: 0.8"/>
      </g>
     </g>
     <g id="text_10">
      <!-- 0.000 -->
      <g transform="translate(27.808125 319.791094) scale(0.1 -0.1)">
       <defs>
        <path id="Ruda-Regular-2e" d="M 486 0 
L 486 570 
L 1139 570 
L 1139 0 
L 486 0 
z
" transform="scale(0.015625)"/>
       </defs>
       <use xlink:href="#Ruda-Regular-30"/>
       <use xlink:href="#Ruda-Regular-2e" x="57.199997"/>
       <use xlink:href="#Ruda-Regular-30" x="82.599991"/>
       <use xlink:href="#Ruda-Regular-30" x="139.799988"/>
       <use xlink:href="#Ruda-Regular-30" x="196.999985"/>
      </g>
     </g>
    </g>
    <g id="ytick_2">
     <g id="line2d_10">
      <g>
       <use xlink:href="#m98a13619e5" x="60.23" y="262.307791" style="stroke: #000000; stroke-width: 0.8"/>
      </g>
     </g>
     <g id="text_11">
      <!-- 0.005 -->
      <g transform="translate(28.437813 266.072634) scale(0.1 -0.1)">
       <use xlink:href="#Ruda-Regular-30"/>
       <use xlink:href="#Ruda-Regular-2e" x="57.199997"/>
       <use xlink:href="#Ruda-Regular-30" x="82.599991"/>
       <use xlink:href="#Ruda-Regular-30" x="139.799988"/>
       <use xlink:href="#Ruda-Regular-35" x="196.999985"/>
      </g>
     </g>
    </g>
    <g id="ytick_3">
     <g id="line2d_11">
      <g>
       <use xlink:href="#m98a13619e5" x="60.23" y="208.589331" style="stroke: #000000; stroke-width: 0.8"/>
      </g>
     </g>
     <g id="text_12">
      <!-- 0.010 -->
      <g transform="translate(28.458125 212.354175) scale(0.1 -0.1)">
       <use xlink:href="#Ruda-Regular-30"/>
       <use xlink:href="#Ruda-Regular-2e" x="57.199997"/>
       <use xlink:href="#Ruda-Regular-30" x="82.599991"/>
       <use xlink:href="#Ruda-Regular-31" x="139.799988"/>
       <use xlink:href="#Ruda-Regular-30" x="190.499985"/>
      </g>
     </g>
    </g>
    <g id="ytick_4">
     <g id="line2d_12">
      <g>
       <use xlink:href="#m98a13619e5" x="60.23" y="154.870872" style="stroke: #000000; stroke-width: 0.8"/>
      </g>
     </g>
     <g id="text_13">
      <!-- 0.015 -->
      <g transform="translate(29.087813 158.635716) scale(0.1 -0.1)">
       <use xlink:href="#Ruda-Regular-30"/>
       <use xlink:href="#Ruda-Regular-2e" x="57.199997"/>
       <use xlink:href="#Ruda-Regular-30" x="82.599991"/>
       <use xlink:href="#Ruda-Regular-31" x="139.799988"/>
       <use xlink:href="#Ruda-Regular-35" x="190.499985"/>
      </g>
     </g>
    </g>
    <g id="ytick_5">
     <g id="line2d_13">
      <g>
       <use xlink:href="#m98a13619e5" x="60.23" y="101.152413" style="stroke: #000000; stroke-width: 0.8"/>
      </g>
     </g>
     <g id="text_14">
      <!-- 0.020 -->
      <g transform="translate(28.128438 104.917256) scale(0.1 -0.1)">
       <use xlink:href="#Ruda-Regular-30"/>
       <use xlink:href="#Ruda-Regular-2e" x="57.199997"/>
       <use xlink:href="#Ruda-Regular-30" x="82.599991"/>
       <use xlink:href="#Ruda-Regular-32" x="139.799988"/>
       <use xlink:href="#Ruda-Regular-30" x="193.799973"/>
      </g>
     </g>
    </g>
    <g id="ytick_6">
     <g id="line2d_14">
      <g>
       <use xlink:href="#m98a13619e5" x="60.23" y="47.433953" style="stroke: #000000; stroke-width: 0.8"/>
      </g>
     </g>
     <g id="text_15">
      <!-- 0.025 -->
      <g transform="translate(28.758125 51.198797) scale(0.1 -0.1)">
       <use xlink:href="#Ruda-Regular-30"/>
       <use xlink:href="#Ruda-Regular-2e" x="57.199997"/>
       <use xlink:href="#Ruda-Regular-30" x="82.599991"/>
       <use xlink:href="#Ruda-Regular-32" x="139.799988"/>
       <use xlink:href="#Ruda-Regular-35" x="193.799973"/>
      </g>
     </g>
    </g>
    <g id="text_16">
     <!-- Count -->
     <g transform="translate(21.485 182.480469) rotate(-90) scale(0.14 -0.14)">
      <defs>
       <path id="Ruda-Regular-43" d="M 1997 -90 
Q 1542 -90 1196 131 
Q 851 352 656 851 
Q 461 1350 461 2176 
Q 461 2906 585 3370 
Q 710 3834 931 4090 
Q 1152 4346 1453 4442 
Q 1754 4538 2106 4538 
Q 2259 4538 2470 4522 
Q 2682 4506 2880 4483 
Q 3078 4461 3181 4435 
L 3117 3974 
Q 3059 3981 2931 3993 
Q 2803 4006 2649 4019 
Q 2496 4032 2355 4041 
Q 2214 4051 2138 4051 
Q 1824 4051 1635 4019 
Q 1446 3987 1357 3878 
Q 1274 3776 1197 3577 
Q 1120 3379 1075 3036 
Q 1030 2694 1030 2157 
Q 1030 1478 1161 1072 
Q 1293 666 1421 538 
Q 1510 448 1638 413 
Q 1766 378 1926 378 
Q 2170 378 2397 429 
Q 2624 480 2800 550 
Q 2976 621 3078 672 
Q 3181 723 3181 723 
L 3366 301 
Q 3366 301 3267 243 
Q 3168 186 2989 106 
Q 2810 26 2557 -32 
Q 2304 -90 1997 -90 
z
" transform="scale(0.015625)"/>
       <path id="Ruda-Regular-6f" d="M 1843 -83 
Q 1312 -83 1008 153 
Q 704 390 576 825 
Q 448 1261 448 1862 
Q 448 2464 576 2899 
Q 704 3334 1008 3571 
Q 1312 3808 1843 3808 
Q 2374 3808 2678 3571 
Q 2982 3334 3110 2899 
Q 3238 2464 3238 1862 
Q 3238 1261 3110 825 
Q 2982 390 2678 153 
Q 2374 -83 1843 -83 
z
M 1843 378 
Q 2086 378 2249 435 
Q 2413 493 2512 646 
Q 2611 800 2652 1094 
Q 2694 1389 2694 1862 
Q 2694 2336 2652 2630 
Q 2611 2925 2512 3081 
Q 2413 3238 2249 3292 
Q 2086 3347 1843 3347 
Q 1600 3347 1437 3292 
Q 1274 3238 1174 3081 
Q 1075 2925 1030 2630 
Q 986 2336 986 1862 
Q 986 1389 1030 1094 
Q 1075 800 1174 646 
Q 1274 493 1437 435 
Q 1600 378 1843 378 
z
" transform="scale(0.015625)"/>
       <path id="Ruda-Regular-75" d="M 1498 -83 
Q 1242 -83 1027 41 
Q 813 166 688 454 
Q 563 742 563 1248 
L 563 3725 
L 1094 3725 
L 1094 1446 
Q 1094 1094 1113 870 
Q 1133 646 1184 557 
Q 1229 486 1328 454 
Q 1427 422 1555 422 
Q 1843 422 2128 534 
Q 2413 646 2662 762 
L 2662 3725 
L 3194 3725 
L 3194 0 
L 2835 0 
L 2771 358 
L 2733 358 
Q 2637 307 2445 201 
Q 2253 96 2009 6 
Q 1766 -83 1498 -83 
z
" transform="scale(0.015625)"/>
       <path id="Ruda-Regular-74" d="M 1619 -90 
Q 1344 -90 1139 3 
Q 934 96 822 361 
Q 710 627 710 1152 
L 710 3091 
L 288 3091 
L 288 3424 
L 730 3514 
L 870 4384 
L 1242 4384 
L 1242 3507 
L 1984 3507 
L 1984 3078 
L 1242 3078 
L 1242 1114 
Q 1242 762 1261 602 
Q 1280 442 1360 400 
Q 1440 358 1632 358 
Q 1734 358 1811 361 
Q 1888 365 1933 368 
Q 1978 371 1978 371 
L 1978 -58 
Q 1978 -58 1882 -74 
Q 1786 -90 1619 -90 
z
" transform="scale(0.015625)"/>
      </defs>
      <use xlink:href="#Ruda-Regular-43"/>
      <use xlink:href="#Ruda-Regular-6f" x="58.299988"/>
      <use xlink:href="#Ruda-Regular-75" x="115.899979"/>
      <use xlink:href="#Ruda-Regular-6e" x="175.899963"/>
      <use xlink:href="#Ruda-Regular-74" x="235.999954"/>
     </g>
    </g>
   </g>
   <g id="patch_23">
    <path d="M 60.23 316.02625 
L 60.23 10.8 
" style="fill: none; stroke: #000000; stroke-width: 0.8; stroke-linejoin: miter; stroke-linecap: square"/>
   </g>
   <g id="patch_24">
    <path d="M 418.32 316.02625 
L 418.32 10.8 
" style="fill: none; stroke: #000000; stroke-width: 0.8; stroke-linejoin: miter; stroke-linecap: square"/>
   </g>
   <g id="patch_25">
    <path d="M 60.23 316.02625 
L 418.32 316.02625 
" style="fill: none; stroke: #000000; stroke-width: 0.8; stroke-linejoin: miter; stroke-linecap: square"/>
   </g>
   <g id="patch_26">
    <path d="M 60.23 10.8 
L 418.32 10.8 
" style="fill: none; stroke: #000000; stroke-width: 0.8; stroke-linejoin: miter; stroke-linecap: square"/>
   </g>
  </g>
 </g>
 <defs>
  <clipPath id="p829c576085">
   <rect x="60.23" y="10.8" width="358.09" height="305.22625"/>
  </clipPath>
 </defs>
</svg>
