<?xml version="1.0" encoding="utf-8" standalone="no"?>
<!DOCTYPE svg PUBLIC "-//W3C//DTD SVG 1.1//EN"
  "http://www.w3.org/Graphics/SVG/1.1/DTD/svg11.dtd">
<svg xmlns:xlink="http://www.w3.org/1999/xlink" width="460.8pt" height="345.6pt" viewBox="0 0 460.8 345.6" xmlns="http://www.w3.org/2000/svg" version="1.1">
 <metadata>
  <rdf:RDF xmlns:dc="http://purl.org/dc/elements/1.1/" xmlns:cc="http://creativecommons.org/ns#" xmlns:rdf="http://www.w3.org/1999/02/22-rdf-syntax-ns#">
   <cc:Work>
    <dc:type rdf:resource="http://purl.org/dc/dcmitype/StillImage"/>
    <dc:date>2024-09-27T10:52:04.313555</dc:date>
    <dc:format>image/svg+xml</dc:format>
    <dc:creator>
     <cc:Agent>
      <dc:title>Matplotlib v3.6.2, https://matplotlib.org/</dc:title>
     </cc:Agent>
    </dc:creator>
   </cc:Work>
  </rdf:RDF>
 </metadata>
 <defs>
  <style type="text/css">*{stroke-linejoin: round; stroke-linecap: butt}</style>
 </defs>
 <g id="figure_1">
  <g id="patch_1">
   <path d="M 0 345.6 
L 460.8 345.6 
L 460.8 0 
L 0 0 
L 0 345.6 
z
" style="fill: none"/>
  </g>
  <g id="axes_1">
   <g id="patch_2">
    <path d="M 60.23 301.62625 
L 450 301.62625 
L 450 10.8 
L 60.23 10.8 
L 60.23 301.62625 
z
" style="fill: none"/>
   </g>
   <g id="patch_3">
    <path d="M 124.224468 301.62625 
L 149.644531 301.62625 
L 149.644531 297.966926 
L 124.224468 297.966926 
z
" clip-path="url(#p4607ab83f5)" style="fill: #477081"/>
   </g>
   <g id="patch_4">
    <path d="M 149.644531 301.62625 
L 175.064594 301.62625 
L 175.064594 301.62625 
L 149.644531 301.62625 
z
" clip-path="url(#p4607ab83f5)" style="fill: #477081"/>
   </g>
   <g id="patch_5">
    <path d="M 175.064594 301.62625 
L 200.484657 301.62625 
L 200.484657 265.033007 
L 175.064594 265.033007 
z
" clip-path="url(#p4607ab83f5)" style="fill: #477081"/>
   </g>
   <g id="patch_6">
    <path d="M 200.484657 301.62625 
L 225.90472 301.62625 
L 225.90472 250.395709 
L 200.484657 250.395709 
z
" clip-path="url(#p4607ab83f5)" style="fill: #477081"/>
   </g>
   <g id="patch_7">
    <path d="M 225.90472 301.62625 
L 251.324784 301.62625 
L 251.324784 191.84652 
L 225.90472 191.84652 
z
" clip-path="url(#p4607ab83f5)" style="fill: #477081"/>
   </g>
   <g id="patch_8">
    <path d="M 251.324784 301.62625 
L 276.744847 301.62625 
L 276.744847 52.792195 
L 251.324784 52.792195 
z
" clip-path="url(#p4607ab83f5)" style="fill: #477081"/>
   </g>
   <g id="patch_9">
    <path d="M 276.744847 301.62625 
L 302.16491 301.62625 
L 302.16491 30.836249 
L 276.744847 30.836249 
z
" clip-path="url(#p4607ab83f5)" style="fill: #477081"/>
   </g>
   <g id="patch_10">
    <path d="M 302.16491 301.62625 
L 327.584973 301.62625 
L 327.584973 82.06679 
L 302.16491 82.06679 
z
" clip-path="url(#p4607ab83f5)" style="fill: #477081"/>
   </g>
   <g id="patch_11">
    <path d="M 327.584973 301.62625 
L 353.005036 301.62625 
L 353.005036 188.187196 
L 327.584973 188.187196 
z
" clip-path="url(#p4607ab83f5)" style="fill: #477081"/>
   </g>
   <g id="patch_12">
    <path d="M 353.005036 301.62625 
L 378.4251 301.62625 
L 378.4251 257.714358 
L 353.005036 257.714358 
z
" clip-path="url(#p4607ab83f5)" style="fill: #477081"/>
   </g>
   <g id="matplotlib.axis_1">
    <g id="xtick_1">
     <g id="line2d_1">
      <defs>
       <path id="mda2a9b600f" d="M 0 0 
L 0 3.5 
" style="stroke: #000000; stroke-width: 0.8"/>
      </defs>
      <g>
       <use xlink:href="#mda2a9b600f" x="128.383534" y="301.62625" style="stroke: #000000; stroke-width: 0.8"/>
      </g>
     </g>
     <g id="text_1">
      <!-- −800 -->
      <g transform="translate(116.963221 316.155937) scale(0.1 -0.1)">
       <defs>
        <path id="Ruda-Regular-2212" d="M 333 1651 
L 333 2099 
L 3629 2099 
L 3629 1651 
L 333 1651 
z
" transform="scale(0.015625)"/>
        <path id="Ruda-Regular-38" d="M 1702 -83 
Q 1242 -83 928 105 
Q 614 294 457 595 
Q 301 896 301 1216 
Q 301 1498 413 1725 
Q 525 1952 697 2112 
Q 870 2272 1043 2342 
Q 806 2515 620 2774 
Q 435 3034 435 3418 
Q 435 3904 761 4217 
Q 1088 4531 1722 4531 
Q 2157 4531 2445 4380 
Q 2733 4230 2873 3977 
Q 3014 3725 3014 3411 
Q 3014 2982 2819 2720 
Q 2624 2458 2342 2298 
Q 2509 2202 2694 2061 
Q 2880 1920 3014 1705 
Q 3149 1491 3149 1165 
Q 3149 838 2979 553 
Q 2810 269 2486 93 
Q 2163 -83 1702 -83 
z
M 1722 378 
Q 2163 378 2364 566 
Q 2566 755 2566 1088 
Q 2566 1344 2467 1517 
Q 2368 1690 2144 1824 
Q 1920 1958 1542 2086 
Q 1229 1965 1056 1776 
Q 883 1587 883 1165 
Q 883 947 960 768 
Q 1037 589 1222 483 
Q 1408 378 1722 378 
z
M 1837 2515 
Q 2138 2624 2304 2829 
Q 2470 3034 2470 3405 
Q 2470 3712 2307 3901 
Q 2144 4090 1728 4090 
Q 1293 4090 1133 3920 
Q 973 3750 973 3475 
Q 973 3142 1171 2921 
Q 1370 2701 1837 2515 
z
" transform="scale(0.015625)"/>
        <path id="Ruda-Regular-30" d="M 1830 -83 
Q 1523 -83 1260 19 
Q 998 122 803 374 
Q 608 627 496 1078 
Q 384 1530 384 2234 
Q 384 2931 496 3379 
Q 608 3827 803 4080 
Q 998 4333 1260 4432 
Q 1523 4531 1830 4531 
Q 2138 4531 2400 4432 
Q 2662 4333 2860 4080 
Q 3059 3827 3168 3379 
Q 3277 2931 3277 2234 
Q 3277 1530 3168 1078 
Q 3059 627 2860 374 
Q 2662 122 2400 19 
Q 2138 -83 1830 -83 
z
M 1837 403 
Q 2131 403 2326 553 
Q 2522 704 2624 1101 
Q 2726 1498 2726 2234 
Q 2726 2803 2665 3161 
Q 2605 3520 2489 3712 
Q 2374 3904 2208 3977 
Q 2042 4051 1830 4051 
Q 1619 4051 1452 3980 
Q 1286 3910 1171 3718 
Q 1056 3526 998 3171 
Q 941 2816 941 2246 
Q 941 1510 1040 1110 
Q 1139 710 1340 556 
Q 1542 403 1837 403 
z
" transform="scale(0.015625)"/>
       </defs>
       <use xlink:href="#Ruda-Regular-2212"/>
       <use xlink:href="#Ruda-Regular-38" x="59.999985"/>
       <use xlink:href="#Ruda-Regular-30" x="113.999969"/>
       <use xlink:href="#Ruda-Regular-30" x="171.199966"/>
      </g>
     </g>
    </g>
    <g id="xtick_2">
     <g id="line2d_2">
      <g>
       <use xlink:href="#mda2a9b600f" x="202.65257" y="301.62625" style="stroke: #000000; stroke-width: 0.8"/>
      </g>
     </g>
     <g id="text_2">
      <!-- −750 -->
      <g transform="translate(191.892414 316.155937) scale(0.1 -0.1)">
       <defs>
        <path id="Ruda-Regular-37" d="M 1050 -45 
L 480 6 
L 2323 3962 
L 2323 4000 
L 154 3962 
L 154 4448 
L 2867 4448 
L 2867 4096 
L 1050 -45 
z
" transform="scale(0.015625)"/>
        <path id="Ruda-Regular-35" d="M 1555 -83 
Q 1261 -83 1008 -12 
Q 755 58 566 150 
Q 378 243 275 313 
Q 173 384 173 384 
L 378 787 
Q 378 787 490 729 
Q 602 672 784 592 
Q 966 512 1190 454 
Q 1414 397 1638 397 
Q 1939 397 2086 493 
Q 2208 576 2269 806 
Q 2330 1037 2330 1261 
Q 2330 1466 2282 1677 
Q 2234 1888 2144 1971 
Q 2042 2080 1728 2121 
Q 1414 2163 986 2163 
Q 845 2163 729 2160 
Q 614 2157 547 2153 
Q 480 2150 480 2150 
L 806 4448 
L 2694 4448 
L 2694 3981 
L 1254 4006 
L 1069 2643 
Q 1459 2624 1792 2566 
Q 2125 2509 2371 2368 
Q 2618 2227 2755 1974 
Q 2893 1722 2893 1312 
Q 2893 653 2534 285 
Q 2176 -83 1555 -83 
z
" transform="scale(0.015625)"/>
       </defs>
       <use xlink:href="#Ruda-Regular-2212"/>
       <use xlink:href="#Ruda-Regular-37" x="59.999985"/>
       <use xlink:href="#Ruda-Regular-35" x="107.099976"/>
       <use xlink:href="#Ruda-Regular-30" x="157.999969"/>
      </g>
     </g>
    </g>
    <g id="xtick_3">
     <g id="line2d_3">
      <g>
       <use xlink:href="#mda2a9b600f" x="276.921607" y="301.62625" style="stroke: #000000; stroke-width: 0.8"/>
      </g>
     </g>
     <g id="text_3">
      <!-- −700 -->
      <g transform="translate(265.846607 316.155937) scale(0.1 -0.1)">
       <use xlink:href="#Ruda-Regular-2212"/>
       <use xlink:href="#Ruda-Regular-37" x="59.999985"/>
       <use xlink:href="#Ruda-Regular-30" x="107.099976"/>
       <use xlink:href="#Ruda-Regular-30" x="164.299973"/>
      </g>
     </g>
    </g>
    <g id="xtick_4">
     <g id="line2d_4">
      <g>
       <use xlink:href="#mda2a9b600f" x="351.190644" y="301.62625" style="stroke: #000000; stroke-width: 0.8"/>
      </g>
     </g>
     <g id="text_4">
      <!-- −650 -->
      <g transform="translate(340.025019 316.155937) scale(0.1 -0.1)">
       <defs>
        <path id="Ruda-Regular-36" d="M 1798 -83 
Q 1357 -83 1040 125 
Q 723 333 553 816 
Q 384 1299 384 2112 
Q 384 2842 515 3312 
Q 646 3782 873 4051 
Q 1101 4320 1401 4425 
Q 1702 4531 2035 4531 
Q 2304 4531 2502 4489 
Q 2701 4448 2813 4406 
Q 2925 4365 2925 4365 
L 2803 3910 
Q 2803 3910 2726 3929 
Q 2650 3949 2525 3977 
Q 2400 4006 2243 4025 
Q 2086 4045 1926 4045 
Q 1696 4045 1549 3993 
Q 1402 3942 1293 3834 
Q 1158 3693 1072 3411 
Q 986 3130 960 2618 
Q 960 2618 1059 2630 
Q 1158 2643 1315 2652 
Q 1472 2662 1638 2662 
Q 2099 2662 2438 2537 
Q 2778 2413 2963 2125 
Q 3149 1837 3149 1344 
Q 3149 653 2787 285 
Q 2426 -83 1798 -83 
z
M 1837 371 
Q 2285 371 2451 585 
Q 2618 800 2618 1325 
Q 2618 1651 2550 1843 
Q 2483 2035 2297 2118 
Q 2112 2202 1766 2202 
Q 1549 2202 1363 2179 
Q 1178 2157 1062 2134 
Q 947 2112 947 2112 
L 947 1600 
Q 947 1242 995 1024 
Q 1043 806 1107 700 
Q 1171 595 1210 550 
Q 1274 493 1414 432 
Q 1555 371 1837 371 
z
" transform="scale(0.015625)"/>
       </defs>
       <use xlink:href="#Ruda-Regular-2212"/>
       <use xlink:href="#Ruda-Regular-36" x="59.999985"/>
       <use xlink:href="#Ruda-Regular-35" x="115.199982"/>
       <use xlink:href="#Ruda-Regular-30" x="166.099976"/>
      </g>
     </g>
    </g>
    <g id="xtick_5">
     <g id="line2d_5">
      <g>
       <use xlink:href="#mda2a9b600f" x="425.459681" y="301.62625" style="stroke: #000000; stroke-width: 0.8"/>
      </g>
     </g>
     <g id="text_5">
      <!-- −600 -->
      <g transform="translate(413.979212 316.155937) scale(0.1 -0.1)">
       <use xlink:href="#Ruda-Regular-2212"/>
       <use xlink:href="#Ruda-Regular-36" x="59.999985"/>
       <use xlink:href="#Ruda-Regular-30" x="115.199982"/>
       <use xlink:href="#Ruda-Regular-30" x="172.399979"/>
      </g>
     </g>
    </g>
    <g id="text_6">
     <!-- Total Energy (eV) -->
     <g transform="translate(202.280313 332.776875) scale(0.14 -0.14)">
      <defs>
       <path id="Ruda-Regular-54" d="M 1248 0 
L 1261 3994 
L 13 3974 
L 13 4448 
L 3021 4448 
L 3021 3974 
L 1773 3994 
L 1786 0 
L 1248 0 
z
" transform="scale(0.015625)"/>
       <path id="Ruda-Regular-6f" d="M 1843 -83 
Q 1312 -83 1008 153 
Q 704 390 576 825 
Q 448 1261 448 1862 
Q 448 2464 576 2899 
Q 704 3334 1008 3571 
Q 1312 3808 1843 3808 
Q 2374 3808 2678 3571 
Q 2982 3334 3110 2899 
Q 3238 2464 3238 1862 
Q 3238 1261 3110 825 
Q 2982 390 2678 153 
Q 2374 -83 1843 -83 
z
M 1843 378 
Q 2086 378 2249 435 
Q 2413 493 2512 646 
Q 2611 800 2652 1094 
Q 2694 1389 2694 1862 
Q 2694 2336 2652 2630 
Q 2611 2925 2512 3081 
Q 2413 3238 2249 3292 
Q 2086 3347 1843 3347 
Q 1600 3347 1437 3292 
Q 1274 3238 1174 3081 
Q 1075 2925 1030 2630 
Q 986 2336 986 1862 
Q 986 1389 1030 1094 
Q 1075 800 1174 646 
Q 1274 493 1437 435 
Q 1600 378 1843 378 
z
" transform="scale(0.015625)"/>
       <path id="Ruda-Regular-74" d="M 1619 -90 
Q 1344 -90 1139 3 
Q 934 96 822 361 
Q 710 627 710 1152 
L 710 3091 
L 288 3091 
L 288 3424 
L 730 3514 
L 870 4384 
L 1242 4384 
L 1242 3507 
L 1984 3507 
L 1984 3078 
L 1242 3078 
L 1242 1114 
Q 1242 762 1261 602 
Q 1280 442 1360 400 
Q 1440 358 1632 358 
Q 1734 358 1811 361 
Q 1888 365 1933 368 
Q 1978 371 1978 371 
L 1978 -58 
Q 1978 -58 1882 -74 
Q 1786 -90 1619 -90 
z
" transform="scale(0.015625)"/>
       <path id="Ruda-Regular-61" d="M 1350 -83 
Q 1056 -83 829 54 
Q 602 192 474 457 
Q 346 723 346 1101 
Q 346 1555 528 1814 
Q 710 2074 1043 2182 
Q 1376 2291 1818 2291 
L 2496 2291 
Q 2496 2611 2480 2851 
Q 2464 3091 2374 3206 
Q 2310 3296 2198 3321 
Q 2086 3347 1965 3347 
Q 1715 3347 1475 3299 
Q 1235 3251 1040 3187 
Q 845 3123 729 3075 
Q 614 3027 614 3027 
L 429 3443 
Q 429 3443 550 3497 
Q 672 3552 877 3625 
Q 1082 3699 1334 3753 
Q 1587 3808 1856 3808 
Q 2291 3808 2547 3638 
Q 2803 3469 2915 3165 
Q 3027 2861 3027 2451 
L 3027 0 
L 2682 0 
L 2605 390 
L 2566 390 
Q 2502 346 2384 266 
Q 2266 186 2109 106 
Q 1952 26 1760 -28 
Q 1568 -83 1350 -83 
z
M 1440 384 
Q 1670 384 1878 451 
Q 2086 518 2249 601 
Q 2413 685 2496 736 
L 2496 1798 
Q 2413 1811 2246 1827 
Q 2080 1843 1811 1843 
Q 1216 1843 1075 1722 
Q 992 1658 947 1494 
Q 902 1331 902 1101 
Q 902 723 1027 553 
Q 1152 384 1440 384 
z
" transform="scale(0.015625)"/>
       <path id="Ruda-Regular-6c" d="M 678 0 
L 678 4819 
L 1210 4819 
L 1210 0 
L 678 0 
z
" transform="scale(0.015625)"/>
       <path id="Ruda-Regular-20" transform="scale(0.015625)"/>
       <path id="Ruda-Regular-45" d="M 672 0 
L 672 4448 
L 2854 4448 
L 2854 3974 
L 966 3994 
L 1216 4237 
L 1171 2330 
L 934 2490 
L 2701 2490 
L 2701 2035 
L 934 2035 
L 1171 2221 
L 1216 218 
L 966 461 
L 2854 474 
L 2854 0 
L 672 0 
z
" transform="scale(0.015625)"/>
       <path id="Ruda-Regular-6e" d="M 646 0 
L 646 3725 
L 1005 3725 
L 1062 3360 
L 1094 3360 
Q 1152 3392 1286 3465 
Q 1421 3539 1606 3619 
Q 1792 3699 2003 3753 
Q 2214 3808 2426 3808 
Q 2778 3808 2963 3632 
Q 3149 3456 3216 3155 
Q 3283 2854 3283 2477 
L 3283 0 
L 2752 0 
L 2752 2291 
Q 2752 2669 2739 2867 
Q 2726 3066 2656 3168 
Q 2605 3251 2509 3276 
Q 2413 3302 2304 3302 
Q 2074 3302 1834 3228 
Q 1594 3155 1414 3075 
Q 1235 2995 1178 2963 
L 1178 0 
L 646 0 
z
" transform="scale(0.015625)"/>
       <path id="Ruda-Regular-65" d="M 1946 -90 
Q 1504 -90 1168 99 
Q 832 288 646 720 
Q 461 1152 461 1869 
Q 461 2618 656 3040 
Q 851 3462 1184 3638 
Q 1517 3814 1933 3814 
Q 2349 3814 2640 3648 
Q 2931 3482 3084 3094 
Q 3238 2707 3238 2054 
L 3238 1651 
L 781 1651 
L 1030 1747 
Q 1005 1325 1053 1072 
Q 1101 819 1174 697 
Q 1248 576 1299 525 
Q 1389 448 1517 409 
Q 1645 371 1830 371 
Q 2016 371 2195 400 
Q 2374 429 2528 470 
Q 2682 512 2803 553 
Q 2925 595 3002 614 
L 3136 186 
Q 3078 160 2912 93 
Q 2746 26 2499 -32 
Q 2253 -90 1946 -90 
z
M 1030 1843 
L 781 2074 
L 2938 2118 
L 2694 1882 
Q 2701 2336 2678 2662 
Q 2656 2989 2547 3162 
Q 2502 3232 2393 3293 
Q 2285 3354 1971 3354 
Q 1645 3354 1481 3283 
Q 1318 3213 1229 3098 
Q 992 2784 1030 1843 
z
" transform="scale(0.015625)"/>
       <path id="Ruda-Regular-72" d="M 646 0 
L 646 3725 
L 986 3725 
L 1056 3347 
L 1094 3347 
Q 1094 3347 1193 3417 
Q 1293 3488 1453 3577 
Q 1613 3667 1795 3737 
Q 1978 3808 2138 3808 
Q 2234 3808 2317 3792 
Q 2400 3776 2400 3776 
L 2355 3264 
Q 2355 3264 2272 3270 
Q 2189 3277 2118 3277 
Q 1939 3277 1756 3225 
Q 1574 3174 1420 3097 
Q 1267 3021 1178 2950 
L 1178 0 
L 646 0 
z
" transform="scale(0.015625)"/>
       <path id="Ruda-Regular-67" d="M 1619 -1146 
Q 1363 -1146 1139 -1120 
Q 915 -1094 748 -1059 
Q 582 -1024 486 -998 
Q 390 -973 390 -973 
L 454 -493 
Q 813 -557 1190 -605 
Q 1568 -653 1920 -653 
Q 2278 -653 2400 -595 
Q 2522 -538 2522 -416 
Q 2522 -346 2490 -288 
Q 2458 -230 2374 -169 
Q 2291 -109 2131 -32 
Q 1971 45 1709 154 
Q 1344 307 1181 374 
Q 1018 442 976 464 
Q 934 486 934 506 
Q 934 512 966 592 
Q 998 672 1049 787 
Q 1101 902 1152 1027 
Q 1203 1152 1242 1242 
Q 819 1325 560 1651 
Q 301 1978 301 2445 
Q 301 2970 505 3264 
Q 710 3558 1046 3683 
Q 1382 3808 1773 3808 
Q 1901 3808 2077 3801 
Q 2253 3795 2435 3782 
Q 2618 3770 2774 3757 
Q 2931 3744 3027 3737 
Q 3123 3731 3123 3731 
L 3123 3392 
L 2701 3328 
Q 2701 3334 2755 3196 
Q 2810 3059 2864 2857 
Q 2918 2656 2918 2464 
Q 2918 2099 2758 1814 
Q 2598 1530 2297 1366 
Q 1997 1203 1574 1203 
Q 1555 1101 1529 963 
Q 1504 826 1504 800 
Q 1504 787 1545 764 
Q 1587 742 1712 694 
Q 1837 646 2080 538 
Q 2451 384 2649 237 
Q 2848 90 2925 -51 
Q 3002 -192 3002 -333 
Q 3002 -589 2826 -771 
Q 2650 -954 2339 -1050 
Q 2029 -1146 1619 -1146 
z
M 1606 1664 
Q 1894 1664 2070 1734 
Q 2246 1805 2326 1981 
Q 2406 2157 2406 2477 
Q 2406 2842 2361 3062 
Q 2317 3283 2278 3302 
Q 2266 3315 2170 3324 
Q 2074 3334 1958 3337 
Q 1843 3341 1756 3344 
Q 1670 3347 1670 3347 
Q 1370 3347 1181 3276 
Q 992 3206 905 3020 
Q 819 2835 819 2477 
Q 819 2003 1001 1833 
Q 1184 1664 1606 1664 
z
" transform="scale(0.015625)"/>
       <path id="Ruda-Regular-79" d="M 762 -1062 
L 1261 390 
L 70 3725 
L 640 3725 
L 1498 1005 
L 1523 1005 
L 2381 3725 
L 2950 3725 
L 1696 237 
L 1325 -1062 
L 762 -1062 
z
" transform="scale(0.015625)"/>
       <path id="Ruda-Regular-28" d="M 1581 -794 
Q 1286 -614 1024 -265 
Q 762 83 602 662 
Q 442 1242 442 2106 
Q 442 2982 602 3561 
Q 762 4141 1024 4486 
Q 1286 4832 1581 5011 
L 1824 4672 
Q 1370 4384 1178 3721 
Q 986 3059 986 2106 
Q 986 1165 1178 499 
Q 1370 -166 1824 -461 
L 1581 -794 
z
" transform="scale(0.015625)"/>
       <path id="Ruda-Regular-56" d="M 1235 0 
L 32 4448 
L 582 4448 
L 1600 474 
L 1638 474 
L 2656 4448 
L 3206 4448 
L 2003 0 
L 1235 0 
z
" transform="scale(0.015625)"/>
       <path id="Ruda-Regular-29" d="M 435 -794 
L 198 -461 
Q 653 -166 845 499 
Q 1037 1165 1037 2106 
Q 1037 3059 845 3721 
Q 653 4384 198 4672 
L 435 5011 
Q 736 4832 998 4486 
Q 1261 4141 1421 3561 
Q 1581 2982 1581 2106 
Q 1581 1242 1421 662 
Q 1261 83 998 -265 
Q 736 -614 435 -794 
z
" transform="scale(0.015625)"/>
      </defs>
      <use xlink:href="#Ruda-Regular-54"/>
      <use xlink:href="#Ruda-Regular-6f" x="47.399994"/>
      <use xlink:href="#Ruda-Regular-74" x="104.999985"/>
      <use xlink:href="#Ruda-Regular-61" x="141.399979"/>
      <use xlink:href="#Ruda-Regular-6c" x="198.299973"/>
      <use xlink:href="#Ruda-Regular-20" x="227.799957"/>
      <use xlink:href="#Ruda-Regular-45" x="251.799942"/>
      <use xlink:href="#Ruda-Regular-6e" x="303.199936"/>
      <use xlink:href="#Ruda-Regular-65" x="363.299927"/>
      <use xlink:href="#Ruda-Regular-72" x="420.399918"/>
      <use xlink:href="#Ruda-Regular-67" x="459.899902"/>
      <use xlink:href="#Ruda-Regular-79" x="511.999893"/>
      <use xlink:href="#Ruda-Regular-20" x="559.899887"/>
      <use xlink:href="#Ruda-Regular-28" x="583.899872"/>
      <use xlink:href="#Ruda-Regular-65" x="615.499863"/>
      <use xlink:href="#Ruda-Regular-56" x="672.599854"/>
      <use xlink:href="#Ruda-Regular-29" x="723.199844"/>
     </g>
    </g>
   </g>
   <g id="matplotlib.axis_2">
    <g id="ytick_1">
     <g id="line2d_6">
      <defs>
       <path id="mb0b8a7318b" d="M 0 0 
L -3.5 0 
" style="stroke: #000000; stroke-width: 0.8"/>
      </defs>
      <g>
       <use xlink:href="#mb0b8a7318b" x="60.23" y="301.62625" style="stroke: #000000; stroke-width: 0.8"/>
      </g>
     </g>
     <g id="text_7">
      <!-- 0.000 -->
      <g transform="translate(27.808125 305.391094) scale(0.1 -0.1)">
       <defs>
        <path id="Ruda-Regular-2e" d="M 486 0 
L 486 570 
L 1139 570 
L 1139 0 
L 486 0 
z
" transform="scale(0.015625)"/>
       </defs>
       <use xlink:href="#Ruda-Regular-30"/>
       <use xlink:href="#Ruda-Regular-2e" x="57.199997"/>
       <use xlink:href="#Ruda-Regular-30" x="82.599991"/>
       <use xlink:href="#Ruda-Regular-30" x="139.799988"/>
       <use xlink:href="#Ruda-Regular-30" x="196.999985"/>
      </g>
     </g>
    </g>
    <g id="ytick_2">
     <g id="line2d_7">
      <g>
       <use xlink:href="#mb0b8a7318b" x="60.23" y="264.051942" style="stroke: #000000; stroke-width: 0.8"/>
      </g>
     </g>
     <g id="text_8">
      <!-- 0.002 -->
      <g transform="translate(28.128438 267.816786) scale(0.1 -0.1)">
       <defs>
        <path id="Ruda-Regular-32" d="M 358 0 
L 358 416 
Q 358 416 652 761 
Q 947 1107 1510 1824 
Q 1914 2336 2170 2736 
Q 2426 3136 2426 3507 
Q 2426 3750 2294 3900 
Q 2163 4051 1837 4051 
Q 1632 4051 1405 3990 
Q 1178 3930 957 3834 
Q 736 3738 550 3616 
L 326 4019 
Q 429 4109 637 4230 
Q 845 4352 1126 4441 
Q 1408 4531 1715 4531 
Q 2074 4531 2352 4396 
Q 2630 4262 2790 4019 
Q 2950 3776 2950 3450 
Q 2950 3174 2838 2896 
Q 2726 2618 2556 2352 
Q 2387 2086 2202 1843 
Q 2131 1747 2003 1584 
Q 1875 1421 1728 1229 
Q 1581 1037 1446 867 
Q 1312 698 1225 589 
Q 1139 480 1139 480 
L 1139 448 
L 3046 480 
L 3046 0 
L 358 0 
z
" transform="scale(0.015625)"/>
       </defs>
       <use xlink:href="#Ruda-Regular-30"/>
       <use xlink:href="#Ruda-Regular-2e" x="57.199997"/>
       <use xlink:href="#Ruda-Regular-30" x="82.599991"/>
       <use xlink:href="#Ruda-Regular-30" x="139.799988"/>
       <use xlink:href="#Ruda-Regular-32" x="196.999985"/>
      </g>
     </g>
    </g>
    <g id="ytick_3">
     <g id="line2d_8">
      <g>
       <use xlink:href="#mb0b8a7318b" x="60.23" y="226.477634" style="stroke: #000000; stroke-width: 0.8"/>
      </g>
     </g>
     <g id="text_9">
      <!-- 0.004 -->
      <g transform="translate(28.158125 230.242477) scale(0.1 -0.1)">
       <defs>
        <path id="Ruda-Regular-34" d="M 2176 0 
L 2195 1037 
L 186 1037 
L 186 1440 
L 1197 4518 
L 1722 4448 
L 755 1517 
L 755 1485 
L 2195 1510 
L 2317 3232 
L 2714 3232 
L 2714 1510 
L 3123 1523 
L 3123 1037 
L 2714 1037 
L 2720 0 
L 2176 0 
z
" transform="scale(0.015625)"/>
       </defs>
       <use xlink:href="#Ruda-Regular-30"/>
       <use xlink:href="#Ruda-Regular-2e" x="57.199997"/>
       <use xlink:href="#Ruda-Regular-30" x="82.599991"/>
       <use xlink:href="#Ruda-Regular-30" x="139.799988"/>
       <use xlink:href="#Ruda-Regular-34" x="196.999985"/>
      </g>
     </g>
    </g>
    <g id="ytick_4">
     <g id="line2d_9">
      <g>
       <use xlink:href="#mb0b8a7318b" x="60.23" y="188.903325" style="stroke: #000000; stroke-width: 0.8"/>
      </g>
     </g>
     <g id="text_10">
      <!-- 0.006 -->
      <g transform="translate(28.008125 192.668169) scale(0.1 -0.1)">
       <use xlink:href="#Ruda-Regular-30"/>
       <use xlink:href="#Ruda-Regular-2e" x="57.199997"/>
       <use xlink:href="#Ruda-Regular-30" x="82.599991"/>
       <use xlink:href="#Ruda-Regular-30" x="139.799988"/>
       <use xlink:href="#Ruda-Regular-36" x="196.999985"/>
      </g>
     </g>
    </g>
    <g id="ytick_5">
     <g id="line2d_10">
      <g>
       <use xlink:href="#mb0b8a7318b" x="60.23" y="151.329017" style="stroke: #000000; stroke-width: 0.8"/>
      </g>
     </g>
     <g id="text_11">
      <!-- 0.008 -->
      <g transform="translate(28.128438 155.093861) scale(0.1 -0.1)">
       <use xlink:href="#Ruda-Regular-30"/>
       <use xlink:href="#Ruda-Regular-2e" x="57.199997"/>
       <use xlink:href="#Ruda-Regular-30" x="82.599991"/>
       <use xlink:href="#Ruda-Regular-30" x="139.799988"/>
       <use xlink:href="#Ruda-Regular-38" x="196.999985"/>
      </g>
     </g>
    </g>
    <g id="ytick_6">
     <g id="line2d_11">
      <g>
       <use xlink:href="#mb0b8a7318b" x="60.23" y="113.754709" style="stroke: #000000; stroke-width: 0.8"/>
      </g>
     </g>
     <g id="text_12">
      <!-- 0.010 -->
      <g transform="translate(28.458125 117.519553) scale(0.1 -0.1)">
       <defs>
        <path id="Ruda-Regular-31" d="M 493 0 
L 493 461 
L 1562 448 
L 1606 3962 
L 1574 3962 
L 634 2970 
L 275 3315 
L 1530 4493 
L 2106 4448 
L 2106 448 
L 3046 461 
L 3046 0 
L 493 0 
z
" transform="scale(0.015625)"/>
       </defs>
       <use xlink:href="#Ruda-Regular-30"/>
       <use xlink:href="#Ruda-Regular-2e" x="57.199997"/>
       <use xlink:href="#Ruda-Regular-30" x="82.599991"/>
       <use xlink:href="#Ruda-Regular-31" x="139.799988"/>
       <use xlink:href="#Ruda-Regular-30" x="190.499985"/>
      </g>
     </g>
    </g>
    <g id="ytick_7">
     <g id="line2d_12">
      <g>
       <use xlink:href="#mb0b8a7318b" x="60.23" y="76.180401" style="stroke: #000000; stroke-width: 0.8"/>
      </g>
     </g>
     <g id="text_13">
      <!-- 0.012 -->
      <g transform="translate(28.778438 79.945244) scale(0.1 -0.1)">
       <use xlink:href="#Ruda-Regular-30"/>
       <use xlink:href="#Ruda-Regular-2e" x="57.199997"/>
       <use xlink:href="#Ruda-Regular-30" x="82.599991"/>
       <use xlink:href="#Ruda-Regular-31" x="139.799988"/>
       <use xlink:href="#Ruda-Regular-32" x="190.499985"/>
      </g>
     </g>
    </g>
    <g id="ytick_8">
     <g id="line2d_13">
      <g>
       <use xlink:href="#mb0b8a7318b" x="60.23" y="38.606092" style="stroke: #000000; stroke-width: 0.8"/>
      </g>
     </g>
     <g id="text_14">
      <!-- 0.014 -->
      <g transform="translate(28.808125 42.370936) scale(0.1 -0.1)">
       <use xlink:href="#Ruda-Regular-30"/>
       <use xlink:href="#Ruda-Regular-2e" x="57.199997"/>
       <use xlink:href="#Ruda-Regular-30" x="82.599991"/>
       <use xlink:href="#Ruda-Regular-31" x="139.799988"/>
       <use xlink:href="#Ruda-Regular-34" x="190.499985"/>
      </g>
     </g>
    </g>
    <g id="text_15">
     <!-- Count -->
     <g transform="translate(21.485 175.280469) rotate(-90) scale(0.14 -0.14)">
      <defs>
       <path id="Ruda-Regular-43" d="M 1997 -90 
Q 1542 -90 1196 131 
Q 851 352 656 851 
Q 461 1350 461 2176 
Q 461 2906 585 3370 
Q 710 3834 931 4090 
Q 1152 4346 1453 4442 
Q 1754 4538 2106 4538 
Q 2259 4538 2470 4522 
Q 2682 4506 2880 4483 
Q 3078 4461 3181 4435 
L 3117 3974 
Q 3059 3981 2931 3993 
Q 2803 4006 2649 4019 
Q 2496 4032 2355 4041 
Q 2214 4051 2138 4051 
Q 1824 4051 1635 4019 
Q 1446 3987 1357 3878 
Q 1274 3776 1197 3577 
Q 1120 3379 1075 3036 
Q 1030 2694 1030 2157 
Q 1030 1478 1161 1072 
Q 1293 666 1421 538 
Q 1510 448 1638 413 
Q 1766 378 1926 378 
Q 2170 378 2397 429 
Q 2624 480 2800 550 
Q 2976 621 3078 672 
Q 3181 723 3181 723 
L 3366 301 
Q 3366 301 3267 243 
Q 3168 186 2989 106 
Q 2810 26 2557 -32 
Q 2304 -90 1997 -90 
z
" transform="scale(0.015625)"/>
       <path id="Ruda-Regular-75" d="M 1498 -83 
Q 1242 -83 1027 41 
Q 813 166 688 454 
Q 563 742 563 1248 
L 563 3725 
L 1094 3725 
L 1094 1446 
Q 1094 1094 1113 870 
Q 1133 646 1184 557 
Q 1229 486 1328 454 
Q 1427 422 1555 422 
Q 1843 422 2128 534 
Q 2413 646 2662 762 
L 2662 3725 
L 3194 3725 
L 3194 0 
L 2835 0 
L 2771 358 
L 2733 358 
Q 2637 307 2445 201 
Q 2253 96 2009 6 
Q 1766 -83 1498 -83 
z
" transform="scale(0.015625)"/>
      </defs>
      <use xlink:href="#Ruda-Regular-43"/>
      <use xlink:href="#Ruda-Regular-6f" x="58.299988"/>
      <use xlink:href="#Ruda-Regular-75" x="115.899979"/>
      <use xlink:href="#Ruda-Regular-6e" x="175.899963"/>
      <use xlink:href="#Ruda-Regular-74" x="235.999954"/>
     </g>
    </g>
   </g>
   <g id="line2d_14">
    <path d="M 77.946818 301.625995 
L 81.525973 301.625842 
L 85.105129 301.625602 
L 88.684284 301.625229 
L 92.263439 301.624654 
L 95.842594 301.623777 
L 99.421749 301.622449 
L 103.000904 301.620453 
L 106.58006 301.617482 
L 110.159215 301.613095 
L 113.73837 301.606672 
L 117.317525 301.597348 
L 120.89668 301.583927 
L 124.475836 301.564775 
L 128.054991 301.537677 
L 131.634146 301.499664 
L 135.213301 301.446797 
L 138.792456 301.373902 
L 142.371612 301.274262 
L 145.950767 301.13924 
L 149.529922 300.957861 
L 153.109077 300.716334 
L 156.688232 300.397525 
L 160.267388 299.980405 
L 163.846543 299.439473 
L 167.425698 298.744203 
L 171.004853 297.858528 
L 174.584008 296.740428 
L 178.163163 295.341652 
L 181.742319 293.60765 
L 185.321474 291.477778 
L 188.900629 288.885826 
L 192.479784 285.760952 
L 196.058939 282.029065 
L 199.638095 277.614697 
L 203.21725 272.443386 
L 206.796405 266.444561 
L 210.37556 259.554888 
L 213.954715 251.721997 
L 217.533871 242.908466 
L 221.113026 233.095913 
L 224.692181 222.288993 
L 228.271336 210.51907 
L 231.850491 197.847333 
L 235.429646 184.367091 
L 239.008802 170.205022 
L 242.587957 155.521151 
L 246.167112 140.507406 
L 249.746267 125.384658 
L 253.325422 110.398205 
L 256.904578 95.811796 
L 260.483733 81.900343 
L 264.062888 68.941582 
L 267.642043 57.207017 
L 271.221198 46.952552 
L 274.800354 38.409258 
L 278.379509 31.774738 
L 281.958664 27.205532 
L 285.537819 24.810978 
L 289.116974 24.648869 
L 292.696129 26.723129 
L 296.275285 30.983658 
L 299.85444 37.328342 
L 303.433595 45.607122 
L 307.01275 55.62789 
L 310.591905 67.163898 
L 314.171061 79.962268 
L 317.750216 93.753169 
L 321.329371 108.259196 
L 324.908526 123.20449 
L 328.487681 138.323212 
L 332.066837 153.366994 
L 335.645992 168.111122 
L 339.225147 182.359263 
L 342.804302 195.946659 
L 346.383457 208.74178 
L 349.962612 220.646543 
L 353.541768 231.595238 
L 357.120923 241.552366 
L 360.700078 250.50963 
L 364.279233 258.482325 
L 367.858388 265.505373 
L 371.437544 271.629236 
L 375.016699 276.915901 
L 378.595854 281.43511 
L 382.175009 285.260953 
L 385.754164 288.468911 
L 389.33332 291.133403 
L 392.912475 293.325836 
L 396.49163 295.113158 
L 400.070785 296.556858 
L 403.64994 297.712388 
L 407.229096 298.628908 
L 410.808251 299.349327 
L 414.387406 299.91055 
L 417.966561 300.343874 
L 421.545716 300.67549 
L 425.124871 300.927041 
L 428.704027 301.116186 
L 432.283182 301.257168 
" clip-path="url(#p4607ab83f5)" style="fill: none; stroke: #e0218a; stroke-width: 1.5; stroke-linecap: square"/>
   </g>
   <g id="patch_13">
    <path d="M 60.23 301.62625 
L 60.23 10.8 
" style="fill: none; stroke: #000000; stroke-width: 0.8; stroke-linejoin: miter; stroke-linecap: square"/>
   </g>
   <g id="patch_14">
    <path d="M 450 301.62625 
L 450 10.8 
" style="fill: none; stroke: #000000; stroke-width: 0.8; stroke-linejoin: miter; stroke-linecap: square"/>
   </g>
   <g id="patch_15">
    <path d="M 60.23 301.62625 
L 450 301.62625 
" style="fill: none; stroke: #000000; stroke-width: 0.8; stroke-linejoin: miter; stroke-linecap: square"/>
   </g>
   <g id="patch_16">
    <path d="M 60.23 10.8 
L 450 10.8 
" style="fill: none; stroke: #000000; stroke-width: 0.8; stroke-linejoin: miter; stroke-linecap: square"/>
   </g>
   <g id="legend_1">
    <g id="patch_17">
     <path d="M 335.649375 37.426875 
L 441.6 37.426875 
Q 444 37.426875 444 35.026875 
L 444 19.2 
Q 444 16.8 441.6 16.8 
L 335.649375 16.8 
Q 333.249375 16.8 333.249375 19.2 
L 333.249375 35.026875 
Q 333.249375 37.426875 335.649375 37.426875 
z
" style="fill: #ffffff; opacity: 0.8; stroke: #cccccc; stroke-linejoin: miter"/>
    </g>
    <g id="line2d_15">
     <path d="M 338.049375 26.435625 
L 350.049375 26.435625 
L 362.049375 26.435625 
" style="fill: none; stroke: #e0218a; stroke-width: 1.5; stroke-linecap: square"/>
    </g>
    <g id="text_16">
     <!-- Gaussian Fit -->
     <g transform="translate(371.649375 30.635625) scale(0.12 -0.12)">
      <defs>
       <path id="Ruda-Regular-47" d="M 2118 -83 
Q 1786 -83 1485 9 
Q 1184 102 953 352 
Q 723 602 592 1059 
Q 461 1517 461 2240 
Q 461 2950 585 3401 
Q 710 3853 940 4099 
Q 1171 4346 1491 4438 
Q 1811 4531 2202 4531 
Q 2406 4531 2617 4515 
Q 2829 4499 3011 4473 
Q 3194 4448 3296 4422 
L 3232 3962 
Q 3110 3974 2844 4009 
Q 2579 4045 2163 4045 
Q 1843 4045 1648 4009 
Q 1453 3974 1357 3872 
Q 1235 3750 1136 3366 
Q 1037 2982 1037 2253 
Q 1037 1696 1097 1350 
Q 1158 1005 1235 829 
Q 1312 653 1370 589 
Q 1446 506 1622 445 
Q 1798 384 2144 384 
Q 2368 384 2537 409 
Q 2707 435 2810 480 
L 2810 2131 
L 3053 1875 
L 2131 1920 
L 2131 2317 
L 3322 2317 
L 3322 166 
Q 3322 166 3171 105 
Q 3021 45 2749 -19 
Q 2477 -83 2118 -83 
z
" transform="scale(0.015625)"/>
       <path id="Ruda-Regular-73" d="M 1568 -83 
Q 1331 -83 1113 -35 
Q 896 13 723 73 
Q 550 134 451 179 
Q 352 224 352 224 
L 486 678 
Q 486 678 585 633 
Q 685 589 851 528 
Q 1018 467 1229 422 
Q 1440 378 1664 378 
Q 1792 378 1901 400 
Q 2010 422 2074 480 
Q 2144 544 2201 672 
Q 2259 800 2259 979 
Q 2259 1248 2131 1389 
Q 2003 1530 1798 1606 
Q 1594 1683 1363 1747 
Q 1178 1798 998 1862 
Q 819 1926 675 2035 
Q 531 2144 444 2326 
Q 358 2509 358 2797 
Q 358 3251 636 3529 
Q 915 3808 1574 3808 
Q 1798 3808 2003 3779 
Q 2208 3750 2365 3715 
Q 2522 3680 2598 3654 
L 2515 3206 
Q 2515 3206 2428 3228 
Q 2342 3251 2195 3276 
Q 2048 3302 1862 3324 
Q 1677 3347 1472 3347 
Q 1280 3347 1165 3324 
Q 1050 3302 992 3258 
Q 934 3213 896 3113 
Q 858 3014 858 2880 
Q 858 2611 1008 2476 
Q 1158 2342 1392 2272 
Q 1626 2202 1875 2125 
Q 2048 2074 2208 2003 
Q 2368 1933 2499 1817 
Q 2630 1702 2704 1523 
Q 2778 1344 2778 1082 
Q 2778 563 2467 240 
Q 2157 -83 1568 -83 
z
" transform="scale(0.015625)"/>
       <path id="Ruda-Regular-69" d="M 678 0 
L 678 3725 
L 1210 3725 
L 1210 0 
L 678 0 
z
M 621 4358 
L 621 4902 
L 1274 4902 
L 1274 4358 
L 621 4358 
z
" transform="scale(0.015625)"/>
       <path id="Ruda-Regular-46" d="M 672 0 
L 672 4448 
L 2854 4448 
L 2854 3974 
L 966 3994 
L 1216 4237 
L 1171 2381 
L 934 2483 
L 2656 2490 
L 2656 2035 
L 934 2035 
L 1178 2125 
L 1203 0 
L 672 0 
z
" transform="scale(0.015625)"/>
      </defs>
      <use xlink:href="#Ruda-Regular-47"/>
      <use xlink:href="#Ruda-Regular-61" x="61.199997"/>
      <use xlink:href="#Ruda-Regular-75" x="118.099991"/>
      <use xlink:href="#Ruda-Regular-73" x="178.099976"/>
      <use xlink:href="#Ruda-Regular-73" x="227.299973"/>
      <use xlink:href="#Ruda-Regular-69" x="276.499969"/>
      <use xlink:href="#Ruda-Regular-61" x="305.999954"/>
      <use xlink:href="#Ruda-Regular-6e" x="362.899948"/>
      <use xlink:href="#Ruda-Regular-20" x="422.999939"/>
      <use xlink:href="#Ruda-Regular-46" x="446.999924"/>
      <use xlink:href="#Ruda-Regular-69" x="496.999908"/>
      <use xlink:href="#Ruda-Regular-74" x="526.499893"/>
     </g>
    </g>
   </g>
  </g>
 </g>
 <defs>
  <clipPath id="p4607ab83f5">
   <rect x="60.23" y="10.8" width="389.77" height="290.82625"/>
  </clipPath>
 </defs>
</svg>
