<?xml version="1.0" encoding="utf-8" standalone="no"?>
<!DOCTYPE svg PUBLIC "-//W3C//DTD SVG 1.1//EN"
  "http://www.w3.org/Graphics/SVG/1.1/DTD/svg11.dtd">
<svg xmlns:xlink="http://www.w3.org/1999/xlink" width="432pt" height="432pt" viewBox="0 0 432 432" xmlns="http://www.w3.org/2000/svg" version="1.1">
 <metadata>
  <rdf:RDF xmlns:dc="http://purl.org/dc/elements/1.1/" xmlns:cc="http://creativecommons.org/ns#" xmlns:rdf="http://www.w3.org/1999/02/22-rdf-syntax-ns#">
   <cc:Work>
    <dc:type rdf:resource="http://purl.org/dc/dcmitype/StillImage"/>
    <dc:date>2024-11-21T14:38:37.793880</dc:date>
    <dc:format>image/svg+xml</dc:format>
    <dc:creator>
     <cc:Agent>
      <dc:title>Matplotlib v3.6.2, https://matplotlib.org/</dc:title>
     </cc:Agent>
    </dc:creator>
   </cc:Work>
  </rdf:RDF>
 </metadata>
 <defs>
  <style type="text/css">*{stroke-linejoin: round; stroke-linecap: butt}</style>
 </defs>
 <g id="figure_1">
  <g id="patch_1">
   <path d="M 0 432 
L 432 432 
L 432 0 
L 0 0 
L 0 432 
z
" style="fill: none"/>
  </g>
  <g id="axes_1">
   <g id="patch_2">
    <path d="M 341.90415 295.16 
C 341.90415 278.608579 338.643881 262.218099 332.309926 246.92658 
C 325.975971 231.635061 316.69151 217.739883 304.987888 206.036261 
C 293.284266 194.332639 279.389089 185.048178 264.097569 178.714224 
C 248.80605 172.380269 232.415571 169.12 215.86415 169.12 
C 199.312728 169.12 182.922249 172.380269 167.63073 178.714224 
C 152.339211 185.048178 138.444033 194.332639 126.740411 206.036261 
C 115.036789 217.739883 105.752328 231.635061 99.418373 246.92658 
C 93.084419 262.218099 89.82415 278.608579 89.82415 295.16 
C 89.82415 311.711421 93.084419 328.101901 99.418373 343.39342 
C 105.752328 358.684939 115.036789 372.580117 126.740411 384.283739 
C 138.444033 395.987361 152.339211 405.271822 167.63073 411.605776 
C 182.922249 417.939731 199.312728 421.2 215.86415 421.2 
C 232.415571 421.2 248.80605 417.939731 264.097569 411.605776 
C 279.389089 405.271822 293.284266 395.987361 304.987888 384.283739 
C 316.69151 372.580117 325.975971 358.684939 332.309926 343.39342 
C 338.643881 328.101901 341.90415 311.711421 341.90415 295.16 
M 215.86415 295.16 
C 215.86415 295.16 215.86415 295.16 215.86415 295.16 
C 215.86415 295.16 215.86415 295.16 215.86415 295.16 
C 215.86415 295.16 215.86415 295.16 215.86415 295.16 
C 215.86415 295.16 215.86415 295.16 215.86415 295.16 
C 215.86415 295.16 215.86415 295.16 215.86415 295.16 
C 215.86415 295.16 215.86415 295.16 215.86415 295.16 
C 215.86415 295.16 215.86415 295.16 215.86415 295.16 
C 215.86415 295.16 215.86415 295.16 215.86415 295.16 
C 215.86415 295.16 215.86415 295.16 215.86415 295.16 
C 215.86415 295.16 215.86415 295.16 215.86415 295.16 
C 215.86415 295.16 215.86415 295.16 215.86415 295.16 
C 215.86415 295.16 215.86415 295.16 215.86415 295.16 
C 215.86415 295.16 215.86415 295.16 215.86415 295.16 
C 215.86415 295.16 215.86415 295.16 215.86415 295.16 
C 215.86415 295.16 215.86415 295.16 215.86415 295.16 
C 215.86415 295.16 215.86415 295.16 215.86415 295.16 
M 341.90415 295.16 
L 341.90415 295.16 
z
" style="fill: none"/>
   </g>
   <g id="patch_3">
    <path d="M 215.86415 289.430909 
L 161.040386 326.812515 
L 293.278818 339.855379 
z
" clip-path="url(#p40b22e59e1)" style="fill: #e0218a; opacity: 0.25; stroke: #e0218a; stroke-linejoin: miter"/>
   </g>
   <g id="patch_4">
    <path d="M 215.86415 281.834084 
L 122.404137 349.119163 
L 273.915185 328.675781 
z
" clip-path="url(#p40b22e59e1)" style="fill: #efb475; opacity: 0.25; stroke: #efb475; stroke-linejoin: miter"/>
   </g>
   <g id="patch_5">
    <path d="M 215.86415 231.854971 
L 111.671846 355.315455 
L 270.687913 326.812515 
z
" clip-path="url(#p40b22e59e1)" style="fill: #477081; opacity: 0.25; stroke: #477081; stroke-linejoin: miter"/>
   </g>
   <g id="matplotlib.axis_1">
    <g id="xtick_1">
     <g id="line2d_1">
      <path d="M 215.86415 295.16 
L 215.86415 169.12 
" clip-path="url(#p40b22e59e1)" style="fill: none; stroke: #b0b0b0; stroke-width: 0.8; stroke-linecap: square"/>
     </g>
     <g id="text_1">
      <!-- Linearidade -->
      <g transform="translate(166.6004 160.403281) scale(0.18 -0.18)">
       <defs>
        <path id="Ruda-Regular-4c" d="M 672 0 
L 672 4448 
L 1210 4448 
L 1178 218 
L 934 461 
L 2784 474 
L 2784 0 
L 672 0 
z
" transform="scale(0.015625)"/>
        <path id="Ruda-Regular-69" d="M 678 0 
L 678 3725 
L 1210 3725 
L 1210 0 
L 678 0 
z
M 621 4358 
L 621 4902 
L 1274 4902 
L 1274 4358 
L 621 4358 
z
" transform="scale(0.015625)"/>
        <path id="Ruda-Regular-6e" d="M 646 0 
L 646 3725 
L 1005 3725 
L 1062 3360 
L 1094 3360 
Q 1152 3392 1286 3465 
Q 1421 3539 1606 3619 
Q 1792 3699 2003 3753 
Q 2214 3808 2426 3808 
Q 2778 3808 2963 3632 
Q 3149 3456 3216 3155 
Q 3283 2854 3283 2477 
L 3283 0 
L 2752 0 
L 2752 2291 
Q 2752 2669 2739 2867 
Q 2726 3066 2656 3168 
Q 2605 3251 2509 3276 
Q 2413 3302 2304 3302 
Q 2074 3302 1834 3228 
Q 1594 3155 1414 3075 
Q 1235 2995 1178 2963 
L 1178 0 
L 646 0 
z
" transform="scale(0.015625)"/>
        <path id="Ruda-Regular-65" d="M 1946 -90 
Q 1504 -90 1168 99 
Q 832 288 646 720 
Q 461 1152 461 1869 
Q 461 2618 656 3040 
Q 851 3462 1184 3638 
Q 1517 3814 1933 3814 
Q 2349 3814 2640 3648 
Q 2931 3482 3084 3094 
Q 3238 2707 3238 2054 
L 3238 1651 
L 781 1651 
L 1030 1747 
Q 1005 1325 1053 1072 
Q 1101 819 1174 697 
Q 1248 576 1299 525 
Q 1389 448 1517 409 
Q 1645 371 1830 371 
Q 2016 371 2195 400 
Q 2374 429 2528 470 
Q 2682 512 2803 553 
Q 2925 595 3002 614 
L 3136 186 
Q 3078 160 2912 93 
Q 2746 26 2499 -32 
Q 2253 -90 1946 -90 
z
M 1030 1843 
L 781 2074 
L 2938 2118 
L 2694 1882 
Q 2701 2336 2678 2662 
Q 2656 2989 2547 3162 
Q 2502 3232 2393 3293 
Q 2285 3354 1971 3354 
Q 1645 3354 1481 3283 
Q 1318 3213 1229 3098 
Q 992 2784 1030 1843 
z
" transform="scale(0.015625)"/>
        <path id="Ruda-Regular-61" d="M 1350 -83 
Q 1056 -83 829 54 
Q 602 192 474 457 
Q 346 723 346 1101 
Q 346 1555 528 1814 
Q 710 2074 1043 2182 
Q 1376 2291 1818 2291 
L 2496 2291 
Q 2496 2611 2480 2851 
Q 2464 3091 2374 3206 
Q 2310 3296 2198 3321 
Q 2086 3347 1965 3347 
Q 1715 3347 1475 3299 
Q 1235 3251 1040 3187 
Q 845 3123 729 3075 
Q 614 3027 614 3027 
L 429 3443 
Q 429 3443 550 3497 
Q 672 3552 877 3625 
Q 1082 3699 1334 3753 
Q 1587 3808 1856 3808 
Q 2291 3808 2547 3638 
Q 2803 3469 2915 3165 
Q 3027 2861 3027 2451 
L 3027 0 
L 2682 0 
L 2605 390 
L 2566 390 
Q 2502 346 2384 266 
Q 2266 186 2109 106 
Q 1952 26 1760 -28 
Q 1568 -83 1350 -83 
z
M 1440 384 
Q 1670 384 1878 451 
Q 2086 518 2249 601 
Q 2413 685 2496 736 
L 2496 1798 
Q 2413 1811 2246 1827 
Q 2080 1843 1811 1843 
Q 1216 1843 1075 1722 
Q 992 1658 947 1494 
Q 902 1331 902 1101 
Q 902 723 1027 553 
Q 1152 384 1440 384 
z
" transform="scale(0.015625)"/>
        <path id="Ruda-Regular-72" d="M 646 0 
L 646 3725 
L 986 3725 
L 1056 3347 
L 1094 3347 
Q 1094 3347 1193 3417 
Q 1293 3488 1453 3577 
Q 1613 3667 1795 3737 
Q 1978 3808 2138 3808 
Q 2234 3808 2317 3792 
Q 2400 3776 2400 3776 
L 2355 3264 
Q 2355 3264 2272 3270 
Q 2189 3277 2118 3277 
Q 1939 3277 1756 3225 
Q 1574 3174 1420 3097 
Q 1267 3021 1178 2950 
L 1178 0 
L 646 0 
z
" transform="scale(0.015625)"/>
        <path id="Ruda-Regular-64" d="M 1626 -83 
Q 1280 -83 1014 115 
Q 749 314 598 730 
Q 448 1146 448 1792 
Q 448 2413 560 2806 
Q 672 3200 864 3417 
Q 1056 3635 1289 3721 
Q 1523 3808 1773 3808 
Q 1984 3808 2144 3782 
Q 2304 3757 2422 3725 
Q 2541 3693 2611 3661 
L 2611 4819 
L 3142 4819 
L 3142 0 
L 2790 0 
L 2720 384 
L 2688 384 
Q 2605 320 2457 208 
Q 2310 96 2102 6 
Q 1894 -83 1626 -83 
z
M 1658 390 
Q 1786 390 1920 425 
Q 2054 461 2185 512 
Q 2317 563 2429 620 
Q 2541 678 2611 723 
L 2611 3168 
Q 2534 3200 2396 3238 
Q 2259 3277 2086 3305 
Q 1914 3334 1722 3334 
Q 1363 3334 1235 3181 
Q 1184 3110 1129 2956 
Q 1075 2803 1040 2518 
Q 1005 2234 1005 1766 
Q 1005 1242 1059 973 
Q 1114 704 1184 601 
Q 1254 499 1293 467 
Q 1344 422 1440 406 
Q 1536 390 1658 390 
z
" transform="scale(0.015625)"/>
       </defs>
       <use xlink:href="#Ruda-Regular-4c"/>
       <use xlink:href="#Ruda-Regular-69" x="44.599991"/>
       <use xlink:href="#Ruda-Regular-6e" x="74.099976"/>
       <use xlink:href="#Ruda-Regular-65" x="134.199966"/>
       <use xlink:href="#Ruda-Regular-61" x="191.299957"/>
       <use xlink:href="#Ruda-Regular-72" x="248.199951"/>
       <use xlink:href="#Ruda-Regular-69" x="287.699936"/>
       <use xlink:href="#Ruda-Regular-64" x="317.199921"/>
       <use xlink:href="#Ruda-Regular-61" x="375.299911"/>
       <use xlink:href="#Ruda-Regular-64" x="432.199905"/>
       <use xlink:href="#Ruda-Regular-65" x="490.299896"/>
      </g>
     </g>
    </g>
    <g id="xtick_2">
     <g id="line2d_2">
      <path d="M 215.86415 295.16 
L 106.710308 358.18 
" clip-path="url(#p40b22e59e1)" style="fill: none; stroke: #b0b0b0; stroke-width: 0.8; stroke-linecap: square"/>
     </g>
     <g id="text_2">
      <!--  -->
      <g transform="translate(94.585952 360.837781) scale(0.18 -0.18)"/>
      <!-- Precisão								 -->
      <g transform="translate(38.746577 380.088781) scale(0.18 -0.18)">
       <defs>
        <path id="Ruda-Regular-50" d="M 672 0 
L 698 2061 
L 672 4448 
Q 672 4448 803 4461 
Q 934 4474 1152 4493 
Q 1370 4512 1629 4525 
Q 1888 4538 2144 4538 
Q 2714 4538 3027 4163 
Q 3341 3789 3341 3040 
Q 3341 2573 3229 2265 
Q 3117 1958 2925 1788 
Q 2733 1619 2496 1548 
Q 2259 1478 2010 1478 
Q 1811 1478 1568 1494 
Q 1325 1510 1210 1517 
L 1210 0 
L 672 0 
z
M 2048 1933 
Q 2253 1933 2381 1955 
Q 2509 1978 2586 2054 
Q 2694 2163 2732 2428 
Q 2771 2694 2771 3104 
Q 2771 3450 2736 3638 
Q 2701 3827 2653 3910 
Q 2605 3994 2554 4026 
Q 2490 4070 2346 4099 
Q 2202 4128 2016 4128 
Q 1766 4128 1545 4105 
Q 1325 4083 1210 4058 
L 1210 2010 
Q 1299 1997 1545 1965 
Q 1792 1933 2048 1933 
z
" transform="scale(0.015625)"/>
        <path id="Ruda-Regular-63" d="M 1920 -83 
Q 1485 -83 1152 115 
Q 819 314 633 746 
Q 448 1178 448 1875 
Q 448 2445 573 2822 
Q 698 3200 915 3414 
Q 1133 3629 1427 3718 
Q 1722 3808 2054 3808 
Q 2298 3808 2550 3776 
Q 2803 3744 2963 3706 
L 2899 3258 
Q 2778 3270 2515 3305 
Q 2253 3341 1952 3341 
Q 1715 3341 1552 3302 
Q 1389 3264 1299 3174 
Q 1178 3040 1091 2685 
Q 1005 2330 1005 1837 
Q 1005 1382 1075 1104 
Q 1146 826 1242 682 
Q 1338 538 1414 480 
Q 1466 442 1552 410 
Q 1638 378 1798 378 
Q 1984 378 2176 422 
Q 2368 467 2528 524 
Q 2688 582 2787 627 
Q 2886 672 2886 672 
L 3053 256 
Q 3053 256 2912 173 
Q 2771 90 2515 3 
Q 2259 -83 1920 -83 
z
" transform="scale(0.015625)"/>
        <path id="Ruda-Regular-73" d="M 1568 -83 
Q 1331 -83 1113 -35 
Q 896 13 723 73 
Q 550 134 451 179 
Q 352 224 352 224 
L 486 678 
Q 486 678 585 633 
Q 685 589 851 528 
Q 1018 467 1229 422 
Q 1440 378 1664 378 
Q 1792 378 1901 400 
Q 2010 422 2074 480 
Q 2144 544 2201 672 
Q 2259 800 2259 979 
Q 2259 1248 2131 1389 
Q 2003 1530 1798 1606 
Q 1594 1683 1363 1747 
Q 1178 1798 998 1862 
Q 819 1926 675 2035 
Q 531 2144 444 2326 
Q 358 2509 358 2797 
Q 358 3251 636 3529 
Q 915 3808 1574 3808 
Q 1798 3808 2003 3779 
Q 2208 3750 2365 3715 
Q 2522 3680 2598 3654 
L 2515 3206 
Q 2515 3206 2428 3228 
Q 2342 3251 2195 3276 
Q 2048 3302 1862 3324 
Q 1677 3347 1472 3347 
Q 1280 3347 1165 3324 
Q 1050 3302 992 3258 
Q 934 3213 896 3113 
Q 858 3014 858 2880 
Q 858 2611 1008 2476 
Q 1158 2342 1392 2272 
Q 1626 2202 1875 2125 
Q 2048 2074 2208 2003 
Q 2368 1933 2499 1817 
Q 2630 1702 2704 1523 
Q 2778 1344 2778 1082 
Q 2778 563 2467 240 
Q 2157 -83 1568 -83 
z
" transform="scale(0.015625)"/>
        <path id="Ruda-Regular-e3" d="M 1350 -83 
Q 1056 -83 829 54 
Q 602 192 474 457 
Q 346 723 346 1101 
Q 346 1555 528 1814 
Q 710 2074 1043 2182 
Q 1376 2291 1818 2291 
L 2496 2291 
Q 2496 2611 2480 2851 
Q 2464 3091 2374 3206 
Q 2310 3296 2198 3321 
Q 2086 3347 1965 3347 
Q 1715 3347 1475 3299 
Q 1235 3251 1040 3187 
Q 845 3123 729 3075 
Q 614 3027 614 3027 
L 429 3443 
Q 429 3443 550 3497 
Q 672 3552 877 3625 
Q 1082 3699 1334 3753 
Q 1587 3808 1856 3808 
Q 2291 3808 2547 3638 
Q 2803 3469 2915 3165 
Q 3027 2861 3027 2451 
L 3027 0 
L 2682 0 
L 2605 390 
L 2566 390 
Q 2502 346 2384 266 
Q 2266 186 2109 106 
Q 1952 26 1760 -28 
Q 1568 -83 1350 -83 
z
M 1440 384 
Q 1670 384 1878 451 
Q 2086 518 2249 601 
Q 2413 685 2496 736 
L 2496 1798 
Q 2413 1811 2246 1827 
Q 2080 1843 1811 1843 
Q 1216 1843 1075 1722 
Q 992 1658 947 1494 
Q 902 1331 902 1101 
Q 902 723 1027 553 
Q 1152 384 1440 384 
z
M 2290 4320 
Q 2187 4320 2036 4368 
Q 1886 4416 1732 4480 
Q 1579 4544 1460 4592 
Q 1342 4640 1298 4640 
Q 1259 4640 1217 4566 
Q 1176 4493 1150 4419 
Q 1125 4346 1125 4346 
L 792 4384 
Q 792 4749 917 4889 
Q 1042 5030 1259 5030 
Q 1368 5030 1512 4985 
Q 1656 4941 1803 4880 
Q 1950 4819 2068 4771 
Q 2187 4723 2232 4723 
Q 2277 4723 2315 4793 
Q 2354 4864 2382 4937 
Q 2411 5011 2411 5011 
L 2750 4966 
Q 2750 4608 2632 4464 
Q 2514 4320 2290 4320 
z
" transform="scale(0.015625)"/>
        <path id="Ruda-Regular-6f" d="M 1843 -83 
Q 1312 -83 1008 153 
Q 704 390 576 825 
Q 448 1261 448 1862 
Q 448 2464 576 2899 
Q 704 3334 1008 3571 
Q 1312 3808 1843 3808 
Q 2374 3808 2678 3571 
Q 2982 3334 3110 2899 
Q 3238 2464 3238 1862 
Q 3238 1261 3110 825 
Q 2982 390 2678 153 
Q 2374 -83 1843 -83 
z
M 1843 378 
Q 2086 378 2249 435 
Q 2413 493 2512 646 
Q 2611 800 2652 1094 
Q 2694 1389 2694 1862 
Q 2694 2336 2652 2630 
Q 2611 2925 2512 3081 
Q 2413 3238 2249 3292 
Q 2086 3347 1843 3347 
Q 1600 3347 1437 3292 
Q 1274 3238 1174 3081 
Q 1075 2925 1030 2630 
Q 986 2336 986 1862 
Q 986 1389 1030 1094 
Q 1075 800 1174 646 
Q 1274 493 1437 435 
Q 1600 378 1843 378 
z
" transform="scale(0.015625)"/>
        <path id="Ruda-Regular-9" transform="scale(0.015625)"/>
       </defs>
       <use xlink:href="#Ruda-Regular-50"/>
       <use xlink:href="#Ruda-Regular-72" x="58.099991"/>
       <use xlink:href="#Ruda-Regular-65" x="97.599976"/>
       <use xlink:href="#Ruda-Regular-63" x="154.699966"/>
       <use xlink:href="#Ruda-Regular-69" x="206.499954"/>
       <use xlink:href="#Ruda-Regular-73" x="235.999939"/>
       <use xlink:href="#Ruda-Regular-e3" x="285.199936"/>
       <use xlink:href="#Ruda-Regular-6f" x="342.09993"/>
       <use xlink:href="#Ruda-Regular-9" x="399.699921"/>
       <use xlink:href="#Ruda-Regular-9" x="427.299911"/>
       <use xlink:href="#Ruda-Regular-9" x="454.899902"/>
       <use xlink:href="#Ruda-Regular-9" x="482.499893"/>
       <use xlink:href="#Ruda-Regular-9" x="510.099884"/>
       <use xlink:href="#Ruda-Regular-9" x="537.699875"/>
       <use xlink:href="#Ruda-Regular-9" x="565.299866"/>
       <use xlink:href="#Ruda-Regular-9" x="592.899857"/>
      </g>
     </g>
    </g>
    <g id="xtick_3">
     <g id="line2d_3">
      <path d="M 215.86415 295.16 
L 325.017991 358.18 
" clip-path="url(#p40b22e59e1)" style="fill: none; stroke: #b0b0b0; stroke-width: 0.8; stroke-linecap: square"/>
     </g>
     <g id="text_3">
      <!--  -->
      <g transform="translate(337.142347 351.212281) scale(0.18 -0.18)"/>
      <!--  -->
      <g transform="translate(337.142347 370.463281) scale(0.18 -0.18)"/>
      <!-- 												Sensibilidade -->
      <g transform="translate(251.247191 389.714281) scale(0.18 -0.18)">
       <defs>
        <path id="Ruda-Regular-53" d="M 1574 -90 
Q 1312 -90 1069 -29 
Q 826 32 637 115 
Q 448 198 339 259 
Q 230 320 230 320 
Q 230 320 259 387 
Q 288 454 326 540 
Q 365 627 393 691 
Q 422 755 422 755 
Q 422 755 528 700 
Q 634 646 813 579 
Q 992 512 1222 457 
Q 1453 403 1702 403 
Q 1862 403 1955 432 
Q 2048 461 2086 486 
Q 2214 576 2284 733 
Q 2355 890 2355 1139 
Q 2355 1382 2252 1542 
Q 2150 1702 1980 1811 
Q 1811 1920 1613 2003 
Q 1357 2112 1133 2221 
Q 909 2330 736 2470 
Q 563 2611 467 2825 
Q 371 3040 371 3360 
Q 371 3693 518 3958 
Q 666 4224 960 4381 
Q 1254 4538 1690 4538 
Q 1901 4538 2086 4515 
Q 2272 4493 2419 4467 
Q 2566 4442 2649 4419 
Q 2733 4397 2733 4397 
L 2643 3936 
Q 2643 3936 2553 3952 
Q 2464 3968 2310 3993 
Q 2157 4019 1965 4035 
Q 1773 4051 1574 4051 
Q 1414 4051 1321 4032 
Q 1229 4013 1158 3968 
Q 1075 3923 1001 3785 
Q 928 3648 928 3411 
Q 928 3149 1062 2982 
Q 1197 2816 1414 2710 
Q 1632 2605 1875 2502 
Q 2067 2426 2252 2326 
Q 2438 2227 2585 2086 
Q 2733 1946 2822 1731 
Q 2912 1517 2912 1210 
Q 2912 819 2742 528 
Q 2573 237 2272 73 
Q 1971 -90 1574 -90 
z
" transform="scale(0.015625)"/>
        <path id="Ruda-Regular-62" d="M 1952 -83 
Q 1779 -83 1526 -48 
Q 1274 -13 1018 41 
Q 762 96 576 160 
L 576 4819 
L 1107 4819 
L 1107 3667 
Q 1216 3693 1369 3725 
Q 1523 3757 1705 3782 
Q 1888 3808 2074 3808 
Q 2637 3808 2937 3363 
Q 3238 2918 3238 1926 
Q 3238 1312 3129 918 
Q 3021 525 2835 307 
Q 2650 90 2422 3 
Q 2195 -83 1952 -83 
z
M 1952 390 
Q 2125 390 2224 412 
Q 2323 435 2387 493 
Q 2445 550 2515 697 
Q 2586 845 2634 1161 
Q 2682 1478 2682 2029 
Q 2682 2579 2627 2867 
Q 2573 3155 2477 3232 
Q 2342 3334 2022 3334 
Q 1696 3334 1462 3270 
Q 1229 3206 1107 3162 
L 1107 493 
Q 1178 474 1293 451 
Q 1408 429 1571 409 
Q 1734 390 1952 390 
z
" transform="scale(0.015625)"/>
        <path id="Ruda-Regular-6c" d="M 678 0 
L 678 4819 
L 1210 4819 
L 1210 0 
L 678 0 
z
" transform="scale(0.015625)"/>
       </defs>
       <use xlink:href="#Ruda-Regular-9"/>
       <use xlink:href="#Ruda-Regular-9" x="27.599991"/>
       <use xlink:href="#Ruda-Regular-9" x="55.199982"/>
       <use xlink:href="#Ruda-Regular-9" x="82.799973"/>
       <use xlink:href="#Ruda-Regular-9" x="110.399963"/>
       <use xlink:href="#Ruda-Regular-9" x="137.999954"/>
       <use xlink:href="#Ruda-Regular-9" x="165.599945"/>
       <use xlink:href="#Ruda-Regular-9" x="193.199936"/>
       <use xlink:href="#Ruda-Regular-9" x="220.799927"/>
       <use xlink:href="#Ruda-Regular-9" x="248.399918"/>
       <use xlink:href="#Ruda-Regular-9" x="275.999908"/>
       <use xlink:href="#Ruda-Regular-9" x="303.599899"/>
       <use xlink:href="#Ruda-Regular-53" x="331.19989"/>
       <use xlink:href="#Ruda-Regular-65" x="382.299881"/>
       <use xlink:href="#Ruda-Regular-6e" x="439.399872"/>
       <use xlink:href="#Ruda-Regular-73" x="499.499863"/>
       <use xlink:href="#Ruda-Regular-69" x="548.69986"/>
       <use xlink:href="#Ruda-Regular-62" x="578.199844"/>
       <use xlink:href="#Ruda-Regular-69" x="635.799835"/>
       <use xlink:href="#Ruda-Regular-6c" x="665.29982"/>
       <use xlink:href="#Ruda-Regular-69" x="694.799805"/>
       <use xlink:href="#Ruda-Regular-64" x="724.299789"/>
       <use xlink:href="#Ruda-Regular-61" x="782.39978"/>
       <use xlink:href="#Ruda-Regular-64" x="839.299774"/>
       <use xlink:href="#Ruda-Regular-65" x="897.399765"/>
      </g>
     </g>
    </g>
   </g>
   <g id="matplotlib.axis_2">
    <g id="ytick_1">
     <g id="line2d_4">
      <path d="M 215.86415 288.86085 
C 215.036953 288.86085 214.2178 289.02379 213.453569 289.340345 
C 212.689339 289.656899 211.994895 290.120912 211.409978 290.705829 
C 210.825062 291.290745 210.361049 291.98519 210.044494 292.74942 
C 209.72794 293.51365 209.565 294.332803 209.565 295.16 
C 209.565 295.987197 209.72794 296.80635 210.044494 297.57058 
C 210.361049 298.33481 210.825062 299.029255 211.409978 299.614171 
C 211.994895 300.199088 212.689339 300.663101 213.453569 300.979655 
C 214.2178 301.29621 215.036953 301.45915 215.86415 301.45915 
C 216.691346 301.45915 217.5105 301.29621 218.27473 300.979655 
C 219.03896 300.663101 219.733405 300.199088 220.318321 299.614171 
C 220.903238 299.029255 221.367251 298.33481 221.683805 297.57058 
C 222.00036 296.80635 222.163299 295.987197 222.163299 295.16 
C 222.163299 294.332803 222.00036 293.51365 221.683805 292.74942 
C 221.367251 291.98519 220.903238 291.290745 220.318321 290.705829 
C 219.733405 290.120912 219.03896 289.656899 218.27473 289.340345 
C 217.5105 289.02379 216.691346 288.86085 215.86415 288.86085 
" clip-path="url(#p40b22e59e1)" style="fill: none; stroke: #b0b0b0; stroke-width: 0.8; stroke-linecap: square"/>
     </g>
    </g>
    <g id="ytick_2">
     <g id="line2d_5">
      <path d="M 215.86415 274.60938 
C 213.165467 274.60938 210.493026 275.140962 207.999768 276.173703 
C 205.50651 277.206444 203.240924 278.720261 201.332667 280.628518 
C 199.42441 282.536774 197.910594 284.802361 196.877853 287.295618 
C 195.845112 289.788876 195.31353 292.461317 195.31353 295.16 
C 195.31353 297.858683 195.845112 300.531124 196.877853 303.024382 
C 197.910594 305.517639 199.42441 307.783226 201.332667 309.691482 
C 203.240924 311.599739 205.50651 313.113556 207.999768 314.146297 
C 210.493026 315.179038 213.165467 315.71062 215.86415 315.71062 
C 218.562832 315.71062 221.235274 315.179038 223.728531 314.146297 
C 226.221789 313.113556 228.487375 311.599739 230.395632 309.691482 
C 232.303889 307.783226 233.817705 305.517639 234.850446 303.024382 
C 235.883188 300.531124 236.414769 297.858683 236.414769 295.16 
C 236.414769 292.461317 235.883188 289.788876 234.850446 287.295618 
C 233.817705 284.802361 232.303889 282.536774 230.395632 280.628518 
C 228.487375 278.720261 226.221789 277.206444 223.728531 276.173703 
C 221.235274 275.140962 218.562832 274.60938 215.86415 274.60938 
" clip-path="url(#p40b22e59e1)" style="fill: none; stroke: #b0b0b0; stroke-width: 0.8; stroke-linecap: square"/>
     </g>
    </g>
    <g id="ytick_3">
     <g id="line2d_6">
      <path d="M 215.86415 260.35791 
C 211.293981 260.35791 206.768252 261.258134 202.545967 263.007062 
C 198.323681 264.75599 194.486953 267.319609 191.255356 270.551206 
C 188.023759 273.782804 185.460139 277.619532 183.711211 281.841817 
C 181.962284 286.064102 181.06206 290.589831 181.06206 295.16 
C 181.06206 299.730169 181.962284 304.255898 183.711211 308.478183 
C 185.460139 312.700468 188.023759 316.537196 191.255356 319.768794 
C 194.486953 323.000391 198.323681 325.56401 202.545967 327.312938 
C 206.768252 329.061866 211.293981 329.96209 215.86415 329.96209 
C 220.434318 329.96209 224.960048 329.061866 229.182333 327.312938 
C 233.404618 325.56401 237.241346 323.000391 240.472943 319.768794 
C 243.70454 316.537196 246.26816 312.700468 248.017088 308.478183 
C 249.766016 304.255898 250.666239 299.730169 250.666239 295.16 
C 250.666239 290.589831 249.766016 286.064102 248.017088 281.841817 
C 246.26816 277.619532 243.70454 273.782804 240.472943 270.551206 
C 237.241346 267.319609 233.404618 264.75599 229.182333 263.007062 
C 224.960048 261.258134 220.434318 260.35791 215.86415 260.35791 
" clip-path="url(#p40b22e59e1)" style="fill: none; stroke: #b0b0b0; stroke-width: 0.8; stroke-linecap: square"/>
     </g>
    </g>
    <g id="ytick_4">
     <g id="line2d_7">
      <path d="M 215.86415 246.106441 
C 209.422495 246.106441 203.043478 247.375306 197.092165 249.84042 
C 191.140852 252.305535 185.732983 255.918958 181.178045 260.473895 
C 176.623108 265.028833 173.009684 270.436703 170.54457 276.388015 
C 168.079456 282.339328 166.81059 288.718346 166.81059 295.16 
C 166.81059 301.601654 168.079456 307.980672 170.54457 313.931985 
C 173.009684 319.883297 176.623108 325.291167 181.178045 329.846105 
C 185.732983 334.401042 191.140852 338.014465 197.092165 340.47958 
C 203.043478 342.944694 209.422495 344.213559 215.86415 344.213559 
C 222.305804 344.213559 228.684821 342.944694 234.636134 340.47958 
C 240.587447 338.014465 245.995317 334.401042 250.550254 329.846105 
C 255.105192 325.291167 258.718615 319.883297 261.183729 313.931985 
C 263.648844 307.980672 264.917709 301.601654 264.917709 295.16 
C 264.917709 288.718346 263.648844 282.339328 261.183729 276.388015 
C 258.718615 270.436703 255.105192 265.028833 250.550254 260.473895 
C 245.995317 255.918958 240.587447 252.305535 234.636134 249.84042 
C 228.684821 247.375306 222.305804 246.106441 215.86415 246.106441 
" clip-path="url(#p40b22e59e1)" style="fill: none; stroke: #b0b0b0; stroke-width: 0.8; stroke-linecap: square"/>
     </g>
    </g>
    <g id="ytick_5">
     <g id="line2d_8">
      <path d="M 215.86415 231.854971 
C 207.551009 231.854971 199.318704 233.492478 191.638364 236.673779 
C 183.958023 239.85508 176.979012 244.518307 171.100734 250.396584 
C 165.222456 256.274862 160.55923 263.253874 157.377929 270.934214 
C 154.196628 278.614554 152.55912 286.84686 152.55912 295.16 
C 152.55912 303.47314 154.196628 311.705446 157.377929 319.385786 
C 160.55923 327.066126 165.222456 334.045138 171.100734 339.923416 
C 176.979012 345.801693 183.958023 350.46492 191.638364 353.646221 
C 199.318704 356.827522 207.551009 358.465029 215.86415 358.465029 
C 224.17729 358.465029 232.409595 356.827522 240.089936 353.646221 
C 247.770276 350.46492 254.749287 345.801693 260.627565 339.923416 
C 266.505843 334.045138 271.16907 327.066126 274.350371 319.385786 
C 277.531672 311.705446 279.169179 303.47314 279.169179 295.16 
C 279.169179 286.84686 277.531672 278.614554 274.350371 270.934214 
C 271.16907 263.253874 266.505843 256.274862 260.627565 250.396584 
C 254.749287 244.518307 247.770276 239.85508 240.089936 236.673779 
C 232.409595 233.492478 224.17729 231.854971 215.86415 231.854971 
" clip-path="url(#p40b22e59e1)" style="fill: none; stroke: #b0b0b0; stroke-width: 0.8; stroke-linecap: square"/>
     </g>
    </g>
    <g id="ytick_6">
     <g id="line2d_9">
      <path d="M 215.86415 217.603501 
C 205.679523 217.603501 195.59393 219.60965 186.184562 223.507138 
C 176.775195 227.404625 168.225041 233.117655 161.023423 240.319273 
C 153.821805 247.520892 148.108775 256.071045 144.211287 265.480413 
C 140.3138 274.88978 138.30765 284.975374 138.30765 295.16 
C 138.30765 305.344626 140.3138 315.43022 144.211287 324.839587 
C 148.108775 334.248955 153.821805 342.799108 161.023423 350.000727 
C 168.225041 357.202345 176.775195 362.915375 186.184562 366.812862 
C 195.59393 370.71035 205.679523 372.716499 215.86415 372.716499 
C 226.048776 372.716499 236.134369 370.71035 245.543737 366.812862 
C 254.953105 362.915375 263.503258 357.202345 270.704876 350.000727 
C 277.906494 342.799108 283.619524 334.248955 287.517012 324.839587 
C 291.4145 315.43022 293.420649 305.344626 293.420649 295.16 
C 293.420649 284.975374 291.4145 274.88978 287.517012 265.480413 
C 283.619524 256.071045 277.906494 247.520892 270.704876 240.319273 
C 263.503258 233.117655 254.953105 227.404625 245.543737 223.507138 
C 236.134369 219.60965 226.048776 217.603501 215.86415 217.603501 
" clip-path="url(#p40b22e59e1)" style="fill: none; stroke: #b0b0b0; stroke-width: 0.8; stroke-linecap: square"/>
     </g>
    </g>
    <g id="ytick_7">
     <g id="line2d_10">
      <path d="M 215.86415 203.352031 
C 203.808038 203.352031 191.869156 205.726822 180.730761 210.340496 
C 169.592366 214.954171 159.471071 221.717004 150.946112 230.241962 
C 142.421153 238.766921 135.65832 248.888216 131.044646 260.026611 
C 126.430972 271.165006 124.05618 283.103888 124.05618 295.16 
C 124.05618 307.216112 126.430972 319.154994 131.044646 330.293389 
C 135.65832 341.431784 142.421153 351.553079 150.946112 360.078038 
C 159.471071 368.602996 169.592366 375.365829 180.730761 379.979504 
C 191.869156 384.593178 203.808038 386.967969 215.86415 386.967969 
C 227.920262 386.967969 239.859143 384.593178 250.997538 379.979504 
C 262.135934 375.365829 272.257229 368.602996 280.782187 360.078038 
C 289.307146 351.553079 296.069979 341.431784 300.683653 330.293389 
C 305.297328 319.154994 307.672119 307.216112 307.672119 295.16 
C 307.672119 283.103888 305.297328 271.165006 300.683653 260.026611 
C 296.069979 248.888216 289.307146 238.766921 280.782187 230.241962 
C 272.257229 221.717004 262.135934 214.954171 250.997538 210.340496 
C 239.859143 205.726822 227.920262 203.352031 215.86415 203.352031 
" clip-path="url(#p40b22e59e1)" style="fill: none; stroke: #b0b0b0; stroke-width: 0.8; stroke-linecap: square"/>
     </g>
    </g>
    <g id="ytick_8">
     <g id="line2d_11">
      <path d="M 215.86415 189.100561 
C 201.936552 189.100561 188.144382 191.843994 175.276959 197.173855 
C 162.409537 202.503716 150.7171 210.316352 140.868801 220.164651 
C 131.020502 230.01295 123.207866 241.705387 117.878005 254.57281 
C 112.548144 267.440232 109.80471 281.232402 109.80471 295.16 
C 109.80471 309.087598 112.548144 322.879768 117.878005 335.74719 
C 123.207866 348.614613 131.020502 360.30705 140.868801 370.155349 
C 150.7171 380.003648 162.409537 387.816284 175.276959 393.146145 
C 188.144382 398.476006 201.936552 401.219439 215.86415 401.219439 
C 229.791748 401.219439 243.583917 398.476006 256.45134 393.146145 
C 269.318762 387.816284 281.011199 380.003648 290.859498 370.155349 
C 300.707797 360.30705 308.520434 348.614613 313.850295 335.74719 
C 319.180156 322.879768 321.923589 309.087598 321.923589 295.16 
C 321.923589 281.232402 319.180156 267.440232 313.850295 254.57281 
C 308.520434 241.705387 300.707797 230.01295 290.859498 220.164651 
C 281.011199 210.316352 269.318762 202.503716 256.45134 197.173855 
C 243.583917 191.843994 229.791748 189.100561 215.86415 189.100561 
" clip-path="url(#p40b22e59e1)" style="fill: none; stroke: #b0b0b0; stroke-width: 0.8; stroke-linecap: square"/>
     </g>
    </g>
    <g id="ytick_9">
     <g id="line2d_12">
      <path d="M 215.86415 174.849091 
C 200.065066 174.849091 184.419608 177.961166 169.823158 184.007214 
C 155.226708 190.053261 141.963129 198.915701 130.79149 210.08734 
C 119.619851 221.25898 110.757411 234.522558 104.711363 249.119008 
C 98.665316 263.715459 95.553241 279.360916 95.553241 295.16 
C 95.553241 310.959084 98.665316 326.604541 104.711363 341.200992 
C 110.757411 355.797442 119.619851 369.06102 130.79149 380.23266 
C 141.963129 391.404299 155.226708 400.266739 169.823158 406.312786 
C 184.419608 412.358834 200.065066 415.470909 215.86415 415.470909 
C 231.663233 415.470909 247.308691 412.358834 261.905141 406.312786 
C 276.501591 400.266739 289.76517 391.404299 300.936809 380.23266 
C 312.108449 369.06102 320.970888 355.797442 327.016936 341.200992 
C 333.062984 326.604541 336.175059 310.959084 336.175059 295.16 
C 336.175059 279.360916 333.062984 263.715459 327.016936 249.119008 
C 320.970888 234.522558 312.108449 221.25898 300.936809 210.08734 
C 289.76517 198.915701 276.501591 190.053261 261.905141 184.007214 
C 247.308691 177.961166 231.663233 174.849091 215.86415 174.849091 
" clip-path="url(#p40b22e59e1)" style="fill: none; stroke: #b0b0b0; stroke-width: 0.8; stroke-linecap: square"/>
     </g>
    </g>
   </g>
   <g id="line2d_13">
    <path d="M 215.86415 289.430909 
L 161.040386 326.812515 
L 293.278818 339.855379 
L 215.86415 289.430909 
" clip-path="url(#p40b22e59e1)" style="fill: none; stroke: #e0218a; stroke-width: 2; stroke-linecap: square"/>
   </g>
   <g id="line2d_14">
    <path d="M 215.86415 281.834084 
L 122.404137 349.119163 
L 273.915185 328.675781 
L 215.86415 281.834084 
" clip-path="url(#p40b22e59e1)" style="fill: none; stroke: #efb475; stroke-width: 2; stroke-linecap: square"/>
   </g>
   <g id="line2d_15">
    <path d="M 215.86415 231.854971 
L 111.671846 355.315455 
L 270.687913 326.812515 
L 215.86415 231.854971 
" clip-path="url(#p40b22e59e1)" style="fill: none; stroke: #477081; stroke-width: 2; stroke-linecap: square"/>
   </g>
   <g id="patch_6">
    <path d="M 215.86415 169.12 
C 199.312728 169.12 182.922249 172.380269 167.63073 178.714224 
C 152.339211 185.048178 138.444033 194.332639 126.740411 206.036261 
C 115.036789 217.739883 105.752328 231.635061 99.418373 246.92658 
C 93.084419 262.218099 89.82415 278.608579 89.82415 295.16 
C 89.82415 311.711421 93.084419 328.101901 99.418373 343.39342 
C 105.752328 358.684939 115.036789 372.580117 126.740411 384.283739 
C 138.444033 395.987361 152.339211 405.271822 167.63073 411.605776 
C 182.922249 417.939731 199.312728 421.2 215.86415 421.2 
C 232.415571 421.2 248.80605 417.939731 264.097569 411.605776 
C 279.389089 405.271822 293.284266 395.987361 304.987888 384.283739 
C 316.69151 372.580117 325.975971 358.684939 332.309926 343.39342 
C 338.643881 328.101901 341.90415 311.711421 341.90415 295.16 
C 341.90415 278.608579 338.643881 262.218099 332.309926 246.92658 
C 325.975971 231.635061 316.69151 217.739883 304.987888 206.036261 
C 293.284266 194.332639 279.389089 185.048178 264.097569 178.714224 
C 248.80605 172.380269 232.415571 169.12 215.86415 169.12 
" style="fill: none; stroke: #000000; stroke-width: 0.8; stroke-linejoin: miter; stroke-linecap: square"/>
   </g>
   <g id="legend_1">
    <g id="patch_7">
     <path d="M 38.00415 123.9875 
L 183.38165 123.9875 
Q 186.58165 123.9875 186.58165 120.7875 
L 186.58165 54.28 
Q 186.58165 51.08 183.38165 51.08 
L 38.00415 51.08 
Q 34.80415 51.08 34.80415 54.28 
L 34.80415 120.7875 
Q 34.80415 123.9875 38.00415 123.9875 
L 38.00415 123.9875 
z
" style="fill: none; opacity: 0"/>
    </g>
    <g id="line2d_16">
     <path d="M 41.20415 63.9275 
L 57.20415 63.9275 
L 73.20415 63.9275 
" style="fill: none; stroke: #e0218a; stroke-width: 2; stroke-linecap: square"/>
    </g>
    <g id="text_4">
     <!-- BLANK -->
     <g transform="translate(86.00415 69.5275) scale(0.16 -0.16)">
      <defs>
       <path id="Ruda-Regular-42" d="M 2067 -90 
Q 1830 -90 1590 -74 
Q 1350 -58 1152 -35 
Q 954 -13 826 3 
Q 698 19 678 26 
L 704 2067 
L 672 4461 
Q 698 4461 826 4473 
Q 954 4486 1152 4502 
Q 1350 4518 1577 4528 
Q 1805 4538 2022 4538 
Q 2374 4538 2656 4429 
Q 2938 4320 3107 4061 
Q 3277 3802 3277 3347 
Q 3277 2995 3171 2790 
Q 3066 2586 2922 2486 
Q 2778 2387 2659 2355 
Q 2541 2323 2522 2323 
L 2560 2573 
L 2560 2067 
L 2490 2310 
Q 2566 2310 2716 2275 
Q 2867 2240 3020 2137 
Q 3174 2035 3283 1833 
Q 3392 1632 3392 1299 
Q 3392 883 3280 611 
Q 3168 339 2976 185 
Q 2784 32 2550 -29 
Q 2317 -90 2067 -90 
z
M 2138 326 
Q 2554 326 2688 556 
Q 2822 787 2822 1267 
Q 2822 1747 2601 1926 
Q 2381 2106 1997 2106 
L 966 2106 
L 1210 2240 
L 1222 154 
L 1210 390 
Q 1242 390 1370 374 
Q 1498 358 1696 342 
Q 1894 326 2138 326 
z
M 2048 2522 
Q 2445 2522 2582 2710 
Q 2720 2899 2720 3328 
Q 2720 3782 2553 3961 
Q 2387 4141 1997 4141 
Q 1773 4141 1593 4128 
Q 1414 4115 1299 4102 
Q 1184 4090 1152 4083 
L 1210 4333 
L 1210 2374 
L 966 2528 
L 2048 2522 
z
" transform="scale(0.015625)"/>
       <path id="Ruda-Regular-41" d="M 32 0 
L 1242 4448 
L 1997 4448 
L 3206 0 
L 2656 0 
L 2317 1331 
L 2586 1178 
L 666 1178 
L 922 1331 
L 582 0 
L 32 0 
z
M 934 1402 
L 755 1651 
L 2483 1651 
L 2304 1402 
L 1581 4211 
L 1882 3974 
L 1357 3974 
L 1658 4211 
L 934 1402 
z
" transform="scale(0.015625)"/>
       <path id="Ruda-Regular-4e" d="M 672 0 
L 672 4448 
L 1395 4448 
L 3206 646 
L 3226 646 
L 3142 4448 
L 3680 4448 
L 3680 0 
L 2957 0 
L 1146 3802 
L 1126 3802 
L 1210 0 
L 672 0 
z
" transform="scale(0.015625)"/>
       <path id="Ruda-Regular-4b" d="M 3104 0 
L 1229 2285 
L 2944 4448 
L 3622 4448 
L 1862 2330 
L 1862 2291 
L 3821 0 
L 3104 0 
z
M 672 0 
L 691 2259 
L 672 4448 
L 1210 4448 
L 1210 0 
L 672 0 
z
" transform="scale(0.015625)"/>
      </defs>
      <use xlink:href="#Ruda-Regular-42"/>
      <use xlink:href="#Ruda-Regular-4c" x="61.399994"/>
      <use xlink:href="#Ruda-Regular-41" x="105.999985"/>
      <use xlink:href="#Ruda-Regular-4e" x="156.599976"/>
      <use xlink:href="#Ruda-Regular-4b" x="224.59996"/>
     </g>
    </g>
    <g id="line2d_17">
     <path d="M 41.20415 86.63 
L 57.20415 86.63 
L 73.20415 86.63 
" style="fill: none; stroke: #efb475; stroke-width: 2; stroke-linecap: square"/>
    </g>
    <g id="text_5">
     <!-- DAP BaCBM2 -->
     <g transform="translate(86.00415 92.23) scale(0.16 -0.16)">
      <defs>
       <path id="Ruda-Regular-44" d="M 1933 -90 
Q 1805 -90 1616 -80 
Q 1427 -70 1232 -54 
Q 1037 -38 883 -25 
Q 730 -13 672 -6 
L 672 4454 
Q 698 4454 838 4467 
Q 979 4480 1184 4496 
Q 1389 4512 1609 4525 
Q 1830 4538 2003 4538 
Q 2496 4538 2806 4355 
Q 3117 4173 3283 3856 
Q 3450 3539 3514 3132 
Q 3578 2726 3578 2278 
Q 3578 1395 3363 876 
Q 3149 358 2777 134 
Q 2406 -90 1933 -90 
z
M 1862 378 
Q 2208 378 2374 426 
Q 2541 474 2624 557 
Q 2714 646 2794 838 
Q 2874 1030 2925 1388 
Q 2976 1747 2976 2323 
Q 2976 2906 2896 3347 
Q 2816 3789 2637 3942 
Q 2573 4000 2435 4035 
Q 2298 4070 2016 4070 
Q 1760 4070 1523 4048 
Q 1286 4026 1114 4013 
L 1210 4269 
L 1210 198 
L 1094 461 
Q 1280 435 1459 406 
Q 1638 378 1862 378 
z
" transform="scale(0.015625)"/>
       <path id="Ruda-Regular-20" transform="scale(0.015625)"/>
       <path id="Ruda-Regular-43" d="M 1997 -90 
Q 1542 -90 1196 131 
Q 851 352 656 851 
Q 461 1350 461 2176 
Q 461 2906 585 3370 
Q 710 3834 931 4090 
Q 1152 4346 1453 4442 
Q 1754 4538 2106 4538 
Q 2259 4538 2470 4522 
Q 2682 4506 2880 4483 
Q 3078 4461 3181 4435 
L 3117 3974 
Q 3059 3981 2931 3993 
Q 2803 4006 2649 4019 
Q 2496 4032 2355 4041 
Q 2214 4051 2138 4051 
Q 1824 4051 1635 4019 
Q 1446 3987 1357 3878 
Q 1274 3776 1197 3577 
Q 1120 3379 1075 3036 
Q 1030 2694 1030 2157 
Q 1030 1478 1161 1072 
Q 1293 666 1421 538 
Q 1510 448 1638 413 
Q 1766 378 1926 378 
Q 2170 378 2397 429 
Q 2624 480 2800 550 
Q 2976 621 3078 672 
Q 3181 723 3181 723 
L 3366 301 
Q 3366 301 3267 243 
Q 3168 186 2989 106 
Q 2810 26 2557 -32 
Q 2304 -90 1997 -90 
z
" transform="scale(0.015625)"/>
       <path id="Ruda-Regular-4d" d="M 640 0 
L 794 4448 
L 1574 4448 
L 2579 1549 
L 2624 1549 
L 3635 4448 
L 4416 4448 
L 4570 0 
L 4032 0 
L 3981 3910 
L 3936 3910 
L 2931 1043 
L 2272 1043 
L 1274 3910 
L 1229 3910 
L 1178 0 
L 640 0 
z
" transform="scale(0.015625)"/>
       <path id="Ruda-Regular-32" d="M 358 0 
L 358 416 
Q 358 416 652 761 
Q 947 1107 1510 1824 
Q 1914 2336 2170 2736 
Q 2426 3136 2426 3507 
Q 2426 3750 2294 3900 
Q 2163 4051 1837 4051 
Q 1632 4051 1405 3990 
Q 1178 3930 957 3834 
Q 736 3738 550 3616 
L 326 4019 
Q 429 4109 637 4230 
Q 845 4352 1126 4441 
Q 1408 4531 1715 4531 
Q 2074 4531 2352 4396 
Q 2630 4262 2790 4019 
Q 2950 3776 2950 3450 
Q 2950 3174 2838 2896 
Q 2726 2618 2556 2352 
Q 2387 2086 2202 1843 
Q 2131 1747 2003 1584 
Q 1875 1421 1728 1229 
Q 1581 1037 1446 867 
Q 1312 698 1225 589 
Q 1139 480 1139 480 
L 1139 448 
L 3046 480 
L 3046 0 
L 358 0 
z
" transform="scale(0.015625)"/>
      </defs>
      <use xlink:href="#Ruda-Regular-44"/>
      <use xlink:href="#Ruda-Regular-41" x="63.099991"/>
      <use xlink:href="#Ruda-Regular-50" x="113.699982"/>
      <use xlink:href="#Ruda-Regular-20" x="171.799973"/>
      <use xlink:href="#Ruda-Regular-42" x="195.799957"/>
      <use xlink:href="#Ruda-Regular-61" x="257.199951"/>
      <use xlink:href="#Ruda-Regular-43" x="314.099945"/>
      <use xlink:href="#Ruda-Regular-42" x="372.399933"/>
      <use xlink:href="#Ruda-Regular-4d" x="433.799927"/>
      <use xlink:href="#Ruda-Regular-32" x="515.199921"/>
     </g>
    </g>
    <g id="line2d_18">
     <path d="M 41.20415 109.3325 
L 57.20415 109.3325 
L 73.20415 109.3325 
" style="fill: none; stroke: #477081; stroke-width: 2; stroke-linecap: square"/>
    </g>
    <g id="text_6">
     <!-- SAM-BaCBM2 -->
     <g transform="translate(86.00415 114.9325) scale(0.16 -0.16)">
      <defs>
       <path id="Ruda-Regular-2d" d="M 294 1875 
L 294 2323 
L 1760 2323 
L 1760 1875 
L 294 1875 
z
" transform="scale(0.015625)"/>
      </defs>
      <use xlink:href="#Ruda-Regular-53"/>
      <use xlink:href="#Ruda-Regular-41" x="51.099991"/>
      <use xlink:href="#Ruda-Regular-4d" x="101.699982"/>
      <use xlink:href="#Ruda-Regular-2d" x="183.099976"/>
      <use xlink:href="#Ruda-Regular-42" x="215.199966"/>
      <use xlink:href="#Ruda-Regular-61" x="276.59996"/>
      <use xlink:href="#Ruda-Regular-43" x="333.499954"/>
      <use xlink:href="#Ruda-Regular-42" x="391.799942"/>
      <use xlink:href="#Ruda-Regular-4d" x="453.199936"/>
      <use xlink:href="#Ruda-Regular-32" x="534.59993"/>
     </g>
    </g>
   </g>
  </g>
 </g>
 <defs>
  <clipPath id="p40b22e59e1">
   <path d="M 341.90415 295.16 
C 341.90415 278.608579 338.643881 262.218099 332.309926 246.92658 
C 325.975971 231.635061 316.69151 217.739883 304.987888 206.036261 
C 293.284266 194.332639 279.389089 185.048178 264.097569 178.714224 
C 248.80605 172.380269 232.415571 169.12 215.86415 169.12 
C 199.312728 169.12 182.922249 172.380269 167.63073 178.714224 
C 152.339211 185.048178 138.444033 194.332639 126.740411 206.036261 
C 115.036789 217.739883 105.752328 231.635061 99.418373 246.92658 
C 93.084419 262.218099 89.82415 278.608579 89.82415 295.16 
C 89.82415 311.711421 93.084419 328.101901 99.418373 343.39342 
C 105.752328 358.684939 115.036789 372.580117 126.740411 384.283739 
C 138.444033 395.987361 152.339211 405.271822 167.63073 411.605776 
C 182.922249 417.939731 199.312728 421.2 215.86415 421.2 
C 232.415571 421.2 248.80605 417.939731 264.097569 411.605776 
C 279.389089 405.271822 293.284266 395.987361 304.987888 384.283739 
C 316.69151 372.580117 325.975971 358.684939 332.309926 343.39342 
C 338.643881 328.101901 341.90415 311.711421 341.90415 295.16 
M 215.86415 295.16 
C 215.86415 295.16 215.86415 295.16 215.86415 295.16 
C 215.86415 295.16 215.86415 295.16 215.86415 295.16 
C 215.86415 295.16 215.86415 295.16 215.86415 295.16 
C 215.86415 295.16 215.86415 295.16 215.86415 295.16 
C 215.86415 295.16 215.86415 295.16 215.86415 295.16 
C 215.86415 295.16 215.86415 295.16 215.86415 295.16 
C 215.86415 295.16 215.86415 295.16 215.86415 295.16 
C 215.86415 295.16 215.86415 295.16 215.86415 295.16 
C 215.86415 295.16 215.86415 295.16 215.86415 295.16 
C 215.86415 295.16 215.86415 295.16 215.86415 295.16 
C 215.86415 295.16 215.86415 295.16 215.86415 295.16 
C 215.86415 295.16 215.86415 295.16 215.86415 295.16 
C 215.86415 295.16 215.86415 295.16 215.86415 295.16 
C 215.86415 295.16 215.86415 295.16 215.86415 295.16 
C 215.86415 295.16 215.86415 295.16 215.86415 295.16 
C 215.86415 295.16 215.86415 295.16 215.86415 295.16 
M 341.90415 295.16 
z
"/>
  </clipPath>
 </defs>
</svg>
