<?xml version="1.0" encoding="utf-8" standalone="no"?>
<!DOCTYPE svg PUBLIC "-//W3C//DTD SVG 1.1//EN"
  "http://www.w3.org/Graphics/SVG/1.1/DTD/svg11.dtd">
<svg xmlns:xlink="http://www.w3.org/1999/xlink" width="432pt" height="432pt" viewBox="0 0 432 432" xmlns="http://www.w3.org/2000/svg" version="1.1">
 <metadata>
  <rdf:RDF xmlns:dc="http://purl.org/dc/elements/1.1/" xmlns:cc="http://creativecommons.org/ns#" xmlns:rdf="http://www.w3.org/1999/02/22-rdf-syntax-ns#">
   <cc:Work>
    <dc:type rdf:resource="http://purl.org/dc/dcmitype/StillImage"/>
    <dc:date>2024-11-11T19:21:47.143880</dc:date>
    <dc:format>image/svg+xml</dc:format>
    <dc:creator>
     <cc:Agent>
      <dc:title>Matplotlib v3.6.2, https://matplotlib.org/</dc:title>
     </cc:Agent>
    </dc:creator>
   </cc:Work>
  </rdf:RDF>
 </metadata>
 <defs>
  <style type="text/css">*{stroke-linejoin: round; stroke-linecap: butt}</style>
 </defs>
 <g id="figure_1">
  <g id="patch_1">
   <path d="M 0 432 
L 432 432 
L 432 0 
L 0 0 
L 0 432 
z
" style="fill: none"/>
  </g>
  <g id="axes_1">
   <g id="patch_2">
    <path d="M 341.90415 295.16 
C 341.90415 278.608579 338.643881 262.218099 332.309926 246.92658 
C 325.975971 231.635061 316.69151 217.739883 304.987888 206.036261 
C 293.284266 194.332639 279.389089 185.048178 264.097569 178.714224 
C 248.80605 172.380269 232.415571 169.12 215.86415 169.12 
C 199.312728 169.12 182.922249 172.380269 167.63073 178.714224 
C 152.339211 185.048178 138.444033 194.332639 126.740411 206.036261 
C 115.036789 217.739883 105.752328 231.635061 99.418373 246.92658 
C 93.084419 262.218099 89.82415 278.608579 89.82415 295.16 
C 89.82415 311.711421 93.084419 328.101901 99.418373 343.39342 
C 105.752328 358.684939 115.036789 372.580117 126.740411 384.283739 
C 138.444033 395.987361 152.339211 405.271822 167.63073 411.605776 
C 182.922249 417.939731 199.312728 421.2 215.86415 421.2 
C 232.415571 421.2 248.80605 417.939731 264.097569 411.605776 
C 279.389089 405.271822 293.284266 395.987361 304.987888 384.283739 
C 316.69151 372.580117 325.975971 358.684939 332.309926 343.39342 
C 338.643881 328.101901 341.90415 311.711421 341.90415 295.16 
M 215.86415 295.16 
C 215.86415 295.16 215.86415 295.16 215.86415 295.16 
C 215.86415 295.16 215.86415 295.16 215.86415 295.16 
C 215.86415 295.16 215.86415 295.16 215.86415 295.16 
C 215.86415 295.16 215.86415 295.16 215.86415 295.16 
C 215.86415 295.16 215.86415 295.16 215.86415 295.16 
C 215.86415 295.16 215.86415 295.16 215.86415 295.16 
C 215.86415 295.16 215.86415 295.16 215.86415 295.16 
C 215.86415 295.16 215.86415 295.16 215.86415 295.16 
C 215.86415 295.16 215.86415 295.16 215.86415 295.16 
C 215.86415 295.16 215.86415 295.16 215.86415 295.16 
C 215.86415 295.16 215.86415 295.16 215.86415 295.16 
C 215.86415 295.16 215.86415 295.16 215.86415 295.16 
C 215.86415 295.16 215.86415 295.16 215.86415 295.16 
C 215.86415 295.16 215.86415 295.16 215.86415 295.16 
C 215.86415 295.16 215.86415 295.16 215.86415 295.16 
C 215.86415 295.16 215.86415 295.16 215.86415 295.16 
M 341.90415 295.16 
L 341.90415 295.16 
z
" style="fill: none"/>
   </g>
   <g id="patch_3">
    <path d="M 215.86415 289.430909 
L 158.678367 328.176227 
L 294.559983 340.595061 
z
" clip-path="url(#pc49cc8516c)" style="fill: #e0218a; opacity: 0.25; stroke: #e0218a; stroke-linejoin: miter"/>
   </g>
   <g id="patch_4">
    <path d="M 215.86415 281.474215 
L 121.890655 349.415622 
L 276.122797 329.950346 
z
" clip-path="url(#pc49cc8516c)" style="fill: #efb475; opacity: 0.25; stroke: #efb475; stroke-linejoin: miter"/>
   </g>
   <g id="patch_5">
    <path d="M 215.86415 229.127546 
L 111.671846 355.315455 
L 273.049932 328.176227 
z
" clip-path="url(#pc49cc8516c)" style="fill: #477081; opacity: 0.25; stroke: #477081; stroke-linejoin: miter"/>
   </g>
   <g id="matplotlib.axis_1">
    <g id="xtick_1">
     <g id="line2d_1">
      <path d="M 215.86415 295.16 
L 215.86415 169.12 
" clip-path="url(#pc49cc8516c)" style="fill: none; stroke: #b0b0b0; stroke-width: 0.8; stroke-linecap: square"/>
     </g>
     <g id="text_1">
      <!-- Linearidade -->
      <g transform="translate(166.6004 160.403281) scale(0.18 -0.18)">
       <defs>
        <path id="Ruda-Regular-4c" d="M 672 0 
L 672 4448 
L 1210 4448 
L 1178 218 
L 934 461 
L 2784 474 
L 2784 0 
L 672 0 
z
" transform="scale(0.015625)"/>
        <path id="Ruda-Regular-69" d="M 678 0 
L 678 3725 
L 1210 3725 
L 1210 0 
L 678 0 
z
M 621 4358 
L 621 4902 
L 1274 4902 
L 1274 4358 
L 621 4358 
z
" transform="scale(0.015625)"/>
        <path id="Ruda-Regular-6e" d="M 646 0 
L 646 3725 
L 1005 3725 
L 1062 3360 
L 1094 3360 
Q 1152 3392 1286 3465 
Q 1421 3539 1606 3619 
Q 1792 3699 2003 3753 
Q 2214 3808 2426 3808 
Q 2778 3808 2963 3632 
Q 3149 3456 3216 3155 
Q 3283 2854 3283 2477 
L 3283 0 
L 2752 0 
L 2752 2291 
Q 2752 2669 2739 2867 
Q 2726 3066 2656 3168 
Q 2605 3251 2509 3276 
Q 2413 3302 2304 3302 
Q 2074 3302 1834 3228 
Q 1594 3155 1414 3075 
Q 1235 2995 1178 2963 
L 1178 0 
L 646 0 
z
" transform="scale(0.015625)"/>
        <path id="Ruda-Regular-65" d="M 1946 -90 
Q 1504 -90 1168 99 
Q 832 288 646 720 
Q 461 1152 461 1869 
Q 461 2618 656 3040 
Q 851 3462 1184 3638 
Q 1517 3814 1933 3814 
Q 2349 3814 2640 3648 
Q 2931 3482 3084 3094 
Q 3238 2707 3238 2054 
L 3238 1651 
L 781 1651 
L 1030 1747 
Q 1005 1325 1053 1072 
Q 1101 819 1174 697 
Q 1248 576 1299 525 
Q 1389 448 1517 409 
Q 1645 371 1830 371 
Q 2016 371 2195 400 
Q 2374 429 2528 470 
Q 2682 512 2803 553 
Q 2925 595 3002 614 
L 3136 186 
Q 3078 160 2912 93 
Q 2746 26 2499 -32 
Q 2253 -90 1946 -90 
z
M 1030 1843 
L 781 2074 
L 2938 2118 
L 2694 1882 
Q 2701 2336 2678 2662 
Q 2656 2989 2547 3162 
Q 2502 3232 2393 3293 
Q 2285 3354 1971 3354 
Q 1645 3354 1481 3283 
Q 1318 3213 1229 3098 
Q 992 2784 1030 1843 
z
" transform="scale(0.015625)"/>
        <path id="Ruda-Regular-61" d="M 1350 -83 
Q 1056 -83 829 54 
Q 602 192 474 457 
Q 346 723 346 1101 
Q 346 1555 528 1814 
Q 710 2074 1043 2182 
Q 1376 2291 1818 2291 
L 2496 2291 
Q 2496 2611 2480 2851 
Q 2464 3091 2374 3206 
Q 2310 3296 2198 3321 
Q 2086 3347 1965 3347 
Q 1715 3347 1475 3299 
Q 1235 3251 1040 3187 
Q 845 3123 729 3075 
Q 614 3027 614 3027 
L 429 3443 
Q 429 3443 550 3497 
Q 672 3552 877 3625 
Q 1082 3699 1334 3753 
Q 1587 3808 1856 3808 
Q 2291 3808 2547 3638 
Q 2803 3469 2915 3165 
Q 3027 2861 3027 2451 
L 3027 0 
L 2682 0 
L 2605 390 
L 2566 390 
Q 2502 346 2384 266 
Q 2266 186 2109 106 
Q 1952 26 1760 -28 
Q 1568 -83 1350 -83 
z
M 1440 384 
Q 1670 384 1878 451 
Q 2086 518 2249 601 
Q 2413 685 2496 736 
L 2496 1798 
Q 2413 1811 2246 1827 
Q 2080 1843 1811 1843 
Q 1216 1843 1075 1722 
Q 992 1658 947 1494 
Q 902 1331 902 1101 
Q 902 723 1027 553 
Q 1152 384 1440 384 
z
" transform="scale(0.015625)"/>
        <path id="Ruda-Regular-72" d="M 646 0 
L 646 3725 
L 986 3725 
L 1056 3347 
L 1094 3347 
Q 1094 3347 1193 3417 
Q 1293 3488 1453 3577 
Q 1613 3667 1795 3737 
Q 1978 3808 2138 3808 
Q 2234 3808 2317 3792 
Q 2400 3776 2400 3776 
L 2355 3264 
Q 2355 3264 2272 3270 
Q 2189 3277 2118 3277 
Q 1939 3277 1756 3225 
Q 1574 3174 1420 3097 
Q 1267 3021 1178 2950 
L 1178 0 
L 646 0 
z
" transform="scale(0.015625)"/>
        <path id="Ruda-Regular-64" d="M 1626 -83 
Q 1280 -83 1014 115 
Q 749 314 598 730 
Q 448 1146 448 1792 
Q 448 2413 560 2806 
Q 672 3200 864 3417 
Q 1056 3635 1289 3721 
Q 1523 3808 1773 3808 
Q 1984 3808 2144 3782 
Q 2304 3757 2422 3725 
Q 2541 3693 2611 3661 
L 2611 4819 
L 3142 4819 
L 3142 0 
L 2790 0 
L 2720 384 
L 2688 384 
Q 2605 320 2457 208 
Q 2310 96 2102 6 
Q 1894 -83 1626 -83 
z
M 1658 390 
Q 1786 390 1920 425 
Q 2054 461 2185 512 
Q 2317 563 2429 620 
Q 2541 678 2611 723 
L 2611 3168 
Q 2534 3200 2396 3238 
Q 2259 3277 2086 3305 
Q 1914 3334 1722 3334 
Q 1363 3334 1235 3181 
Q 1184 3110 1129 2956 
Q 1075 2803 1040 2518 
Q 1005 2234 1005 1766 
Q 1005 1242 1059 973 
Q 1114 704 1184 601 
Q 1254 499 1293 467 
Q 1344 422 1440 406 
Q 1536 390 1658 390 
z
" transform="scale(0.015625)"/>
       </defs>
       <use xlink:href="#Ruda-Regular-4c"/>
       <use xlink:href="#Ruda-Regular-69" x="44.599991"/>
       <use xlink:href="#Ruda-Regular-6e" x="74.099976"/>
       <use xlink:href="#Ruda-Regular-65" x="134.199966"/>
       <use xlink:href="#Ruda-Regular-61" x="191.299957"/>
       <use xlink:href="#Ruda-Regular-72" x="248.199951"/>
       <use xlink:href="#Ruda-Regular-69" x="287.699936"/>
       <use xlink:href="#Ruda-Regular-64" x="317.199921"/>
       <use xlink:href="#Ruda-Regular-61" x="375.299911"/>
       <use xlink:href="#Ruda-Regular-64" x="432.199905"/>
       <use xlink:href="#Ruda-Regular-65" x="490.299896"/>
      </g>
     </g>
    </g>
    <g id="xtick_2">
     <g id="line2d_2">
      <path d="M 215.86415 295.16 
L 106.710308 358.18 
" clip-path="url(#pc49cc8516c)" style="fill: none; stroke: #b0b0b0; stroke-width: 0.8; stroke-linecap: square"/>
     </g>
     <g id="text_2">
      <!--  -->
      <g transform="translate(94.585952 360.837781) scale(0.18 -0.18)"/>
      <!-- Precisão								 -->
      <g transform="translate(38.746577 380.088781) scale(0.18 -0.18)">
       <defs>
        <path id="Ruda-Regular-50" d="M 672 0 
L 698 2061 
L 672 4448 
Q 672 4448 803 4461 
Q 934 4474 1152 4493 
Q 1370 4512 1629 4525 
Q 1888 4538 2144 4538 
Q 2714 4538 3027 4163 
Q 3341 3789 3341 3040 
Q 3341 2573 3229 2265 
Q 3117 1958 2925 1788 
Q 2733 1619 2496 1548 
Q 2259 1478 2010 1478 
Q 1811 1478 1568 1494 
Q 1325 1510 1210 1517 
L 1210 0 
L 672 0 
z
M 2048 1933 
Q 2253 1933 2381 1955 
Q 2509 1978 2586 2054 
Q 2694 2163 2732 2428 
Q 2771 2694 2771 3104 
Q 2771 3450 2736 3638 
Q 2701 3827 2653 3910 
Q 2605 3994 2554 4026 
Q 2490 4070 2346 4099 
Q 2202 4128 2016 4128 
Q 1766 4128 1545 4105 
Q 1325 4083 1210 4058 
L 1210 2010 
Q 1299 1997 1545 1965 
Q 1792 1933 2048 1933 
z
" transform="scale(0.015625)"/>
        <path id="Ruda-Regular-63" d="M 1920 -83 
Q 1485 -83 1152 115 
Q 819 314 633 746 
Q 448 1178 448 1875 
Q 448 2445 573 2822 
Q 698 3200 915 3414 
Q 1133 3629 1427 3718 
Q 1722 3808 2054 3808 
Q 2298 3808 2550 3776 
Q 2803 3744 2963 3706 
L 2899 3258 
Q 2778 3270 2515 3305 
Q 2253 3341 1952 3341 
Q 1715 3341 1552 3302 
Q 1389 3264 1299 3174 
Q 1178 3040 1091 2685 
Q 1005 2330 1005 1837 
Q 1005 1382 1075 1104 
Q 1146 826 1242 682 
Q 1338 538 1414 480 
Q 1466 442 1552 410 
Q 1638 378 1798 378 
Q 1984 378 2176 422 
Q 2368 467 2528 524 
Q 2688 582 2787 627 
Q 2886 672 2886 672 
L 3053 256 
Q 3053 256 2912 173 
Q 2771 90 2515 3 
Q 2259 -83 1920 -83 
z
" transform="scale(0.015625)"/>
        <path id="Ruda-Regular-73" d="M 1568 -83 
Q 1331 -83 1113 -35 
Q 896 13 723 73 
Q 550 134 451 179 
Q 352 224 352 224 
L 486 678 
Q 486 678 585 633 
Q 685 589 851 528 
Q 1018 467 1229 422 
Q 1440 378 1664 378 
Q 1792 378 1901 400 
Q 2010 422 2074 480 
Q 2144 544 2201 672 
Q 2259 800 2259 979 
Q 2259 1248 2131 1389 
Q 2003 1530 1798 1606 
Q 1594 1683 1363 1747 
Q 1178 1798 998 1862 
Q 819 1926 675 2035 
Q 531 2144 444 2326 
Q 358 2509 358 2797 
Q 358 3251 636 3529 
Q 915 3808 1574 3808 
Q 1798 3808 2003 3779 
Q 2208 3750 2365 3715 
Q 2522 3680 2598 3654 
L 2515 3206 
Q 2515 3206 2428 3228 
Q 2342 3251 2195 3276 
Q 2048 3302 1862 3324 
Q 1677 3347 1472 3347 
Q 1280 3347 1165 3324 
Q 1050 3302 992 3258 
Q 934 3213 896 3113 
Q 858 3014 858 2880 
Q 858 2611 1008 2476 
Q 1158 2342 1392 2272 
Q 1626 2202 1875 2125 
Q 2048 2074 2208 2003 
Q 2368 1933 2499 1817 
Q 2630 1702 2704 1523 
Q 2778 1344 2778 1082 
Q 2778 563 2467 240 
Q 2157 -83 1568 -83 
z
" transform="scale(0.015625)"/>
        <path id="Ruda-Regular-e3" d="M 1350 -83 
Q 1056 -83 829 54 
Q 602 192 474 457 
Q 346 723 346 1101 
Q 346 1555 528 1814 
Q 710 2074 1043 2182 
Q 1376 2291 1818 2291 
L 2496 2291 
Q 2496 2611 2480 2851 
Q 2464 3091 2374 3206 
Q 2310 3296 2198 3321 
Q 2086 3347 1965 3347 
Q 1715 3347 1475 3299 
Q 1235 3251 1040 3187 
Q 845 3123 729 3075 
Q 614 3027 614 3027 
L 429 3443 
Q 429 3443 550 3497 
Q 672 3552 877 3625 
Q 1082 3699 1334 3753 
Q 1587 3808 1856 3808 
Q 2291 3808 2547 3638 
Q 2803 3469 2915 3165 
Q 3027 2861 3027 2451 
L 3027 0 
L 2682 0 
L 2605 390 
L 2566 390 
Q 2502 346 2384 266 
Q 2266 186 2109 106 
Q 1952 26 1760 -28 
Q 1568 -83 1350 -83 
z
M 1440 384 
Q 1670 384 1878 451 
Q 2086 518 2249 601 
Q 2413 685 2496 736 
L 2496 1798 
Q 2413 1811 2246 1827 
Q 2080 1843 1811 1843 
Q 1216 1843 1075 1722 
Q 992 1658 947 1494 
Q 902 1331 902 1101 
Q 902 723 1027 553 
Q 1152 384 1440 384 
z
M 2290 4320 
Q 2187 4320 2036 4368 
Q 1886 4416 1732 4480 
Q 1579 4544 1460 4592 
Q 1342 4640 1298 4640 
Q 1259 4640 1217 4566 
Q 1176 4493 1150 4419 
Q 1125 4346 1125 4346 
L 792 4384 
Q 792 4749 917 4889 
Q 1042 5030 1259 5030 
Q 1368 5030 1512 4985 
Q 1656 4941 1803 4880 
Q 1950 4819 2068 4771 
Q 2187 4723 2232 4723 
Q 2277 4723 2315 4793 
Q 2354 4864 2382 4937 
Q 2411 5011 2411 5011 
L 2750 4966 
Q 2750 4608 2632 4464 
Q 2514 4320 2290 4320 
z
" transform="scale(0.015625)"/>
        <path id="Ruda-Regular-6f" d="M 1843 -83 
Q 1312 -83 1008 153 
Q 704 390 576 825 
Q 448 1261 448 1862 
Q 448 2464 576 2899 
Q 704 3334 1008 3571 
Q 1312 3808 1843 3808 
Q 2374 3808 2678 3571 
Q 2982 3334 3110 2899 
Q 3238 2464 3238 1862 
Q 3238 1261 3110 825 
Q 2982 390 2678 153 
Q 2374 -83 1843 -83 
z
M 1843 378 
Q 2086 378 2249 435 
Q 2413 493 2512 646 
Q 2611 800 2652 1094 
Q 2694 1389 2694 1862 
Q 2694 2336 2652 2630 
Q 2611 2925 2512 3081 
Q 2413 3238 2249 3292 
Q 2086 3347 1843 3347 
Q 1600 3347 1437 3292 
Q 1274 3238 1174 3081 
Q 1075 2925 1030 2630 
Q 986 2336 986 1862 
Q 986 1389 1030 1094 
Q 1075 800 1174 646 
Q 1274 493 1437 435 
Q 1600 378 1843 378 
z
" transform="scale(0.015625)"/>
        <path id="Ruda-Regular-9" transform="scale(0.015625)"/>
       </defs>
       <use xlink:href="#Ruda-Regular-50"/>
       <use xlink:href="#Ruda-Regular-72" x="58.099991"/>
       <use xlink:href="#Ruda-Regular-65" x="97.599976"/>
       <use xlink:href="#Ruda-Regular-63" x="154.699966"/>
       <use xlink:href="#Ruda-Regular-69" x="206.499954"/>
       <use xlink:href="#Ruda-Regular-73" x="235.999939"/>
       <use xlink:href="#Ruda-Regular-e3" x="285.199936"/>
       <use xlink:href="#Ruda-Regular-6f" x="342.09993"/>
       <use xlink:href="#Ruda-Regular-9" x="399.699921"/>
       <use xlink:href="#Ruda-Regular-9" x="427.299911"/>
       <use xlink:href="#Ruda-Regular-9" x="454.899902"/>
       <use xlink:href="#Ruda-Regular-9" x="482.499893"/>
       <use xlink:href="#Ruda-Regular-9" x="510.099884"/>
       <use xlink:href="#Ruda-Regular-9" x="537.699875"/>
       <use xlink:href="#Ruda-Regular-9" x="565.299866"/>
       <use xlink:href="#Ruda-Regular-9" x="592.899857"/>
      </g>
     </g>
    </g>
    <g id="xtick_3">
     <g id="line2d_3">
      <path d="M 215.86415 295.16 
L 325.017991 358.18 
" clip-path="url(#pc49cc8516c)" style="fill: none; stroke: #b0b0b0; stroke-width: 0.8; stroke-linecap: square"/>
     </g>
     <g id="text_3">
      <!--  -->
      <g transform="translate(337.142347 351.212281) scale(0.18 -0.18)"/>
      <!--  -->
      <g transform="translate(337.142347 370.463281) scale(0.18 -0.18)"/>
      <!-- 												Sensibilidade -->
      <g transform="translate(251.247191 389.714281) scale(0.18 -0.18)">
       <defs>
        <path id="Ruda-Regular-53" d="M 1574 -90 
Q 1312 -90 1069 -29 
Q 826 32 637 115 
Q 448 198 339 259 
Q 230 320 230 320 
Q 230 320 259 387 
Q 288 454 326 540 
Q 365 627 393 691 
Q 422 755 422 755 
Q 422 755 528 700 
Q 634 646 813 579 
Q 992 512 1222 457 
Q 1453 403 1702 403 
Q 1862 403 1955 432 
Q 2048 461 2086 486 
Q 2214 576 2284 733 
Q 2355 890 2355 1139 
Q 2355 1382 2252 1542 
Q 2150 1702 1980 1811 
Q 1811 1920 1613 2003 
Q 1357 2112 1133 2221 
Q 909 2330 736 2470 
Q 563 2611 467 2825 
Q 371 3040 371 3360 
Q 371 3693 518 3958 
Q 666 4224 960 4381 
Q 1254 4538 1690 4538 
Q 1901 4538 2086 4515 
Q 2272 4493 2419 4467 
Q 2566 4442 2649 4419 
Q 2733 4397 2733 4397 
L 2643 3936 
Q 2643 3936 2553 3952 
Q 2464 3968 2310 3993 
Q 2157 4019 1965 4035 
Q 1773 4051 1574 4051 
Q 1414 4051 1321 4032 
Q 1229 4013 1158 3968 
Q 1075 3923 1001 3785 
Q 928 3648 928 3411 
Q 928 3149 1062 2982 
Q 1197 2816 1414 2710 
Q 1632 2605 1875 2502 
Q 2067 2426 2252 2326 
Q 2438 2227 2585 2086 
Q 2733 1946 2822 1731 
Q 2912 1517 2912 1210 
Q 2912 819 2742 528 
Q 2573 237 2272 73 
Q 1971 -90 1574 -90 
z
" transform="scale(0.015625)"/>
        <path id="Ruda-Regular-62" d="M 1952 -83 
Q 1779 -83 1526 -48 
Q 1274 -13 1018 41 
Q 762 96 576 160 
L 576 4819 
L 1107 4819 
L 1107 3667 
Q 1216 3693 1369 3725 
Q 1523 3757 1705 3782 
Q 1888 3808 2074 3808 
Q 2637 3808 2937 3363 
Q 3238 2918 3238 1926 
Q 3238 1312 3129 918 
Q 3021 525 2835 307 
Q 2650 90 2422 3 
Q 2195 -83 1952 -83 
z
M 1952 390 
Q 2125 390 2224 412 
Q 2323 435 2387 493 
Q 2445 550 2515 697 
Q 2586 845 2634 1161 
Q 2682 1478 2682 2029 
Q 2682 2579 2627 2867 
Q 2573 3155 2477 3232 
Q 2342 3334 2022 3334 
Q 1696 3334 1462 3270 
Q 1229 3206 1107 3162 
L 1107 493 
Q 1178 474 1293 451 
Q 1408 429 1571 409 
Q 1734 390 1952 390 
z
" transform="scale(0.015625)"/>
        <path id="Ruda-Regular-6c" d="M 678 0 
L 678 4819 
L 1210 4819 
L 1210 0 
L 678 0 
z
" transform="scale(0.015625)"/>
       </defs>
       <use xlink:href="#Ruda-Regular-9"/>
       <use xlink:href="#Ruda-Regular-9" x="27.599991"/>
       <use xlink:href="#Ruda-Regular-9" x="55.199982"/>
       <use xlink:href="#Ruda-Regular-9" x="82.799973"/>
       <use xlink:href="#Ruda-Regular-9" x="110.399963"/>
       <use xlink:href="#Ruda-Regular-9" x="137.999954"/>
       <use xlink:href="#Ruda-Regular-9" x="165.599945"/>
       <use xlink:href="#Ruda-Regular-9" x="193.199936"/>
       <use xlink:href="#Ruda-Regular-9" x="220.799927"/>
       <use xlink:href="#Ruda-Regular-9" x="248.399918"/>
       <use xlink:href="#Ruda-Regular-9" x="275.999908"/>
       <use xlink:href="#Ruda-Regular-9" x="303.599899"/>
       <use xlink:href="#Ruda-Regular-53" x="331.19989"/>
       <use xlink:href="#Ruda-Regular-65" x="382.299881"/>
       <use xlink:href="#Ruda-Regular-6e" x="439.399872"/>
       <use xlink:href="#Ruda-Regular-73" x="499.499863"/>
       <use xlink:href="#Ruda-Regular-69" x="548.69986"/>
       <use xlink:href="#Ruda-Regular-62" x="578.199844"/>
       <use xlink:href="#Ruda-Regular-69" x="635.799835"/>
       <use xlink:href="#Ruda-Regular-6c" x="665.29982"/>
       <use xlink:href="#Ruda-Regular-69" x="694.799805"/>
       <use xlink:href="#Ruda-Regular-64" x="724.299789"/>
       <use xlink:href="#Ruda-Regular-61" x="782.39978"/>
       <use xlink:href="#Ruda-Regular-64" x="839.299774"/>
       <use xlink:href="#Ruda-Regular-65" x="897.399765"/>
      </g>
     </g>
    </g>
   </g>
   <g id="matplotlib.axis_2">
    <g id="ytick_1">
     <g id="line2d_4">
      <path d="M 215.86415 283.406001 
C 214.320629 283.406001 212.792116 283.710041 211.366089 284.300721 
C 209.940061 284.8914 208.644251 285.757233 207.552817 286.848667 
C 206.461383 287.940102 205.59555 289.235912 205.00487 290.661939 
C 204.41419 292.087967 204.11015 293.616479 204.11015 295.16 
C 204.11015 296.703521 204.41419 298.232033 205.00487 299.658061 
C 205.59555 301.084088 206.461383 302.379898 207.552817 303.471333 
C 208.644251 304.562767 209.940061 305.4286 211.366089 306.019279 
C 212.792116 306.609959 214.320629 306.913999 215.86415 306.913999 
C 217.407671 306.913999 218.936183 306.609959 220.36221 306.019279 
C 221.788238 305.4286 223.084048 304.562767 224.175482 303.471333 
C 225.266916 302.379898 226.132749 301.084088 226.723429 299.658061 
C 227.314109 298.232033 227.618149 296.703521 227.618149 295.16 
C 227.618149 293.616479 227.314109 292.087967 226.723429 290.661939 
C 226.132749 289.235912 225.266916 287.940102 224.175482 286.848667 
C 223.084048 285.757233 221.788238 284.8914 220.36221 284.300721 
C 218.936183 283.710041 217.407671 283.406001 215.86415 283.406001 
" clip-path="url(#pc49cc8516c)" style="fill: none; stroke: #b0b0b0; stroke-width: 0.8; stroke-linecap: square"/>
     </g>
    </g>
    <g id="ytick_2">
     <g id="line2d_5">
      <path d="M 215.86415 256.266773 
C 210.756738 256.266773 205.698989 257.272822 200.980356 259.227344 
C 196.261723 261.181866 191.973971 264.04685 188.362485 267.658336 
C 184.751 271.269821 181.886015 275.557573 179.931493 280.276206 
C 177.976972 284.99484 176.970923 290.052588 176.970923 295.16 
C 176.970923 300.267412 177.976972 305.32516 179.931493 310.043794 
C 181.886015 314.762427 184.751 319.050179 188.362485 322.661664 
C 191.973971 326.27315 196.261723 329.138134 200.980356 331.092656 
C 205.698989 333.047178 210.756738 334.053227 215.86415 334.053227 
C 220.971561 334.053227 226.02931 333.047178 230.747943 331.092656 
C 235.466576 329.138134 239.754329 326.27315 243.365814 322.661664 
C 246.9773 319.050179 249.842284 314.762427 251.796806 310.043794 
C 253.751328 305.32516 254.757376 300.267412 254.757376 295.16 
C 254.757376 290.052588 253.751328 284.99484 251.796806 280.276206 
C 249.842284 275.557573 246.9773 271.269821 243.365814 267.658336 
C 239.754329 264.04685 235.466576 261.181866 230.747943 259.227344 
C 226.02931 257.272822 220.971561 256.266773 215.86415 256.266773 
" clip-path="url(#pc49cc8516c)" style="fill: none; stroke: #b0b0b0; stroke-width: 0.8; stroke-linecap: square"/>
     </g>
    </g>
    <g id="ytick_3">
     <g id="line2d_6">
      <path d="M 215.86415 229.127546 
C 207.192847 229.127546 198.605862 230.835603 190.594623 234.153967 
C 182.583385 237.472331 175.30369 242.336467 169.172153 248.468004 
C 163.040617 254.599541 158.17648 261.879235 154.858117 269.890474 
C 151.539753 277.901713 149.831695 286.488698 149.831695 295.16 
C 149.831695 303.831302 151.539753 312.418287 154.858117 320.429526 
C 158.17648 328.440765 163.040617 335.720459 169.172153 341.851996 
C 175.30369 347.983533 182.583385 352.847669 190.594623 356.166033 
C 198.605862 359.484397 207.192847 361.192454 215.86415 361.192454 
C 224.535452 361.192454 233.122437 359.484397 241.133676 356.166033 
C 249.144915 352.847669 256.424609 347.983533 262.556146 341.851996 
C 268.687683 335.720459 273.551819 328.440765 276.870183 320.429526 
C 280.188546 312.418287 281.896604 303.831302 281.896604 295.16 
C 281.896604 286.488698 280.188546 277.901713 276.870183 269.890474 
C 273.551819 261.879235 268.687683 254.599541 262.556146 248.468004 
C 256.424609 242.336467 249.144915 237.472331 241.133676 234.153967 
C 233.122437 230.835603 224.535452 229.127546 215.86415 229.127546 
" clip-path="url(#pc49cc8516c)" style="fill: none; stroke: #b0b0b0; stroke-width: 0.8; stroke-linecap: square"/>
     </g>
    </g>
    <g id="ytick_4">
     <g id="line2d_7">
      <path d="M 215.86415 201.988318 
C 203.628956 201.988318 191.512735 204.398385 180.208891 209.08059 
C 168.905046 213.762796 158.63341 220.626084 149.981822 229.277672 
C 141.330234 237.92926 134.466946 248.200897 129.78474 259.504741 
C 125.102534 270.808586 122.692468 282.924807 122.692468 295.16 
C 122.692468 307.395193 125.102534 319.511414 129.78474 330.815259 
C 134.466946 342.119103 141.330234 352.39074 149.981822 361.042328 
C 158.63341 369.693916 168.905046 376.557204 180.208891 381.23941 
C 191.512735 385.921615 203.628956 388.331682 215.86415 388.331682 
C 228.099343 388.331682 240.215564 385.921615 251.519409 381.23941 
C 262.823253 376.557204 273.094889 369.693916 281.746478 361.042328 
C 290.398066 352.39074 297.261354 342.119103 301.943559 330.815259 
C 306.625765 319.511414 309.035831 307.395193 309.035831 295.16 
C 309.035831 282.924807 306.625765 270.808586 301.943559 259.504741 
C 297.261354 248.200897 290.398066 237.92926 281.746478 229.277672 
C 273.094889 220.626084 262.823253 213.762796 251.519409 209.08059 
C 240.215564 204.398385 228.099343 201.988318 215.86415 201.988318 
" clip-path="url(#pc49cc8516c)" style="fill: none; stroke: #b0b0b0; stroke-width: 0.8; stroke-linecap: square"/>
     </g>
    </g>
    <g id="ytick_5">
     <g id="line2d_8">
      <path d="M 215.86415 174.849091 
C 200.065066 174.849091 184.419608 177.961166 169.823158 184.007214 
C 155.226708 190.053261 141.963129 198.915701 130.79149 210.08734 
C 119.619851 221.25898 110.757411 234.522558 104.711363 249.119008 
C 98.665316 263.715459 95.553241 279.360916 95.553241 295.16 
C 95.553241 310.959084 98.665316 326.604541 104.711363 341.200992 
C 110.757411 355.797442 119.619851 369.06102 130.79149 380.23266 
C 141.963129 391.404299 155.226708 400.266739 169.823158 406.312786 
C 184.419608 412.358834 200.065066 415.470909 215.86415 415.470909 
C 231.663233 415.470909 247.308691 412.358834 261.905141 406.312786 
C 276.501591 400.266739 289.76517 391.404299 300.936809 380.23266 
C 312.108449 369.06102 320.970888 355.797442 327.016936 341.200992 
C 333.062984 326.604541 336.175059 310.959084 336.175059 295.16 
C 336.175059 279.360916 333.062984 263.715459 327.016936 249.119008 
C 320.970888 234.522558 312.108449 221.25898 300.936809 210.08734 
C 289.76517 198.915701 276.501591 190.053261 261.905141 184.007214 
C 247.308691 177.961166 231.663233 174.849091 215.86415 174.849091 
" clip-path="url(#pc49cc8516c)" style="fill: none; stroke: #b0b0b0; stroke-width: 0.8; stroke-linecap: square"/>
     </g>
    </g>
   </g>
   <g id="line2d_9">
    <path d="M 215.86415 289.430909 
L 158.678367 328.176227 
L 294.559983 340.595061 
L 215.86415 289.430909 
" clip-path="url(#pc49cc8516c)" style="fill: none; stroke: #e0218a; stroke-width: 2; stroke-linecap: square"/>
   </g>
   <g id="line2d_10">
    <path d="M 215.86415 281.474215 
L 121.890655 349.415622 
L 276.122797 329.950346 
L 215.86415 281.474215 
" clip-path="url(#pc49cc8516c)" style="fill: none; stroke: #efb475; stroke-width: 2; stroke-linecap: square"/>
   </g>
   <g id="line2d_11">
    <path d="M 215.86415 229.127546 
L 111.671846 355.315455 
L 273.049932 328.176227 
L 215.86415 229.127546 
" clip-path="url(#pc49cc8516c)" style="fill: none; stroke: #477081; stroke-width: 2; stroke-linecap: square"/>
   </g>
   <g id="patch_6">
    <path d="M 215.86415 169.12 
C 199.312728 169.12 182.922249 172.380269 167.63073 178.714224 
C 152.339211 185.048178 138.444033 194.332639 126.740411 206.036261 
C 115.036789 217.739883 105.752328 231.635061 99.418373 246.92658 
C 93.084419 262.218099 89.82415 278.608579 89.82415 295.16 
C 89.82415 311.711421 93.084419 328.101901 99.418373 343.39342 
C 105.752328 358.684939 115.036789 372.580117 126.740411 384.283739 
C 138.444033 395.987361 152.339211 405.271822 167.63073 411.605776 
C 182.922249 417.939731 199.312728 421.2 215.86415 421.2 
C 232.415571 421.2 248.80605 417.939731 264.097569 411.605776 
C 279.389089 405.271822 293.284266 395.987361 304.987888 384.283739 
C 316.69151 372.580117 325.975971 358.684939 332.309926 343.39342 
C 338.643881 328.101901 341.90415 311.711421 341.90415 295.16 
C 341.90415 278.608579 338.643881 262.218099 332.309926 246.92658 
C 325.975971 231.635061 316.69151 217.739883 304.987888 206.036261 
C 293.284266 194.332639 279.389089 185.048178 264.097569 178.714224 
C 248.80605 172.380269 232.415571 169.12 215.86415 169.12 
" style="fill: none; stroke: #000000; stroke-width: 0.8; stroke-linejoin: miter; stroke-linecap: square"/>
   </g>
   <g id="legend_1">
    <g id="patch_7">
     <path d="M 38.00415 124.405 
L 213.84415 124.405 
Q 217.04415 124.405 217.04415 121.205 
L 217.04415 54.28 
Q 217.04415 51.08 213.84415 51.08 
L 38.00415 51.08 
Q 34.80415 51.08 34.80415 54.28 
L 34.80415 121.205 
Q 34.80415 124.405 38.00415 124.405 
L 38.00415 124.405 
z
" style="fill: none; opacity: 0"/>
    </g>
    <g id="line2d_12">
     <path d="M 41.20415 63.9275 
L 57.20415 63.9275 
L 73.20415 63.9275 
" style="fill: none; stroke: #e0218a; stroke-width: 2; stroke-linecap: square"/>
    </g>
    <g id="text_4">
     <!-- BLANK -->
     <g transform="translate(86.00415 69.5275) scale(0.16 -0.16)">
      <defs>
       <path id="Ruda-Regular-42" d="M 2067 -90 
Q 1830 -90 1590 -74 
Q 1350 -58 1152 -35 
Q 954 -13 826 3 
Q 698 19 678 26 
L 704 2067 
L 672 4461 
Q 698 4461 826 4473 
Q 954 4486 1152 4502 
Q 1350 4518 1577 4528 
Q 1805 4538 2022 4538 
Q 2374 4538 2656 4429 
Q 2938 4320 3107 4061 
Q 3277 3802 3277 3347 
Q 3277 2995 3171 2790 
Q 3066 2586 2922 2486 
Q 2778 2387 2659 2355 
Q 2541 2323 2522 2323 
L 2560 2573 
L 2560 2067 
L 2490 2310 
Q 2566 2310 2716 2275 
Q 2867 2240 3020 2137 
Q 3174 2035 3283 1833 
Q 3392 1632 3392 1299 
Q 3392 883 3280 611 
Q 3168 339 2976 185 
Q 2784 32 2550 -29 
Q 2317 -90 2067 -90 
z
M 2138 326 
Q 2554 326 2688 556 
Q 2822 787 2822 1267 
Q 2822 1747 2601 1926 
Q 2381 2106 1997 2106 
L 966 2106 
L 1210 2240 
L 1222 154 
L 1210 390 
Q 1242 390 1370 374 
Q 1498 358 1696 342 
Q 1894 326 2138 326 
z
M 2048 2522 
Q 2445 2522 2582 2710 
Q 2720 2899 2720 3328 
Q 2720 3782 2553 3961 
Q 2387 4141 1997 4141 
Q 1773 4141 1593 4128 
Q 1414 4115 1299 4102 
Q 1184 4090 1152 4083 
L 1210 4333 
L 1210 2374 
L 966 2528 
L 2048 2522 
z
" transform="scale(0.015625)"/>
       <path id="Ruda-Regular-41" d="M 32 0 
L 1242 4448 
L 1997 4448 
L 3206 0 
L 2656 0 
L 2317 1331 
L 2586 1178 
L 666 1178 
L 922 1331 
L 582 0 
L 32 0 
z
M 934 1402 
L 755 1651 
L 2483 1651 
L 2304 1402 
L 1581 4211 
L 1882 3974 
L 1357 3974 
L 1658 4211 
L 934 1402 
z
" transform="scale(0.015625)"/>
       <path id="Ruda-Regular-4e" d="M 672 0 
L 672 4448 
L 1395 4448 
L 3206 646 
L 3226 646 
L 3142 4448 
L 3680 4448 
L 3680 0 
L 2957 0 
L 1146 3802 
L 1126 3802 
L 1210 0 
L 672 0 
z
" transform="scale(0.015625)"/>
       <path id="Ruda-Regular-4b" d="M 3104 0 
L 1229 2285 
L 2944 4448 
L 3622 4448 
L 1862 2330 
L 1862 2291 
L 3821 0 
L 3104 0 
z
M 672 0 
L 691 2259 
L 672 4448 
L 1210 4448 
L 1210 0 
L 672 0 
z
" transform="scale(0.015625)"/>
      </defs>
      <use xlink:href="#Ruda-Regular-42"/>
      <use xlink:href="#Ruda-Regular-4c" x="61.399994"/>
      <use xlink:href="#Ruda-Regular-41" x="105.999985"/>
      <use xlink:href="#Ruda-Regular-4e" x="156.599976"/>
      <use xlink:href="#Ruda-Regular-4b" x="224.59996"/>
     </g>
    </g>
    <g id="line2d_13">
     <path d="M 41.20415 86.8375 
L 57.20415 86.8375 
L 73.20415 86.8375 
" style="fill: none; stroke: #efb475; stroke-width: 2; stroke-linecap: square"/>
    </g>
    <g id="text_5">
     <!-- Dropcasting CBM -->
     <g transform="translate(86.00415 92.4375) scale(0.16 -0.16)">
      <defs>
       <path id="Ruda-Regular-44" d="M 1933 -90 
Q 1805 -90 1616 -80 
Q 1427 -70 1232 -54 
Q 1037 -38 883 -25 
Q 730 -13 672 -6 
L 672 4454 
Q 698 4454 838 4467 
Q 979 4480 1184 4496 
Q 1389 4512 1609 4525 
Q 1830 4538 2003 4538 
Q 2496 4538 2806 4355 
Q 3117 4173 3283 3856 
Q 3450 3539 3514 3132 
Q 3578 2726 3578 2278 
Q 3578 1395 3363 876 
Q 3149 358 2777 134 
Q 2406 -90 1933 -90 
z
M 1862 378 
Q 2208 378 2374 426 
Q 2541 474 2624 557 
Q 2714 646 2794 838 
Q 2874 1030 2925 1388 
Q 2976 1747 2976 2323 
Q 2976 2906 2896 3347 
Q 2816 3789 2637 3942 
Q 2573 4000 2435 4035 
Q 2298 4070 2016 4070 
Q 1760 4070 1523 4048 
Q 1286 4026 1114 4013 
L 1210 4269 
L 1210 198 
L 1094 461 
Q 1280 435 1459 406 
Q 1638 378 1862 378 
z
" transform="scale(0.015625)"/>
       <path id="Ruda-Regular-70" d="M 544 -1062 
L 544 3725 
L 902 3725 
L 973 3347 
L 1011 3347 
Q 1133 3437 1293 3542 
Q 1453 3648 1661 3728 
Q 1869 3808 2118 3808 
Q 2464 3808 2717 3613 
Q 2970 3418 3107 3005 
Q 3245 2592 3245 1933 
Q 3245 1312 3129 918 
Q 3014 525 2822 304 
Q 2630 83 2387 -3 
Q 2144 -90 1894 -90 
Q 1741 -90 1581 -77 
Q 1421 -64 1289 -41 
Q 1158 -19 1075 -6 
L 1075 -1062 
L 544 -1062 
z
M 2016 384 
Q 2086 384 2192 400 
Q 2298 416 2381 486 
Q 2470 563 2537 726 
Q 2605 890 2643 1203 
Q 2682 1517 2682 2035 
Q 2682 2458 2659 2698 
Q 2637 2938 2595 3056 
Q 2554 3174 2496 3226 
Q 2464 3258 2384 3296 
Q 2304 3334 2138 3334 
Q 1933 3334 1718 3267 
Q 1504 3200 1331 3120 
Q 1158 3040 1075 2989 
L 1075 518 
Q 1210 480 1478 432 
Q 1747 384 2016 384 
z
" transform="scale(0.015625)"/>
       <path id="Ruda-Regular-74" d="M 1619 -90 
Q 1344 -90 1139 3 
Q 934 96 822 361 
Q 710 627 710 1152 
L 710 3091 
L 288 3091 
L 288 3424 
L 730 3514 
L 870 4384 
L 1242 4384 
L 1242 3507 
L 1984 3507 
L 1984 3078 
L 1242 3078 
L 1242 1114 
Q 1242 762 1261 602 
Q 1280 442 1360 400 
Q 1440 358 1632 358 
Q 1734 358 1811 361 
Q 1888 365 1933 368 
Q 1978 371 1978 371 
L 1978 -58 
Q 1978 -58 1882 -74 
Q 1786 -90 1619 -90 
z
" transform="scale(0.015625)"/>
       <path id="Ruda-Regular-67" d="M 1619 -1146 
Q 1363 -1146 1139 -1120 
Q 915 -1094 748 -1059 
Q 582 -1024 486 -998 
Q 390 -973 390 -973 
L 454 -493 
Q 813 -557 1190 -605 
Q 1568 -653 1920 -653 
Q 2278 -653 2400 -595 
Q 2522 -538 2522 -416 
Q 2522 -346 2490 -288 
Q 2458 -230 2374 -169 
Q 2291 -109 2131 -32 
Q 1971 45 1709 154 
Q 1344 307 1181 374 
Q 1018 442 976 464 
Q 934 486 934 506 
Q 934 512 966 592 
Q 998 672 1049 787 
Q 1101 902 1152 1027 
Q 1203 1152 1242 1242 
Q 819 1325 560 1651 
Q 301 1978 301 2445 
Q 301 2970 505 3264 
Q 710 3558 1046 3683 
Q 1382 3808 1773 3808 
Q 1901 3808 2077 3801 
Q 2253 3795 2435 3782 
Q 2618 3770 2774 3757 
Q 2931 3744 3027 3737 
Q 3123 3731 3123 3731 
L 3123 3392 
L 2701 3328 
Q 2701 3334 2755 3196 
Q 2810 3059 2864 2857 
Q 2918 2656 2918 2464 
Q 2918 2099 2758 1814 
Q 2598 1530 2297 1366 
Q 1997 1203 1574 1203 
Q 1555 1101 1529 963 
Q 1504 826 1504 800 
Q 1504 787 1545 764 
Q 1587 742 1712 694 
Q 1837 646 2080 538 
Q 2451 384 2649 237 
Q 2848 90 2925 -51 
Q 3002 -192 3002 -333 
Q 3002 -589 2826 -771 
Q 2650 -954 2339 -1050 
Q 2029 -1146 1619 -1146 
z
M 1606 1664 
Q 1894 1664 2070 1734 
Q 2246 1805 2326 1981 
Q 2406 2157 2406 2477 
Q 2406 2842 2361 3062 
Q 2317 3283 2278 3302 
Q 2266 3315 2170 3324 
Q 2074 3334 1958 3337 
Q 1843 3341 1756 3344 
Q 1670 3347 1670 3347 
Q 1370 3347 1181 3276 
Q 992 3206 905 3020 
Q 819 2835 819 2477 
Q 819 2003 1001 1833 
Q 1184 1664 1606 1664 
z
" transform="scale(0.015625)"/>
       <path id="Ruda-Regular-20" transform="scale(0.015625)"/>
       <path id="Ruda-Regular-43" d="M 1997 -90 
Q 1542 -90 1196 131 
Q 851 352 656 851 
Q 461 1350 461 2176 
Q 461 2906 585 3370 
Q 710 3834 931 4090 
Q 1152 4346 1453 4442 
Q 1754 4538 2106 4538 
Q 2259 4538 2470 4522 
Q 2682 4506 2880 4483 
Q 3078 4461 3181 4435 
L 3117 3974 
Q 3059 3981 2931 3993 
Q 2803 4006 2649 4019 
Q 2496 4032 2355 4041 
Q 2214 4051 2138 4051 
Q 1824 4051 1635 4019 
Q 1446 3987 1357 3878 
Q 1274 3776 1197 3577 
Q 1120 3379 1075 3036 
Q 1030 2694 1030 2157 
Q 1030 1478 1161 1072 
Q 1293 666 1421 538 
Q 1510 448 1638 413 
Q 1766 378 1926 378 
Q 2170 378 2397 429 
Q 2624 480 2800 550 
Q 2976 621 3078 672 
Q 3181 723 3181 723 
L 3366 301 
Q 3366 301 3267 243 
Q 3168 186 2989 106 
Q 2810 26 2557 -32 
Q 2304 -90 1997 -90 
z
" transform="scale(0.015625)"/>
       <path id="Ruda-Regular-4d" d="M 640 0 
L 794 4448 
L 1574 4448 
L 2579 1549 
L 2624 1549 
L 3635 4448 
L 4416 4448 
L 4570 0 
L 4032 0 
L 3981 3910 
L 3936 3910 
L 2931 1043 
L 2272 1043 
L 1274 3910 
L 1229 3910 
L 1178 0 
L 640 0 
z
" transform="scale(0.015625)"/>
      </defs>
      <use xlink:href="#Ruda-Regular-44"/>
      <use xlink:href="#Ruda-Regular-72" x="63.099991"/>
      <use xlink:href="#Ruda-Regular-6f" x="102.599976"/>
      <use xlink:href="#Ruda-Regular-70" x="160.199966"/>
      <use xlink:href="#Ruda-Regular-63" x="217.899963"/>
      <use xlink:href="#Ruda-Regular-61" x="269.699951"/>
      <use xlink:href="#Ruda-Regular-73" x="326.599945"/>
      <use xlink:href="#Ruda-Regular-74" x="375.799942"/>
      <use xlink:href="#Ruda-Regular-69" x="412.199936"/>
      <use xlink:href="#Ruda-Regular-6e" x="441.699921"/>
      <use xlink:href="#Ruda-Regular-67" x="501.799911"/>
      <use xlink:href="#Ruda-Regular-20" x="553.899902"/>
      <use xlink:href="#Ruda-Regular-43" x="577.899887"/>
      <use xlink:href="#Ruda-Regular-42" x="636.199875"/>
      <use xlink:href="#Ruda-Regular-4d" x="697.599869"/>
     </g>
    </g>
    <g id="line2d_14">
     <path d="M 41.20415 109.75 
L 57.20415 109.75 
L 73.20415 109.75 
" style="fill: none; stroke: #477081; stroke-width: 2; stroke-linecap: square"/>
    </g>
    <g id="text_6">
     <!-- SAM + CBM -->
     <g transform="translate(86.00415 115.35) scale(0.16 -0.16)">
      <defs>
       <path id="Ruda-Regular-2b" d="M 1747 205 
L 1747 1651 
L 333 1651 
L 333 2099 
L 1747 2099 
L 1747 3539 
L 2221 3539 
L 2221 2099 
L 3642 2099 
L 3642 1651 
L 2221 1651 
L 2221 205 
L 1747 205 
z
" transform="scale(0.015625)"/>
      </defs>
      <use xlink:href="#Ruda-Regular-53"/>
      <use xlink:href="#Ruda-Regular-41" x="51.099991"/>
      <use xlink:href="#Ruda-Regular-4d" x="101.699982"/>
      <use xlink:href="#Ruda-Regular-20" x="183.099976"/>
      <use xlink:href="#Ruda-Regular-2b" x="207.09996"/>
      <use xlink:href="#Ruda-Regular-20" x="269.199951"/>
      <use xlink:href="#Ruda-Regular-43" x="293.199936"/>
      <use xlink:href="#Ruda-Regular-42" x="351.499924"/>
      <use xlink:href="#Ruda-Regular-4d" x="412.899918"/>
     </g>
    </g>
   </g>
  </g>
 </g>
 <defs>
  <clipPath id="pc49cc8516c">
   <path d="M 341.90415 295.16 
C 341.90415 278.608579 338.643881 262.218099 332.309926 246.92658 
C 325.975971 231.635061 316.69151 217.739883 304.987888 206.036261 
C 293.284266 194.332639 279.389089 185.048178 264.097569 178.714224 
C 248.80605 172.380269 232.415571 169.12 215.86415 169.12 
C 199.312728 169.12 182.922249 172.380269 167.63073 178.714224 
C 152.339211 185.048178 138.444033 194.332639 126.740411 206.036261 
C 115.036789 217.739883 105.752328 231.635061 99.418373 246.92658 
C 93.084419 262.218099 89.82415 278.608579 89.82415 295.16 
C 89.82415 311.711421 93.084419 328.101901 99.418373 343.39342 
C 105.752328 358.684939 115.036789 372.580117 126.740411 384.283739 
C 138.444033 395.987361 152.339211 405.271822 167.63073 411.605776 
C 182.922249 417.939731 199.312728 421.2 215.86415 421.2 
C 232.415571 421.2 248.80605 417.939731 264.097569 411.605776 
C 279.389089 405.271822 293.284266 395.987361 304.987888 384.283739 
C 316.69151 372.580117 325.975971 358.684939 332.309926 343.39342 
C 338.643881 328.101901 341.90415 311.711421 341.90415 295.16 
M 215.86415 295.16 
C 215.86415 295.16 215.86415 295.16 215.86415 295.16 
C 215.86415 295.16 215.86415 295.16 215.86415 295.16 
C 215.86415 295.16 215.86415 295.16 215.86415 295.16 
C 215.86415 295.16 215.86415 295.16 215.86415 295.16 
C 215.86415 295.16 215.86415 295.16 215.86415 295.16 
C 215.86415 295.16 215.86415 295.16 215.86415 295.16 
C 215.86415 295.16 215.86415 295.16 215.86415 295.16 
C 215.86415 295.16 215.86415 295.16 215.86415 295.16 
C 215.86415 295.16 215.86415 295.16 215.86415 295.16 
C 215.86415 295.16 215.86415 295.16 215.86415 295.16 
C 215.86415 295.16 215.86415 295.16 215.86415 295.16 
C 215.86415 295.16 215.86415 295.16 215.86415 295.16 
C 215.86415 295.16 215.86415 295.16 215.86415 295.16 
C 215.86415 295.16 215.86415 295.16 215.86415 295.16 
C 215.86415 295.16 215.86415 295.16 215.86415 295.16 
C 215.86415 295.16 215.86415 295.16 215.86415 295.16 
M 341.90415 295.16 
z
"/>
  </clipPath>
 </defs>
</svg>
