<?xml version="1.0" encoding="utf-8" standalone="no"?>
<!DOCTYPE svg PUBLIC "-//W3C//DTD SVG 1.1//EN"
  "http://www.w3.org/Graphics/SVG/1.1/DTD/svg11.dtd">
<svg xmlns:xlink="http://www.w3.org/1999/xlink" width="576pt" height="720pt" viewBox="0 0 576 720" xmlns="http://www.w3.org/2000/svg" version="1.1">
 <metadata>
  <rdf:RDF xmlns:dc="http://purl.org/dc/elements/1.1/" xmlns:cc="http://creativecommons.org/ns#" xmlns:rdf="http://www.w3.org/1999/02/22-rdf-syntax-ns#">
   <cc:Work>
    <dc:type rdf:resource="http://purl.org/dc/dcmitype/StillImage"/>
    <dc:date>2024-09-26T17:45:10.525679</dc:date>
    <dc:format>image/svg+xml</dc:format>
    <dc:creator>
     <cc:Agent>
      <dc:title>Matplotlib v3.6.2, https://matplotlib.org/</dc:title>
     </cc:Agent>
    </dc:creator>
   </cc:Work>
  </rdf:RDF>
 </metadata>
 <defs>
  <style type="text/css">*{stroke-linejoin: round; stroke-linecap: butt}</style>
 </defs>
 <g id="figure_1">
  <g id="patch_1">
   <path d="M 0 720 
L 576 720 
L 576 0 
L 0 0 
L 0 720 
z
" style="fill: none"/>
  </g>
  <g id="axes_1">
   <g id="patch_2">
    <path d="M 76.52 311.2 
L 553.455 311.2 
L 553.455 10.8 
L 76.52 10.8 
L 76.52 311.2 
z
" style="fill: none"/>
   </g>
   <g id="patch_3">
    <path d="M 81.732926 311.2 
L 104.954896 311.2 
L 104.954896 125.767901 
L 81.732926 125.767901 
z
" clip-path="url(#p5f28c3725c)" style="fill: #477081"/>
   </g>
   <g id="patch_4">
    <path d="M 104.954896 311.2 
L 128.176867 311.2 
L 128.176867 48.946032 
L 104.954896 48.946032 
z
" clip-path="url(#p5f28c3725c)" style="fill: #477081"/>
   </g>
   <g id="patch_5">
    <path d="M 128.176867 311.2 
L 151.398838 311.2 
L 151.398838 25.104762 
L 128.176867 25.104762 
z
" clip-path="url(#p5f28c3725c)" style="fill: #477081"/>
   </g>
   <g id="patch_6">
    <path d="M 151.398838 311.2 
L 174.620809 311.2 
L 174.620809 115.171781 
L 151.398838 115.171781 
z
" clip-path="url(#p5f28c3725c)" style="fill: #477081"/>
   </g>
   <g id="patch_7">
    <path d="M 174.620809 311.2 
L 197.842779 311.2 
L 197.842779 170.801411 
L 174.620809 170.801411 
z
" clip-path="url(#p5f28c3725c)" style="fill: #477081"/>
   </g>
   <g id="patch_8">
    <path d="M 197.842779 311.2 
L 221.06475 311.2 
L 221.06475 247.62328 
L 197.842779 247.62328 
z
" clip-path="url(#p5f28c3725c)" style="fill: #477081"/>
   </g>
   <g id="patch_9">
    <path d="M 221.06475 311.2 
L 244.286721 311.2 
L 244.286721 258.2194 
L 221.06475 258.2194 
z
" clip-path="url(#p5f28c3725c)" style="fill: #477081"/>
   </g>
   <g id="patch_10">
    <path d="M 244.286721 311.2 
L 267.508691 311.2 
L 267.508691 297.95485 
L 244.286721 297.95485 
z
" clip-path="url(#p5f28c3725c)" style="fill: #477081"/>
   </g>
   <g id="patch_11">
    <path d="M 267.508691 311.2 
L 290.730662 311.2 
L 290.730662 279.41164 
L 267.508691 279.41164 
z
" clip-path="url(#p5f28c3725c)" style="fill: #477081"/>
   </g>
   <g id="patch_12">
    <path d="M 290.730662 311.2 
L 313.952633 311.2 
L 313.952633 290.00776 
L 290.730662 290.00776 
z
" clip-path="url(#p5f28c3725c)" style="fill: #477081"/>
   </g>
   <g id="patch_13">
    <path d="M 313.952633 311.2 
L 337.174604 311.2 
L 337.174604 305.90194 
L 313.952633 305.90194 
z
" clip-path="url(#p5f28c3725c)" style="fill: #477081"/>
   </g>
   <g id="patch_14">
    <path d="M 337.174604 311.2 
L 360.396574 311.2 
L 360.396574 311.2 
L 337.174604 311.2 
z
" clip-path="url(#p5f28c3725c)" style="fill: #477081"/>
   </g>
   <g id="patch_15">
    <path d="M 360.396574 311.2 
L 383.618545 311.2 
L 383.618545 305.90194 
L 360.396574 305.90194 
z
" clip-path="url(#p5f28c3725c)" style="fill: #477081"/>
   </g>
   <g id="patch_16">
    <path d="M 383.618545 311.2 
L 406.840516 311.2 
L 406.840516 300.60388 
L 383.618545 300.60388 
z
" clip-path="url(#p5f28c3725c)" style="fill: #477081"/>
   </g>
   <g id="patch_17">
    <path d="M 406.840516 311.2 
L 430.062486 311.2 
L 430.062486 305.90194 
L 406.840516 305.90194 
z
" clip-path="url(#p5f28c3725c)" style="fill: #477081"/>
   </g>
   <g id="patch_18">
    <path d="M 430.062486 311.2 
L 453.284457 311.2 
L 453.284457 308.55097 
L 430.062486 308.55097 
z
" clip-path="url(#p5f28c3725c)" style="fill: #477081"/>
   </g>
   <g id="patch_19">
    <path d="M 453.284457 311.2 
L 476.506428 311.2 
L 476.506428 311.2 
L 453.284457 311.2 
z
" clip-path="url(#p5f28c3725c)" style="fill: #477081"/>
   </g>
   <g id="patch_20">
    <path d="M 476.506428 311.2 
L 499.728398 311.2 
L 499.728398 305.90194 
L 476.506428 305.90194 
z
" clip-path="url(#p5f28c3725c)" style="fill: #477081"/>
   </g>
   <g id="patch_21">
    <path d="M 499.728398 311.2 
L 522.950369 311.2 
L 522.950369 311.2 
L 499.728398 311.2 
z
" clip-path="url(#p5f28c3725c)" style="fill: #477081"/>
   </g>
   <g id="patch_22">
    <path d="M 522.950369 311.2 
L 546.17234 311.2 
L 546.17234 308.55097 
L 522.950369 308.55097 
z
" clip-path="url(#p5f28c3725c)" style="fill: #477081"/>
   </g>
   <g id="matplotlib.axis_1">
    <g id="xtick_1">
     <g id="line2d_1">
      <path d="M 76.52 311.2 
L 76.52 10.8 
" clip-path="url(#p5f28c3725c)" style="fill: none; stroke: #b0b0b0; stroke-width: 0.8; stroke-linecap: square"/>
     </g>
     <g id="line2d_2">
      <defs>
       <path id="mc3b5faf18f" d="M 0 0 
L 0 3.5 
" style="stroke: #000000; stroke-width: 0.8"/>
      </defs>
      <g>
       <use xlink:href="#mc3b5faf18f" x="76.52" y="311.2" style="stroke: #000000; stroke-width: 0.8"/>
      </g>
     </g>
     <g id="text_1">
      <!-- 0 -->
      <g transform="translate(72.515781 328.741563) scale(0.14 -0.14)">
       <defs>
        <path id="Ruda-Regular-30" d="M 1830 -83 
Q 1523 -83 1260 19 
Q 998 122 803 374 
Q 608 627 496 1078 
Q 384 1530 384 2234 
Q 384 2931 496 3379 
Q 608 3827 803 4080 
Q 998 4333 1260 4432 
Q 1523 4531 1830 4531 
Q 2138 4531 2400 4432 
Q 2662 4333 2860 4080 
Q 3059 3827 3168 3379 
Q 3277 2931 3277 2234 
Q 3277 1530 3168 1078 
Q 3059 627 2860 374 
Q 2662 122 2400 19 
Q 2138 -83 1830 -83 
z
M 1837 403 
Q 2131 403 2326 553 
Q 2522 704 2624 1101 
Q 2726 1498 2726 2234 
Q 2726 2803 2665 3161 
Q 2605 3520 2489 3712 
Q 2374 3904 2208 3977 
Q 2042 4051 1830 4051 
Q 1619 4051 1452 3980 
Q 1286 3910 1171 3718 
Q 1056 3526 998 3171 
Q 941 2816 941 2246 
Q 941 1510 1040 1110 
Q 1139 710 1340 556 
Q 1542 403 1837 403 
z
" transform="scale(0.015625)"/>
       </defs>
       <use xlink:href="#Ruda-Regular-30"/>
      </g>
     </g>
    </g>
    <g id="xtick_2">
     <g id="line2d_3">
      <path d="M 156.009167 311.2 
L 156.009167 10.8 
" clip-path="url(#p5f28c3725c)" style="fill: none; stroke: #b0b0b0; stroke-width: 0.8; stroke-linecap: square"/>
     </g>
     <g id="line2d_4">
      <g>
       <use xlink:href="#mc3b5faf18f" x="156.009167" y="311.2" style="stroke: #000000; stroke-width: 0.8"/>
      </g>
     </g>
     <g id="text_2">
      <!-- 50 -->
      <g transform="translate(148.44151 328.741563) scale(0.14 -0.14)">
       <defs>
        <path id="Ruda-Regular-35" d="M 1555 -83 
Q 1261 -83 1008 -12 
Q 755 58 566 150 
Q 378 243 275 313 
Q 173 384 173 384 
L 378 787 
Q 378 787 490 729 
Q 602 672 784 592 
Q 966 512 1190 454 
Q 1414 397 1638 397 
Q 1939 397 2086 493 
Q 2208 576 2269 806 
Q 2330 1037 2330 1261 
Q 2330 1466 2282 1677 
Q 2234 1888 2144 1971 
Q 2042 2080 1728 2121 
Q 1414 2163 986 2163 
Q 845 2163 729 2160 
Q 614 2157 547 2153 
Q 480 2150 480 2150 
L 806 4448 
L 2694 4448 
L 2694 3981 
L 1254 4006 
L 1069 2643 
Q 1459 2624 1792 2566 
Q 2125 2509 2371 2368 
Q 2618 2227 2755 1974 
Q 2893 1722 2893 1312 
Q 2893 653 2534 285 
Q 2176 -83 1555 -83 
z
" transform="scale(0.015625)"/>
       </defs>
       <use xlink:href="#Ruda-Regular-35"/>
       <use xlink:href="#Ruda-Regular-30" x="50.899994"/>
      </g>
     </g>
    </g>
    <g id="xtick_3">
     <g id="line2d_5">
      <path d="M 235.498333 311.2 
L 235.498333 10.8 
" clip-path="url(#p5f28c3725c)" style="fill: none; stroke: #b0b0b0; stroke-width: 0.8; stroke-linecap: square"/>
     </g>
     <g id="line2d_6">
      <g>
       <use xlink:href="#mc3b5faf18f" x="235.498333" y="311.2" style="stroke: #000000; stroke-width: 0.8"/>
      </g>
     </g>
     <g id="text_3">
      <!-- 100 -->
      <g transform="translate(223.940677 328.741563) scale(0.14 -0.14)">
       <defs>
        <path id="Ruda-Regular-31" d="M 493 0 
L 493 461 
L 1562 448 
L 1606 3962 
L 1574 3962 
L 634 2970 
L 275 3315 
L 1530 4493 
L 2106 4448 
L 2106 448 
L 3046 461 
L 3046 0 
L 493 0 
z
" transform="scale(0.015625)"/>
       </defs>
       <use xlink:href="#Ruda-Regular-31"/>
       <use xlink:href="#Ruda-Regular-30" x="50.699997"/>
       <use xlink:href="#Ruda-Regular-30" x="107.899994"/>
      </g>
     </g>
    </g>
    <g id="xtick_4">
     <g id="line2d_7">
      <path d="M 314.9875 311.2 
L 314.9875 10.8 
" clip-path="url(#p5f28c3725c)" style="fill: none; stroke: #b0b0b0; stroke-width: 0.8; stroke-linecap: square"/>
     </g>
     <g id="line2d_8">
      <g>
       <use xlink:href="#mc3b5faf18f" x="314.9875" y="311.2" style="stroke: #000000; stroke-width: 0.8"/>
      </g>
     </g>
     <g id="text_4">
      <!-- 150 -->
      <g transform="translate(303.870625 328.741563) scale(0.14 -0.14)">
       <use xlink:href="#Ruda-Regular-31"/>
       <use xlink:href="#Ruda-Regular-35" x="50.699997"/>
       <use xlink:href="#Ruda-Regular-30" x="101.599991"/>
      </g>
     </g>
    </g>
    <g id="xtick_5">
     <g id="line2d_9">
      <path d="M 394.476667 311.2 
L 394.476667 10.8 
" clip-path="url(#p5f28c3725c)" style="fill: none; stroke: #b0b0b0; stroke-width: 0.8; stroke-linecap: square"/>
     </g>
     <g id="line2d_10">
      <g>
       <use xlink:href="#mc3b5faf18f" x="394.476667" y="311.2" style="stroke: #000000; stroke-width: 0.8"/>
      </g>
     </g>
     <g id="text_5">
      <!-- 200 -->
      <g transform="translate(382.688229 328.741563) scale(0.14 -0.14)">
       <defs>
        <path id="Ruda-Regular-32" d="M 358 0 
L 358 416 
Q 358 416 652 761 
Q 947 1107 1510 1824 
Q 1914 2336 2170 2736 
Q 2426 3136 2426 3507 
Q 2426 3750 2294 3900 
Q 2163 4051 1837 4051 
Q 1632 4051 1405 3990 
Q 1178 3930 957 3834 
Q 736 3738 550 3616 
L 326 4019 
Q 429 4109 637 4230 
Q 845 4352 1126 4441 
Q 1408 4531 1715 4531 
Q 2074 4531 2352 4396 
Q 2630 4262 2790 4019 
Q 2950 3776 2950 3450 
Q 2950 3174 2838 2896 
Q 2726 2618 2556 2352 
Q 2387 2086 2202 1843 
Q 2131 1747 2003 1584 
Q 1875 1421 1728 1229 
Q 1581 1037 1446 867 
Q 1312 698 1225 589 
Q 1139 480 1139 480 
L 1139 448 
L 3046 480 
L 3046 0 
L 358 0 
z
" transform="scale(0.015625)"/>
       </defs>
       <use xlink:href="#Ruda-Regular-32"/>
       <use xlink:href="#Ruda-Regular-30" x="53.999985"/>
       <use xlink:href="#Ruda-Regular-30" x="111.199982"/>
      </g>
     </g>
    </g>
    <g id="xtick_6">
     <g id="line2d_11">
      <path d="M 473.965833 311.2 
L 473.965833 10.8 
" clip-path="url(#p5f28c3725c)" style="fill: none; stroke: #b0b0b0; stroke-width: 0.8; stroke-linecap: square"/>
     </g>
     <g id="line2d_12">
      <g>
       <use xlink:href="#mc3b5faf18f" x="473.965833" y="311.2" style="stroke: #000000; stroke-width: 0.8"/>
      </g>
     </g>
     <g id="text_6">
      <!-- 250 -->
      <g transform="translate(462.618177 328.741563) scale(0.14 -0.14)">
       <use xlink:href="#Ruda-Regular-32"/>
       <use xlink:href="#Ruda-Regular-35" x="53.999985"/>
       <use xlink:href="#Ruda-Regular-30" x="104.899979"/>
      </g>
     </g>
    </g>
    <g id="xtick_7">
     <g id="line2d_13">
      <path d="M 553.455 311.2 
L 553.455 10.8 
" clip-path="url(#p5f28c3725c)" style="fill: none; stroke: #b0b0b0; stroke-width: 0.8; stroke-linecap: square"/>
     </g>
     <g id="line2d_14">
      <g>
       <use xlink:href="#mc3b5faf18f" x="553.455" y="311.2" style="stroke: #000000; stroke-width: 0.8"/>
      </g>
     </g>
     <g id="text_7">
      <!-- 300 -->
      <g transform="translate(541.631563 328.741563) scale(0.14 -0.14)">
       <defs>
        <path id="Ruda-Regular-33" d="M 1613 -83 
Q 1331 -83 1097 -35 
Q 864 13 685 80 
Q 506 147 390 208 
Q 275 269 230 294 
L 435 704 
Q 480 685 601 633 
Q 723 582 899 528 
Q 1075 474 1280 435 
Q 1485 397 1696 397 
Q 2093 397 2237 592 
Q 2381 787 2381 1197 
Q 2381 1734 2169 1939 
Q 1958 2144 1510 2144 
L 915 2144 
L 915 2566 
Q 1306 2598 1568 2630 
Q 1830 2662 1984 2732 
Q 2138 2803 2202 2947 
Q 2266 3091 2266 3341 
Q 2266 3546 2230 3690 
Q 2195 3834 2131 3898 
Q 2048 3994 1862 4032 
Q 1677 4070 1408 4070 
Q 1293 4070 1181 4064 
Q 1069 4058 918 4042 
Q 768 4026 531 3994 
L 467 4429 
Q 582 4461 752 4483 
Q 922 4506 1110 4518 
Q 1299 4531 1453 4531 
Q 1843 4531 2150 4428 
Q 2458 4326 2637 4083 
Q 2816 3840 2816 3411 
Q 2816 3098 2726 2902 
Q 2637 2707 2512 2601 
Q 2387 2496 2272 2454 
Q 2157 2413 2099 2400 
L 2099 2374 
Q 2227 2355 2371 2297 
Q 2515 2240 2649 2115 
Q 2784 1990 2867 1779 
Q 2950 1568 2950 1242 
Q 2950 883 2822 582 
Q 2694 282 2400 99 
Q 2106 -83 1613 -83 
z
" transform="scale(0.015625)"/>
       </defs>
       <use xlink:href="#Ruda-Regular-33"/>
       <use xlink:href="#Ruda-Regular-30" x="54.499985"/>
       <use xlink:href="#Ruda-Regular-30" x="111.699982"/>
      </g>
     </g>
    </g>
    <g id="text_8">
     <!-- Fiber Length -->
     <g transform="translate(258.35 350.383438) scale(0.2 -0.2)">
      <defs>
       <path id="Ruda-Regular-46" d="M 672 0 
L 672 4448 
L 2854 4448 
L 2854 3974 
L 966 3994 
L 1216 4237 
L 1171 2381 
L 934 2483 
L 2656 2490 
L 2656 2035 
L 934 2035 
L 1178 2125 
L 1203 0 
L 672 0 
z
" transform="scale(0.015625)"/>
       <path id="Ruda-Regular-69" d="M 678 0 
L 678 3725 
L 1210 3725 
L 1210 0 
L 678 0 
z
M 621 4358 
L 621 4902 
L 1274 4902 
L 1274 4358 
L 621 4358 
z
" transform="scale(0.015625)"/>
       <path id="Ruda-Regular-62" d="M 1952 -83 
Q 1779 -83 1526 -48 
Q 1274 -13 1018 41 
Q 762 96 576 160 
L 576 4819 
L 1107 4819 
L 1107 3667 
Q 1216 3693 1369 3725 
Q 1523 3757 1705 3782 
Q 1888 3808 2074 3808 
Q 2637 3808 2937 3363 
Q 3238 2918 3238 1926 
Q 3238 1312 3129 918 
Q 3021 525 2835 307 
Q 2650 90 2422 3 
Q 2195 -83 1952 -83 
z
M 1952 390 
Q 2125 390 2224 412 
Q 2323 435 2387 493 
Q 2445 550 2515 697 
Q 2586 845 2634 1161 
Q 2682 1478 2682 2029 
Q 2682 2579 2627 2867 
Q 2573 3155 2477 3232 
Q 2342 3334 2022 3334 
Q 1696 3334 1462 3270 
Q 1229 3206 1107 3162 
L 1107 493 
Q 1178 474 1293 451 
Q 1408 429 1571 409 
Q 1734 390 1952 390 
z
" transform="scale(0.015625)"/>
       <path id="Ruda-Regular-65" d="M 1946 -90 
Q 1504 -90 1168 99 
Q 832 288 646 720 
Q 461 1152 461 1869 
Q 461 2618 656 3040 
Q 851 3462 1184 3638 
Q 1517 3814 1933 3814 
Q 2349 3814 2640 3648 
Q 2931 3482 3084 3094 
Q 3238 2707 3238 2054 
L 3238 1651 
L 781 1651 
L 1030 1747 
Q 1005 1325 1053 1072 
Q 1101 819 1174 697 
Q 1248 576 1299 525 
Q 1389 448 1517 409 
Q 1645 371 1830 371 
Q 2016 371 2195 400 
Q 2374 429 2528 470 
Q 2682 512 2803 553 
Q 2925 595 3002 614 
L 3136 186 
Q 3078 160 2912 93 
Q 2746 26 2499 -32 
Q 2253 -90 1946 -90 
z
M 1030 1843 
L 781 2074 
L 2938 2118 
L 2694 1882 
Q 2701 2336 2678 2662 
Q 2656 2989 2547 3162 
Q 2502 3232 2393 3293 
Q 2285 3354 1971 3354 
Q 1645 3354 1481 3283 
Q 1318 3213 1229 3098 
Q 992 2784 1030 1843 
z
" transform="scale(0.015625)"/>
       <path id="Ruda-Regular-72" d="M 646 0 
L 646 3725 
L 986 3725 
L 1056 3347 
L 1094 3347 
Q 1094 3347 1193 3417 
Q 1293 3488 1453 3577 
Q 1613 3667 1795 3737 
Q 1978 3808 2138 3808 
Q 2234 3808 2317 3792 
Q 2400 3776 2400 3776 
L 2355 3264 
Q 2355 3264 2272 3270 
Q 2189 3277 2118 3277 
Q 1939 3277 1756 3225 
Q 1574 3174 1420 3097 
Q 1267 3021 1178 2950 
L 1178 0 
L 646 0 
z
" transform="scale(0.015625)"/>
       <path id="Ruda-Regular-20" transform="scale(0.015625)"/>
       <path id="Ruda-Regular-4c" d="M 672 0 
L 672 4448 
L 1210 4448 
L 1178 218 
L 934 461 
L 2784 474 
L 2784 0 
L 672 0 
z
" transform="scale(0.015625)"/>
       <path id="Ruda-Regular-6e" d="M 646 0 
L 646 3725 
L 1005 3725 
L 1062 3360 
L 1094 3360 
Q 1152 3392 1286 3465 
Q 1421 3539 1606 3619 
Q 1792 3699 2003 3753 
Q 2214 3808 2426 3808 
Q 2778 3808 2963 3632 
Q 3149 3456 3216 3155 
Q 3283 2854 3283 2477 
L 3283 0 
L 2752 0 
L 2752 2291 
Q 2752 2669 2739 2867 
Q 2726 3066 2656 3168 
Q 2605 3251 2509 3276 
Q 2413 3302 2304 3302 
Q 2074 3302 1834 3228 
Q 1594 3155 1414 3075 
Q 1235 2995 1178 2963 
L 1178 0 
L 646 0 
z
" transform="scale(0.015625)"/>
       <path id="Ruda-Regular-67" d="M 1619 -1146 
Q 1363 -1146 1139 -1120 
Q 915 -1094 748 -1059 
Q 582 -1024 486 -998 
Q 390 -973 390 -973 
L 454 -493 
Q 813 -557 1190 -605 
Q 1568 -653 1920 -653 
Q 2278 -653 2400 -595 
Q 2522 -538 2522 -416 
Q 2522 -346 2490 -288 
Q 2458 -230 2374 -169 
Q 2291 -109 2131 -32 
Q 1971 45 1709 154 
Q 1344 307 1181 374 
Q 1018 442 976 464 
Q 934 486 934 506 
Q 934 512 966 592 
Q 998 672 1049 787 
Q 1101 902 1152 1027 
Q 1203 1152 1242 1242 
Q 819 1325 560 1651 
Q 301 1978 301 2445 
Q 301 2970 505 3264 
Q 710 3558 1046 3683 
Q 1382 3808 1773 3808 
Q 1901 3808 2077 3801 
Q 2253 3795 2435 3782 
Q 2618 3770 2774 3757 
Q 2931 3744 3027 3737 
Q 3123 3731 3123 3731 
L 3123 3392 
L 2701 3328 
Q 2701 3334 2755 3196 
Q 2810 3059 2864 2857 
Q 2918 2656 2918 2464 
Q 2918 2099 2758 1814 
Q 2598 1530 2297 1366 
Q 1997 1203 1574 1203 
Q 1555 1101 1529 963 
Q 1504 826 1504 800 
Q 1504 787 1545 764 
Q 1587 742 1712 694 
Q 1837 646 2080 538 
Q 2451 384 2649 237 
Q 2848 90 2925 -51 
Q 3002 -192 3002 -333 
Q 3002 -589 2826 -771 
Q 2650 -954 2339 -1050 
Q 2029 -1146 1619 -1146 
z
M 1606 1664 
Q 1894 1664 2070 1734 
Q 2246 1805 2326 1981 
Q 2406 2157 2406 2477 
Q 2406 2842 2361 3062 
Q 2317 3283 2278 3302 
Q 2266 3315 2170 3324 
Q 2074 3334 1958 3337 
Q 1843 3341 1756 3344 
Q 1670 3347 1670 3347 
Q 1370 3347 1181 3276 
Q 992 3206 905 3020 
Q 819 2835 819 2477 
Q 819 2003 1001 1833 
Q 1184 1664 1606 1664 
z
" transform="scale(0.015625)"/>
       <path id="Ruda-Regular-74" d="M 1619 -90 
Q 1344 -90 1139 3 
Q 934 96 822 361 
Q 710 627 710 1152 
L 710 3091 
L 288 3091 
L 288 3424 
L 730 3514 
L 870 4384 
L 1242 4384 
L 1242 3507 
L 1984 3507 
L 1984 3078 
L 1242 3078 
L 1242 1114 
Q 1242 762 1261 602 
Q 1280 442 1360 400 
Q 1440 358 1632 358 
Q 1734 358 1811 361 
Q 1888 365 1933 368 
Q 1978 371 1978 371 
L 1978 -58 
Q 1978 -58 1882 -74 
Q 1786 -90 1619 -90 
z
" transform="scale(0.015625)"/>
       <path id="Ruda-Regular-68" d="M 544 0 
L 544 4819 
L 1075 4819 
L 1075 3315 
L 941 3437 
Q 1114 3514 1338 3600 
Q 1562 3686 1789 3747 
Q 2016 3808 2202 3808 
Q 2579 3808 2790 3654 
Q 3002 3501 3088 3206 
Q 3174 2912 3174 2477 
L 3174 0 
L 2643 0 
L 2643 2291 
Q 2643 2650 2617 2854 
Q 2592 3059 2515 3168 
Q 2451 3258 2358 3280 
Q 2266 3302 2131 3302 
Q 1978 3302 1805 3267 
Q 1632 3232 1469 3181 
Q 1306 3130 1181 3082 
Q 1056 3034 1005 3002 
L 1082 3123 
L 1075 0 
L 544 0 
z
" transform="scale(0.015625)"/>
      </defs>
      <use xlink:href="#Ruda-Regular-46"/>
      <use xlink:href="#Ruda-Regular-69" x="49.999985"/>
      <use xlink:href="#Ruda-Regular-62" x="79.499969"/>
      <use xlink:href="#Ruda-Regular-65" x="137.09996"/>
      <use xlink:href="#Ruda-Regular-72" x="194.199951"/>
      <use xlink:href="#Ruda-Regular-20" x="233.699936"/>
      <use xlink:href="#Ruda-Regular-4c" x="257.699921"/>
      <use xlink:href="#Ruda-Regular-65" x="302.299911"/>
      <use xlink:href="#Ruda-Regular-6e" x="359.399902"/>
      <use xlink:href="#Ruda-Regular-67" x="419.499893"/>
      <use xlink:href="#Ruda-Regular-74" x="471.599884"/>
      <use xlink:href="#Ruda-Regular-68" x="507.999878"/>
     </g>
    </g>
   </g>
   <g id="matplotlib.axis_2">
    <g id="ytick_1">
     <g id="line2d_15">
      <path d="M 76.52 311.2 
L 553.455 311.2 
" clip-path="url(#p5f28c3725c)" style="fill: none; stroke: #b0b0b0; stroke-width: 0.8; stroke-linecap: square"/>
     </g>
     <g id="line2d_16">
      <defs>
       <path id="m4c5aa775fc" d="M 0 0 
L -3.5 0 
" style="stroke: #000000; stroke-width: 0.8"/>
      </defs>
      <g>
       <use xlink:href="#m4c5aa775fc" x="76.52" y="311.2" style="stroke: #000000; stroke-width: 0.8"/>
      </g>
     </g>
     <g id="text_9">
      <!-- 0.000 -->
      <g transform="translate(33.929375 316.470781) scale(0.14 -0.14)">
       <defs>
        <path id="Ruda-Regular-2e" d="M 486 0 
L 486 570 
L 1139 570 
L 1139 0 
L 486 0 
z
" transform="scale(0.015625)"/>
       </defs>
       <use xlink:href="#Ruda-Regular-30"/>
       <use xlink:href="#Ruda-Regular-2e" x="57.199997"/>
       <use xlink:href="#Ruda-Regular-30" x="82.599991"/>
       <use xlink:href="#Ruda-Regular-30" x="139.799988"/>
       <use xlink:href="#Ruda-Regular-30" x="196.999985"/>
      </g>
     </g>
    </g>
    <g id="ytick_2">
     <g id="line2d_17">
      <path d="M 76.52 273.511664 
L 553.455 273.511664 
" clip-path="url(#p5f28c3725c)" style="fill: none; stroke: #b0b0b0; stroke-width: 0.8; stroke-linecap: square"/>
     </g>
     <g id="line2d_18">
      <g>
       <use xlink:href="#m4c5aa775fc" x="76.52" y="273.511664" style="stroke: #000000; stroke-width: 0.8"/>
      </g>
     </g>
     <g id="text_10">
      <!-- 0.002 -->
      <g transform="translate(34.377813 278.782445) scale(0.14 -0.14)">
       <use xlink:href="#Ruda-Regular-30"/>
       <use xlink:href="#Ruda-Regular-2e" x="57.199997"/>
       <use xlink:href="#Ruda-Regular-30" x="82.599991"/>
       <use xlink:href="#Ruda-Regular-30" x="139.799988"/>
       <use xlink:href="#Ruda-Regular-32" x="196.999985"/>
      </g>
     </g>
    </g>
    <g id="ytick_3">
     <g id="line2d_19">
      <path d="M 76.52 235.823328 
L 553.455 235.823328 
" clip-path="url(#p5f28c3725c)" style="fill: none; stroke: #b0b0b0; stroke-width: 0.8; stroke-linecap: square"/>
     </g>
     <g id="line2d_20">
      <g>
       <use xlink:href="#m4c5aa775fc" x="76.52" y="235.823328" style="stroke: #000000; stroke-width: 0.8"/>
      </g>
     </g>
     <g id="text_11">
      <!-- 0.004 -->
      <g transform="translate(34.419375 241.094109) scale(0.14 -0.14)">
       <defs>
        <path id="Ruda-Regular-34" d="M 2176 0 
L 2195 1037 
L 186 1037 
L 186 1440 
L 1197 4518 
L 1722 4448 
L 755 1517 
L 755 1485 
L 2195 1510 
L 2317 3232 
L 2714 3232 
L 2714 1510 
L 3123 1523 
L 3123 1037 
L 2714 1037 
L 2720 0 
L 2176 0 
z
" transform="scale(0.015625)"/>
       </defs>
       <use xlink:href="#Ruda-Regular-30"/>
       <use xlink:href="#Ruda-Regular-2e" x="57.199997"/>
       <use xlink:href="#Ruda-Regular-30" x="82.599991"/>
       <use xlink:href="#Ruda-Regular-30" x="139.799988"/>
       <use xlink:href="#Ruda-Regular-34" x="196.999985"/>
      </g>
     </g>
    </g>
    <g id="ytick_4">
     <g id="line2d_21">
      <path d="M 76.52 198.134992 
L 553.455 198.134992 
" clip-path="url(#p5f28c3725c)" style="fill: none; stroke: #b0b0b0; stroke-width: 0.8; stroke-linecap: square"/>
     </g>
     <g id="line2d_22">
      <g>
       <use xlink:href="#m4c5aa775fc" x="76.52" y="198.134992" style="stroke: #000000; stroke-width: 0.8"/>
      </g>
     </g>
     <g id="text_12">
      <!-- 0.006 -->
      <g transform="translate(34.209375 203.405773) scale(0.14 -0.14)">
       <defs>
        <path id="Ruda-Regular-36" d="M 1798 -83 
Q 1357 -83 1040 125 
Q 723 333 553 816 
Q 384 1299 384 2112 
Q 384 2842 515 3312 
Q 646 3782 873 4051 
Q 1101 4320 1401 4425 
Q 1702 4531 2035 4531 
Q 2304 4531 2502 4489 
Q 2701 4448 2813 4406 
Q 2925 4365 2925 4365 
L 2803 3910 
Q 2803 3910 2726 3929 
Q 2650 3949 2525 3977 
Q 2400 4006 2243 4025 
Q 2086 4045 1926 4045 
Q 1696 4045 1549 3993 
Q 1402 3942 1293 3834 
Q 1158 3693 1072 3411 
Q 986 3130 960 2618 
Q 960 2618 1059 2630 
Q 1158 2643 1315 2652 
Q 1472 2662 1638 2662 
Q 2099 2662 2438 2537 
Q 2778 2413 2963 2125 
Q 3149 1837 3149 1344 
Q 3149 653 2787 285 
Q 2426 -83 1798 -83 
z
M 1837 371 
Q 2285 371 2451 585 
Q 2618 800 2618 1325 
Q 2618 1651 2550 1843 
Q 2483 2035 2297 2118 
Q 2112 2202 1766 2202 
Q 1549 2202 1363 2179 
Q 1178 2157 1062 2134 
Q 947 2112 947 2112 
L 947 1600 
Q 947 1242 995 1024 
Q 1043 806 1107 700 
Q 1171 595 1210 550 
Q 1274 493 1414 432 
Q 1555 371 1837 371 
z
" transform="scale(0.015625)"/>
       </defs>
       <use xlink:href="#Ruda-Regular-30"/>
       <use xlink:href="#Ruda-Regular-2e" x="57.199997"/>
       <use xlink:href="#Ruda-Regular-30" x="82.599991"/>
       <use xlink:href="#Ruda-Regular-30" x="139.799988"/>
       <use xlink:href="#Ruda-Regular-36" x="196.999985"/>
      </g>
     </g>
    </g>
    <g id="ytick_5">
     <g id="line2d_23">
      <path d="M 76.52 160.446656 
L 553.455 160.446656 
" clip-path="url(#p5f28c3725c)" style="fill: none; stroke: #b0b0b0; stroke-width: 0.8; stroke-linecap: square"/>
     </g>
     <g id="line2d_24">
      <g>
       <use xlink:href="#m4c5aa775fc" x="76.52" y="160.446656" style="stroke: #000000; stroke-width: 0.8"/>
      </g>
     </g>
     <g id="text_13">
      <!-- 0.008 -->
      <g transform="translate(34.377813 165.717437) scale(0.14 -0.14)">
       <defs>
        <path id="Ruda-Regular-38" d="M 1702 -83 
Q 1242 -83 928 105 
Q 614 294 457 595 
Q 301 896 301 1216 
Q 301 1498 413 1725 
Q 525 1952 697 2112 
Q 870 2272 1043 2342 
Q 806 2515 620 2774 
Q 435 3034 435 3418 
Q 435 3904 761 4217 
Q 1088 4531 1722 4531 
Q 2157 4531 2445 4380 
Q 2733 4230 2873 3977 
Q 3014 3725 3014 3411 
Q 3014 2982 2819 2720 
Q 2624 2458 2342 2298 
Q 2509 2202 2694 2061 
Q 2880 1920 3014 1705 
Q 3149 1491 3149 1165 
Q 3149 838 2979 553 
Q 2810 269 2486 93 
Q 2163 -83 1702 -83 
z
M 1722 378 
Q 2163 378 2364 566 
Q 2566 755 2566 1088 
Q 2566 1344 2467 1517 
Q 2368 1690 2144 1824 
Q 1920 1958 1542 2086 
Q 1229 1965 1056 1776 
Q 883 1587 883 1165 
Q 883 947 960 768 
Q 1037 589 1222 483 
Q 1408 378 1722 378 
z
M 1837 2515 
Q 2138 2624 2304 2829 
Q 2470 3034 2470 3405 
Q 2470 3712 2307 3901 
Q 2144 4090 1728 4090 
Q 1293 4090 1133 3920 
Q 973 3750 973 3475 
Q 973 3142 1171 2921 
Q 1370 2701 1837 2515 
z
" transform="scale(0.015625)"/>
       </defs>
       <use xlink:href="#Ruda-Regular-30"/>
       <use xlink:href="#Ruda-Regular-2e" x="57.199997"/>
       <use xlink:href="#Ruda-Regular-30" x="82.599991"/>
       <use xlink:href="#Ruda-Regular-30" x="139.799988"/>
       <use xlink:href="#Ruda-Regular-38" x="196.999985"/>
      </g>
     </g>
    </g>
    <g id="ytick_6">
     <g id="line2d_25">
      <path d="M 76.52 122.75832 
L 553.455 122.75832 
" clip-path="url(#p5f28c3725c)" style="fill: none; stroke: #b0b0b0; stroke-width: 0.8; stroke-linecap: square"/>
     </g>
     <g id="line2d_26">
      <g>
       <use xlink:href="#m4c5aa775fc" x="76.52" y="122.75832" style="stroke: #000000; stroke-width: 0.8"/>
      </g>
     </g>
     <g id="text_14">
      <!-- 0.010 -->
      <g transform="translate(34.839375 128.029101) scale(0.14 -0.14)">
       <use xlink:href="#Ruda-Regular-30"/>
       <use xlink:href="#Ruda-Regular-2e" x="57.199997"/>
       <use xlink:href="#Ruda-Regular-30" x="82.599991"/>
       <use xlink:href="#Ruda-Regular-31" x="139.799988"/>
       <use xlink:href="#Ruda-Regular-30" x="190.499985"/>
      </g>
     </g>
    </g>
    <g id="ytick_7">
     <g id="line2d_27">
      <path d="M 76.52 85.069984 
L 553.455 85.069984 
" clip-path="url(#p5f28c3725c)" style="fill: none; stroke: #b0b0b0; stroke-width: 0.8; stroke-linecap: square"/>
     </g>
     <g id="line2d_28">
      <g>
       <use xlink:href="#m4c5aa775fc" x="76.52" y="85.069984" style="stroke: #000000; stroke-width: 0.8"/>
      </g>
     </g>
     <g id="text_15">
      <!-- 0.012 -->
      <g transform="translate(35.287813 90.340765) scale(0.14 -0.14)">
       <use xlink:href="#Ruda-Regular-30"/>
       <use xlink:href="#Ruda-Regular-2e" x="57.199997"/>
       <use xlink:href="#Ruda-Regular-30" x="82.599991"/>
       <use xlink:href="#Ruda-Regular-31" x="139.799988"/>
       <use xlink:href="#Ruda-Regular-32" x="190.499985"/>
      </g>
     </g>
    </g>
    <g id="ytick_8">
     <g id="line2d_29">
      <path d="M 76.52 47.381648 
L 553.455 47.381648 
" clip-path="url(#p5f28c3725c)" style="fill: none; stroke: #b0b0b0; stroke-width: 0.8; stroke-linecap: square"/>
     </g>
     <g id="line2d_30">
      <g>
       <use xlink:href="#m4c5aa775fc" x="76.52" y="47.381648" style="stroke: #000000; stroke-width: 0.8"/>
      </g>
     </g>
     <g id="text_16">
      <!-- 0.014 -->
      <g transform="translate(35.329375 52.652429) scale(0.14 -0.14)">
       <use xlink:href="#Ruda-Regular-30"/>
       <use xlink:href="#Ruda-Regular-2e" x="57.199997"/>
       <use xlink:href="#Ruda-Regular-30" x="82.599991"/>
       <use xlink:href="#Ruda-Regular-31" x="139.799988"/>
       <use xlink:href="#Ruda-Regular-34" x="190.499985"/>
      </g>
     </g>
    </g>
    <g id="text_17">
     <!-- Count -->
     <g transform="translate(26.610625 188.239063) rotate(-90) scale(0.2 -0.2)">
      <defs>
       <path id="Ruda-Regular-43" d="M 1997 -90 
Q 1542 -90 1196 131 
Q 851 352 656 851 
Q 461 1350 461 2176 
Q 461 2906 585 3370 
Q 710 3834 931 4090 
Q 1152 4346 1453 4442 
Q 1754 4538 2106 4538 
Q 2259 4538 2470 4522 
Q 2682 4506 2880 4483 
Q 3078 4461 3181 4435 
L 3117 3974 
Q 3059 3981 2931 3993 
Q 2803 4006 2649 4019 
Q 2496 4032 2355 4041 
Q 2214 4051 2138 4051 
Q 1824 4051 1635 4019 
Q 1446 3987 1357 3878 
Q 1274 3776 1197 3577 
Q 1120 3379 1075 3036 
Q 1030 2694 1030 2157 
Q 1030 1478 1161 1072 
Q 1293 666 1421 538 
Q 1510 448 1638 413 
Q 1766 378 1926 378 
Q 2170 378 2397 429 
Q 2624 480 2800 550 
Q 2976 621 3078 672 
Q 3181 723 3181 723 
L 3366 301 
Q 3366 301 3267 243 
Q 3168 186 2989 106 
Q 2810 26 2557 -32 
Q 2304 -90 1997 -90 
z
" transform="scale(0.015625)"/>
       <path id="Ruda-Regular-6f" d="M 1843 -83 
Q 1312 -83 1008 153 
Q 704 390 576 825 
Q 448 1261 448 1862 
Q 448 2464 576 2899 
Q 704 3334 1008 3571 
Q 1312 3808 1843 3808 
Q 2374 3808 2678 3571 
Q 2982 3334 3110 2899 
Q 3238 2464 3238 1862 
Q 3238 1261 3110 825 
Q 2982 390 2678 153 
Q 2374 -83 1843 -83 
z
M 1843 378 
Q 2086 378 2249 435 
Q 2413 493 2512 646 
Q 2611 800 2652 1094 
Q 2694 1389 2694 1862 
Q 2694 2336 2652 2630 
Q 2611 2925 2512 3081 
Q 2413 3238 2249 3292 
Q 2086 3347 1843 3347 
Q 1600 3347 1437 3292 
Q 1274 3238 1174 3081 
Q 1075 2925 1030 2630 
Q 986 2336 986 1862 
Q 986 1389 1030 1094 
Q 1075 800 1174 646 
Q 1274 493 1437 435 
Q 1600 378 1843 378 
z
" transform="scale(0.015625)"/>
       <path id="Ruda-Regular-75" d="M 1498 -83 
Q 1242 -83 1027 41 
Q 813 166 688 454 
Q 563 742 563 1248 
L 563 3725 
L 1094 3725 
L 1094 1446 
Q 1094 1094 1113 870 
Q 1133 646 1184 557 
Q 1229 486 1328 454 
Q 1427 422 1555 422 
Q 1843 422 2128 534 
Q 2413 646 2662 762 
L 2662 3725 
L 3194 3725 
L 3194 0 
L 2835 0 
L 2771 358 
L 2733 358 
Q 2637 307 2445 201 
Q 2253 96 2009 6 
Q 1766 -83 1498 -83 
z
" transform="scale(0.015625)"/>
      </defs>
      <use xlink:href="#Ruda-Regular-43"/>
      <use xlink:href="#Ruda-Regular-6f" x="58.299988"/>
      <use xlink:href="#Ruda-Regular-75" x="115.899979"/>
      <use xlink:href="#Ruda-Regular-6e" x="175.899963"/>
      <use xlink:href="#Ruda-Regular-74" x="235.999954"/>
     </g>
    </g>
   </g>
   <g id="patch_23">
    <path d="M 76.52 311.2 
L 76.52 10.8 
" style="fill: none; stroke: #000000; stroke-width: 0.8; stroke-linejoin: miter; stroke-linecap: square"/>
   </g>
   <g id="patch_24">
    <path d="M 553.455 311.2 
L 553.455 10.8 
" style="fill: none; stroke: #000000; stroke-width: 0.8; stroke-linejoin: miter; stroke-linecap: square"/>
   </g>
   <g id="patch_25">
    <path d="M 76.52 311.2 
L 553.455 311.2 
" style="fill: none; stroke: #000000; stroke-width: 0.8; stroke-linejoin: miter; stroke-linecap: square"/>
   </g>
   <g id="patch_26">
    <path d="M 76.52 10.8 
L 553.455 10.8 
" style="fill: none; stroke: #000000; stroke-width: 0.8; stroke-linejoin: miter; stroke-linecap: square"/>
   </g>
   <g id="legend_1">
    <g id="patch_27">
     <path d="M 357.831563 50.976562 
L 540.855 50.976562 
Q 544.455 50.976562 544.455 47.376562 
L 544.455 23.4 
Q 544.455 19.8 540.855 19.8 
L 357.831563 19.8 
Q 354.231562 19.8 354.231562 23.4 
L 354.231562 47.376562 
Q 354.231562 50.976562 357.831563 50.976562 
z
" style="fill: #ffffff; opacity: 0.8; stroke: #cccccc; stroke-linejoin: miter"/>
    </g>
    <g id="patch_28">
     <path d="M 361.431562 40.553437 
L 397.431562 40.553437 
L 397.431562 27.953437 
L 361.431562 27.953437 
z
" style="fill: #477081"/>
    </g>
    <g id="text_18">
     <!-- Average: 52 nm -->
     <g transform="translate(411.831562 40.553437) scale(0.18 -0.18)">
      <defs>
       <path id="Ruda-Regular-41" d="M 32 0 
L 1242 4448 
L 1997 4448 
L 3206 0 
L 2656 0 
L 2317 1331 
L 2586 1178 
L 666 1178 
L 922 1331 
L 582 0 
L 32 0 
z
M 934 1402 
L 755 1651 
L 2483 1651 
L 2304 1402 
L 1581 4211 
L 1882 3974 
L 1357 3974 
L 1658 4211 
L 934 1402 
z
" transform="scale(0.015625)"/>
       <path id="Ruda-Regular-76" d="M 1171 0 
L 90 3725 
L 659 3725 
L 1498 454 
L 1536 454 
L 2368 3725 
L 2938 3725 
L 1862 0 
L 1171 0 
z
" transform="scale(0.015625)"/>
       <path id="Ruda-Regular-61" d="M 1350 -83 
Q 1056 -83 829 54 
Q 602 192 474 457 
Q 346 723 346 1101 
Q 346 1555 528 1814 
Q 710 2074 1043 2182 
Q 1376 2291 1818 2291 
L 2496 2291 
Q 2496 2611 2480 2851 
Q 2464 3091 2374 3206 
Q 2310 3296 2198 3321 
Q 2086 3347 1965 3347 
Q 1715 3347 1475 3299 
Q 1235 3251 1040 3187 
Q 845 3123 729 3075 
Q 614 3027 614 3027 
L 429 3443 
Q 429 3443 550 3497 
Q 672 3552 877 3625 
Q 1082 3699 1334 3753 
Q 1587 3808 1856 3808 
Q 2291 3808 2547 3638 
Q 2803 3469 2915 3165 
Q 3027 2861 3027 2451 
L 3027 0 
L 2682 0 
L 2605 390 
L 2566 390 
Q 2502 346 2384 266 
Q 2266 186 2109 106 
Q 1952 26 1760 -28 
Q 1568 -83 1350 -83 
z
M 1440 384 
Q 1670 384 1878 451 
Q 2086 518 2249 601 
Q 2413 685 2496 736 
L 2496 1798 
Q 2413 1811 2246 1827 
Q 2080 1843 1811 1843 
Q 1216 1843 1075 1722 
Q 992 1658 947 1494 
Q 902 1331 902 1101 
Q 902 723 1027 553 
Q 1152 384 1440 384 
z
" transform="scale(0.015625)"/>
       <path id="Ruda-Regular-3a" d="M 659 2938 
L 659 3507 
L 1350 3507 
L 1350 2938 
L 659 2938 
z
M 659 0 
L 659 570 
L 1350 570 
L 1350 0 
L 659 0 
z
" transform="scale(0.015625)"/>
       <path id="Ruda-Regular-6d" d="M 646 0 
L 646 3725 
L 1005 3725 
L 1062 3360 
L 1088 3360 
Q 1146 3392 1280 3465 
Q 1414 3539 1593 3619 
Q 1773 3699 1971 3753 
Q 2170 3808 2362 3808 
Q 2637 3808 2838 3680 
Q 3040 3552 3123 3328 
Q 3392 3494 3721 3651 
Q 4051 3808 4422 3808 
Q 4768 3808 4960 3641 
Q 5152 3475 5229 3171 
Q 5306 2867 5306 2451 
L 5306 0 
L 4774 0 
L 4774 2272 
Q 4774 2573 4761 2809 
Q 4749 3046 4678 3155 
Q 4614 3258 4502 3280 
Q 4390 3302 4320 3302 
Q 4147 3302 3964 3254 
Q 3782 3206 3622 3139 
Q 3462 3072 3356 3014 
Q 3251 2957 3219 2938 
Q 3232 2835 3238 2720 
Q 3245 2605 3245 2477 
L 3245 0 
L 2714 0 
L 2714 2291 
Q 2714 2656 2698 2854 
Q 2682 3053 2611 3162 
Q 2547 3251 2451 3276 
Q 2355 3302 2266 3302 
Q 2048 3302 1830 3235 
Q 1613 3168 1440 3088 
Q 1267 3008 1178 2970 
L 1178 0 
L 646 0 
z
" transform="scale(0.015625)"/>
      </defs>
      <use xlink:href="#Ruda-Regular-41"/>
      <use xlink:href="#Ruda-Regular-76" x="50.599991"/>
      <use xlink:href="#Ruda-Regular-65" x="97.999985"/>
      <use xlink:href="#Ruda-Regular-72" x="155.099976"/>
      <use xlink:href="#Ruda-Regular-61" x="194.59996"/>
      <use xlink:href="#Ruda-Regular-67" x="251.499954"/>
      <use xlink:href="#Ruda-Regular-65" x="303.599945"/>
      <use xlink:href="#Ruda-Regular-3a" x="360.699936"/>
      <use xlink:href="#Ruda-Regular-20" x="392.09993"/>
      <use xlink:href="#Ruda-Regular-35" x="416.099915"/>
      <use xlink:href="#Ruda-Regular-32" x="466.999908"/>
      <use xlink:href="#Ruda-Regular-20" x="520.999893"/>
      <use xlink:href="#Ruda-Regular-6e" x="544.999878"/>
      <use xlink:href="#Ruda-Regular-6d" x="605.099869"/>
     </g>
    </g>
   </g>
  </g>
  <g id="axes_2">
   <g id="patch_29">
    <path d="M 76.52 665.8 
L 553.455 665.8 
L 553.455 365.4 
L 76.52 365.4 
L 76.52 665.8 
z
" style="fill: none"/>
   </g>
   <g id="patch_30">
    <path d="M 76.52 665.8 
L 122.389787 665.8 
L 122.389787 379.704762 
L 76.52 379.704762 
z
" clip-path="url(#ped139b980f)" style="fill: #477081"/>
   </g>
   <g id="patch_31">
    <path d="M 122.389787 665.8 
L 168.259574 665.8 
L 168.259574 593.862758 
L 122.389787 593.862758 
z
" clip-path="url(#ped139b980f)" style="fill: #477081"/>
   </g>
   <g id="patch_32">
    <path d="M 168.259574 665.8 
L 214.12936 665.8 
L 214.12936 640.994055 
L 168.259574 640.994055 
z
" clip-path="url(#ped139b980f)" style="fill: #477081"/>
   </g>
   <g id="patch_33">
    <path d="M 214.12936 665.8 
L 259.999147 665.8 
L 259.999147 656.704487 
L 214.12936 656.704487 
z
" clip-path="url(#ped139b980f)" style="fill: #477081"/>
   </g>
   <g id="patch_34">
    <path d="M 259.999147 665.8 
L 305.868934 665.8 
L 305.868934 659.185081 
L 259.999147 659.185081 
z
" clip-path="url(#ped139b980f)" style="fill: #477081"/>
   </g>
   <g id="patch_35">
    <path d="M 305.868934 665.8 
L 351.738721 665.8 
L 351.738721 664.14627 
L 305.868934 664.14627 
z
" clip-path="url(#ped139b980f)" style="fill: #477081"/>
   </g>
   <g id="patch_36">
    <path d="M 351.738721 665.8 
L 397.608508 665.8 
L 397.608508 664.973135 
L 351.738721 664.973135 
z
" clip-path="url(#ped139b980f)" style="fill: #477081"/>
   </g>
   <g id="patch_37">
    <path d="M 397.608508 665.8 
L 443.478294 665.8 
L 443.478294 665.8 
L 397.608508 665.8 
z
" clip-path="url(#ped139b980f)" style="fill: #477081"/>
   </g>
   <g id="patch_38">
    <path d="M 443.478294 665.8 
L 489.348081 665.8 
L 489.348081 664.973135 
L 443.478294 664.973135 
z
" clip-path="url(#ped139b980f)" style="fill: #477081"/>
   </g>
   <g id="patch_39">
    <path d="M 489.348081 665.8 
L 535.217868 665.8 
L 535.217868 665.8 
L 489.348081 665.8 
z
" clip-path="url(#ped139b980f)" style="fill: #477081"/>
   </g>
   <g id="patch_40">
    <path d="M 535.217868 665.8 
L 581.087655 665.8 
L 581.087655 665.8 
L 535.217868 665.8 
z
" clip-path="url(#ped139b980f)" style="fill: #477081"/>
   </g>
   <g id="patch_41">
    <path d="M 581.087655 665.8 
L 626.957442 665.8 
L 626.957442 665.8 
L 581.087655 665.8 
z
" clip-path="url(#ped139b980f)" style="fill: #477081"/>
   </g>
   <g id="patch_42">
    <path d="M 626.957442 665.8 
L 672.827228 665.8 
L 672.827228 665.8 
L 626.957442 665.8 
z
" clip-path="url(#ped139b980f)" style="fill: #477081"/>
   </g>
   <g id="patch_43">
    <path d="M 672.827228 665.8 
L 718.697015 665.8 
L 718.697015 665.8 
L 672.827228 665.8 
z
" clip-path="url(#ped139b980f)" style="fill: #477081"/>
   </g>
   <g id="patch_44">
    <path d="M 718.697015 665.8 
L 764.566802 665.8 
L 764.566802 665.8 
L 718.697015 665.8 
z
" clip-path="url(#ped139b980f)" style="fill: #477081"/>
   </g>
   <g id="patch_45">
    <path d="M 764.566802 665.8 
L 810.436589 665.8 
L 810.436589 665.8 
L 764.566802 665.8 
z
" clip-path="url(#ped139b980f)" style="fill: #477081"/>
   </g>
   <g id="patch_46">
    <path d="M 810.436589 665.8 
L 856.306376 665.8 
L 856.306376 665.8 
L 810.436589 665.8 
z
" clip-path="url(#ped139b980f)" style="fill: #477081"/>
   </g>
   <g id="patch_47">
    <path d="M 856.306376 665.8 
L 902.176162 665.8 
L 902.176162 665.8 
L 856.306376 665.8 
z
" clip-path="url(#ped139b980f)" style="fill: #477081"/>
   </g>
   <g id="patch_48">
    <path d="M 902.176162 665.8 
L 948.045949 665.8 
L 948.045949 665.8 
L 902.176162 665.8 
z
" clip-path="url(#ped139b980f)" style="fill: #477081"/>
   </g>
   <g id="patch_49">
    <path d="M 948.045949 665.8 
L 993.915736 665.8 
L 993.915736 664.973135 
L 948.045949 664.973135 
z
" clip-path="url(#ped139b980f)" style="fill: #477081"/>
   </g>
   <g id="matplotlib.axis_3">
    <g id="xtick_8">
     <g id="line2d_31">
      <path d="M 76.52 665.8 
L 76.52 365.4 
" clip-path="url(#ped139b980f)" style="fill: none; stroke: #b0b0b0; stroke-width: 0.8; stroke-linecap: square"/>
     </g>
     <g id="line2d_32">
      <g>
       <use xlink:href="#mc3b5faf18f" x="76.52" y="665.8" style="stroke: #000000; stroke-width: 0.8"/>
      </g>
     </g>
     <g id="text_19">
      <!-- 0 -->
      <g transform="translate(72.515781 683.341563) scale(0.14 -0.14)">
       <use xlink:href="#Ruda-Regular-30"/>
      </g>
     </g>
    </g>
    <g id="xtick_9">
     <g id="line2d_33">
      <path d="M 156.009167 665.8 
L 156.009167 365.4 
" clip-path="url(#ped139b980f)" style="fill: none; stroke: #b0b0b0; stroke-width: 0.8; stroke-linecap: square"/>
     </g>
     <g id="line2d_34">
      <g>
       <use xlink:href="#mc3b5faf18f" x="156.009167" y="665.8" style="stroke: #000000; stroke-width: 0.8"/>
      </g>
     </g>
     <g id="text_20">
      <!-- 50 -->
      <g transform="translate(148.44151 683.341563) scale(0.14 -0.14)">
       <use xlink:href="#Ruda-Regular-35"/>
       <use xlink:href="#Ruda-Regular-30" x="50.899994"/>
      </g>
     </g>
    </g>
    <g id="xtick_10">
     <g id="line2d_35">
      <path d="M 235.498333 665.8 
L 235.498333 365.4 
" clip-path="url(#ped139b980f)" style="fill: none; stroke: #b0b0b0; stroke-width: 0.8; stroke-linecap: square"/>
     </g>
     <g id="line2d_36">
      <g>
       <use xlink:href="#mc3b5faf18f" x="235.498333" y="665.8" style="stroke: #000000; stroke-width: 0.8"/>
      </g>
     </g>
     <g id="text_21">
      <!-- 100 -->
      <g transform="translate(223.940677 683.341563) scale(0.14 -0.14)">
       <use xlink:href="#Ruda-Regular-31"/>
       <use xlink:href="#Ruda-Regular-30" x="50.699997"/>
       <use xlink:href="#Ruda-Regular-30" x="107.899994"/>
      </g>
     </g>
    </g>
    <g id="xtick_11">
     <g id="line2d_37">
      <path d="M 314.9875 665.8 
L 314.9875 365.4 
" clip-path="url(#ped139b980f)" style="fill: none; stroke: #b0b0b0; stroke-width: 0.8; stroke-linecap: square"/>
     </g>
     <g id="line2d_38">
      <g>
       <use xlink:href="#mc3b5faf18f" x="314.9875" y="665.8" style="stroke: #000000; stroke-width: 0.8"/>
      </g>
     </g>
     <g id="text_22">
      <!-- 150 -->
      <g transform="translate(303.870625 683.341563) scale(0.14 -0.14)">
       <use xlink:href="#Ruda-Regular-31"/>
       <use xlink:href="#Ruda-Regular-35" x="50.699997"/>
       <use xlink:href="#Ruda-Regular-30" x="101.599991"/>
      </g>
     </g>
    </g>
    <g id="xtick_12">
     <g id="line2d_39">
      <path d="M 394.476667 665.8 
L 394.476667 365.4 
" clip-path="url(#ped139b980f)" style="fill: none; stroke: #b0b0b0; stroke-width: 0.8; stroke-linecap: square"/>
     </g>
     <g id="line2d_40">
      <g>
       <use xlink:href="#mc3b5faf18f" x="394.476667" y="665.8" style="stroke: #000000; stroke-width: 0.8"/>
      </g>
     </g>
     <g id="text_23">
      <!-- 200 -->
      <g transform="translate(382.688229 683.341563) scale(0.14 -0.14)">
       <use xlink:href="#Ruda-Regular-32"/>
       <use xlink:href="#Ruda-Regular-30" x="53.999985"/>
       <use xlink:href="#Ruda-Regular-30" x="111.199982"/>
      </g>
     </g>
    </g>
    <g id="xtick_13">
     <g id="line2d_41">
      <path d="M 473.965833 665.8 
L 473.965833 365.4 
" clip-path="url(#ped139b980f)" style="fill: none; stroke: #b0b0b0; stroke-width: 0.8; stroke-linecap: square"/>
     </g>
     <g id="line2d_42">
      <g>
       <use xlink:href="#mc3b5faf18f" x="473.965833" y="665.8" style="stroke: #000000; stroke-width: 0.8"/>
      </g>
     </g>
     <g id="text_24">
      <!-- 250 -->
      <g transform="translate(462.618177 683.341563) scale(0.14 -0.14)">
       <use xlink:href="#Ruda-Regular-32"/>
       <use xlink:href="#Ruda-Regular-35" x="53.999985"/>
       <use xlink:href="#Ruda-Regular-30" x="104.899979"/>
      </g>
     </g>
    </g>
    <g id="xtick_14">
     <g id="line2d_43">
      <path d="M 553.455 665.8 
L 553.455 365.4 
" clip-path="url(#ped139b980f)" style="fill: none; stroke: #b0b0b0; stroke-width: 0.8; stroke-linecap: square"/>
     </g>
     <g id="line2d_44">
      <g>
       <use xlink:href="#mc3b5faf18f" x="553.455" y="665.8" style="stroke: #000000; stroke-width: 0.8"/>
      </g>
     </g>
     <g id="text_25">
      <!-- 300 -->
      <g transform="translate(541.631563 683.341563) scale(0.14 -0.14)">
       <use xlink:href="#Ruda-Regular-33"/>
       <use xlink:href="#Ruda-Regular-30" x="54.499985"/>
       <use xlink:href="#Ruda-Regular-30" x="111.699982"/>
      </g>
     </g>
    </g>
    <g id="text_26">
     <!-- Fiber Diameter -->
     <g transform="translate(246.089062 704.724063) scale(0.2 -0.2)">
      <defs>
       <path id="Ruda-Regular-44" d="M 1933 -90 
Q 1805 -90 1616 -80 
Q 1427 -70 1232 -54 
Q 1037 -38 883 -25 
Q 730 -13 672 -6 
L 672 4454 
Q 698 4454 838 4467 
Q 979 4480 1184 4496 
Q 1389 4512 1609 4525 
Q 1830 4538 2003 4538 
Q 2496 4538 2806 4355 
Q 3117 4173 3283 3856 
Q 3450 3539 3514 3132 
Q 3578 2726 3578 2278 
Q 3578 1395 3363 876 
Q 3149 358 2777 134 
Q 2406 -90 1933 -90 
z
M 1862 378 
Q 2208 378 2374 426 
Q 2541 474 2624 557 
Q 2714 646 2794 838 
Q 2874 1030 2925 1388 
Q 2976 1747 2976 2323 
Q 2976 2906 2896 3347 
Q 2816 3789 2637 3942 
Q 2573 4000 2435 4035 
Q 2298 4070 2016 4070 
Q 1760 4070 1523 4048 
Q 1286 4026 1114 4013 
L 1210 4269 
L 1210 198 
L 1094 461 
Q 1280 435 1459 406 
Q 1638 378 1862 378 
z
" transform="scale(0.015625)"/>
      </defs>
      <use xlink:href="#Ruda-Regular-46"/>
      <use xlink:href="#Ruda-Regular-69" x="49.999985"/>
      <use xlink:href="#Ruda-Regular-62" x="79.499969"/>
      <use xlink:href="#Ruda-Regular-65" x="137.09996"/>
      <use xlink:href="#Ruda-Regular-72" x="194.199951"/>
      <use xlink:href="#Ruda-Regular-20" x="233.699936"/>
      <use xlink:href="#Ruda-Regular-44" x="257.699921"/>
      <use xlink:href="#Ruda-Regular-69" x="320.799911"/>
      <use xlink:href="#Ruda-Regular-61" x="350.299896"/>
      <use xlink:href="#Ruda-Regular-6d" x="407.19989"/>
      <use xlink:href="#Ruda-Regular-65" x="498.899872"/>
      <use xlink:href="#Ruda-Regular-74" x="555.999863"/>
      <use xlink:href="#Ruda-Regular-65" x="592.399857"/>
      <use xlink:href="#Ruda-Regular-72" x="649.499847"/>
     </g>
    </g>
   </g>
   <g id="matplotlib.axis_4">
    <g id="ytick_9">
     <g id="line2d_45">
      <path d="M 76.52 665.8 
L 553.455 665.8 
" clip-path="url(#ped139b980f)" style="fill: none; stroke: #b0b0b0; stroke-width: 0.8; stroke-linecap: square"/>
     </g>
     <g id="line2d_46">
      <g>
       <use xlink:href="#m4c5aa775fc" x="76.52" y="665.8" style="stroke: #000000; stroke-width: 0.8"/>
      </g>
     </g>
     <g id="text_27">
      <!-- 0.000 -->
      <g transform="translate(33.929375 671.070781) scale(0.14 -0.14)">
       <use xlink:href="#Ruda-Regular-30"/>
       <use xlink:href="#Ruda-Regular-2e" x="57.199997"/>
       <use xlink:href="#Ruda-Regular-30" x="82.599991"/>
       <use xlink:href="#Ruda-Regular-30" x="139.799988"/>
       <use xlink:href="#Ruda-Regular-30" x="196.999985"/>
      </g>
     </g>
    </g>
    <g id="ytick_10">
     <g id="line2d_47">
      <path d="M 76.52 607.707204 
L 553.455 607.707204 
" clip-path="url(#ped139b980f)" style="fill: none; stroke: #b0b0b0; stroke-width: 0.8; stroke-linecap: square"/>
     </g>
     <g id="line2d_48">
      <g>
       <use xlink:href="#m4c5aa775fc" x="76.52" y="607.707204" style="stroke: #000000; stroke-width: 0.8"/>
      </g>
     </g>
     <g id="text_28">
      <!-- 0.005 -->
      <g transform="translate(34.810938 612.977985) scale(0.14 -0.14)">
       <use xlink:href="#Ruda-Regular-30"/>
       <use xlink:href="#Ruda-Regular-2e" x="57.199997"/>
       <use xlink:href="#Ruda-Regular-30" x="82.599991"/>
       <use xlink:href="#Ruda-Regular-30" x="139.799988"/>
       <use xlink:href="#Ruda-Regular-35" x="196.999985"/>
      </g>
     </g>
    </g>
    <g id="ytick_11">
     <g id="line2d_49">
      <path d="M 76.52 549.614408 
L 553.455 549.614408 
" clip-path="url(#ped139b980f)" style="fill: none; stroke: #b0b0b0; stroke-width: 0.8; stroke-linecap: square"/>
     </g>
     <g id="line2d_50">
      <g>
       <use xlink:href="#m4c5aa775fc" x="76.52" y="549.614408" style="stroke: #000000; stroke-width: 0.8"/>
      </g>
     </g>
     <g id="text_29">
      <!-- 0.010 -->
      <g transform="translate(34.839375 554.88519) scale(0.14 -0.14)">
       <use xlink:href="#Ruda-Regular-30"/>
       <use xlink:href="#Ruda-Regular-2e" x="57.199997"/>
       <use xlink:href="#Ruda-Regular-30" x="82.599991"/>
       <use xlink:href="#Ruda-Regular-31" x="139.799988"/>
       <use xlink:href="#Ruda-Regular-30" x="190.499985"/>
      </g>
     </g>
    </g>
    <g id="ytick_12">
     <g id="line2d_51">
      <path d="M 76.52 491.521613 
L 553.455 491.521613 
" clip-path="url(#ped139b980f)" style="fill: none; stroke: #b0b0b0; stroke-width: 0.8; stroke-linecap: square"/>
     </g>
     <g id="line2d_52">
      <g>
       <use xlink:href="#m4c5aa775fc" x="76.52" y="491.521613" style="stroke: #000000; stroke-width: 0.8"/>
      </g>
     </g>
     <g id="text_30">
      <!-- 0.015 -->
      <g transform="translate(35.720938 496.792394) scale(0.14 -0.14)">
       <use xlink:href="#Ruda-Regular-30"/>
       <use xlink:href="#Ruda-Regular-2e" x="57.199997"/>
       <use xlink:href="#Ruda-Regular-30" x="82.599991"/>
       <use xlink:href="#Ruda-Regular-31" x="139.799988"/>
       <use xlink:href="#Ruda-Regular-35" x="190.499985"/>
      </g>
     </g>
    </g>
    <g id="ytick_13">
     <g id="line2d_53">
      <path d="M 76.52 433.428817 
L 553.455 433.428817 
" clip-path="url(#ped139b980f)" style="fill: none; stroke: #b0b0b0; stroke-width: 0.8; stroke-linecap: square"/>
     </g>
     <g id="line2d_54">
      <g>
       <use xlink:href="#m4c5aa775fc" x="76.52" y="433.428817" style="stroke: #000000; stroke-width: 0.8"/>
      </g>
     </g>
     <g id="text_31">
      <!-- 0.020 -->
      <g transform="translate(34.377813 438.699598) scale(0.14 -0.14)">
       <use xlink:href="#Ruda-Regular-30"/>
       <use xlink:href="#Ruda-Regular-2e" x="57.199997"/>
       <use xlink:href="#Ruda-Regular-30" x="82.599991"/>
       <use xlink:href="#Ruda-Regular-32" x="139.799988"/>
       <use xlink:href="#Ruda-Regular-30" x="193.799973"/>
      </g>
     </g>
    </g>
    <g id="ytick_14">
     <g id="line2d_55">
      <path d="M 76.52 375.336021 
L 553.455 375.336021 
" clip-path="url(#ped139b980f)" style="fill: none; stroke: #b0b0b0; stroke-width: 0.8; stroke-linecap: square"/>
     </g>
     <g id="line2d_56">
      <g>
       <use xlink:href="#m4c5aa775fc" x="76.52" y="375.336021" style="stroke: #000000; stroke-width: 0.8"/>
      </g>
     </g>
     <g id="text_32">
      <!-- 0.025 -->
      <g transform="translate(35.259375 380.606802) scale(0.14 -0.14)">
       <use xlink:href="#Ruda-Regular-30"/>
       <use xlink:href="#Ruda-Regular-2e" x="57.199997"/>
       <use xlink:href="#Ruda-Regular-30" x="82.599991"/>
       <use xlink:href="#Ruda-Regular-32" x="139.799988"/>
       <use xlink:href="#Ruda-Regular-35" x="193.799973"/>
      </g>
     </g>
    </g>
    <g id="text_33">
     <!-- Count -->
     <g transform="translate(26.610625 542.839062) rotate(-90) scale(0.2 -0.2)">
      <use xlink:href="#Ruda-Regular-43"/>
      <use xlink:href="#Ruda-Regular-6f" x="58.299988"/>
      <use xlink:href="#Ruda-Regular-75" x="115.899979"/>
      <use xlink:href="#Ruda-Regular-6e" x="175.899963"/>
      <use xlink:href="#Ruda-Regular-74" x="235.999954"/>
     </g>
    </g>
   </g>
   <g id="patch_50">
    <path d="M 76.52 665.8 
L 76.52 365.4 
" style="fill: none; stroke: #000000; stroke-width: 0.8; stroke-linejoin: miter; stroke-linecap: square"/>
   </g>
   <g id="patch_51">
    <path d="M 553.455 665.8 
L 553.455 365.4 
" style="fill: none; stroke: #000000; stroke-width: 0.8; stroke-linejoin: miter; stroke-linecap: square"/>
   </g>
   <g id="patch_52">
    <path d="M 76.52 665.8 
L 553.455 665.8 
" style="fill: none; stroke: #000000; stroke-width: 0.8; stroke-linejoin: miter; stroke-linecap: square"/>
   </g>
   <g id="patch_53">
    <path d="M 76.52 365.4 
L 553.455 365.4 
" style="fill: none; stroke: #000000; stroke-width: 0.8; stroke-linejoin: miter; stroke-linecap: square"/>
   </g>
   <g id="legend_2">
    <g id="patch_54">
     <path d="M 357.274687 405.576563 
L 540.855 405.576563 
Q 544.455 405.576563 544.455 401.976562 
L 544.455 378 
Q 544.455 374.4 540.855 374.4 
L 357.274687 374.4 
Q 353.674687 374.4 353.674687 378 
L 353.674687 401.976562 
Q 353.674687 405.576563 357.274687 405.576563 
z
" style="fill: #ffffff; opacity: 0.8; stroke: #cccccc; stroke-linejoin: miter"/>
    </g>
    <g id="patch_55">
     <path d="M 360.874687 395.153437 
L 396.874687 395.153437 
L 396.874687 382.553437 
L 360.874687 382.553437 
z
" style="fill: #477081"/>
    </g>
    <g id="text_34">
     <!-- Average: 28 nm -->
     <g transform="translate(411.274687 395.153437) scale(0.18 -0.18)">
      <use xlink:href="#Ruda-Regular-41"/>
      <use xlink:href="#Ruda-Regular-76" x="50.599991"/>
      <use xlink:href="#Ruda-Regular-65" x="97.999985"/>
      <use xlink:href="#Ruda-Regular-72" x="155.099976"/>
      <use xlink:href="#Ruda-Regular-61" x="194.59996"/>
      <use xlink:href="#Ruda-Regular-67" x="251.499954"/>
      <use xlink:href="#Ruda-Regular-65" x="303.599945"/>
      <use xlink:href="#Ruda-Regular-3a" x="360.699936"/>
      <use xlink:href="#Ruda-Regular-20" x="392.09993"/>
      <use xlink:href="#Ruda-Regular-32" x="416.099915"/>
      <use xlink:href="#Ruda-Regular-38" x="470.099899"/>
      <use xlink:href="#Ruda-Regular-20" x="524.099884"/>
      <use xlink:href="#Ruda-Regular-6e" x="548.099869"/>
      <use xlink:href="#Ruda-Regular-6d" x="608.19986"/>
     </g>
    </g>
   </g>
  </g>
 </g>
 <defs>
  <clipPath id="p5f28c3725c">
   <rect x="76.52" y="10.8" width="476.935" height="300.4"/>
  </clipPath>
  <clipPath id="ped139b980f">
   <rect x="76.52" y="365.4" width="476.935" height="300.4"/>
  </clipPath>
 </defs>
</svg>
